<svg xmlns="http://www.w3.org/2000/svg" xmlns:xlink="http://www.w3.org/1999/xlink" contentStyleType="text/css" height="868px" preserveAspectRatio="none" style="width:1042px;height:868px;background:#FFFFFF;" version="1.1" viewBox="0 0 1042 868" width="1042px" zoomAndPan="magnify"><title>Scheduler-Hauptschleife</title><defs/><g><text fill="#000000" font-family="sans-serif" font-size="14" font-weight="bold" lengthAdjust="spacing" textLength="141.5654" x="448.9554" y="34.5332">Scheduler-Hauptschleife</text><ellipse cx="383.0477" cy="58.6094" fill="#222222" rx="10" ry="10" style="stroke:#222222;stroke-width:1;"/><rect fill="#F1F1F1" height="35.0938" rx="12.5" ry="12.5" style="stroke:#181818;stroke-width:0.5;" width="114.0547" x="326.0204" y="88.6094"/><text fill="#000000" font-family="sans-serif" font-size="12" lengthAdjust="spacing" textLength="94.0547" x="336.0204" y="111.0664">Scheduler gestartet</text><path d="M483.0878,183.8984 L483.0878,201.25 L463.0878,205.25 L483.0878,209.25 L483.0878,226.6016 A0,0 0 0 0 483.0878,226.6016 L689.0712,226.6016 A0,0 0 0 0 689.0712,226.6016 L689.0712,193.8984 L679.0712,183.8984 L483.0878,183.8984 A0,0 0 0 0 483.0878,183.8984 " fill="#FEFFDD" style="stroke:#181818;stroke-width:0.5;"/><path d="M679.0712,183.8984 L679.0712,193.8984 L689.0712,193.8984 L679.0712,183.8984 " fill="#FEFFDD" style="stroke:#181818;stroke-width:0.5;"/><text fill="#000000" font-family="sans-serif" font-size="13" lengthAdjust="spacing" textLength="67.1772" x="489.0878" y="202.3936">FIFO-Reihenfolge.</text><text fill="#000000" font-family="sans-serif" font-size="13" lengthAdjust="spacing" textLength="184.9834" x="489.0878" y="218.7451">Ausnahme unterbricht Verarbeitung.</text><rect fill="#F1F1F1" height="35.0938" rx="12.5" ry="12.5" style="stroke:#181818;stroke-width:0.5;" width="160.0801" x="303.0077" y="187.7031"/><text fill="#000000" font-family="sans-serif" font-size="12" lengthAdjust="spacing" textLength="43.3477" x="313.0077" y="210.1602">Verarbeite</text><text fill="#000000" font-family="sans-serif" font-size="12" font-weight="bold" lengthAdjust="spacing" textLength="56.6953" x="359.6893" y="210.1602">Microtask</text><text fill="#000000" font-family="sans-serif" font-size="12" lengthAdjust="spacing" textLength="33.3691" x="419.7186" y="210.1602">-Warteschlange</text><polygon fill="#F1F1F1" points="322.5048,246.6016,443.5907,246.6016,455.5907,258.6016,443.5907,270.6016,322.5048,270.6016,310.5048,258.6016,322.5048,246.6016" style="stroke:#181818;stroke-width:0.5;"/><text fill="#000000" font-family="sans-serif" font-size="11" lengthAdjust="spacing" textLength="121.0859" x="322.5048" y="263.1025">coroutine_queue leer?</text><text fill="#000000" font-family="sans-serif" font-size="11" lengthAdjust="spacing" textLength="17.1177" x="293.3871" y="256.1846">ja</text><text fill="#000000" font-family="sans-serif" font-size="11" lengthAdjust="spacing" textLength="12.2354" x="455.5907" y="256.1846">nein</text><path d="M248.7715,280.6016 L248.7715,297.9531 L228.7715,301.9531 L248.7715,305.9531 L248.7715,323.3047 A0,0 0 0 0 248.7715,323.3047 L357.2041,323.3047 A0,0 0 0 0 357.2041,323.3047 L357.2041,290.6016 L347.2041,280.6016 L248.7715,280.6016 A0,0 0 0 0 248.7715,280.6016 " fill="#FEFFDD" style="stroke:#181818;stroke-width:0.5;"/><path d="M347.2041,280.6016 L347.2041,290.6016 L357.2041,290.6016 L347.2041,280.6016 " fill="#FEFFDD" style="stroke:#181818;stroke-width:0.5;"/><text fill="#000000" font-family="sans-serif" font-size="13" lengthAdjust="spacing" textLength="87.4326" x="254.7715" y="299.0967">Blockiert bis zum</text><text fill="#000000" font-family="sans-serif" font-size="13" lengthAdjust="spacing" textLength="78.7744" x="254.7715" y="315.4482">nächsten Ereignis</text><rect fill="#F1F1F1" height="35.0938" rx="12.5" ry="12.5" style="stroke:#181818;stroke-width:0.5;" width="217.7715" x="11" y="284.4063"/><text fill="#000000" font-family="sans-serif" font-size="12" lengthAdjust="spacing" textLength="20.6719" x="21" y="306.8633">Rufe</text><text fill="#000000" font-family="sans-serif" font-size="12" font-weight="bold" lengthAdjust="spacing" textLength="92.0566" x="45.0059" y="306.8633">reactor_execute</text><text fill="#000000" font-family="sans-serif" font-size="12" lengthAdjust="spacing" textLength="81.709" x="137.0625" y="306.8633">(no_wait=false)</text><path d="M771.9402,280.6016 L771.9402,306.1289 L751.9402,310.1289 L771.9402,314.1289 L771.9402,339.6563 A0,0 0 0 0 771.9402,339.6563 L1002.4763,339.6563 A0,0 0 0 0 1002.4763,339.6563 L1002.4763,290.6016 L992.4763,280.6016 L771.9402,280.6016 A0,0 0 0 0 771.9402,280.6016 " fill="#FEFFDD" style="stroke:#181818;stroke-width:0.5;"/><path d="M992.4763,280.6016 L992.4763,290.6016 L1002.4763,290.6016 L992.4763,280.6016 " fill="#FEFFDD" style="stroke:#181818;stroke-width:0.5;"/><text fill="#000000" font-family="sans-serif" font-size="13" lengthAdjust="spacing" textLength="204.5151" x="777.9402" y="299.0967">Immer vom Kopf der Warteschlange.</text><text fill="#000000" font-family="sans-serif" font-size="13" lengthAdjust="spacing" textLength="209.5361" x="777.9402" y="315.4482">HI_PRIORITY-Coroutinen werden beim</text><text fill="#000000" font-family="sans-serif" font-size="13" lengthAdjust="spacing" textLength="159.7324" x="777.9402" y="331.7998">Einreihen vorne platziert.</text><rect fill="#F1F1F1" height="35.0938" rx="12.5" ry="12.5" style="stroke:#181818;stroke-width:0.5;" width="211.4609" x="540.4792" y="292.582"/><text fill="#000000" font-family="sans-serif" font-size="12" lengthAdjust="spacing" textLength="191.4609" x="550.4792" y="315.0391">Nächste Coroutine aus Warteschlange nehmen</text><rect fill="#F1F1F1" height="50.1875" rx="12.5" ry="12.5" style="stroke:#181818;stroke-width:0.5;" width="180.4121" x="556.0037" y="359.6563"/><text fill="#000000" font-family="sans-serif" font-size="12" lengthAdjust="spacing" textLength="149.4082" x="566.0037" y="382.1133">zend_fiber_switch_context()</text><text fill="#000000" font-family="sans-serif" font-size="12" lengthAdjust="spacing" textLength="160.4121" x="566.0037" y="397.207">-&gt; Kontrolle an Coroutine übergeben</text><polygon fill="#F1F1F1" points="613.1963,429.8438,679.2231,429.8438,691.2231,441.8438,679.2231,453.8438,613.1963,453.8438,601.1963,441.8438,613.1963,429.8438" style="stroke:#181818;stroke-width:0.5;"/><text fill="#000000" font-family="sans-serif" font-size="11" lengthAdjust="spacing" textLength="66.0269" x="613.1963" y="446.3447">switch_status</text><rect fill="#F1F1F1" height="50.1875" rx="12.5" ry="12.5" style="stroke:#181818;stroke-width:0.5;" width="155.4219" x="377.2041" y="491.5156"/><text fill="#000000" font-family="sans-serif" font-size="12" lengthAdjust="spacing" textLength="135.4219" x="387.2041" y="513.9727">Coroutine hat suspend aufgerufen</text><text fill="#000000" font-family="sans-serif" font-size="12" lengthAdjust="spacing" textLength="127.7402" x="387.2041" y="529.0664">-&gt; zurück zum Scheduler</text><rect fill="#F1F1F1" height="50.1875" rx="12.5" ry="12.5" style="stroke:#181818;stroke-width:0.5;" width="173.75" x="552.626" y="491.5156"/><text fill="#000000" font-family="sans-serif" font-size="12" lengthAdjust="spacing" textLength="110.7305" x="562.626" y="513.9727">Coroutine abgeschlossen</text><text fill="#000000" font-family="sans-serif" font-size="12" lengthAdjust="spacing" textLength="153.75" x="562.626" y="529.0664">-&gt; Fiber-Kontext an Pool zurück</text><rect fill="#F1F1F1" height="50.1875" rx="12.5" ry="12.5" style="stroke:#181818;stroke-width:0.5;" width="131.0527" x="746.376" y="491.5156"/><text fill="#000000" font-family="sans-serif" font-size="12" lengthAdjust="spacing" textLength="100.0547" x="756.376" y="513.9727">Ordnungsgemäßes Herunterfahren</text><text fill="#000000" font-family="sans-serif" font-size="12" lengthAdjust="spacing" textLength="111.0527" x="756.376" y="529.0664">-&gt; finally_shutdown()</text><ellipse cx="811.9023" cy="572.7031" fill="none" rx="11" ry="11" style="stroke:#222222;stroke-width:1;"/><ellipse cx="811.9023" cy="572.7031" fill="#222222" rx="6" ry="6" style="stroke:#222222;stroke-width:1;"/><polygon fill="#F1F1F1" points="646.2097,603.7031,646.2097,603.7031,658.2097,615.7031,646.2097,627.7031,646.2097,627.7031,634.2097,615.7031,646.2097,603.7031" style="stroke:#181818;stroke-width:0.5;"/><polygon fill="#F1F1F1" points="383.0477,633.7031,395.0477,645.7031,383.0477,657.7031,371.0477,645.7031,383.0477,633.7031" style="stroke:#181818;stroke-width:0.5;"/><path d="M509.5985,673.8984 L509.5985,691.25 L489.5985,695.25 L509.5985,699.25 L509.5985,716.6016 A0,0 0 0 0 509.5985,716.6016 L654.162,716.6016 A0,0 0 0 0 654.162,716.6016 L654.162,683.8984 L644.162,673.8984 L509.5985,673.8984 A0,0 0 0 0 509.5985,673.8984 " fill="#FEFFDD" style="stroke:#181818;stroke-width:0.5;"/><path d="M644.162,673.8984 L644.162,683.8984 L654.162,683.8984 L644.162,673.8984 " fill="#FEFFDD" style="stroke:#181818;stroke-width:0.5;"/><text fill="#000000" font-family="sans-serif" font-size="13" lengthAdjust="spacing" textLength="102.5972" x="515.5985" y="692.3936">Nicht-blockierender Tick:</text><text fill="#000000" font-family="sans-serif" font-size="13" lengthAdjust="spacing" textLength="123.5635" x="515.5985" y="708.7451">Bereite Ereignisse verarbeiten</text><rect fill="#F1F1F1" height="35.0938" rx="12.5" ry="12.5" style="stroke:#181818;stroke-width:0.5;" width="213.1016" x="276.4969" y="677.7031"/><text fill="#000000" font-family="sans-serif" font-size="12" lengthAdjust="spacing" textLength="20.6719" x="286.4969" y="700.1602">Rufe</text><text fill="#000000" font-family="sans-serif" font-size="12" font-weight="bold" lengthAdjust="spacing" textLength="92.0566" x="310.5028" y="700.1602">reactor_execute</text><text fill="#000000" font-family="sans-serif" font-size="12" lengthAdjust="spacing" textLength="77.0391" x="402.5594" y="700.1602">(no_wait=true)</text><polygon fill="#F1F1F1" points="383.0477,143.7031,395.0477,155.7031,383.0477,167.7031,371.0477,155.7031,383.0477,143.7031" style="stroke:#181818;stroke-width:0.5;"/><polygon fill="#F1F1F1" points="356.4447,736.6016,409.6508,736.6016,421.6508,748.6016,409.6508,760.6016,356.4447,760.6016,344.4447,748.6016,356.4447,736.6016" style="stroke:#181818;stroke-width:0.5;"/><text fill="#000000" font-family="sans-serif" font-size="11" lengthAdjust="spacing" textLength="53.2061" x="356.4447" y="753.1025">Herunterfahren?</text><text fill="#000000" font-family="sans-serif" font-size="11" lengthAdjust="spacing" textLength="12.2354" x="421.6508" y="746.1846">nein</text><rect fill="#F1F1F1" height="35.0938" rx="12.5" ry="12.5" style="stroke:#181818;stroke-width:0.5;" width="116.7148" x="324.6903" y="780.6016"/><text fill="#000000" font-family="sans-serif" font-size="12" lengthAdjust="spacing" textLength="96.7148" x="334.6903" y="803.0586">finally_shutdown()</text><ellipse cx="383.0477" cy="846.6953" fill="none" rx="11" ry="11" style="stroke:#222222;stroke-width:1;"/><ellipse cx="383.0477" cy="846.6953" fill="#222222" rx="6" ry="6" style="stroke:#222222;stroke-width:1;"/><line style="stroke:#181818;stroke-width:1;" x1="383.0477" x2="383.0477" y1="68.6094" y2="88.6094"/><polygon fill="#181818" points="379.0477,78.6094,383.0477,88.6094,387.0477,78.6094,383.0477,82.6094" style="stroke:#181818;stroke-width:1;"/><line style="stroke:#181818;stroke-width:1;" x1="646.2097" x2="646.2097" y1="327.6758" y2="359.6563"/><polygon fill="#181818" points="642.2097,349.6563,646.2097,359.6563,650.2097,349.6563,646.2097,353.6563" style="stroke:#181818;stroke-width:1;"/><line style="stroke:#181818;stroke-width:1;" x1="811.9023" x2="811.9023" y1="541.7031" y2="561.7031"/><polygon fill="#181818" points="807.9023,551.7031,811.9023,561.7031,815.9023,551.7031,811.9023,555.7031" style="stroke:#181818;stroke-width:1;"/><line style="stroke:#181818;stroke-width:1;" x1="601.1963" x2="454.915" y1="441.8438" y2="441.8438"/><line style="stroke:#181818;stroke-width:1;" x1="454.915" x2="454.915" y1="441.8438" y2="491.5156"/><polygon fill="#181818" points="450.915,481.5156,454.915,491.5156,458.915,481.5156,454.915,485.5156" style="stroke:#181818;stroke-width:1;"/><text fill="#000000" font-family="sans-serif" font-size="11" lengthAdjust="spacing" textLength="58.6631" x="457.9712" y="471.1807">SWITCHED</text><line style="stroke:#181818;stroke-width:1;" x1="691.2231" x2="811.9023" y1="441.8438" y2="441.8438"/><line style="stroke:#181818;stroke-width:1;" x1="811.9023" x2="811.9023" y1="441.8438" y2="491.5156"/><polygon fill="#181818" points="807.9023,481.5156,811.9023,491.5156,815.9023,481.5156,811.9023,485.5156" style="stroke:#181818;stroke-width:1;"/><text fill="#000000" font-family="sans-serif" font-size="11" lengthAdjust="spacing" textLength="97.2007" x="814.9585" y="471.1807">SHOULD_BE_EXIT</text><line style="stroke:#181818;stroke-width:1;" x1="646.2097" x2="646.2097" y1="453.8438" y2="466.401"/><line style="stroke:#181818;stroke-width:1;" x1="646.2097" x2="639.501" y1="466.401" y2="466.401"/><line style="stroke:#181818;stroke-width:1;" x1="639.501" x2="639.501" y1="466.401" y2="491.5156"/><polygon fill="#181818" points="635.501,481.5156,639.501,491.5156,643.501,481.5156,639.501,485.5156" style="stroke:#181818;stroke-width:1;"/><text fill="#000000" font-family="sans-serif" font-size="11" lengthAdjust="spacing" textLength="51.3369" x="642.5571" y="472.1807">FINISHED</text><line style="stroke:#181818;stroke-width:1;" x1="454.915" x2="454.915" y1="541.7031" y2="615.7031"/><line style="stroke:#181818;stroke-width:1;" x1="454.915" x2="634.2097" y1="615.7031" y2="615.7031"/><polygon fill="#181818" points="624.2097,611.7031,634.2097,615.7031,624.2097,619.7031,628.2097,615.7031" style="stroke:#181818;stroke-width:1;"/><line style="stroke:#181818;stroke-width:1;" x1="639.501" x2="639.501" y1="541.7031" y2="603.7031"/><line style="stroke:#181818;stroke-width:1;" x1="639.501" x2="646.2097" y1="603.7031" y2="603.7031"/><polygon fill="#181818" points="642.2097,593.7031,646.2097,603.7031,650.2097,593.7031,646.2097,597.7031" style="stroke:#181818;stroke-width:1;"/><line style="stroke:#181818;stroke-width:1;" x1="646.2097" x2="646.2097" y1="409.8438" y2="429.8438"/><polygon fill="#181818" points="642.2097,419.8438,646.2097,429.8438,650.2097,419.8438,646.2097,423.8438" style="stroke:#181818;stroke-width:1;"/><line style="stroke:#181818;stroke-width:1;" x1="310.5048" x2="119.8857" y1="258.6016" y2="258.6016"/><line style="stroke:#181818;stroke-width:1;" x1="119.8857" x2="119.8857" y1="258.6016" y2="284.4063"/><polygon fill="#181818" points="115.8857,274.4063,119.8857,284.4063,123.8857,274.4063,119.8857,278.4063" style="stroke:#181818;stroke-width:1;"/><line style="stroke:#181818;stroke-width:1;" x1="455.5907" x2="646.2097" y1="258.6016" y2="258.6016"/><line style="stroke:#181818;stroke-width:1;" x1="646.2097" x2="646.2097" y1="258.6016" y2="292.582"/><polygon fill="#181818" points="642.2097,282.582,646.2097,292.582,650.2097,282.582,646.2097,286.582" style="stroke:#181818;stroke-width:1;"/><line style="stroke:#181818;stroke-width:1;" x1="119.8857" x2="119.8857" y1="319.5" y2="645.7031"/><line style="stroke:#181818;stroke-width:1;" x1="119.8857" x2="371.0477" y1="645.7031" y2="645.7031"/><polygon fill="#181818" points="361.0477,641.7031,371.0477,645.7031,361.0477,649.7031,365.0477,645.7031" style="stroke:#181818;stroke-width:1;"/><line style="stroke:#181818;stroke-width:1;" x1="646.2097" x2="646.2097" y1="627.7031" y2="645.7031"/><line style="stroke:#181818;stroke-width:1;" x1="646.2097" x2="395.0477" y1="645.7031" y2="645.7031"/><polygon fill="#181818" points="405.0477,641.7031,395.0477,645.7031,405.0477,649.7031,401.0477,645.7031" style="stroke:#181818;stroke-width:1;"/><line style="stroke:#181818;stroke-width:1;" x1="383.0477" x2="383.0477" y1="222.7969" y2="246.6016"/><polygon fill="#181818" points="379.0477,236.6016,383.0477,246.6016,387.0477,236.6016,383.0477,240.6016" style="stroke:#181818;stroke-width:1;"/><line style="stroke:#181818;stroke-width:1;" x1="383.0477" x2="383.0477" y1="657.7031" y2="677.7031"/><polygon fill="#181818" points="379.0477,667.7031,383.0477,677.7031,387.0477,667.7031,383.0477,671.7031" style="stroke:#181818;stroke-width:1;"/><line style="stroke:#181818;stroke-width:1;" x1="383.0477" x2="383.0477" y1="167.7031" y2="187.7031"/><polygon fill="#181818" points="379.0477,177.7031,383.0477,187.7031,387.0477,177.7031,383.0477,181.7031" style="stroke:#181818;stroke-width:1;"/><line style="stroke:#181818;stroke-width:1;" x1="421.6508" x2="1016.4763" y1="748.6016" y2="748.6016"/><polygon fill="#181818" points="1012.4763,499.6523,1016.4763,489.6523,1020.4763,499.6523,1016.4763,495.6523" style="stroke:#181818;stroke-width:1;"/><line style="stroke:#181818;stroke-width:1;" x1="1016.4763" x2="1016.4763" y1="155.7031" y2="748.6016"/><line style="stroke:#181818;stroke-width:1;" x1="1016.4763" x2="395.0477" y1="155.7031" y2="155.7031"/><polygon fill="#181818" points="405.0477,151.7031,395.0477,155.7031,405.0477,159.7031,401.0477,155.7031" style="stroke:#181818;stroke-width:1;"/><line style="stroke:#181818;stroke-width:1;" x1="383.0477" x2="383.0477" y1="712.7969" y2="736.6016"/><polygon fill="#181818" points="379.0477,726.6016,383.0477,736.6016,387.0477,726.6016,383.0477,730.6016" style="stroke:#181818;stroke-width:1;"/><line style="stroke:#181818;stroke-width:1;" x1="383.0477" x2="383.0477" y1="123.7031" y2="143.7031"/><polygon fill="#181818" points="379.0477,133.7031,383.0477,143.7031,387.0477,133.7031,383.0477,137.7031" style="stroke:#181818;stroke-width:1;"/><line style="stroke:#181818;stroke-width:1;" x1="383.0477" x2="383.0477" y1="760.6016" y2="780.6016"/><polygon fill="#181818" points="379.0477,770.6016,383.0477,780.6016,387.0477,770.6016,383.0477,774.6016" style="stroke:#181818;stroke-width:1;"/><line style="stroke:#181818;stroke-width:1;" x1="383.0477" x2="383.0477" y1="815.6953" y2="835.6953"/><polygon fill="#181818" points="379.0477,825.6953,383.0477,835.6953,387.0477,825.6953,383.0477,829.6953" style="stroke:#181818;stroke-width:1;"/></g></svg>