<svg xmlns="http://www.w3.org/2000/svg" xmlns:xlink="http://www.w3.org/1999/xlink" contentStyleType="text/css" height="654px" preserveAspectRatio="none" style="width:552px;height:654px;background:#FFFFFF;" version="1.1" viewBox="0 0 552 654" width="552px" zoomAndPan="magnify"><title>Stati del Waker</title><defs/><g><text fill="#000000" font-family="sans-serif" font-size="14" font-weight="bold" lengthAdjust="spacing" textLength="87.9307" x="225.1064" y="24.5332">Stati del Waker</text><ellipse cx="341.5" cy="54.6094" fill="#222222" rx="10" ry="10" style="stroke:#222222;stroke-width:1;"/><g id="NO_STATUS"><rect fill="#F1F1F1" height="67.7969" rx="12.5" ry="12.5" style="stroke:#181818;stroke-width:0.5;" width="138.7344" x="272" y="142.6094"/><line style="stroke:#181818;stroke-width:0.5;" x1="272" x2="410.7344" y1="170.2188" y2="170.2188"/><text fill="#000000" font-family="sans-serif" font-size="14" lengthAdjust="spacing" textLength="84.0137" x="299.3604" y="162.1426">NO_STATUS</text><text fill="#000000" font-family="sans-serif" font-size="12" lengthAdjust="spacing" textLength="101.3672" x="277" y="187.6758">Il Waker non &#232; attivo</text><text fill="#000000" font-family="sans-serif" font-size="12" lengthAdjust="spacing" textLength="118.7344" x="277" y="202.7695">La Coroutine &#232; in esecuzione</text></g><g id="WAITING"><rect fill="#F1F1F1" height="67.7969" rx="12.5" ry="12.5" style="stroke:#181818;stroke-width:0.5;" width="175.3965" x="96" y="288.6094"/><line style="stroke:#181818;stroke-width:0.5;" x1="96" x2="271.3965" y1="316.2188" y2="316.2188"/><text fill="#000000" font-family="sans-serif" font-size="14" lengthAdjust="spacing" textLength="59.8828" x="153.7568" y="308.1426">WAITING</text><text fill="#000000" font-family="sans-serif" font-size="12" lengthAdjust="spacing" textLength="128.0684" x="101" y="333.6758">La Coroutine attende eventi</text><text fill="#000000" font-family="sans-serif" font-size="12" lengthAdjust="spacing" textLength="155.3965" x="101" y="348.7695">eventi &#8212; lista delle sottoscrizioni</text></g><g id="QUEUED"><rect fill="#F1F1F1" height="67.7969" rx="12.5" ry="12.5" style="stroke:#181818;stroke-width:0.5;" width="190.7773" x="7" y="434.6094"/><line style="stroke:#181818;stroke-width:0.5;" x1="7" x2="197.7773" y1="462.2188" y2="462.2188"/><text fill="#000000" font-family="sans-serif" font-size="14" lengthAdjust="spacing" textLength="59.8965" x="72.4404" y="454.1426">QUEUED</text><text fill="#000000" font-family="sans-serif" font-size="12" lengthAdjust="spacing" textLength="170.7773" x="12" y="479.6758">La Coroutine &#232; nella coda dello Scheduler</text><text fill="#000000" font-family="sans-serif" font-size="12" lengthAdjust="spacing" textLength="120.7324" x="12" y="494.7695">risultato / errore popolato</text></g><g id="IGNORED"><rect fill="#F1F1F1" height="67.7969" rx="12.5" ry="12.5" style="stroke:#181818;stroke-width:0.5;" width="176.0996" x="243.5" y="434.6094"/><line style="stroke:#181818;stroke-width:0.5;" x1="243.5" x2="419.5996" y1="462.2188" y2="462.2188"/><text fill="#000000" font-family="sans-serif" font-size="14" lengthAdjust="spacing" textLength="65.3379" x="298.8809" y="454.1426">IGNORED</text><text fill="#000000" font-family="sans-serif" font-size="12" lengthAdjust="spacing" textLength="156.0996" x="248.5" y="479.6758">La Coroutine &#232; gi&#224; in coda</text><text fill="#000000" font-family="sans-serif" font-size="12" lengthAdjust="spacing" textLength="84.709" x="248.5" y="494.7695">risultato scartato</text></g><g id="RESULT"><rect fill="#F1F1F1" height="67.7969" rx="12.5" ry="12.5" style="stroke:#181818;stroke-width:0.5;" width="162.0898" x="208.5" y="580.6094"/><line style="stroke:#181818;stroke-width:0.5;" x1="208.5" x2="370.5898" y1="608.2188" y2="608.2188"/><text fill="#000000" font-family="sans-serif" font-size="14" lengthAdjust="spacing" textLength="55.2344" x="261.9277" y="600.1426">RESULT</text><text fill="#000000" font-family="sans-serif" font-size="12" lengthAdjust="spacing" textLength="142.0898" x="213.5" y="625.6758">Risultato applicato alla coroutine</text><text fill="#000000" font-family="sans-serif" font-size="12" lengthAdjust="spacing" textLength="123.0586" x="213.5" y="640.7695">waker-&gt;result disponibile</text></g><!--link *start* to NO_STATUS--><g id="link_*start*_NO_STATUS"><path d="M341.5,64.6294 C341.5,80.9294 341.5,110.0394 341.5,136.4294 " fill="none" id="*start*-to-NO_STATUS" style="stroke:#181818;stroke-width:1;"/><polygon fill="#181818" points="341.5,142.4294,345.5,133.4294,341.5,137.4294,337.5,133.4294,341.5,142.4294" style="stroke:#181818;stroke-width:1;"/><text fill="#000000" font-family="sans-serif" font-size="13" lengthAdjust="spacing" textLength="74.4136" x="342.5" y="109.1045">waker_new()</text></g><!--link NO_STATUS to WAITING--><g id="link_NO_STATUS_WAITING"><path d="M281.53,210.6794 C267.97,219.4994 254.16,229.6594 242.5,240.6094 C227.66,254.5394 217.3904,267.6686 207.0004,283.2386 " fill="none" id="NO_STATUS-to-WAITING" style="stroke:#181818;stroke-width:1;"/><polygon fill="#181818" points="203.67,288.2294,211.9928,282.9634,206.4453,284.0704,205.3384,278.5229,203.67,288.2294" style="stroke:#181818;stroke-width:1;"/><text fill="#000000" font-family="sans-serif" font-size="13" lengthAdjust="spacing" textLength="71.5063" x="243.5" y="255.1045">SUSPEND()</text></g><!--link WAITING to QUEUED--><g id="link_WAITING_QUEUED"><path d="M120.02,356.7794 C109.73,365.0794 100.5,375.0094 94.5,386.6094 C86.97,401.1694 86.6439,413.3023 89.9239,428.6223 " fill="none" id="WAITING-to-QUEUED" style="stroke:#181818;stroke-width:1;"/><polygon fill="#181818" points="91.18,434.4894,93.2072,424.8514,90.1332,429.6002,85.3844,426.5262,91.18,434.4894" style="stroke:#181818;stroke-width:1;"/><text fill="#000000" font-family="sans-serif" font-size="13" lengthAdjust="spacing" textLength="86.7217" x="95.5" y="401.1045">evento attivato</text></g><!--link WAITING to IGNORED--><g id="link_WAITING_IGNORED"><path d="M194.2,356.6694 C200.56,372.5294 209.87,390.9894 222.5,404.6094 C233.13,416.0694 241.229,422.8641 254.729,431.2841 " fill="none" id="WAITING-to-IGNORED" style="stroke:#181818;stroke-width:1;"/><polygon fill="#181818" points="259.82,434.4594,254.3004,426.3025,255.5775,431.8133,250.0667,433.0905,259.82,434.4594" style="stroke:#181818;stroke-width:1;"/><text fill="#000000" font-family="sans-serif" font-size="13" lengthAdjust="spacing" textLength="91.7808" x="223.5" y="401.1045">attivazione ripetuta</text></g><!--link QUEUED to RESULT--><g id="link_QUEUED_RESULT"><path d="M145.4,502.6494 C175.7,525.9794 211.3971,553.4575 241.7171,576.8175 " fill="none" id="QUEUED-to-RESULT" style="stroke:#181818;stroke-width:1;"/><polygon fill="#181818" points="246.47,580.4794,241.7818,571.8179,242.5092,577.4278,236.8993,578.1552,246.47,580.4794" style="stroke:#181818;stroke-width:1;"/><text fill="#000000" font-family="sans-serif" font-size="13" lengthAdjust="spacing" textLength="158.2534" x="208.5" y="547.1045">Lo Scheduler ha cambiato contesto</text></g><!--link RESULT to NO_STATUS--><g id="link_RESULT_NO_STATUS"><path d="M358.77,580.5794 C388.89,562.2094 421.02,536.1994 437.5,502.6094 C479.41,417.1594 463.25,377.5994 429.5,288.6094 C418.34,259.1794 400.4544,235.7965 381.2444,215.4065 " fill="none" id="RESULT-to-NO_STATUS" style="stroke:#181818;stroke-width:1;"/><polygon fill="#181818" points="377.13,211.0394,380.3902,220.333,380.5587,214.6786,386.213,214.8471,377.13,211.0394" style="stroke:#181818;stroke-width:1;"/><text fill="#000000" font-family="sans-serif" font-size="13" lengthAdjust="spacing" textLength="81.6436" x="462.5" y="401.1045">waker_clean()</text></g><!--link IGNORED to NO_STATUS--><g id="link_IGNORED_NO_STATUS"><path d="M332.65,434.2894 C334.57,378.4594 338.2236,272.6658 340.1436,216.8758 " fill="none" id="IGNORED-to-NO_STATUS" style="stroke:#181818;stroke-width:1;"/><polygon fill="#181818" points="340.35,210.8794,336.0428,219.7365,340.178,215.8764,344.0381,220.0116,340.35,210.8794" style="stroke:#181818;stroke-width:1;"/><text fill="#000000" font-family="sans-serif" font-size="13" lengthAdjust="spacing" textLength="81.6436" x="339.5" y="328.1045">waker_clean()</text></g></g></svg>