<svg xmlns="http://www.w3.org/2000/svg" xmlns:xlink="http://www.w3.org/1999/xlink" contentStyleType="text/css" height="935px" preserveAspectRatio="none" style="width:795px;height:935px;background:#FFFFFF;" version="1.1" viewBox="0 0 795 935" width="795px" zoomAndPan="magnify"><title>&#1057;&#1086;&#1079;&#1076;&#1072;&#1085;&#1080;&#1077; &#1089;&#1086;&#1077;&#1076;&#1080;&#1085;&#1077;&#1085;&#1080;&#1103; &#1080;&#1079; &#1087;&#1091;&#1083;&#1072;</title><defs/><g><text fill="#000000" font-family="sans-serif" font-size="14" font-weight="bold" lengthAdjust="spacing" textLength="210.3896" x="294.1526" y="29.5332">&#1057;&#1086;&#1079;&#1076;&#1072;&#1085;&#1080;&#1077; &#1089;&#1086;&#1077;&#1076;&#1080;&#1085;&#1077;&#1085;&#1080;&#1103; &#1080;&#1079; &#1087;&#1091;&#1083;&#1072;</text><rect fill="none" height="591.0313" style="stroke:#000000;stroke-width:1.5;" width="662.8872" x="126.8076" y="183.2734"/><rect fill="none" height="378.5703" style="stroke:#000000;stroke-width:1.5;" width="513.0537" x="266.6411" y="238.9766"/><line style="stroke:#181818;stroke-width:0.5;stroke-dasharray:5.0,5.0;" x1="42" x2="42" y1="76.2188" y2="898.7109"/><line style="stroke:#181818;stroke-width:0.5;stroke-dasharray:5.0,5.0;" x1="177.8076" x2="177.8076" y1="76.2188" y2="898.7109"/><line style="stroke:#181818;stroke-width:0.5;stroke-dasharray:5.0,5.0;" x1="343.6411" x2="343.6411" y1="76.2188" y2="898.7109"/><line style="stroke:#181818;stroke-width:0.5;stroke-dasharray:5.0,5.0;" x1="481.2886" x2="481.2886" y1="76.2188" y2="898.7109"/><line style="stroke:#181818;stroke-width:0.5;stroke-dasharray:5.0,5.0;" x1="648.8657" x2="648.8657" y1="76.2188" y2="898.7109"/><rect fill="#E2E2F0" height="31.6094" rx="2.5" ry="2.5" style="stroke:#181818;stroke-width:0.5;" width="74.4775" x="5" y="43.6094"/><text fill="#000000" font-family="sans-serif" font-size="14" lengthAdjust="spacing" textLength="60.4775" x="12" y="65.1426">&#1050;&#1086;&#1088;&#1091;&#1090;&#1080;&#1085;&#1072;</text><rect fill="#E2E2F0" height="31.6094" rx="2.5" ry="2.5" style="stroke:#181818;stroke-width:0.5;" width="74.4775" x="5" y="897.7109"/><text fill="#000000" font-family="sans-serif" font-size="14" lengthAdjust="spacing" textLength="60.4775" x="12" y="919.2441">&#1050;&#1086;&#1088;&#1091;&#1090;&#1080;&#1085;&#1072;</text><rect fill="#E2E2F0" height="31.6094" rx="2.5" ry="2.5" style="stroke:#181818;stroke-width:0.5;" width="82.5029" x="136.8076" y="43.6094"/><text fill="#000000" font-family="sans-serif" font-size="14" lengthAdjust="spacing" textLength="68.5029" x="143.8076" y="65.1426">pdo_pool.c</text><rect fill="#E2E2F0" height="31.6094" rx="2.5" ry="2.5" style="stroke:#181818;stroke-width:0.5;" width="82.5029" x="136.8076" y="897.7109"/><text fill="#000000" font-family="sans-serif" font-size="14" lengthAdjust="spacing" textLength="68.5029" x="143.8076" y="919.2441">pdo_pool.c</text><rect fill="#E2E2F0" height="31.6094" rx="2.5" ry="2.5" style="stroke:#181818;stroke-width:0.5;" width="134.6475" x="276.6411" y="43.6094"/><text fill="#000000" font-family="sans-serif" font-size="14" lengthAdjust="spacing" textLength="120.6475" x="283.6411" y="65.1426">zend_async_pool_t</text><rect fill="#E2E2F0" height="31.6094" rx="2.5" ry="2.5" style="stroke:#181818;stroke-width:0.5;" width="134.6475" x="276.6411" y="897.7109"/><text fill="#000000" font-family="sans-serif" font-size="14" lengthAdjust="spacing" textLength="120.6475" x="283.6411" y="919.2441">zend_async_pool_t</text><rect fill="#E2E2F0" height="31.6094" rx="2.5" ry="2.5" style="stroke:#181818;stroke-width:0.5;" width="121.4131" x="421.2886" y="43.6094"/><text fill="#000000" font-family="sans-serif" font-size="14" lengthAdjust="spacing" textLength="107.4131" x="428.2886" y="65.1426">pdo_pool_factory</text><rect fill="#E2E2F0" height="31.6094" rx="2.5" ry="2.5" style="stroke:#181818;stroke-width:0.5;" width="121.4131" x="421.2886" y="897.7109"/><text fill="#000000" font-family="sans-serif" font-size="14" lengthAdjust="spacing" textLength="107.4131" x="428.2886" y="919.2441">pdo_pool_factory</text><rect fill="#E2E2F0" height="31.6094" rx="2.5" ry="2.5" style="stroke:#181818;stroke-width:0.5;" width="101.8965" x="598.8657" y="43.6094"/><text fill="#000000" font-family="sans-serif" font-size="14" lengthAdjust="spacing" textLength="87.8965" x="605.8657" y="65.1426">MySQL Driver</text><rect fill="#E2E2F0" height="31.6094" rx="2.5" ry="2.5" style="stroke:#181818;stroke-width:0.5;" width="101.8965" x="598.8657" y="897.7109"/><text fill="#000000" font-family="sans-serif" font-size="14" lengthAdjust="spacing" textLength="87.8965" x="605.8657" y="919.2441">MySQL Driver</text><polygon fill="#181818" points="166.0591,104.5703,176.0591,108.5703,166.0591,112.5703,170.0591,108.5703" style="stroke:#181818;stroke-width:1;"/><line style="stroke:#181818;stroke-width:1;" x1="42.2388" x2="172.0591" y1="108.5703" y2="108.5703"/><text fill="#000000" font-family="sans-serif" font-size="13" lengthAdjust="spacing" textLength="111.8203" x="49.2388" y="103.7139">query("SELECT 1")</text><line style="stroke:#181818;stroke-width:1;" x1="178.0591" x2="220.0591" y1="155.2734" y2="155.2734"/><line style="stroke:#181818;stroke-width:1;" x1="220.0591" x2="220.0591" y1="155.2734" y2="168.2734"/><line style="stroke:#181818;stroke-width:1;" x1="179.0591" x2="220.0591" y1="168.2734" y2="168.2734"/><polygon fill="#181818" points="189.0591,164.2734,179.0591,168.2734,189.0591,172.2734,185.0591,168.2734" style="stroke:#181818;stroke-width:1;"/><text fill="#000000" font-family="sans-serif" font-size="13" lengthAdjust="spacing" textLength="111.3315" x="185.0591" y="134.0654">&#1055;&#1086;&#1080;&#1089;&#1082; &#1089;&#1086;&#1077;&#1076;&#1080;&#1085;&#1077;&#1085;&#1080;&#1103;</text><text fill="#000000" font-family="sans-serif" font-size="13" lengthAdjust="spacing" textLength="136.3794" x="185.0591" y="150.417">&#1076;&#1083;&#1103; &#1090;&#1077;&#1082;&#1091;&#1097;&#1077;&#1081; &#1082;&#1086;&#1088;&#1091;&#1090;&#1080;&#1085;&#1099;</text><path d="M126.8076,183.2734 L186.9785,183.2734 L186.9785,191.625 L176.9785,201.625 L126.8076,201.625 L126.8076,183.2734 " fill="#EEEEEE" style="stroke:#000000;stroke-width:1.5;"/><rect fill="none" height="591.0313" style="stroke:#000000;stroke-width:1.5;" width="662.8872" x="126.8076" y="183.2734"/><text fill="#000000" font-family="sans-serif" font-size="13" font-weight="bold" lengthAdjust="spacing" textLength="15.1709" x="141.8076" y="197.7686">alt</text><text fill="#000000" font-family="sans-serif" font-size="11" font-weight="bold" lengthAdjust="spacing" textLength="138.9985" x="201.9785" y="196.6924">[&#1057;&#1086;&#1077;&#1076;&#1080;&#1085;&#1077;&#1085;&#1080;&#1077; &#1085;&#1077; &#1085;&#1072;&#1081;&#1076;&#1077;&#1085;&#1086;]</text><polygon fill="#181818" points="331.9648,219.9766,341.9648,223.9766,331.9648,227.9766,335.9648,223.9766" style="stroke:#181818;stroke-width:1;"/><line style="stroke:#181818;stroke-width:1;" x1="178.0591" x2="337.9648" y1="223.9766" y2="223.9766"/><text fill="#000000" font-family="sans-serif" font-size="13" lengthAdjust="spacing" textLength="51.2954" x="185.0591" y="219.1201">acquire()</text><path d="M266.6411,238.9766 L326.812,238.9766 L326.812,247.3281 L316.812,257.3281 L266.6411,257.3281 L266.6411,238.9766 " fill="#EEEEEE" style="stroke:#000000;stroke-width:1.5;"/><rect fill="none" height="378.5703" style="stroke:#000000;stroke-width:1.5;" width="513.0537" x="266.6411" y="238.9766"/><text fill="#000000" font-family="sans-serif" font-size="13" font-weight="bold" lengthAdjust="spacing" textLength="15.1709" x="281.6411" y="253.4717">alt</text><text fill="#000000" font-family="sans-serif" font-size="11" font-weight="bold" lengthAdjust="spacing" textLength="146.1099" x="341.812" y="252.3955">[&#1053;&#1077;&#1090; &#1089;&#1074;&#1086;&#1073;&#1086;&#1076;&#1085;&#1099;&#1093;, &#1085;&#1086; &lt; max]</text><polygon fill="#181818" points="469.9951,275.6797,479.9951,279.6797,469.9951,283.6797,473.9951,279.6797" style="stroke:#181818;stroke-width:1;"/><line style="stroke:#181818;stroke-width:1;" x1="343.9648" x2="475.9951" y1="279.6797" y2="279.6797"/><text fill="#000000" font-family="sans-serif" font-size="13" lengthAdjust="spacing" textLength="86.6201" x="350.9648" y="274.8232">&#1089;&#1086;&#1079;&#1076;&#1072;&#1090;&#1100; &#1085;&#1086;&#1074;&#1086;&#1077;</text><line style="stroke:#181818;stroke-width:1;" x1="481.9951" x2="523.9951" y1="310.0313" y2="310.0313"/><line style="stroke:#181818;stroke-width:1;" x1="523.9951" x2="523.9951" y1="310.0313" y2="323.0313"/><line style="stroke:#181818;stroke-width:1;" x1="482.9951" x2="523.9951" y1="323.0313" y2="323.0313"/><polygon fill="#181818" points="492.9951,319.0313,482.9951,323.0313,492.9951,327.0313,488.9951,323.0313" style="stroke:#181818;stroke-width:1;"/><text fill="#000000" font-family="sans-serif" font-size="13" lengthAdjust="spacing" textLength="153.5815" x="488.9951" y="305.1748">conn = ecalloc(pdo_dbh_t)</text><line style="stroke:#181818;stroke-width:1;" x1="481.9951" x2="523.9951" y1="386.0859" y2="386.0859"/><line style="stroke:#181818;stroke-width:1;" x1="523.9951" x2="523.9951" y1="386.0859" y2="399.0859"/><line style="stroke:#181818;stroke-width:1;" x1="482.9951" x2="523.9951" y1="399.0859" y2="399.0859"/><polygon fill="#181818" points="492.9951,395.0859,482.9951,399.0859,492.9951,403.0859,488.9951,399.0859" style="stroke:#181818;stroke-width:1;"/><text fill="#000000" font-family="sans-serif" font-size="13" lengthAdjust="spacing" textLength="114.042" x="488.9951" y="348.5264">&#1050;&#1086;&#1087;&#1080;&#1088;&#1086;&#1074;&#1072;&#1085;&#1080;&#1077; DSN,</text><text fill="#000000" font-family="sans-serif" font-size="13" lengthAdjust="spacing" textLength="90.3271" x="488.9951" y="364.8779">login, password</text><text fill="#000000" font-family="sans-serif" font-size="13" lengthAdjust="spacing" textLength="122.3257" x="488.9951" y="381.2295">&#1080;&#1079; template (estrdup)</text><polygon fill="#181818" points="637.814,425.4375,647.814,429.4375,637.814,433.4375,641.814,429.4375" style="stroke:#181818;stroke-width:1;"/><line style="stroke:#181818;stroke-width:1;" x1="481.9951" x2="643.814" y1="429.4375" y2="429.4375"/><text fill="#000000" font-family="sans-serif" font-size="13" lengthAdjust="spacing" textLength="143.8188" x="488.9951" y="424.5811">db_handle_factory(conn)</text><line style="stroke:#181818;stroke-width:1;" x1="649.814" x2="691.814" y1="476.1406" y2="476.1406"/><line style="stroke:#181818;stroke-width:1;" x1="691.814" x2="691.814" y1="476.1406" y2="489.1406"/><line style="stroke:#181818;stroke-width:1;" x1="650.814" x2="691.814" y1="489.1406" y2="489.1406"/><polygon fill="#181818" points="660.814,485.1406,650.814,489.1406,660.814,493.1406,656.814,489.1406" style="stroke:#181818;stroke-width:1;"/><text fill="#000000" font-family="sans-serif" font-size="13" lengthAdjust="spacing" textLength="84.1572" x="656.814" y="454.9326">&#1055;&#1072;&#1088;&#1089;&#1080;&#1085;&#1075; DSN,</text><text fill="#000000" font-family="sans-serif" font-size="13" lengthAdjust="spacing" textLength="110.8809" x="656.814" y="471.2842">TCP-&#1087;&#1086;&#1076;&#1082;&#1083;&#1102;&#1095;&#1077;&#1085;&#1080;&#1077;</text><polygon fill="#181818" points="492.9951,515.4922,482.9951,519.4922,492.9951,523.4922,488.9951,519.4922" style="stroke:#181818;stroke-width:1;"/><line style="stroke:#181818;stroke-width:1;stroke-dasharray:2.0,2.0;" x1="486.9951" x2="648.814" y1="519.4922" y2="519.4922"/><text fill="#000000" font-family="sans-serif" font-size="13" lengthAdjust="spacing" textLength="18.7827" x="498.9951" y="514.6357">OK</text><line style="stroke:#181818;stroke-width:1;" x1="481.9951" x2="523.9951" y1="566.1953" y2="566.1953"/><line style="stroke:#181818;stroke-width:1;" x1="523.9951" x2="523.9951" y1="566.1953" y2="579.1953"/><line style="stroke:#181818;stroke-width:1;" x1="482.9951" x2="523.9951" y1="579.1953" y2="579.1953"/><polygon fill="#181818" points="492.9951,575.1953,482.9951,579.1953,492.9951,583.1953,488.9951,579.1953" style="stroke:#181818;stroke-width:1;"/><text fill="#000000" font-family="sans-serif" font-size="13" lengthAdjust="spacing" textLength="128.6987" x="488.9951" y="544.9873">&#1054;&#1089;&#1074;&#1086;&#1073;&#1086;&#1078;&#1076;&#1077;&#1085;&#1080;&#1077; &#1082;&#1086;&#1087;&#1080;&#1081;</text><text fill="#000000" font-family="sans-serif" font-size="13" lengthAdjust="spacing" textLength="104.7681" x="488.9951" y="561.3389">credentials (efree)</text><polygon fill="#181818" points="354.9648,605.5469,344.9648,609.5469,354.9648,613.5469,350.9648,609.5469" style="stroke:#181818;stroke-width:1;"/><line style="stroke:#181818;stroke-width:1;stroke-dasharray:2.0,2.0;" x1="348.9648" x2="480.9951" y1="609.5469" y2="609.5469"/><text fill="#000000" font-family="sans-serif" font-size="13" lengthAdjust="spacing" textLength="28.1899" x="360.9648" y="604.6904">conn</text><polygon fill="#181818" points="189.0591,642.8984,179.0591,646.8984,189.0591,650.8984,185.0591,646.8984" style="stroke:#181818;stroke-width:1;"/><line style="stroke:#181818;stroke-width:1;stroke-dasharray:2.0,2.0;" x1="183.0591" x2="342.9648" y1="646.8984" y2="646.8984"/><text fill="#000000" font-family="sans-serif" font-size="13" lengthAdjust="spacing" textLength="28.1899" x="195.0591" y="642.042">conn</text><line style="stroke:#181818;stroke-width:1;" x1="178.0591" x2="220.0591" y1="693.6016" y2="693.6016"/><line style="stroke:#181818;stroke-width:1;" x1="220.0591" x2="220.0591" y1="693.6016" y2="706.6016"/><line style="stroke:#181818;stroke-width:1;" x1="179.0591" x2="220.0591" y1="706.6016" y2="706.6016"/><polygon fill="#181818" points="189.0591,702.6016,179.0591,706.6016,189.0591,710.6016,185.0591,706.6016" style="stroke:#181818;stroke-width:1;"/><text fill="#000000" font-family="sans-serif" font-size="13" lengthAdjust="spacing" textLength="88.4609" x="185.0591" y="672.3936">&#1055;&#1088;&#1080;&#1074;&#1103;&#1079;&#1082;&#1072; conn</text><text fill="#000000" font-family="sans-serif" font-size="13" lengthAdjust="spacing" textLength="79.3901" x="185.0591" y="688.7451">&#1082; coroutine ID</text><line style="stroke:#181818;stroke-width:1;" x1="178.0591" x2="220.0591" y1="753.3047" y2="753.3047"/><line style="stroke:#181818;stroke-width:1;" x1="220.0591" x2="220.0591" y1="753.3047" y2="766.3047"/><line style="stroke:#181818;stroke-width:1;" x1="179.0591" x2="220.0591" y1="766.3047" y2="766.3047"/><polygon fill="#181818" points="189.0591,762.3047,179.0591,766.3047,189.0591,770.3047,185.0591,766.3047" style="stroke:#181818;stroke-width:1;"/><text fill="#000000" font-family="sans-serif" font-size="13" lengthAdjust="spacing" textLength="125.7153" x="185.0591" y="732.0967">&#1056;&#1077;&#1075;&#1080;&#1089;&#1090;&#1088;&#1072;&#1094;&#1080;&#1103; cleanup</text><text fill="#000000" font-family="sans-serif" font-size="13" lengthAdjust="spacing" textLength="151.9058" x="185.0591" y="748.4482">&#1085;&#1072; &#1079;&#1072;&#1074;&#1077;&#1088;&#1096;&#1077;&#1085;&#1080;&#1077; &#1082;&#1086;&#1088;&#1091;&#1090;&#1080;&#1085;&#1099;</text><polygon fill="#181818" points="637.814,816.0078,647.814,820.0078,637.814,824.0078,641.814,820.0078" style="stroke:#181818;stroke-width:1;"/><line style="stroke:#181818;stroke-width:1;" x1="178.0591" x2="643.814" y1="820.0078" y2="820.0078"/><text fill="#000000" font-family="sans-serif" font-size="13" lengthAdjust="spacing" textLength="127.9814" x="185.0591" y="798.7998">&#1042;&#1099;&#1087;&#1086;&#1083;&#1085;&#1077;&#1085;&#1080;&#1077; &#1079;&#1072;&#1087;&#1088;&#1086;&#1089;&#1072;</text><text fill="#000000" font-family="sans-serif" font-size="13" lengthAdjust="spacing" textLength="128.0068" x="185.0591" y="815.1514">&#1095;&#1077;&#1088;&#1077;&#1079; conn-&gt;methods</text><polygon fill="#181818" points="189.0591,846.3594,179.0591,850.3594,189.0591,854.3594,185.0591,850.3594" style="stroke:#181818;stroke-width:1;"/><line style="stroke:#181818;stroke-width:1;stroke-dasharray:2.0,2.0;" x1="183.0591" x2="648.814" y1="850.3594" y2="850.3594"/><text fill="#000000" font-family="sans-serif" font-size="13" lengthAdjust="spacing" textLength="61.8579" x="195.0591" y="845.5029">&#1056;&#1077;&#1079;&#1091;&#1083;&#1100;&#1090;&#1072;&#1090;</text><polygon fill="#181818" points="53.2388,876.7109,43.2388,880.7109,53.2388,884.7109,49.2388,880.7109" style="stroke:#181818;stroke-width:1;"/><line style="stroke:#181818;stroke-width:1;stroke-dasharray:2.0,2.0;" x1="47.2388" x2="177.0591" y1="880.7109" y2="880.7109"/><text fill="#000000" font-family="sans-serif" font-size="13" lengthAdjust="spacing" textLength="87.4263" x="59.2388" y="875.8545">PDOStatement</text><!--SRC=[XLJTRjem6BttKrXSWKGdxRRQAatGITEwbObU8aLkuev8mKuTiurTKQhzgTKgxNBI_juWQvi1GODNiDzednq2oK0R4k0uvpl-ldDE8dqPKAn-gBaQgriLgzzgeXAips0ZWOq9R2HcKrzXk1XZjT3dQgPYX48YfE_w8M4ILzHdDTT3VQv7jYIkO1BX1XUy30izxeIS1tTS2sZ1iWnuJPdda6Z0N8jpfCKzC1kRu9pDEI6kv69WiG-pTHdvPD1-Te2Rmdz1XKLbIuHCYtXdptQ2T_5fduf1jTBUFzXl7E6xbHgoDzO0zGs4cO0ywLQDEWokPw0Lw92e5FJu0FzJhDAYFFe28HB8JFOI0qXlbkOdLbEuOtRd2CCdRsIb1NH3tDE-BsYrXYp4SdvHYHwPvgw1_2TyRys1-atTaCxnFTmZhopQVDPamBnK3dZjQ3OFUgGlRQ6bIrQ5ERPKvdB6y7rCNH84tAqQUxpZhYDh_oupsL4Ba6zeZyaps6m_hNTOm9_xh8v34aKlkV10O9D2INjXG2J5LHf9uVN3hKTa9iC9th7J9SmBQ9wKgcbrNRC45al0w1WSExFUt2oREMgqTg1JesaADd_KxtBRDgXA4nu-_ey2Nmj-_LhQRiEGPjAeQOUvWdgKIPy44Onz8YZTClHV0J5ZMX0yLbb62ewlKxs2RQGTF9ceQtq5QKXLR85WGGeBmVlIPnG_Qcwj_0upt9Wd1H8q12dVsbU86r32-Y5GGC0naCOmTW8wlo-DN7fKREiv_TgVJ_h2MZ4hFZk6S65o17h67MRyWQi44cCwtzdhKTdbNeGABXKR7fjtcxw4eo7uQAMIVKdiubRpi2qXT3rm0Vq1]--></g></svg>