<svg xmlns="http://www.w3.org/2000/svg" xmlns:xlink="http://www.w3.org/1999/xlink" contentStyleType="text/css" height="724px" preserveAspectRatio="none" style="width:848px;height:724px;background:#FFFFFF;" version="1.1" viewBox="0 0 848 724" width="848px" zoomAndPan="magnify"><title>Evento &#8594; Callback &#8594; Coroutine</title><defs/><g><text fill="#000000" font-family="sans-serif" font-size="14" font-weight="bold" lengthAdjust="spacing" textLength="202.4053" x="318.9241" y="29.5332">Evento &#8594; Callback &#8594; Coroutine</text><line style="stroke:#181818;stroke-width:0.5;stroke-dasharray:5.0,5.0;" x1="146" x2="146" y1="93.8281" y2="670.4531"/><line style="stroke:#181818;stroke-width:0.5;stroke-dasharray:5.0,5.0;" x1="296.6172" x2="296.6172" y1="93.8281" y2="670.4531"/><line style="stroke:#181818;stroke-width:0.5;stroke-dasharray:5.0,5.0;" x1="512.3335" x2="512.3335" y1="93.8281" y2="670.4531"/><line style="stroke:#181818;stroke-width:0.5;stroke-dasharray:5.0,5.0;" x1="677.5361" x2="677.5361" y1="93.8281" y2="670.4531"/><rect fill="#E2E2F0" height="31.6094" rx="2.5" ry="2.5" style="stroke:#181818;stroke-width:0.5;" width="74.7031" x="109" y="61.2188"/><text fill="#000000" font-family="sans-serif" font-size="14" lengthAdjust="spacing" textLength="60.7031" x="116" y="82.752">Coroutine</text><rect fill="#E2E2F0" height="31.6094" rx="2.5" ry="2.5" style="stroke:#181818;stroke-width:0.5;" width="74.7031" x="109" y="669.4531"/><text fill="#000000" font-family="sans-serif" font-size="14" lengthAdjust="spacing" textLength="60.7031" x="116" y="690.9863">Coroutine</text><rect fill="#E2E2F0" height="31.6094" rx="2.5" ry="2.5" style="stroke:#181818;stroke-width:0.5;" width="54.4482" x="269.6172" y="61.2188"/><text fill="#000000" font-family="sans-serif" font-size="14" lengthAdjust="spacing" textLength="40.4482" x="276.6172" y="82.752">Waker</text><rect fill="#E2E2F0" height="31.6094" rx="2.5" ry="2.5" style="stroke:#181818;stroke-width:0.5;" width="54.4482" x="269.6172" y="669.4531"/><text fill="#000000" font-family="sans-serif" font-size="14" lengthAdjust="spacing" textLength="40.4482" x="276.6172" y="690.9863">Waker</text><rect fill="#E2E2F0" height="49.2188" rx="2.5" ry="2.5" style="stroke:#181818;stroke-width:0.5;" width="103.4551" x="461.3335" y="43.6094"/><text fill="#000000" font-family="sans-serif" font-size="14" lengthAdjust="spacing" textLength="35.7998" x="495.1611" y="65.1426">Evento</text><text fill="#000000" font-family="sans-serif" font-size="14" lengthAdjust="spacing" textLength="89.4551" x="468.3335" y="82.752">(timer, poll, ...)</text><rect fill="#E2E2F0" height="49.2188" rx="2.5" ry="2.5" style="stroke:#181818;stroke-width:0.5;" width="103.4551" x="461.3335" y="669.4531"/><text fill="#000000" font-family="sans-serif" font-size="14" lengthAdjust="spacing" textLength="35.7998" x="495.1611" y="690.9863">Evento</text><text fill="#000000" font-family="sans-serif" font-size="14" lengthAdjust="spacing" textLength="89.4551" x="468.3335" y="708.5957">(timer, poll, ...)</text><rect fill="#E2E2F0" height="49.2188" rx="2.5" ry="2.5" style="stroke:#181818;stroke-width:0.5;" width="63.0205" x="646.5361" y="43.6094"/><text fill="#000000" font-family="sans-serif" font-size="14" lengthAdjust="spacing" textLength="49.0205" x="653.5361" y="65.1426">Reactor</text><text fill="#000000" font-family="sans-serif" font-size="14" lengthAdjust="spacing" textLength="38.1172" x="658.9878" y="82.752">(libuv)</text><rect fill="#E2E2F0" height="49.2188" rx="2.5" ry="2.5" style="stroke:#181818;stroke-width:0.5;" width="63.0205" x="646.5361" y="669.4531"/><text fill="#000000" font-family="sans-serif" font-size="14" lengthAdjust="spacing" textLength="49.0205" x="653.5361" y="690.9863">Reactor</text><text fill="#000000" font-family="sans-serif" font-size="14" lengthAdjust="spacing" textLength="38.1172" x="658.9878" y="708.5957">(libuv)</text><rect fill="#EEEEEE" height="3" style="stroke:#EEEEEE;stroke-width:1;" width="841.2534" x="0" y="125.0039"/><line style="stroke:#000000;stroke-width:1;" x1="0" x2="841.2534" y1="125.0039" y2="125.0039"/><line style="stroke:#000000;stroke-width:1;" x1="0" x2="841.2534" y1="128.0039" y2="128.0039"/><rect fill="#EEEEEE" height="24.3516" style="stroke:#000000;stroke-width:2;" width="97.0591" x="372.0972" y="113.8281"/><text fill="#000000" font-family="sans-serif" font-size="13" font-weight="bold" lengthAdjust="spacing" textLength="79.4473" x="378.0972" y="131.3232">Sottoscrizione</text><polygon fill="#181818" points="284.8413,166.5313,294.8413,170.5313,284.8413,174.5313,288.8413,170.5313" style="stroke:#181818;stroke-width:1;"/><line style="stroke:#181818;stroke-width:1;" x1="146.3516" x2="290.8413" y1="170.5313" y2="170.5313"/><text fill="#000000" font-family="sans-serif" font-size="13" lengthAdjust="spacing" textLength="74.4136" x="153.3516" y="165.6748">waker_new()</text><polygon fill="#181818" points="501.061,196.8828,511.061,200.8828,501.061,204.8828,505.061,200.8828" style="stroke:#181818;stroke-width:1;"/><line style="stroke:#181818;stroke-width:1;" x1="296.8413" x2="507.061" y1="200.8828" y2="200.8828"/><text fill="#000000" font-family="sans-serif" font-size="13" lengthAdjust="spacing" textLength="192.2197" x="303.8413" y="196.0264">add_callback(coroutine_callback)</text><polygon fill="#181818" points="666.0464,238.4102,676.0464,242.4102,666.0464,246.4102,670.0464,242.4102" style="stroke:#181818;stroke-width:1;"/><line style="stroke:#181818;stroke-width:1;" x1="513.061" x2="672.0464" y1="242.4102" y2="242.4102"/><text fill="#000000" font-family="sans-serif" font-size="13" lengthAdjust="spacing" textLength="33.9409" x="520.061" y="237.5537">start()</text><path d="M683,213.8828 L683,255.8828 L831,255.8828 L831,223.8828 L821,213.8828 L683,213.8828 " fill="#FEFFDD" style="stroke:#181818;stroke-width:0.5;"/><path d="M821,213.8828 L821,223.8828 L831,223.8828 L821,213.8828 " fill="#FEFFDD" style="stroke:#181818;stroke-width:0.5;"/><text fill="#000000" font-family="sans-serif" font-size="13" lengthAdjust="spacing" textLength="101.1943" x="689" y="232.3779">loop_ref_count++</text><text fill="#000000" font-family="sans-serif" font-size="13" lengthAdjust="spacing" textLength="127.207" x="689" y="248.7295">active_event_count++</text><line style="stroke:#181818;stroke-width:1;" x1="146.3516" x2="188.3516" y1="283.9375" y2="283.9375"/><line style="stroke:#181818;stroke-width:1;" x1="188.3516" x2="188.3516" y1="283.9375" y2="296.9375"/><line style="stroke:#181818;stroke-width:1;" x1="147.3516" x2="188.3516" y1="296.9375" y2="296.9375"/><polygon fill="#181818" points="157.3516,292.9375,147.3516,296.9375,157.3516,300.9375,153.3516,296.9375" style="stroke:#181818;stroke-width:1;"/><text fill="#000000" font-family="sans-serif" font-size="13" lengthAdjust="spacing" textLength="71.5063" x="153.3516" y="279.0811">SUSPEND()</text><path d="M22,270.0859 L22,296.0859 L140,296.0859 L140,280.0859 L130,270.0859 L22,270.0859 " fill="#FEFFDD" style="stroke:#181818;stroke-width:0.5;"/><path d="M130,270.0859 L130,280.0859 L140,280.0859 L130,270.0859 " fill="#FEFFDD" style="stroke:#181818;stroke-width:0.5;"/><text fill="#000000" font-family="sans-serif" font-size="13" lengthAdjust="spacing" textLength="97.5571" x="28" y="288.5811">La Coroutine dorme</text><rect fill="#EEEEEE" height="3" style="stroke:#EEEEEE;stroke-width:1;" width="841.2534" x="0" y="326.1133"/><line style="stroke:#000000;stroke-width:1;" x1="0" x2="841.2534" y1="326.1133" y2="326.1133"/><line style="stroke:#000000;stroke-width:1;" x1="0" x2="841.2534" y1="329.1133" y2="329.1133"/><rect fill="#EEEEEE" height="24.3516" style="stroke:#000000;stroke-width:2;" width="67.4536" x="386.8999" y="314.9375"/><text fill="#000000" font-family="sans-serif" font-size="13" font-weight="bold" lengthAdjust="spacing" textLength="49.8418" x="392.8999" y="332.4326">Risveglio</text><polygon fill="#181818" points="524.061,367.6406,514.061,371.6406,524.061,375.6406,520.061,371.6406" style="stroke:#181818;stroke-width:1;"/><line style="stroke:#181818;stroke-width:1;" x1="518.061" x2="677.0464" y1="371.6406" y2="371.6406"/><text fill="#000000" font-family="sans-serif" font-size="13" lengthAdjust="spacing" textLength="77.3145" x="530.061" y="366.7842">callback libuv</text><line style="stroke:#181818;stroke-width:1;" x1="513.061" x2="555.061" y1="401.9922" y2="401.9922"/><line style="stroke:#181818;stroke-width:1;" x1="555.061" x2="555.061" y1="401.9922" y2="414.9922"/><line style="stroke:#181818;stroke-width:1;" x1="514.061" x2="555.061" y1="414.9922" y2="414.9922"/><polygon fill="#181818" points="524.061,410.9922,514.061,414.9922,524.061,418.9922,520.061,414.9922" style="stroke:#181818;stroke-width:1;"/><text fill="#000000" font-family="sans-serif" font-size="13" lengthAdjust="spacing" textLength="150.9854" x="520.061" y="397.1357">NOTIFY(result, exception)</text><polygon fill="#181818" points="307.8413,441.3438,297.8413,445.3438,307.8413,449.3438,303.8413,445.3438" style="stroke:#181818;stroke-width:1;"/><line style="stroke:#181818;stroke-width:1;" x1="301.8413" x2="512.061" y1="445.3438" y2="445.3438"/><text fill="#000000" font-family="sans-serif" font-size="13" lengthAdjust="spacing" textLength="148.1226" x="313.8413" y="440.4873">coroutine_callback(result)</text><line style="stroke:#181818;stroke-width:1;" x1="296.8413" x2="338.8413" y1="475.6953" y2="475.6953"/><line style="stroke:#181818;stroke-width:1;" x1="338.8413" x2="338.8413" y1="475.6953" y2="488.6953"/><line style="stroke:#181818;stroke-width:1;" x1="297.8413" x2="338.8413" y1="488.6953" y2="488.6953"/><polygon fill="#181818" points="307.8413,484.6953,297.8413,488.6953,307.8413,492.6953,303.8413,488.6953" style="stroke:#181818;stroke-width:1;"/><text fill="#000000" font-family="sans-serif" font-size="13" lengthAdjust="spacing" textLength="105.1172" x="303.8413" y="470.8389">status = QUEUED</text><polygon fill="#181818" points="157.3516,515.0469,147.3516,519.0469,157.3516,523.0469,153.3516,519.0469" style="stroke:#181818;stroke-width:1;"/><line style="stroke:#181818;stroke-width:1;" x1="151.3516" x2="295.8413" y1="519.0469" y2="519.0469"/><text fill="#000000" font-family="sans-serif" font-size="13" lengthAdjust="spacing" textLength="126.4897" x="163.3516" y="514.1904">accodamento nello Scheduler</text><rect fill="#EEEEEE" height="3" style="stroke:#EEEEEE;stroke-width:1;" width="841.2534" x="0" y="548.2227"/><line style="stroke:#000000;stroke-width:1;" x1="0" x2="841.2534" y1="548.2227" y2="548.2227"/><line style="stroke:#000000;stroke-width:1;" x1="0" x2="841.2534" y1="551.2227" y2="551.2227"/><rect fill="#EEEEEE" height="24.3516" style="stroke:#000000;stroke-width:2;" width="92.7236" x="374.2649" y="537.0469"/><text fill="#000000" font-family="sans-serif" font-size="13" font-weight="bold" lengthAdjust="spacing" textLength="75.1118" x="380.2649" y="554.542">Ripresa</text><line style="stroke:#181818;stroke-width:1;" x1="146.3516" x2="188.3516" y1="598.4258" y2="598.4258"/><line style="stroke:#181818;stroke-width:1;" x1="188.3516" x2="188.3516" y1="598.4258" y2="611.4258"/><line style="stroke:#181818;stroke-width:1;" x1="147.3516" x2="188.3516" y1="611.4258" y2="611.4258"/><polygon fill="#181818" points="157.3516,607.4258,147.3516,611.4258,157.3516,615.4258,153.3516,611.4258" style="stroke:#181818;stroke-width:1;"/><text fill="#000000" font-family="sans-serif" font-size="13" lengthAdjust="spacing" textLength="64.2764" x="153.3516" y="593.5693">RESUME()</text><path d="M5,576.3984 L5,618.3984 L141,618.3984 L141,586.3984 L131,576.3984 L5,576.3984 " fill="#FEFFDD" style="stroke:#181818;stroke-width:0.5;"/><path d="M131,576.3984 L131,586.3984 L141,586.3984 L131,576.3984 " fill="#FEFFDD" style="stroke:#181818;stroke-width:0.5;"/><text fill="#000000" font-family="sans-serif" font-size="13" lengthAdjust="spacing" textLength="115.6289" x="11" y="594.8936">La Coroutine continua</text><text fill="#000000" font-family="sans-serif" font-size="13" lengthAdjust="spacing" textLength="105.1172" x="11" y="611.2451">con waker-&gt;result</text><polygon fill="#181818" points="501.061,645.4531,511.061,649.4531,501.061,653.4531,505.061,649.4531" style="stroke:#181818;stroke-width:1;"/><line style="stroke:#181818;stroke-width:1;" x1="146.3516" x2="507.061" y1="649.4531" y2="649.4531"/><text fill="#000000" font-family="sans-serif" font-size="13" lengthAdjust="spacing" textLength="80.2026" x="153.3516" y="644.5967">del_callback()</text><path d="M518,629.1016 L518,655.1016 L660,655.1016 L660,639.1016 L650,629.1016 L518,629.1016 " fill="#FEFFDD" style="stroke:#181818;stroke-width:0.5;"/><path d="M650,629.1016 L650,639.1016 L660,639.1016 L650,629.1016 " fill="#FEFFDD" style="stroke:#181818;stroke-width:0.5;"/><text fill="#000000" font-family="sans-serif" font-size="13" lengthAdjust="spacing" textLength="121.4053" x="524" y="647.5967">Pulizia sottoscrizione</text></g></svg>