<svg xmlns="http://www.w3.org/2000/svg" xmlns:xlink="http://www.w3.org/1999/xlink" contentStyleType="text/css" height="787px" preserveAspectRatio="none" style="width:554px;height:787px;background:#FFFFFF;" version="1.1" viewBox="0 0 554 787" width="554px" zoomAndPan="magnify"><title>&#1046;&#1080;&#1079;&#1085;&#1077;&#1085;&#1085;&#1099;&#1081; &#1094;&#1080;&#1082;&#1083; &#1089;&#1086;&#1073;&#1099;&#1090;&#1080;&#1103;</title><defs/><g><text fill="#000000" font-family="sans-serif" font-size="14" font-weight="bold" lengthAdjust="spacing" textLength="183.4014" x="178.6506" y="24.5332">&#1046;&#1080;&#1079;&#1085;&#1077;&#1085;&#1085;&#1099;&#1081; &#1094;&#1080;&#1082;&#1083; &#1089;&#1086;&#1073;&#1099;&#1090;&#1080;&#1103;</text><ellipse cx="256" cy="54.6094" fill="#222222" rx="10" ry="10" style="stroke:#222222;stroke-width:1;"/><g id="&#1057;&#1086;&#1079;&#1076;&#1072;&#1085;&#1086;"><rect fill="#F1F1F1" height="67.7969" rx="12.5" ry="12.5" style="stroke:#181818;stroke-width:0.5;" width="90.3828" x="211" y="142.6094"/><line style="stroke:#181818;stroke-width:0.5;" x1="211" x2="301.3828" y1="170.2188" y2="170.2188"/><text fill="#000000" font-family="sans-serif" font-size="14" lengthAdjust="spacing" textLength="55.7881" x="228.2974" y="162.1426">&#1057;&#1086;&#1079;&#1076;&#1072;&#1085;&#1086;</text><text fill="#000000" font-family="sans-serif" font-size="12" lengthAdjust="spacing" textLength="70.3828" x="216" y="187.6758">ref_count = 1</text><text fill="#000000" font-family="sans-serif" font-size="12" lengthAdjust="spacing" textLength="45.6973" x="216" y="202.7695">flags = 0</text></g><g id="&#1040;&#1082;&#1090;&#1080;&#1074;&#1085;&#1086;"><rect fill="#F1F1F1" height="67.7969" rx="12.5" ry="12.5" style="stroke:#181818;stroke-width:0.5;" width="137.4219" x="187.5" y="288.6094"/><line style="stroke:#181818;stroke-width:0.5;" x1="187.5" x2="324.9219" y1="316.2188" y2="316.2188"/><text fill="#000000" font-family="sans-serif" font-size="14" lengthAdjust="spacing" textLength="52.6504" x="229.8857" y="308.1426">&#1040;&#1082;&#1090;&#1080;&#1074;&#1085;&#1086;</text><text fill="#000000" font-family="sans-serif" font-size="12" lengthAdjust="spacing" textLength="99.7441" x="192.5" y="333.6758">loop_ref_count &gt; 0</text><text fill="#000000" font-family="sans-serif" font-size="12" lengthAdjust="spacing" textLength="117.4219" x="192.5" y="348.7695">active_event_count++</text></g><g id="&#1057;&#1088;&#1072;&#1073;&#1086;&#1090;&#1072;&#1083;&#1086;"><rect fill="#F1F1F1" height="52.7031" rx="12.5" ry="12.5" style="stroke:#181818;stroke-width:0.5;" width="166.25" x="65" y="450.6094"/><line style="stroke:#181818;stroke-width:0.5;" x1="65" x2="231.25" y1="478.2188" y2="478.2188"/><text fill="#000000" font-family="sans-serif" font-size="14" lengthAdjust="spacing" textLength="71.6406" x="112.3047" y="470.1426">&#1057;&#1088;&#1072;&#1073;&#1086;&#1090;&#1072;&#1083;&#1086;</text><text fill="#000000" font-family="sans-serif" font-size="12" lengthAdjust="spacing" textLength="146.25" x="70" y="495.6758">triggered_events &#1086;&#1073;&#1085;&#1086;&#1074;&#1083;&#1105;&#1085;</text></g><g id="&#1047;&#1072;&#1082;&#1088;&#1099;&#1090;&#1086;"><rect fill="#F1F1F1" height="67.7969" rx="12.5" ry="12.5" style="stroke:#181818;stroke-width:0.5;" width="142.7363" x="184.5" y="597.6094"/><line style="stroke:#181818;stroke-width:0.5;" x1="184.5" x2="327.2363" y1="625.2188" y2="625.2188"/><text fill="#000000" font-family="sans-serif" font-size="14" lengthAdjust="spacing" textLength="54.4141" x="228.6611" y="617.1426">&#1047;&#1072;&#1082;&#1088;&#1099;&#1090;&#1086;</text><text fill="#000000" font-family="sans-serif" font-size="12" lengthAdjust="spacing" textLength="105.4922" x="189.5" y="642.6758">flags |= F_CLOSED</text><text fill="#000000" font-family="sans-serif" font-size="12" lengthAdjust="spacing" textLength="122.7363" x="189.5" y="657.7695">&#1087;&#1086;&#1076;&#1087;&#1080;&#1089;&#1082;&#1072; &#1085;&#1077;&#1074;&#1086;&#1079;&#1084;&#1086;&#1078;&#1085;&#1072;</text></g><g id="&#1054;&#1089;&#1090;&#1072;&#1085;&#1086;&#1074;&#1083;&#1077;&#1085;&#1086;"><rect fill="#F1F1F1" height="52.7031" rx="12.5" ry="12.5" style="stroke:#181818;stroke-width:0.5;" width="119.7441" x="305" y="450.6094"/><line style="stroke:#181818;stroke-width:0.5;" x1="305" x2="424.7441" y1="478.2188" y2="478.2188"/><text fill="#000000" font-family="sans-serif" font-size="14" lengthAdjust="spacing" textLength="86.5156" x="321.6143" y="470.1426">&#1054;&#1089;&#1090;&#1072;&#1085;&#1086;&#1074;&#1083;&#1077;&#1085;&#1086;</text><text fill="#000000" font-family="sans-serif" font-size="12" lengthAdjust="spacing" textLength="99.7441" x="310" y="495.6758">loop_ref_count = 0</text></g><ellipse cx="256" cy="770.6094" fill="none" rx="11" ry="11" style="stroke:#222222;stroke-width:1;"/><ellipse cx="256" cy="770.6094" fill="#222222" rx="6" ry="6" style="stroke:#222222;stroke-width:1;"/><!--link *start* to ???????--><g id="link_*start*_&#1057;&#1086;&#1079;&#1076;&#1072;&#1085;&#1086;"><path d="M256,64.6294 C256,80.9294 256,110.0394 256,136.4294 " fill="none" id="*start*-to-&#1057;&#1086;&#1079;&#1076;&#1072;&#1085;&#1086;" style="stroke:#181818;stroke-width:1;"/><polygon fill="#181818" points="256,142.4294,260,133.4294,256,137.4294,252,133.4294,256,142.4294" style="stroke:#181818;stroke-width:1;"/><text fill="#000000" font-family="sans-serif" font-size="13" lengthAdjust="spacing" textLength="59.2617" x="257" y="109.1045">new event</text></g><!--link ??????? to ???????--><g id="link_&#1057;&#1086;&#1079;&#1076;&#1072;&#1085;&#1086;_&#1040;&#1082;&#1090;&#1080;&#1074;&#1085;&#1086;"><path d="M256,210.6494 C256,233.8994 256,258.8994 256,282.2294 " fill="none" id="&#1057;&#1086;&#1079;&#1076;&#1072;&#1085;&#1086;-to-&#1040;&#1082;&#1090;&#1080;&#1074;&#1085;&#1086;" style="stroke:#181818;stroke-width:1;"/><polygon fill="#181818" points="256,288.2294,260,279.2294,256,283.2294,252,279.2294,256,288.2294" style="stroke:#181818;stroke-width:1;"/><text fill="#000000" font-family="sans-serif" font-size="13" lengthAdjust="spacing" textLength="33.9409" x="257" y="255.1045">start()</text></g><!--link ??????? to ???????--><g id="link_&#1057;&#1086;&#1079;&#1076;&#1072;&#1085;&#1086;_&#1057;&#1086;&#1079;&#1076;&#1072;&#1085;&#1086;"><path d="M301.23,163.2294 C320.05,162.3094 336,166.7694 336,176.6094 C336,186.4494 326.0428,191.2023 307.2228,190.2823 " fill="none" id="&#1057;&#1086;&#1079;&#1076;&#1072;&#1085;&#1086;-to-&#1057;&#1086;&#1079;&#1076;&#1072;&#1085;&#1086;" style="stroke:#181818;stroke-width:1;"/><polygon fill="#181818" points="301.23,189.9894,310.024,194.424,306.224,190.2335,310.4146,186.4336,301.23,189.9894" style="stroke:#181818;stroke-width:1;"/><text fill="#000000" font-family="sans-serif" font-size="13" lengthAdjust="spacing" textLength="84.5444" x="342" y="182.1045">add_callback()</text></g><!--link ??????? to ???????--><g id="link_&#1040;&#1082;&#1090;&#1080;&#1074;&#1085;&#1086;_&#1040;&#1082;&#1090;&#1080;&#1074;&#1085;&#1086;"><path d="M324.68,315.8894 C344.34,316.1494 359.5,318.3894 359.5,322.6094 C359.5,326.8294 350.3395,328.99 330.6795,329.25 " fill="none" id="&#1040;&#1082;&#1090;&#1080;&#1074;&#1085;&#1086;-to-&#1040;&#1082;&#1090;&#1080;&#1074;&#1085;&#1086;" style="stroke:#181818;stroke-width:1;"/><polygon fill="#181818" points="324.68,329.3294,333.7321,333.21,329.6796,329.2633,333.6263,325.2107,324.68,329.3294" style="stroke:#181818;stroke-width:1;"/><text fill="#000000" font-family="sans-serif" font-size="13" lengthAdjust="spacing" textLength="84.5444" x="365.5" y="328.1045">add_callback()</text></g><!--link ??????? to ???????--><g id="link_&#1040;&#1082;&#1090;&#1080;&#1074;&#1085;&#1086;_&#1040;&#1082;&#1090;&#1080;&#1074;&#1085;&#1086;"><path d="M324.53,310.8694 C384.46,306.4494 455.5,310.3594 455.5,322.6094 C455.5,334.8594 390.4437,339.2107 330.5137,334.7907 " fill="none" id="&#1040;&#1082;&#1090;&#1080;&#1074;&#1085;&#1086;-to-&#1040;&#1082;&#1090;&#1080;&#1074;&#1085;&#1086;-1" style="stroke:#181818;stroke-width:1;"/><polygon fill="#181818" points="324.53,334.3494,333.2114,339.0005,329.5165,334.7171,333.7998,331.0222,324.53,334.3494" style="stroke:#181818;stroke-width:1;"/><text fill="#000000" font-family="sans-serif" font-size="13" lengthAdjust="spacing" textLength="80.2026" x="461.5" y="328.1045">del_callback()</text></g><!--link ??????? to ?????????--><g id="link_&#1040;&#1082;&#1090;&#1080;&#1074;&#1085;&#1086;_&#1057;&#1088;&#1072;&#1073;&#1086;&#1090;&#1072;&#1083;&#1086;"><path d="M187.39,333.1394 C126.97,343.0994 45.62,360.8894 26,386.6094 C6,412.8194 29.4602,432.3733 64.1502,448.0133 " fill="none" id="&#1040;&#1082;&#1090;&#1080;&#1074;&#1085;&#1086;-to-&#1057;&#1088;&#1072;&#1073;&#1086;&#1090;&#1072;&#1083;&#1086;" style="stroke:#181818;stroke-width:1;"/><polygon fill="#181818" points="69.62,450.4794,63.0594,443.1338,65.0618,448.4243,59.7713,450.4268,69.62,450.4794" style="stroke:#181818;stroke-width:1;"/><text fill="#000000" font-family="sans-serif" font-size="13" lengthAdjust="spacing" textLength="77.3145" x="27" y="409.1045">libuv callback</text></g><!--link ????????? to ???????--><g id="link_&#1057;&#1088;&#1072;&#1073;&#1086;&#1090;&#1072;&#1083;&#1086;_&#1040;&#1082;&#1090;&#1080;&#1074;&#1085;&#1086;"><path d="M140.22,450.4194 C136.06,431.4994 133.81,405.8194 145,386.6094 C154.7,369.9494 165.3926,360.2667 182.1926,350.8767 " fill="none" id="&#1057;&#1088;&#1072;&#1073;&#1086;&#1090;&#1072;&#1083;&#1086;-to-&#1040;&#1082;&#1090;&#1080;&#1074;&#1085;&#1086;" style="stroke:#181818;stroke-width:1;"/><polygon fill="#181818" points="187.43,347.9494,177.6223,348.8488,183.0655,350.3888,181.5254,355.832,187.43,347.9494" style="stroke:#181818;stroke-width:1;"/><text fill="#000000" font-family="sans-serif" font-size="13" lengthAdjust="spacing" textLength="47.6646" x="209.7305" y="401.1045">NOTIFY</text><text fill="#000000" font-family="sans-serif" font-size="13" lengthAdjust="spacing" textLength="175.1255" x="146" y="417.4561">(&#1087;&#1077;&#1088;&#1080;&#1086;&#1076;&#1080;&#1095;&#1077;&#1089;&#1082;&#1080;&#1081; &#1090;&#1072;&#1081;&#1084;&#1077;&#1088;, poll)</text></g><!--link ????????? to ???????--><g id="link_&#1057;&#1088;&#1072;&#1073;&#1086;&#1090;&#1072;&#1083;&#1086;_&#1047;&#1072;&#1082;&#1088;&#1099;&#1090;&#1086;"><path d="M151.83,503.8194 C155.6,522.7594 162.79,548.4394 176,567.6094 C183.62,578.6694 189.1412,584.9017 199.6412,593.5617 " fill="none" id="&#1057;&#1088;&#1072;&#1073;&#1086;&#1090;&#1072;&#1083;&#1086;-to-&#1047;&#1072;&#1082;&#1088;&#1099;&#1090;&#1086;" style="stroke:#181818;stroke-width:1;"/><polygon fill="#181818" points="204.27,597.3794,199.8719,588.5671,200.4127,594.198,194.7817,594.7388,204.27,597.3794" style="stroke:#181818;stroke-width:1;"/><text fill="#000000" font-family="sans-serif" font-size="13" lengthAdjust="spacing" textLength="133.6436" x="177" y="548.1045">NOTIFY_AND_CLOSE</text><text fill="#000000" font-family="sans-serif" font-size="13" lengthAdjust="spacing" textLength="115.5845" x="186.0295" y="564.4561">(DNS, exec, Future)</text></g><!--link ??????? to ???????????--><g id="link_&#1040;&#1082;&#1090;&#1080;&#1074;&#1085;&#1086;_&#1054;&#1089;&#1090;&#1072;&#1085;&#1086;&#1074;&#1083;&#1077;&#1085;&#1086;"><path d="M298.56,356.6194 C308.41,365.6094 318.26,375.8694 326,386.6094 C340.07,406.1394 348.5566,425.8732 355.0866,444.6232 " fill="none" id="&#1040;&#1082;&#1090;&#1080;&#1074;&#1085;&#1086;-to-&#1054;&#1089;&#1090;&#1072;&#1085;&#1086;&#1074;&#1083;&#1077;&#1085;&#1086;" style="stroke:#181818;stroke-width:1;"/><polygon fill="#181818" points="357.06,450.2894,357.8774,440.4745,355.4155,445.5675,350.3225,443.1056,357.06,450.2894" style="stroke:#181818;stroke-width:1;"/><text fill="#000000" font-family="sans-serif" font-size="13" lengthAdjust="spacing" textLength="33.23" x="345" y="409.1045">stop()</text></g><!--link ??????????? to ???????--><g id="link_&#1054;&#1089;&#1090;&#1072;&#1085;&#1086;&#1074;&#1083;&#1077;&#1085;&#1086;_&#1040;&#1082;&#1090;&#1080;&#1074;&#1085;&#1086;"><path d="M381.19,450.5094 C390.89,431.6394 399.18,405.9794 387,386.6094 C372.96,364.2794 354.1411,351.892 330.1711,342.432 " fill="none" id="&#1054;&#1089;&#1090;&#1072;&#1085;&#1086;&#1074;&#1083;&#1077;&#1085;&#1086;-to-&#1040;&#1082;&#1090;&#1080;&#1074;&#1085;&#1086;" style="stroke:#181818;stroke-width:1;"/><polygon fill="#181818" points="324.59,340.2294,331.4932,347.254,329.2409,342.0649,334.43,339.8126,324.59,340.2294" style="stroke:#181818;stroke-width:1;"/><text fill="#000000" font-family="sans-serif" font-size="13" lengthAdjust="spacing" textLength="33.9409" x="394" y="409.1045">start()</text></g><!--link ??????????? to ???????--><g id="link_&#1054;&#1089;&#1090;&#1072;&#1085;&#1086;&#1074;&#1083;&#1077;&#1085;&#1086;_&#1047;&#1072;&#1082;&#1088;&#1099;&#1090;&#1086;"><path d="M352.76,503.7994 C343.47,522.2494 329.81,547.3494 315,567.6094 C307.48,577.8894 302.5591,583.9079 293.8491,593.2179 " fill="none" id="&#1054;&#1089;&#1090;&#1072;&#1085;&#1086;&#1074;&#1083;&#1077;&#1085;&#1086;-to-&#1047;&#1072;&#1082;&#1088;&#1099;&#1090;&#1086;" style="stroke:#181818;stroke-width:1;"/><polygon fill="#181818" points="289.75,597.5994,298.8196,593.7599,293.1659,593.9481,292.9777,588.2944,289.75,597.5994" style="stroke:#181818;stroke-width:1;"/><text fill="#000000" font-family="sans-serif" font-size="13" lengthAdjust="spacing" textLength="53.4663" x="337" y="556.1045">dispose()</text></g><!--link ??????? to *end*--><g id="link_&#1047;&#1072;&#1082;&#1088;&#1099;&#1090;&#1086;_*end*"><path d="M256,665.7694 C256,696.3394 256,733.8394 256,753.3894 " fill="none" id="&#1047;&#1072;&#1082;&#1088;&#1099;&#1090;&#1086;-to-*end*" style="stroke:#181818;stroke-width:1;"/><polygon fill="#181818" points="256,759.3894,260,750.3894,256,754.3894,252,750.3894,256,759.3894" style="stroke:#181818;stroke-width:1;"/><text fill="#000000" font-family="sans-serif" font-size="13" lengthAdjust="spacing" textLength="76.248" x="257" y="710.1045">ref_count = 0</text><text fill="#000000" font-family="sans-serif" font-size="13" lengthAdjust="spacing" textLength="53.4663" x="268.3909" y="726.4561">dispose()</text></g><!--SRC=[ZLFBJi905DttA-vI11BSca1YH18J0mlS635DQGVIsBIa7T252t2X2nRgHdSc_W4Ga3Vymfq_yawB8RQ5k6YJcNlEkOyvbvlSOe3lEC4nBd54tr9qSGhYYQvcE0VHmHNsHLSyuaIyAChruGsaqpd0BxeVun1xn5d1CTZi3bYBsLo9X5nMKtMdQNF8mb4qNBEqkaUXZ1AE-ObUSIQJus03zxZcyeD4B3OihHc6gckMLTNqMw8e4J7BSHhgjhuS5H71Q3etMqprcmjmoMGO5LjfAFj_A0QpzXKSD2dQr60VLnJeuJpemwmsM_3BL68nt3NhTUOo8sZ50_coKfR4v-8DbqeSBxRCOkdol71LiGzmZIEYJ4XaI0PvfbE7V3EH5f8AKrn8G0eQZcKbTkf_q64cshxDjlhgIJ6ldbwKocUKALyifu3TCpq5XIPlkcp7T3v5nzVUzELxEh2Dqv2Fi2iUSeAqumxiNbVk9ONRD4oluNXCbXKE1Klna8L2C85y54ApbrDVqzpbp7lWR_30Nu45_R_ft5F2F5c8NEA_QvcfsDjYVW00]--></g></svg>