<svg xmlns="http://www.w3.org/2000/svg" xmlns:xlink="http://www.w3.org/1999/xlink" contentStyleType="text/css" height="868px" preserveAspectRatio="none" style="width:1137px;height:868px;background:#FFFFFF;" version="1.1" viewBox="0 0 1137 868" width="1137px" zoomAndPan="magnify"><title>&#1054;&#1089;&#1085;&#1086;&#1074;&#1085;&#1086;&#1081; &#1094;&#1080;&#1082;&#1083; Scheduler</title><defs/><g><text fill="#000000" font-family="sans-serif" font-size="14" font-weight="bold" lengthAdjust="spacing" textLength="178.4863" x="478.0399" y="34.5332">&#1054;&#1089;&#1085;&#1086;&#1074;&#1085;&#1086;&#1081; &#1094;&#1080;&#1082;&#1083; Scheduler</text><ellipse cx="428.931" cy="58.6094" fill="#222222" rx="10" ry="10" style="stroke:#222222;stroke-width:1;"/><rect fill="#F1F1F1" height="35.0938" rx="12.5" ry="12.5" style="stroke:#181818;stroke-width:0.5;" width="125.2168" x="366.3226" y="88.6094"/><text fill="#000000" font-family="sans-serif" font-size="12" lengthAdjust="spacing" textLength="105.2168" x="376.3226" y="111.0664">Scheduler &#1079;&#1072;&#1087;&#1091;&#1097;&#1077;&#1085;</text><path d="M554.2836,183.8984 L554.2836,201.25 L534.2836,205.25 L554.2836,209.25 L554.2836,226.6016 A0,0 0 0 0 554.2836,226.6016 L788.0062,226.6016 A0,0 0 0 0 788.0062,226.6016 L788.0062,193.8984 L778.0062,183.8984 L554.2836,183.8984 A0,0 0 0 0 554.2836,183.8984 " fill="#FEFFDD" style="stroke:#181818;stroke-width:0.5;"/><path d="M778.0062,183.8984 L778.0062,193.8984 L788.0062,193.8984 L778.0062,183.8984 " fill="#FEFFDD" style="stroke:#181818;stroke-width:0.5;"/><text fill="#000000" font-family="sans-serif" font-size="13" lengthAdjust="spacing" textLength="85.8711" x="560.2836" y="202.3936">FIFO &#1087;&#1086;&#1088;&#1103;&#1076;&#1086;&#1082;.</text><text fill="#000000" font-family="sans-serif" font-size="13" lengthAdjust="spacing" textLength="212.7227" x="560.2836" y="218.7451">&#1048;&#1089;&#1082;&#1083;&#1102;&#1095;&#1077;&#1085;&#1080;&#1077; &#1087;&#1088;&#1077;&#1088;&#1099;&#1074;&#1072;&#1077;&#1090; &#1086;&#1073;&#1088;&#1072;&#1073;&#1086;&#1090;&#1082;&#1091;.</text><rect fill="#F1F1F1" height="35.0938" rx="12.5" ry="12.5" style="stroke:#181818;stroke-width:0.5;" width="210.7051" x="323.5785" y="187.7031"/><text fill="#000000" font-family="sans-serif" font-size="12" lengthAdjust="spacing" textLength="116.5547" x="333.5785" y="210.1602">&#1054;&#1073;&#1088;&#1072;&#1073;&#1086;&#1090;&#1072;&#1090;&#1100; &#1086;&#1095;&#1077;&#1088;&#1077;&#1076;&#1100;</text><text fill="#000000" font-family="sans-serif" font-size="12" font-weight="bold" lengthAdjust="spacing" textLength="70.8164" x="453.4672" y="210.1602">&#1084;&#1080;&#1082;&#1088;&#1086;&#1079;&#1072;&#1076;&#1072;&#1095;</text><polygon fill="#F1F1F1" points="369.3092,246.6016,488.5529,246.6016,500.5529,258.6016,488.5529,270.6016,369.3092,270.6016,357.3092,258.6016,369.3092,246.6016" style="stroke:#181818;stroke-width:0.5;"/><text fill="#000000" font-family="sans-serif" font-size="11" lengthAdjust="spacing" textLength="119.2437" x="369.3092" y="263.1025">coroutine_queue &#1087;&#1091;&#1089;&#1090;&#1072;?</text><text fill="#000000" font-family="sans-serif" font-size="11" lengthAdjust="spacing" textLength="12.5361" x="344.7731" y="256.1846">&#1076;&#1072;</text><text fill="#000000" font-family="sans-serif" font-size="11" lengthAdjust="spacing" textLength="17.2305" x="500.5529" y="256.1846">&#1085;&#1077;&#1090;</text><path d="M275.0273,280.6016 L275.0273,297.9531 L255.0273,301.9531 L275.0273,305.9531 L275.0273,323.3047 A0,0 0 0 0 275.0273,323.3047 L425.5259,323.3047 A0,0 0 0 0 425.5259,323.3047 L425.5259,290.6016 L415.5259,280.6016 L275.0273,280.6016 A0,0 0 0 0 275.0273,280.6016 " fill="#FEFFDD" style="stroke:#181818;stroke-width:0.5;"/><path d="M415.5259,280.6016 L415.5259,290.6016 L425.5259,290.6016 L415.5259,280.6016 " fill="#FEFFDD" style="stroke:#181818;stroke-width:0.5;"/><text fill="#000000" font-family="sans-serif" font-size="13" lengthAdjust="spacing" textLength="95.1768" x="281.0273" y="299.0967">&#1041;&#1083;&#1086;&#1082;&#1080;&#1088;&#1091;&#1077;&#1090;&#1089;&#1103; &#1076;&#1086;</text><text fill="#000000" font-family="sans-serif" font-size="13" lengthAdjust="spacing" textLength="129.4985" x="281.0273" y="315.4482">&#1073;&#1083;&#1080;&#1078;&#1072;&#1081;&#1096;&#1077;&#1075;&#1086; &#1089;&#1086;&#1073;&#1099;&#1090;&#1080;&#1103;</text><rect fill="#F1F1F1" height="35.0938" rx="12.5" ry="12.5" style="stroke:#181818;stroke-width:0.5;" width="244.0273" x="11" y="284.4063"/><text fill="#000000" font-family="sans-serif" font-size="12" lengthAdjust="spacing" textLength="46.9277" x="21" y="306.8633">&#1042;&#1099;&#1079;&#1074;&#1072;&#1090;&#1100;</text><text fill="#000000" font-family="sans-serif" font-size="12" font-weight="bold" lengthAdjust="spacing" textLength="92.0566" x="71.2617" y="306.8633">reactor_execute</text><text fill="#000000" font-family="sans-serif" font-size="12" lengthAdjust="spacing" textLength="81.709" x="163.3184" y="306.8633">(no_wait=false)</text><path d="M872.2732,280.6016 L872.2732,306.1289 L852.2732,310.1289 L872.2732,314.1289 L872.2732,339.6563 A0,0 0 0 0 872.2732,339.6563 L1097.5662,339.6563 A0,0 0 0 0 1097.5662,339.6563 L1097.5662,290.6016 L1087.5662,280.6016 L872.2732,280.6016 A0,0 0 0 0 872.2732,280.6016 " fill="#FEFFDD" style="stroke:#181818;stroke-width:0.5;"/><path d="M1087.5662,280.6016 L1087.5662,290.6016 L1097.5662,290.6016 L1087.5662,280.6016 " fill="#FEFFDD" style="stroke:#181818;stroke-width:0.5;"/><text fill="#000000" font-family="sans-serif" font-size="13" lengthAdjust="spacing" textLength="163.2046" x="878.2732" y="299.0967">&#1042;&#1089;&#1077;&#1075;&#1076;&#1072; &#1080;&#1079; &#1075;&#1086;&#1083;&#1086;&#1074;&#1099; &#1086;&#1095;&#1077;&#1088;&#1077;&#1076;&#1080;.</text><text fill="#000000" font-family="sans-serif" font-size="13" lengthAdjust="spacing" textLength="204.293" x="878.2732" y="315.4482">HI_PRIORITY &#1082;&#1086;&#1088;&#1091;&#1090;&#1080;&#1085;&#1099; &#1087;&#1086;&#1087;&#1072;&#1076;&#1072;&#1102;&#1090;</text><text fill="#000000" font-family="sans-serif" font-size="13" lengthAdjust="spacing" textLength="136.7222" x="878.2732" y="331.7998">&#1074; &#1085;&#1072;&#1095;&#1072;&#1083;&#1086; &#1087;&#1088;&#1080; enqueue.</text><rect fill="#F1F1F1" height="35.0938" rx="12.5" ry="12.5" style="stroke:#181818;stroke-width:0.5;" width="254.8496" x="597.4236" y="292.582"/><text fill="#000000" font-family="sans-serif" font-size="12" lengthAdjust="spacing" textLength="234.8496" x="607.4236" y="315.0391">&#1048;&#1079;&#1074;&#1083;&#1077;&#1095;&#1100; &#1089;&#1083;&#1077;&#1076;&#1091;&#1102;&#1097;&#1091;&#1102; &#1082;&#1086;&#1088;&#1091;&#1090;&#1080;&#1085;&#1091; &#1080;&#1079; &#1086;&#1095;&#1077;&#1088;&#1077;&#1076;&#1080;</text><rect fill="#F1F1F1" height="50.1875" rx="12.5" ry="12.5" style="stroke:#181818;stroke-width:0.5;" width="208.2969" x="620.7" y="359.6563"/><text fill="#000000" font-family="sans-serif" font-size="12" lengthAdjust="spacing" textLength="149.4082" x="630.7" y="382.1133">zend_fiber_switch_context()</text><text fill="#000000" font-family="sans-serif" font-size="12" lengthAdjust="spacing" textLength="188.2969" x="630.7" y="397.207">&#8594; &#1087;&#1077;&#1088;&#1077;&#1076;&#1072;&#1090;&#1100; &#1091;&#1087;&#1088;&#1072;&#1074;&#1083;&#1077;&#1085;&#1080;&#1077; &#1082;&#1086;&#1088;&#1091;&#1090;&#1080;&#1085;&#1077;</text><polygon fill="#F1F1F1" points="691.835,429.8438,757.8618,429.8438,769.8618,441.8438,757.8618,453.8438,691.835,453.8438,679.835,441.8438,691.835,429.8438" style="stroke:#181818;stroke-width:0.5;"/><text fill="#000000" font-family="sans-serif" font-size="11" lengthAdjust="spacing" textLength="66.0269" x="691.835" y="446.3447">switch_status</text><rect fill="#F1F1F1" height="50.1875" rx="12.5" ry="12.5" style="stroke:#181818;stroke-width:0.5;" width="171.1016" x="445.5259" y="491.5156"/><text fill="#000000" font-family="sans-serif" font-size="12" lengthAdjust="spacing" textLength="151.1016" x="455.5259" y="513.9727">&#1050;&#1086;&#1088;&#1091;&#1090;&#1080;&#1085;&#1072; &#1074;&#1099;&#1079;&#1074;&#1072;&#1083;&#1072; suspend</text><text fill="#000000" font-family="sans-serif" font-size="12" lengthAdjust="spacing" textLength="137.0684" x="455.5259" y="529.0664">&#8594; &#1074;&#1077;&#1088;&#1085;&#1091;&#1083;&#1080;&#1089;&#1100; &#1074; scheduler</text><rect fill="#F1F1F1" height="50.1875" rx="12.5" ry="12.5" style="stroke:#181818;stroke-width:0.5;" width="179.0293" x="636.6274" y="491.5156"/><text fill="#000000" font-family="sans-serif" font-size="12" lengthAdjust="spacing" textLength="129.3281" x="646.6274" y="513.9727">&#1050;&#1086;&#1088;&#1091;&#1090;&#1080;&#1085;&#1072; &#1079;&#1072;&#1074;&#1077;&#1088;&#1096;&#1080;&#1083;&#1072;&#1089;&#1100;</text><text fill="#000000" font-family="sans-serif" font-size="12" lengthAdjust="spacing" textLength="159.0293" x="646.6274" y="529.0664">&#8594; &#1074;&#1077;&#1088;&#1085;&#1091;&#1090;&#1100; fiber context &#1074; &#1087;&#1091;&#1083;</text><rect fill="#F1F1F1" height="50.1875" rx="12.5" ry="12.5" style="stroke:#181818;stroke-width:0.5;" width="130.4023" x="835.6567" y="491.5156"/><text fill="#000000" font-family="sans-serif" font-size="12" lengthAdjust="spacing" textLength="100.0547" x="845.6567" y="513.9727">Graceful shutdown</text><text fill="#000000" font-family="sans-serif" font-size="12" lengthAdjust="spacing" textLength="110.4023" x="845.6567" y="529.0664">&#8594; finally_shutdown()</text><ellipse cx="900.8579" cy="572.7031" fill="none" rx="11" ry="11" style="stroke:#222222;stroke-width:1;"/><ellipse cx="900.8579" cy="572.7031" fill="#222222" rx="6" ry="6" style="stroke:#222222;stroke-width:1;"/><polygon fill="#F1F1F1" points="724.8484,603.7031,724.8484,603.7031,736.8484,615.7031,724.8484,627.7031,724.8484,627.7031,712.8484,615.7031,724.8484,603.7031" style="stroke:#181818;stroke-width:0.5;"/><polygon fill="#F1F1F1" points="428.931,633.7031,440.931,645.7031,428.931,657.7031,416.931,645.7031,428.931,633.7031" style="stroke:#181818;stroke-width:0.5;"/><path d="M568.6097,673.8984 L568.6097,691.25 L548.6097,695.25 L568.6097,699.25 L568.6097,716.6016 A0,0 0 0 0 568.6097,716.6016 L765.9667,716.6016 A0,0 0 0 0 765.9667,716.6016 L765.9667,683.8984 L755.9667,673.8984 L568.6097,673.8984 A0,0 0 0 0 568.6097,673.8984 " fill="#FEFFDD" style="stroke:#181818;stroke-width:0.5;"/><path d="M755.9667,673.8984 L755.9667,683.8984 L765.9667,683.8984 L755.9667,673.8984 " fill="#FEFFDD" style="stroke:#181818;stroke-width:0.5;"/><text fill="#000000" font-family="sans-serif" font-size="13" lengthAdjust="spacing" textLength="126.6548" x="574.6097" y="692.3936">&#1053;&#1077;&#1073;&#1083;&#1086;&#1082;&#1080;&#1088;&#1091;&#1102;&#1097;&#1080;&#1081; &#1090;&#1080;&#1082;:</text><text fill="#000000" font-family="sans-serif" font-size="13" lengthAdjust="spacing" textLength="176.3569" x="574.6097" y="708.7451">&#1086;&#1073;&#1088;&#1072;&#1073;&#1086;&#1090;&#1072;&#1090;&#1100; &#1075;&#1086;&#1090;&#1086;&#1074;&#1099;&#1077; &#1089;&#1086;&#1073;&#1099;&#1090;&#1080;&#1103;</text><rect fill="#F1F1F1" height="35.0938" rx="12.5" ry="12.5" style="stroke:#181818;stroke-width:0.5;" width="239.3574" x="309.2523" y="677.7031"/><text fill="#000000" font-family="sans-serif" font-size="12" lengthAdjust="spacing" textLength="46.9277" x="319.2523" y="700.1602">&#1042;&#1099;&#1079;&#1074;&#1072;&#1090;&#1100;</text><text fill="#000000" font-family="sans-serif" font-size="12" font-weight="bold" lengthAdjust="spacing" textLength="92.0566" x="369.514" y="700.1602">reactor_execute</text><text fill="#000000" font-family="sans-serif" font-size="12" lengthAdjust="spacing" textLength="77.0391" x="461.5707" y="700.1602">(no_wait=true)</text><polygon fill="#F1F1F1" points="428.931,143.7031,440.931,155.7031,428.931,167.7031,416.931,155.7031,428.931,143.7031" style="stroke:#181818;stroke-width:0.5;"/><polygon fill="#F1F1F1" points="402.328,736.6016,455.5341,736.6016,467.5341,748.6016,455.5341,760.6016,402.328,760.6016,390.328,748.6016,402.328,736.6016" style="stroke:#181818;stroke-width:0.5;"/><text fill="#000000" font-family="sans-serif" font-size="11" lengthAdjust="spacing" textLength="53.2061" x="402.328" y="753.1025">shutdown?</text><text fill="#000000" font-family="sans-serif" font-size="11" lengthAdjust="spacing" textLength="17.2305" x="467.5341" y="746.1846">&#1085;&#1077;&#1090;</text><rect fill="#F1F1F1" height="35.0938" rx="12.5" ry="12.5" style="stroke:#181818;stroke-width:0.5;" width="116.7148" x="370.5736" y="780.6016"/><text fill="#000000" font-family="sans-serif" font-size="12" lengthAdjust="spacing" textLength="96.7148" x="380.5736" y="803.0586">finally_shutdown()</text><ellipse cx="428.931" cy="846.6953" fill="none" rx="11" ry="11" style="stroke:#222222;stroke-width:1;"/><ellipse cx="428.931" cy="846.6953" fill="#222222" rx="6" ry="6" style="stroke:#222222;stroke-width:1;"/><line style="stroke:#181818;stroke-width:1;" x1="428.931" x2="428.931" y1="68.6094" y2="88.6094"/><polygon fill="#181818" points="424.931,78.6094,428.931,88.6094,432.931,78.6094,428.931,82.6094" style="stroke:#181818;stroke-width:1;"/><line style="stroke:#181818;stroke-width:1;" x1="724.8484" x2="724.8484" y1="327.6758" y2="359.6563"/><polygon fill="#181818" points="720.8484,349.6563,724.8484,359.6563,728.8484,349.6563,724.8484,353.6563" style="stroke:#181818;stroke-width:1;"/><line style="stroke:#181818;stroke-width:1;" x1="900.8579" x2="900.8579" y1="541.7031" y2="561.7031"/><polygon fill="#181818" points="896.8579,551.7031,900.8579,561.7031,904.8579,551.7031,900.8579,555.7031" style="stroke:#181818;stroke-width:1;"/><line style="stroke:#181818;stroke-width:1;" x1="679.835" x2="531.0767" y1="441.8438" y2="441.8438"/><line style="stroke:#181818;stroke-width:1;" x1="531.0767" x2="531.0767" y1="441.8438" y2="491.5156"/><polygon fill="#181818" points="527.0767,481.5156,531.0767,491.5156,535.0767,481.5156,531.0767,485.5156" style="stroke:#181818;stroke-width:1;"/><text fill="#000000" font-family="sans-serif" font-size="11" lengthAdjust="spacing" textLength="58.6631" x="534.1328" y="471.1807">SWITCHED</text><line style="stroke:#181818;stroke-width:1;" x1="769.8618" x2="900.8579" y1="441.8438" y2="441.8438"/><line style="stroke:#181818;stroke-width:1;" x1="900.8579" x2="900.8579" y1="441.8438" y2="491.5156"/><polygon fill="#181818" points="896.8579,481.5156,900.8579,491.5156,904.8579,481.5156,900.8579,485.5156" style="stroke:#181818;stroke-width:1;"/><text fill="#000000" font-family="sans-serif" font-size="11" lengthAdjust="spacing" textLength="97.2007" x="903.9141" y="471.1807">SHOULD_BE_EXIT</text><line style="stroke:#181818;stroke-width:1;" x1="724.8484" x2="724.8484" y1="453.8438" y2="466.401"/><line style="stroke:#181818;stroke-width:1;" x1="724.8484" x2="726.1421" y1="466.401" y2="466.401"/><line style="stroke:#181818;stroke-width:1;" x1="726.1421" x2="726.1421" y1="466.401" y2="491.5156"/><polygon fill="#181818" points="722.1421,481.5156,726.1421,491.5156,730.1421,481.5156,726.1421,485.5156" style="stroke:#181818;stroke-width:1;"/><text fill="#000000" font-family="sans-serif" font-size="11" lengthAdjust="spacing" textLength="51.3369" x="727.9045" y="472.1807">FINISHED</text><line style="stroke:#181818;stroke-width:1;" x1="531.0767" x2="531.0767" y1="541.7031" y2="615.7031"/><line style="stroke:#181818;stroke-width:1;" x1="531.0767" x2="712.8484" y1="615.7031" y2="615.7031"/><polygon fill="#181818" points="702.8484,611.7031,712.8484,615.7031,702.8484,619.7031,706.8484,615.7031" style="stroke:#181818;stroke-width:1;"/><line style="stroke:#181818;stroke-width:1;" x1="726.1421" x2="726.1421" y1="541.7031" y2="603.7031"/><line style="stroke:#181818;stroke-width:1;" x1="726.1421" x2="724.8484" y1="603.7031" y2="603.7031"/><polygon fill="#181818" points="720.8484,593.7031,724.8484,603.7031,728.8484,593.7031,724.8484,597.7031" style="stroke:#181818;stroke-width:1;"/><line style="stroke:#181818;stroke-width:1;" x1="724.8484" x2="724.8484" y1="409.8438" y2="429.8438"/><polygon fill="#181818" points="720.8484,419.8438,724.8484,429.8438,728.8484,419.8438,724.8484,423.8438" style="stroke:#181818;stroke-width:1;"/><line style="stroke:#181818;stroke-width:1;" x1="357.3092" x2="133.0137" y1="258.6016" y2="258.6016"/><line style="stroke:#181818;stroke-width:1;" x1="133.0137" x2="133.0137" y1="258.6016" y2="284.4063"/><polygon fill="#181818" points="129.0137,274.4063,133.0137,284.4063,137.0137,274.4063,133.0137,278.4063" style="stroke:#181818;stroke-width:1;"/><line style="stroke:#181818;stroke-width:1;" x1="500.5529" x2="724.8484" y1="258.6016" y2="258.6016"/><line style="stroke:#181818;stroke-width:1;" x1="724.8484" x2="724.8484" y1="258.6016" y2="292.582"/><polygon fill="#181818" points="720.8484,282.582,724.8484,292.582,728.8484,282.582,724.8484,286.582" style="stroke:#181818;stroke-width:1;"/><line style="stroke:#181818;stroke-width:1;" x1="133.0137" x2="133.0137" y1="319.5" y2="645.7031"/><line style="stroke:#181818;stroke-width:1;" x1="133.0137" x2="416.931" y1="645.7031" y2="645.7031"/><polygon fill="#181818" points="406.931,641.7031,416.931,645.7031,406.931,649.7031,410.931,645.7031" style="stroke:#181818;stroke-width:1;"/><line style="stroke:#181818;stroke-width:1;" x1="724.8484" x2="724.8484" y1="627.7031" y2="645.7031"/><line style="stroke:#181818;stroke-width:1;" x1="724.8484" x2="440.931" y1="645.7031" y2="645.7031"/><polygon fill="#181818" points="450.931,641.7031,440.931,645.7031,450.931,649.7031,446.931,645.7031" style="stroke:#181818;stroke-width:1;"/><line style="stroke:#181818;stroke-width:1;" x1="428.931" x2="428.931" y1="222.7969" y2="246.6016"/><polygon fill="#181818" points="424.931,236.6016,428.931,246.6016,432.931,236.6016,428.931,240.6016" style="stroke:#181818;stroke-width:1;"/><line style="stroke:#181818;stroke-width:1;" x1="428.931" x2="428.931" y1="657.7031" y2="677.7031"/><polygon fill="#181818" points="424.931,667.7031,428.931,677.7031,432.931,667.7031,428.931,671.7031" style="stroke:#181818;stroke-width:1;"/><line style="stroke:#181818;stroke-width:1;" x1="428.931" x2="428.931" y1="167.7031" y2="187.7031"/><polygon fill="#181818" points="424.931,177.7031,428.931,187.7031,432.931,177.7031,428.931,181.7031" style="stroke:#181818;stroke-width:1;"/><line style="stroke:#181818;stroke-width:1;" x1="467.5341" x2="1111.5662" y1="748.6016" y2="748.6016"/><polygon fill="#181818" points="1107.5662,499.6523,1111.5662,489.6523,1115.5662,499.6523,1111.5662,495.6523" style="stroke:#181818;stroke-width:1;"/><line style="stroke:#181818;stroke-width:1;" x1="1111.5662" x2="1111.5662" y1="155.7031" y2="748.6016"/><line style="stroke:#181818;stroke-width:1;" x1="1111.5662" x2="440.931" y1="155.7031" y2="155.7031"/><polygon fill="#181818" points="450.931,151.7031,440.931,155.7031,450.931,159.7031,446.931,155.7031" style="stroke:#181818;stroke-width:1;"/><line style="stroke:#181818;stroke-width:1;" x1="428.931" x2="428.931" y1="712.7969" y2="736.6016"/><polygon fill="#181818" points="424.931,726.6016,428.931,736.6016,432.931,726.6016,428.931,730.6016" style="stroke:#181818;stroke-width:1;"/><line style="stroke:#181818;stroke-width:1;" x1="428.931" x2="428.931" y1="123.7031" y2="143.7031"/><polygon fill="#181818" points="424.931,133.7031,428.931,143.7031,432.931,133.7031,428.931,137.7031" style="stroke:#181818;stroke-width:1;"/><line style="stroke:#181818;stroke-width:1;" x1="428.931" x2="428.931" y1="760.6016" y2="780.6016"/><polygon fill="#181818" points="424.931,770.6016,428.931,780.6016,432.931,770.6016,428.931,774.6016" style="stroke:#181818;stroke-width:1;"/><line style="stroke:#181818;stroke-width:1;" x1="428.931" x2="428.931" y1="815.6953" y2="835.6953"/><polygon fill="#181818" points="424.931,825.6953,428.931,835.6953,432.931,825.6953,428.931,829.6953" style="stroke:#181818;stroke-width:1;"/><!--SRC=[ZLHTRjf047xd5Fi8ViW1G5MbDabZgMggaAgjLCbodQLOGdPghqNQfmIa_8Weg7cAAZLd01AA0mMkC7k5dgJVhZ5WWjHOmdZNu_b-PcQ5AsgSqQqyeJ5DgAVl3qoUKan36h6oK-K7KOq7kLmex43aSiNv5gC1TMWgc_A2-ZGkvN81F-GsOXYk8jrILnuZeaiJsQ2ERCXBXiSpwcExJ_TO6WRzKKZOcEXizuWxCuoIJk7vWhF0_L8LUgckRNDxbz4KQOvb6z4J6cxCNz8DP82rl58Wa19J7y4A3U4jgElWgG4I6MP3sKnoSEz0OoO2t0hBEtxWHyBrkFKruX5dMks9KlEym4ILUoolA1Vc58fq3Q21Wj9w3IFWjYFymE97t8a4DuoyvrjrsnNFAdOjv8NI_DirShMg7pHIEYc6YAOI00PjfiHduxg8Y-atT3t8S-Y_emc38Kfi2vHZsPx7pvNg1MX0nrYbNbPoetMCi7q69SWqqbLhmjuBTMVWfEhGLCbfB9iCVuDCYId-lxnhP5PauUCi0OXhoJtPMicsaVbqnxJUxfcxU-R-nrKkBTqa-2KjTIKRMT0UWrwq6ju3AMcI6BReCcyyzcbXotViMHNtCm-iiEuAfsevlYVuaSWNFdb_JwyLSCetwG4KRQhRJPkPjcM6B_LB2uWaBSlFqcFkH1Gk2kFOgboi_DxSVxcpjSaA6ML5-fb934zxQKS2liF2A3o4X1dNdkQAsgdUGLzTAcl2TC9Bgw3RvXkp_2JGWTQhvkuSMm1MoLT1jJtQIpOpKLTcgkWymYxlxBvxlMczsBAsFfZxgmnU1RR3Ar6DXTL87FXrBy6gk9vTgtspqjtyqhnfhuL_k5pjnFFqD70hwLdszAaMGPGEzPgEfr_eWExoGAjfWaCuSvLtm-8YTBBk_BpJ2pqRwA8ruxresUGqPlMgYoC-dpg0WyiD5-EUAwwpIDlo3m00]--></g></svg>