<svg xmlns="http://www.w3.org/2000/svg" xmlns:xlink="http://www.w3.org/1999/xlink" contentStyleType="text/css" height="774px" preserveAspectRatio="none" style="width:857px;height:774px;background:#FFFFFF;" version="1.1" viewBox="0 0 857 774" width="857px" zoomAndPan="magnify"><title>Suspend &#1080; Resume &#1082;&#1086;&#1088;&#1091;&#1090;&#1080;&#1085;&#1099;</title><defs/><g><text fill="#000000" font-family="sans-serif" font-size="14" font-weight="bold" lengthAdjust="spacing" textLength="201.6328" x="323.7461" y="29.5332">Suspend &#1080; Resume &#1082;&#1086;&#1088;&#1091;&#1090;&#1080;&#1085;&#1099;</text><line style="stroke:#181818;stroke-width:0.5;stroke-dasharray:5.0,5.0;" x1="172" x2="172" y1="93.8281" y2="719.8594"/><line style="stroke:#181818;stroke-width:0.5;stroke-dasharray:5.0,5.0;" x1="361.8481" x2="361.8481" y1="93.8281" y2="719.8594"/><line style="stroke:#181818;stroke-width:0.5;stroke-dasharray:5.0,5.0;" x1="578.0854" x2="578.0854" y1="93.8281" y2="719.8594"/><line style="stroke:#181818;stroke-width:0.5;stroke-dasharray:5.0,5.0;" x1="663.106" x2="663.106" y1="93.8281" y2="719.8594"/><rect fill="#E2E2F0" height="49.2188" rx="2.5" ry="2.5" style="stroke:#181818;stroke-width:0.5;" width="108.4521" x="118" y="43.6094"/><text fill="#000000" font-family="sans-serif" font-size="14" lengthAdjust="spacing" textLength="73.7051" x="135.3735" y="65.1426">&#1050;&#1086;&#1088;&#1091;&#1090;&#1080;&#1085;&#1072; A</text><text fill="#000000" font-family="sans-serif" font-size="14" lengthAdjust="spacing" textLength="94.4521" x="125" y="82.752">(&#1074;&#1099;&#1087;&#1086;&#1083;&#1085;&#1103;&#1077;&#1090;&#1089;&#1103;)</text><rect fill="#E2E2F0" height="49.2188" rx="2.5" ry="2.5" style="stroke:#181818;stroke-width:0.5;" width="108.4521" x="118" y="718.8594"/><text fill="#000000" font-family="sans-serif" font-size="14" lengthAdjust="spacing" textLength="73.7051" x="135.3735" y="740.3926">&#1050;&#1086;&#1088;&#1091;&#1090;&#1080;&#1085;&#1072; A</text><text fill="#000000" font-family="sans-serif" font-size="14" lengthAdjust="spacing" textLength="94.4521" x="125" y="758.002">(&#1074;&#1099;&#1087;&#1086;&#1083;&#1085;&#1103;&#1077;&#1090;&#1089;&#1103;)</text><rect fill="#E2E2F0" height="49.2188" rx="2.5" ry="2.5" style="stroke:#181818;stroke-width:0.5;" width="111.043" x="306.8481" y="43.6094"/><text fill="#000000" font-family="sans-serif" font-size="14" lengthAdjust="spacing" textLength="63.041" x="330.8491" y="65.1426">Scheduler</text><text fill="#000000" font-family="sans-serif" font-size="14" lengthAdjust="spacing" textLength="97.043" x="313.8481" y="82.752">(&#1074; &#1082;&#1086;&#1085;&#1090;&#1077;&#1082;&#1089;&#1090;&#1077; A)</text><rect fill="#E2E2F0" height="49.2188" rx="2.5" ry="2.5" style="stroke:#181818;stroke-width:0.5;" width="111.043" x="306.8481" y="718.8594"/><text fill="#000000" font-family="sans-serif" font-size="14" lengthAdjust="spacing" textLength="63.041" x="330.8491" y="740.3926">Scheduler</text><text fill="#000000" font-family="sans-serif" font-size="14" lengthAdjust="spacing" textLength="97.043" x="313.8481" y="758.002">(&#1074; &#1082;&#1086;&#1085;&#1090;&#1077;&#1082;&#1089;&#1090;&#1077; A)</text><rect fill="#E2E2F0" height="49.2188" rx="2.5" ry="2.5" style="stroke:#181818;stroke-width:0.5;" width="63.0205" x="547.0854" y="43.6094"/><text fill="#000000" font-family="sans-serif" font-size="14" lengthAdjust="spacing" textLength="49.0205" x="554.0854" y="65.1426">Reactor</text><text fill="#000000" font-family="sans-serif" font-size="14" lengthAdjust="spacing" textLength="38.1172" x="559.5371" y="82.752">(libuv)</text><rect fill="#E2E2F0" height="49.2188" rx="2.5" ry="2.5" style="stroke:#181818;stroke-width:0.5;" width="63.0205" x="547.0854" y="718.8594"/><text fill="#000000" font-family="sans-serif" font-size="14" lengthAdjust="spacing" textLength="49.0205" x="554.0854" y="740.3926">Reactor</text><text fill="#000000" font-family="sans-serif" font-size="14" lengthAdjust="spacing" textLength="38.1172" x="559.5371" y="758.002">(libuv)</text><rect fill="#E2E2F0" height="49.2188" rx="2.5" ry="2.5" style="stroke:#181818;stroke-width:0.5;" width="87.7051" x="620.106" y="43.6094"/><text fill="#000000" font-family="sans-serif" font-size="14" lengthAdjust="spacing" textLength="73.7051" x="627.106" y="65.1426">&#1050;&#1086;&#1088;&#1091;&#1090;&#1080;&#1085;&#1072; B</text><text fill="#000000" font-family="sans-serif" font-size="14" lengthAdjust="spacing" textLength="64.4492" x="631.7339" y="82.752">(&#1086;&#1078;&#1080;&#1076;&#1072;&#1077;&#1090;)</text><rect fill="#E2E2F0" height="49.2188" rx="2.5" ry="2.5" style="stroke:#181818;stroke-width:0.5;" width="87.7051" x="620.106" y="718.8594"/><text fill="#000000" font-family="sans-serif" font-size="14" lengthAdjust="spacing" textLength="73.7051" x="627.106" y="740.3926">&#1050;&#1086;&#1088;&#1091;&#1090;&#1080;&#1085;&#1072; B</text><text fill="#000000" font-family="sans-serif" font-size="14" lengthAdjust="spacing" textLength="64.4492" x="631.7339" y="758.002">(&#1086;&#1078;&#1080;&#1076;&#1072;&#1077;&#1090;)</text><rect fill="#EEEEEE" height="3" style="stroke:#EEEEEE;stroke-width:1;" width="850.125" x="0" y="125.0039"/><line style="stroke:#000000;stroke-width:1;" x1="0" x2="850.125" y1="125.0039" y2="125.0039"/><line style="stroke:#000000;stroke-width:1;" x1="0" x2="850.125" y1="128.0039" y2="128.0039"/><rect fill="#EEEEEE" height="24.3516" style="stroke:#000000;stroke-width:2;" width="152.0488" x="349.0381" y="113.8281"/><text fill="#000000" font-family="sans-serif" font-size="13" font-weight="bold" lengthAdjust="spacing" textLength="134.437" x="355.0381" y="131.3232">Suspend &#1082;&#1086;&#1088;&#1091;&#1090;&#1080;&#1085;&#1099; A</text><polygon fill="#181818" points="350.3696,185.8828,360.3696,189.8828,350.3696,193.8828,354.3696,189.8828" style="stroke:#181818;stroke-width:1;"/><line style="stroke:#181818;stroke-width:1;" x1="172.2261" x2="356.3696" y1="189.8828" y2="189.8828"/><text fill="#000000" font-family="sans-serif" font-size="13" lengthAdjust="spacing" textLength="166.1436" x="179.2261" y="185.0264">ZEND_ASYNC_SUSPEND()</text><path d="M5,153.1797 L5,212.1797 L167,212.1797 L167,163.1797 L157,153.1797 L5,153.1797 " fill="#FEFFDD" style="stroke:#181818;stroke-width:0.5;"/><path d="M157,153.1797 L157,163.1797 L167,163.1797 L157,153.1797 " fill="#FEFFDD" style="stroke:#181818;stroke-width:0.5;"/><text fill="#000000" font-family="sans-serif" font-size="13" lengthAdjust="spacing" textLength="111.4395" x="11" y="171.6748">&#1053;&#1077;&#1090; context switch!</text><text fill="#000000" font-family="sans-serif" font-size="13" lengthAdjust="spacing" textLength="117.6538" x="11" y="188.0264">Scheduler &#1088;&#1072;&#1073;&#1086;&#1090;&#1072;&#1077;&#1090;</text><text fill="#000000" font-family="sans-serif" font-size="13" lengthAdjust="spacing" textLength="141.4512" x="11" y="204.3779">&#1074; &#1082;&#1086;&#1085;&#1090;&#1077;&#1082;&#1089;&#1090;&#1077; &#1082;&#1086;&#1088;&#1091;&#1090;&#1080;&#1085;&#1099; A</text><line style="stroke:#181818;stroke-width:1;" x1="362.3696" x2="404.3696" y1="239.5859" y2="239.5859"/><line style="stroke:#181818;stroke-width:1;" x1="404.3696" x2="404.3696" y1="239.5859" y2="252.5859"/><line style="stroke:#181818;stroke-width:1;" x1="363.3696" x2="404.3696" y1="252.5859" y2="252.5859"/><polygon fill="#181818" points="373.3696,248.5859,363.3696,252.5859,373.3696,256.5859,369.3696,252.5859" style="stroke:#181818;stroke-width:1;"/><text fill="#000000" font-family="sans-serif" font-size="13" lengthAdjust="spacing" textLength="154.6035" x="369.3696" y="234.7295">&#1054;&#1073;&#1088;&#1072;&#1073;&#1086;&#1090;&#1072;&#1090;&#1100; &#1084;&#1080;&#1082;&#1088;&#1086;&#1079;&#1072;&#1076;&#1072;&#1095;&#1080;</text><polygon fill="#181818" points="566.5957,290.1133,576.5957,294.1133,566.5957,298.1133,570.5957,294.1133" style="stroke:#181818;stroke-width:1;"/><line style="stroke:#181818;stroke-width:1;" x1="362.3696" x2="572.5957" y1="294.1133" y2="294.1133"/><text fill="#000000" font-family="sans-serif" font-size="13" lengthAdjust="spacing" textLength="176.6807" x="369.3696" y="289.2568">reactor_execute(no_wait=true)</text><path d="M583,265.5859 L583,307.5859 L758,307.5859 L758,275.5859 L748,265.5859 L583,265.5859 " fill="#FEFFDD" style="stroke:#181818;stroke-width:0.5;"/><path d="M748,265.5859 L748,275.5859 L758,275.5859 L748,265.5859 " fill="#FEFFDD" style="stroke:#181818;stroke-width:0.5;"/><text fill="#000000" font-family="sans-serif" font-size="13" lengthAdjust="spacing" textLength="126.6548" x="589" y="284.0811">&#1053;&#1077;&#1073;&#1083;&#1086;&#1082;&#1080;&#1088;&#1091;&#1102;&#1097;&#1080;&#1081; &#1090;&#1080;&#1082;:</text><text fill="#000000" font-family="sans-serif" font-size="13" lengthAdjust="spacing" textLength="154.9971" x="589" y="300.4326">&#1089;&#1086;&#1073;&#1088;&#1072;&#1090;&#1100; &#1075;&#1086;&#1090;&#1086;&#1074;&#1099;&#1077; &#1089;&#1086;&#1073;&#1099;&#1090;&#1080;&#1103;</text><polygon fill="#181818" points="373.3696,331.6406,363.3696,335.6406,373.3696,339.6406,369.3696,335.6406" style="stroke:#181818;stroke-width:1;"/><line style="stroke:#181818;stroke-width:1;stroke-dasharray:2.0,2.0;" x1="367.3696" x2="577.5957" y1="335.6406" y2="335.6406"/><text fill="#000000" font-family="sans-serif" font-size="13" lengthAdjust="spacing" textLength="192.2261" x="379.3696" y="330.7842">&#1058;&#1072;&#1081;&#1084;&#1077;&#1088; &#1089;&#1088;&#1072;&#1073;&#1086;&#1090;&#1072;&#1083; &#8594; enqueue(B)</text><rect fill="#EEEEEE" height="3" style="stroke:#EEEEEE;stroke-width:1;" width="850.125" x="0" y="364.8164"/><line style="stroke:#000000;stroke-width:1;" x1="0" x2="850.125" y1="364.8164" y2="364.8164"/><line style="stroke:#000000;stroke-width:1;" x1="0" x2="850.125" y1="367.8164" y2="367.8164"/><rect fill="#EEEEEE" height="24.3516" style="stroke:#000000;stroke-width:2;" width="147.7324" x="351.1963" y="353.6406"/><text fill="#000000" font-family="sans-serif" font-size="13" font-weight="bold" lengthAdjust="spacing" textLength="130.1206" x="357.1963" y="371.1357">Resume &#1082;&#1086;&#1088;&#1091;&#1090;&#1080;&#1085;&#1099; B</text><line style="stroke:#181818;stroke-width:1;" x1="362.3696" x2="404.3696" y1="410.3438" y2="410.3438"/><line style="stroke:#181818;stroke-width:1;" x1="404.3696" x2="404.3696" y1="410.3438" y2="423.3438"/><line style="stroke:#181818;stroke-width:1;" x1="363.3696" x2="404.3696" y1="423.3438" y2="423.3438"/><polygon fill="#181818" points="373.3696,419.3438,363.3696,423.3438,373.3696,427.3438,369.3696,423.3438" style="stroke:#181818;stroke-width:1;"/><text fill="#000000" font-family="sans-serif" font-size="13" lengthAdjust="spacing" textLength="183.7393" x="369.3696" y="405.4873">coroutine_queue &#8594; &#1050;&#1086;&#1088;&#1091;&#1090;&#1080;&#1085;&#1072; B</text><polygon fill="#181818" points="651.9585,460.8711,661.9585,464.8711,651.9585,468.8711,655.9585,464.8711" style="stroke:#181818;stroke-width:1;"/><line style="stroke:#181818;stroke-width:1;" x1="362.3696" x2="657.9585" y1="464.8711" y2="464.8711"/><text fill="#000000" font-family="sans-serif" font-size="13" lengthAdjust="spacing" textLength="161.8589" x="369.3696" y="460.0146">zend_fiber_switch_context()</text><path d="M668,436.3438 L668,478.3438 L839,478.3438 L839,446.3438 L829,436.3438 L668,436.3438 " fill="#FEFFDD" style="stroke:#181818;stroke-width:0.5;"/><path d="M829,436.3438 L829,446.3438 L839,446.3438 L829,436.3438 " fill="#FEFFDD" style="stroke:#181818;stroke-width:0.5;"/><text fill="#000000" font-family="sans-serif" font-size="13" lengthAdjust="spacing" textLength="150.1665" x="674" y="454.8389">&#1056;&#1077;&#1072;&#1083;&#1100;&#1085;&#1086;&#1077; &#1087;&#1077;&#1088;&#1077;&#1082;&#1083;&#1102;&#1095;&#1077;&#1085;&#1080;&#1077;</text><text fill="#000000" font-family="sans-serif" font-size="13" lengthAdjust="spacing" textLength="107.3706" x="674" y="471.1904">&#1089;&#1090;&#1077;&#1082;&#1072; &#1080; &#1088;&#1077;&#1075;&#1080;&#1089;&#1090;&#1088;&#1086;&#1074;</text><line style="stroke:#181818;stroke-width:1;" x1="663.9585" x2="705.9585" y1="522.75" y2="522.75"/><line style="stroke:#181818;stroke-width:1;" x1="705.9585" x2="705.9585" y1="522.75" y2="535.75"/><line style="stroke:#181818;stroke-width:1;" x1="664.9585" x2="705.9585" y1="535.75" y2="535.75"/><polygon fill="#181818" points="674.9585,531.75,664.9585,535.75,674.9585,539.75,670.9585,535.75" style="stroke:#181818;stroke-width:1;"/><text fill="#000000" font-family="sans-serif" font-size="13" lengthAdjust="spacing" textLength="152.6865" x="670.9585" y="501.542">&#1055;&#1088;&#1086;&#1076;&#1086;&#1083;&#1078;&#1080;&#1090;&#1100; &#1074;&#1099;&#1087;&#1086;&#1083;&#1085;&#1077;&#1085;&#1080;&#1077;</text><text fill="#000000" font-family="sans-serif" font-size="13" lengthAdjust="spacing" textLength="95.7798" x="670.9585" y="517.8936">&#1089; &#1090;&#1086;&#1095;&#1082;&#1080; suspend</text><rect fill="#EEEEEE" height="3" style="stroke:#EEEEEE;stroke-width:1;" width="850.125" x="0" y="564.9258"/><line style="stroke:#000000;stroke-width:1;" x1="0" x2="850.125" y1="564.9258" y2="564.9258"/><line style="stroke:#000000;stroke-width:1;" x1="0" x2="850.125" y1="567.9258" y2="567.9258"/><rect fill="#EEEEEE" height="24.3516" style="stroke:#000000;stroke-width:2;" width="152.0488" x="349.0381" y="553.75"/><text fill="#000000" font-family="sans-serif" font-size="13" font-weight="bold" lengthAdjust="spacing" textLength="134.437" x="355.0381" y="571.2451">Suspend &#1082;&#1086;&#1088;&#1091;&#1090;&#1080;&#1085;&#1099; B</text><polygon fill="#181818" points="373.3696,617.6289,363.3696,621.6289,373.3696,625.6289,369.3696,621.6289" style="stroke:#181818;stroke-width:1;"/><line style="stroke:#181818;stroke-width:1;" x1="367.3696" x2="662.9585" y1="621.6289" y2="621.6289"/><text fill="#000000" font-family="sans-serif" font-size="13" lengthAdjust="spacing" textLength="166.1436" x="379.3696" y="616.7725">ZEND_ASYNC_SUSPEND()</text><path d="M232,593.1016 L232,635.1016 L356,635.1016 L356,603.1016 L346,593.1016 L232,593.1016 " fill="#FEFFDD" style="stroke:#181818;stroke-width:0.5;"/><path d="M346,593.1016 L346,603.1016 L356,603.1016 L346,593.1016 " fill="#FEFFDD" style="stroke:#181818;stroke-width:0.5;"/><text fill="#000000" font-family="sans-serif" font-size="13" lengthAdjust="spacing" textLength="103.6064" x="238" y="611.5967">Scheduler &#1090;&#1077;&#1087;&#1077;&#1088;&#1100;</text><text fill="#000000" font-family="sans-serif" font-size="13" lengthAdjust="spacing" textLength="81.4531" x="238" y="627.9482">&#1074; &#1082;&#1086;&#1085;&#1090;&#1077;&#1082;&#1089;&#1090;&#1077; B</text><polygon fill="#181818" points="566.5957,678.5078,576.5957,682.5078,566.5957,686.5078,570.5957,682.5078" style="stroke:#181818;stroke-width:1;"/><line style="stroke:#181818;stroke-width:1;" x1="362.3696" x2="572.5957" y1="682.5078" y2="682.5078"/><text fill="#000000" font-family="sans-serif" font-size="13" lengthAdjust="spacing" textLength="181.7397" x="369.3696" y="677.6514">reactor_execute(no_wait=false)</text><path d="M583,645.8047 L583,704.8047 L733,704.8047 L733,655.8047 L723,645.8047 L583,645.8047 " fill="#FEFFDD" style="stroke:#181818;stroke-width:0.5;"/><path d="M723,645.8047 L723,655.8047 L733,655.8047 L723,645.8047 " fill="#FEFFDD" style="stroke:#181818;stroke-width:0.5;"/><text fill="#000000" font-family="sans-serif" font-size="13" lengthAdjust="spacing" textLength="104.5967" x="589" y="664.2998">&#1054;&#1095;&#1077;&#1088;&#1077;&#1076;&#1100; &#1087;&#1091;&#1089;&#1090;&#1072; &#8594;</text><text fill="#000000" font-family="sans-serif" font-size="13" lengthAdjust="spacing" textLength="97.0747" x="589" y="680.6514">&#1073;&#1083;&#1086;&#1082;&#1080;&#1088;&#1091;&#1077;&#1084;&#1089;&#1103; &#1076;&#1086;</text><text fill="#000000" font-family="sans-serif" font-size="13" lengthAdjust="spacing" textLength="129.4351" x="589" y="697.0029">&#1089;&#1083;&#1077;&#1076;&#1091;&#1102;&#1097;&#1077;&#1075;&#1086; &#1089;&#1086;&#1073;&#1099;&#1090;&#1080;&#1103;</text><!--SRC=[bLJ1RjD04BtxAuQUaaD_85AGuiArGequW29PhhiXbi8ws6jQSKg314A96eaZ4WNn1MaRGveKvnTcVu4lONRMD4v2GJqbtjaty-QzPwjGTGKqqwGdv17W30v4ahuKW7FCTL-_rGESuKyzT9oU7wim27k-LB23dyfbd42Z9IjugOUun1mNX1XZfWVwL8-hE-0di1V5KMEzHpFeYAEqAsA6yaJ23J33EU7e5neMonVNiGV23rHaaDtmC7rjxnM7_s7gcd4vVgV7AKuConL3rt7gzPKQ6nf00-frn-5LOFUXvGKrUFvu_v7NQ3xRt_EQJvjFwAbITMIa17H5MzK0Fvif44HIYHC5oN6eWiw3bhmL07IVc5pGj85br99_5sIRaUDO5YKwU8uNvOPammZmXX1pEixn1vLeS_qUPojmeHt1O_lF4oSYI9MeoCWxzaDLLt4gYhNYy4Mds8k6BAZd76VCwqn_e3dNm0JdjPRKfrHbEfR65NFAEIeP5DMXkQx7pXyIk-LjlX7TQwAVwJxTNrDg0R_UVGGXNwKY5HMtokxT4M1msRmjjG9oCrMX51vtuOxRcLdXE2Q4UqC9yThXeOWzQwXN-5lP4EahYKHKzOWwvSR3fLd5c4g7P-H2HeKPPaOhQpODf1UHxroHBdJAlbtQwBbb5lY5IrD-wIZILkJIUrZkRbp9QI2P1OdD-B_pxjxctRrFtakvDllmldfqLwPTvpufRFlTP3E6vqP4bcjgjb_I1gRrn7X9KzSIIfTkp5S9Z6OSpmNZR7IDuFbcAdy3]--></g></svg>