<svg xmlns="http://www.w3.org/2000/svg" xmlns:xlink="http://www.w3.org/1999/xlink" contentStyleType="text/css" height="604px" preserveAspectRatio="none" style="width:440px;height:604px;background:#FFFFFF;" version="1.1" viewBox="0 0 440 604" width="440px" zoomAndPan="magnify"><title>&#1046;&#1080;&#1079;&#1085;&#1077;&#1085;&#1085;&#1099;&#1081; &#1094;&#1080;&#1082;&#1083; &#1088;&#1077;&#1089;&#1091;&#1088;&#1089;&#1072;</title><defs/><g><text fill="#000000" font-family="sans-serif" font-size="14" font-weight="bold" lengthAdjust="spacing" textLength="178.8623" x="129.3521" y="34.5332">&#1046;&#1080;&#1079;&#1085;&#1077;&#1085;&#1085;&#1099;&#1081; &#1094;&#1080;&#1082;&#1083; &#1088;&#1077;&#1089;&#1091;&#1088;&#1089;&#1072;</text><ellipse cx="180.2993" cy="58.6094" fill="#222222" rx="10" ry="10" style="stroke:#222222;stroke-width:1;"/><rect fill="#F1F1F1" height="35.0938" rx="12.5" ry="12.5" style="stroke:#181818;stroke-width:0.5;" width="67.3496" x="146.6245" y="88.6094"/><text fill="#000000" font-family="sans-serif" font-size="12" lengthAdjust="spacing" textLength="47.3496" x="156.6245" y="111.0664">acquire()</text><polygon fill="#F1F1F1" points="116.7432,143.7031,243.8555,143.7031,255.8555,155.7031,243.8555,167.7031,116.7432,167.7031,104.7432,155.7031,116.7432,143.7031" style="stroke:#181818;stroke-width:0.5;"/><text fill="#000000" font-family="sans-serif" font-size="11" lengthAdjust="spacing" textLength="127.1123" x="116.7432" y="160.2041">&#1045;&#1089;&#1090;&#1100; &#1089;&#1074;&#1086;&#1073;&#1086;&#1076;&#1085;&#1099;&#1081; &#1088;&#1077;&#1089;&#1091;&#1088;&#1089;?</text><text fill="#000000" font-family="sans-serif" font-size="11" lengthAdjust="spacing" textLength="12.5361" x="92.207" y="153.2861">&#1076;&#1072;</text><text fill="#000000" font-family="sans-serif" font-size="11" lengthAdjust="spacing" textLength="17.2305" x="255.8555" y="153.2861">&#1085;&#1077;&#1090;</text><rect fill="#F1F1F1" height="35.0938" rx="12.5" ry="12.5" style="stroke:#181818;stroke-width:0.5;" width="123.3242" x="11" y="177.7031"/><text fill="#000000" font-family="sans-serif" font-size="12" lengthAdjust="spacing" textLength="103.3242" x="21" y="200.1602">&#1042;&#1079;&#1103;&#1090;&#1100; &#1080;&#1079; idle buffer</text><polygon fill="#F1F1F1" points="250.9351,177.7031,324.938,177.7031,336.938,189.7031,324.938,201.7031,250.9351,201.7031,238.9351,189.7031,250.9351,177.7031" style="stroke:#181818;stroke-width:0.5;"/><text fill="#000000" font-family="sans-serif" font-size="11" lengthAdjust="spacing" textLength="74.0029" x="250.9351" y="194.2041">&#1050;&#1086;&#1083;-&#1074;&#1086; &lt; max?</text><text fill="#000000" font-family="sans-serif" font-size="11" lengthAdjust="spacing" textLength="12.5361" x="226.3989" y="187.2861">&#1076;&#1072;</text><text fill="#000000" font-family="sans-serif" font-size="11" lengthAdjust="spacing" textLength="17.2305" x="336.938" y="187.2861">&#1085;&#1077;&#1090;</text><rect fill="#F1F1F1" height="50.1875" rx="12.5" ry="12.5" style="stroke:#181818;stroke-width:0.5;" width="104.6035" x="164.3242" y="211.7031"/><text fill="#000000" font-family="sans-serif" font-size="12" lengthAdjust="spacing" textLength="84.6035" x="174.3242" y="234.1602">&#1057;&#1086;&#1079;&#1076;&#1072;&#1090;&#1100; &#1085;&#1086;&#1074;&#1099;&#1081;</text><text fill="#000000" font-family="sans-serif" font-size="12" lengthAdjust="spacing" textLength="44.0039" x="174.3242" y="249.2539">(factory)</text><rect fill="#F1F1F1" height="35.0938" rx="12.5" ry="12.5" style="stroke:#181818;stroke-width:0.5;" width="140.6387" x="288.9277" y="211.7031"/><text fill="#000000" font-family="sans-serif" font-size="12" lengthAdjust="spacing" textLength="120.6387" x="298.9277" y="234.1602">&#1046;&#1076;&#1072;&#1090;&#1100; &#1086;&#1089;&#1074;&#1086;&#1073;&#1086;&#1078;&#1076;&#1077;&#1085;&#1080;&#1103;</text><polygon fill="#F1F1F1" points="287.9365,267.8906,299.9365,279.8906,287.9365,291.8906,275.9365,279.8906,287.9365,267.8906" style="stroke:#181818;stroke-width:0.5;"/><polygon fill="#F1F1F1" points="180.2993,297.8906,192.2993,309.8906,180.2993,321.8906,168.2993,309.8906,180.2993,297.8906" style="stroke:#181818;stroke-width:0.5;"/><rect fill="#F1F1F1" height="35.0938" rx="12.5" ry="12.5" style="stroke:#181818;stroke-width:0.5;" width="106.2793" x="127.1597" y="341.8906"/><text fill="#000000" font-family="sans-serif" font-size="12" lengthAdjust="spacing" textLength="86.2793" x="137.1597" y="364.3477">&#1048;&#1089;&#1087;&#1086;&#1083;&#1100;&#1079;&#1086;&#1074;&#1072;&#1085;&#1080;&#1077;</text><rect fill="#F1F1F1" height="35.0938" rx="12.5" ry="12.5" style="stroke:#181818;stroke-width:0.5;" width="67.3496" x="146.6245" y="396.9844"/><text fill="#000000" font-family="sans-serif" font-size="12" lengthAdjust="spacing" textLength="47.3496" x="156.6245" y="419.4414">release()</text><polygon fill="#F1F1F1" points="117.8926,452.0781,242.7061,452.0781,254.7061,464.0781,242.7061,476.0781,117.8926,476.0781,105.8926,464.0781,117.8926,452.0781" style="stroke:#181818;stroke-width:0.5;"/><text fill="#000000" font-family="sans-serif" font-size="11" lengthAdjust="spacing" textLength="124.8135" x="117.8926" y="468.5791">beforeRelease &#1091;&#1089;&#1087;&#1077;&#1096;&#1077;&#1085;?</text><text fill="#000000" font-family="sans-serif" font-size="11" lengthAdjust="spacing" textLength="12.5361" x="93.3564" y="461.6611">&#1076;&#1072;</text><text fill="#000000" font-family="sans-serif" font-size="11" lengthAdjust="spacing" textLength="17.2305" x="254.7061" y="461.6611">&#1085;&#1077;&#1090;</text><rect fill="#F1F1F1" height="35.0938" rx="12.5" ry="12.5" style="stroke:#181818;stroke-width:0.5;" width="131.4688" x="30.1582" y="486.0781"/><text fill="#000000" font-family="sans-serif" font-size="12" lengthAdjust="spacing" textLength="111.4688" x="40.1582" y="508.5352">&#1042;&#1077;&#1088;&#1085;&#1091;&#1090;&#1100; &#1074; idle buffer</text><rect fill="#F1F1F1" height="35.0938" rx="12.5" ry="12.5" style="stroke:#181818;stroke-width:0.5;" width="150.5352" x="189.4385" y="486.0781"/><text fill="#000000" font-family="sans-serif" font-size="12" lengthAdjust="spacing" textLength="130.5352" x="199.4385" y="508.5352">&#1059;&#1085;&#1080;&#1095;&#1090;&#1086;&#1078;&#1080;&#1090;&#1100; (destructor)</text><polygon fill="#F1F1F1" points="180.2993,527.1719,192.2993,539.1719,180.2993,551.1719,168.2993,539.1719,180.2993,527.1719" style="stroke:#181818;stroke-width:0.5;"/><ellipse cx="180.2993" cy="582.1719" fill="none" rx="11" ry="11" style="stroke:#222222;stroke-width:1;"/><ellipse cx="180.2993" cy="582.1719" fill="#222222" rx="6" ry="6" style="stroke:#222222;stroke-width:1;"/><line style="stroke:#181818;stroke-width:1;" x1="180.2993" x2="180.2993" y1="68.6094" y2="88.6094"/><polygon fill="#181818" points="176.2993,78.6094,180.2993,88.6094,184.2993,78.6094,180.2993,82.6094" style="stroke:#181818;stroke-width:1;"/><line style="stroke:#181818;stroke-width:1;" x1="238.9351" x2="216.626" y1="189.7031" y2="189.7031"/><line style="stroke:#181818;stroke-width:1;" x1="216.626" x2="216.626" y1="189.7031" y2="211.7031"/><polygon fill="#181818" points="212.626,201.7031,216.626,211.7031,220.626,201.7031,216.626,205.7031" style="stroke:#181818;stroke-width:1;"/><line style="stroke:#181818;stroke-width:1;" x1="336.938" x2="359.2471" y1="189.7031" y2="189.7031"/><line style="stroke:#181818;stroke-width:1;" x1="359.2471" x2="359.2471" y1="189.7031" y2="211.7031"/><polygon fill="#181818" points="355.2471,201.7031,359.2471,211.7031,363.2471,201.7031,359.2471,205.7031" style="stroke:#181818;stroke-width:1;"/><line style="stroke:#181818;stroke-width:1;" x1="216.626" x2="216.626" y1="261.8906" y2="279.8906"/><line style="stroke:#181818;stroke-width:1;" x1="216.626" x2="275.9365" y1="279.8906" y2="279.8906"/><polygon fill="#181818" points="265.9365,275.8906,275.9365,279.8906,265.9365,283.8906,269.9365,279.8906" style="stroke:#181818;stroke-width:1;"/><line style="stroke:#181818;stroke-width:1;" x1="359.2471" x2="359.2471" y1="246.7969" y2="279.8906"/><line style="stroke:#181818;stroke-width:1;" x1="359.2471" x2="299.9365" y1="279.8906" y2="279.8906"/><polygon fill="#181818" points="309.9365,275.8906,299.9365,279.8906,309.9365,283.8906,305.9365,279.8906" style="stroke:#181818;stroke-width:1;"/><line style="stroke:#181818;stroke-width:1;" x1="104.7432" x2="72.6621" y1="155.7031" y2="155.7031"/><line style="stroke:#181818;stroke-width:1;" x1="72.6621" x2="72.6621" y1="155.7031" y2="177.7031"/><polygon fill="#181818" points="68.6621,167.7031,72.6621,177.7031,76.6621,167.7031,72.6621,171.7031" style="stroke:#181818;stroke-width:1;"/><line style="stroke:#181818;stroke-width:1;" x1="255.8555" x2="287.9365" y1="155.7031" y2="155.7031"/><line style="stroke:#181818;stroke-width:1;" x1="287.9365" x2="287.9365" y1="155.7031" y2="177.7031"/><polygon fill="#181818" points="283.9365,167.7031,287.9365,177.7031,291.9365,167.7031,287.9365,171.7031" style="stroke:#181818;stroke-width:1;"/><line style="stroke:#181818;stroke-width:1;" x1="72.6621" x2="72.6621" y1="212.7969" y2="309.8906"/><line style="stroke:#181818;stroke-width:1;" x1="72.6621" x2="168.2993" y1="309.8906" y2="309.8906"/><polygon fill="#181818" points="158.2993,305.8906,168.2993,309.8906,158.2993,313.8906,162.2993,309.8906" style="stroke:#181818;stroke-width:1;"/><line style="stroke:#181818;stroke-width:1;" x1="287.9365" x2="287.9365" y1="291.8906" y2="309.8906"/><line style="stroke:#181818;stroke-width:1;" x1="287.9365" x2="192.2993" y1="309.8906" y2="309.8906"/><polygon fill="#181818" points="202.2993,305.8906,192.2993,309.8906,202.2993,313.8906,198.2993,309.8906" style="stroke:#181818;stroke-width:1;"/><line style="stroke:#181818;stroke-width:1;" x1="180.2993" x2="180.2993" y1="123.7031" y2="143.7031"/><polygon fill="#181818" points="176.2993,133.7031,180.2993,143.7031,184.2993,133.7031,180.2993,137.7031" style="stroke:#181818;stroke-width:1;"/><line style="stroke:#181818;stroke-width:1;" x1="180.2993" x2="180.2993" y1="321.8906" y2="341.8906"/><polygon fill="#181818" points="176.2993,331.8906,180.2993,341.8906,184.2993,331.8906,180.2993,335.8906" style="stroke:#181818;stroke-width:1;"/><line style="stroke:#181818;stroke-width:1;" x1="180.2993" x2="180.2993" y1="376.9844" y2="396.9844"/><polygon fill="#181818" points="176.2993,386.9844,180.2993,396.9844,184.2993,386.9844,180.2993,390.9844" style="stroke:#181818;stroke-width:1;"/><line style="stroke:#181818;stroke-width:1;" x1="105.8926" x2="95.8926" y1="464.0781" y2="464.0781"/><line style="stroke:#181818;stroke-width:1;" x1="95.8926" x2="95.8926" y1="464.0781" y2="486.0781"/><polygon fill="#181818" points="91.8926,476.0781,95.8926,486.0781,99.8926,476.0781,95.8926,480.0781" style="stroke:#181818;stroke-width:1;"/><line style="stroke:#181818;stroke-width:1;" x1="254.7061" x2="264.7061" y1="464.0781" y2="464.0781"/><line style="stroke:#181818;stroke-width:1;" x1="264.7061" x2="264.7061" y1="464.0781" y2="486.0781"/><polygon fill="#181818" points="260.7061,476.0781,264.7061,486.0781,268.7061,476.0781,264.7061,480.0781" style="stroke:#181818;stroke-width:1;"/><line style="stroke:#181818;stroke-width:1;" x1="95.8926" x2="95.8926" y1="521.1719" y2="539.1719"/><line style="stroke:#181818;stroke-width:1;" x1="95.8926" x2="168.2993" y1="539.1719" y2="539.1719"/><polygon fill="#181818" points="158.2993,535.1719,168.2993,539.1719,158.2993,543.1719,162.2993,539.1719" style="stroke:#181818;stroke-width:1;"/><line style="stroke:#181818;stroke-width:1;" x1="264.7061" x2="264.7061" y1="521.1719" y2="539.1719"/><line style="stroke:#181818;stroke-width:1;" x1="264.7061" x2="192.2993" y1="539.1719" y2="539.1719"/><polygon fill="#181818" points="202.2993,535.1719,192.2993,539.1719,202.2993,543.1719,198.2993,539.1719" style="stroke:#181818;stroke-width:1;"/><line style="stroke:#181818;stroke-width:1;" x1="180.2993" x2="180.2993" y1="432.0781" y2="452.0781"/><polygon fill="#181818" points="176.2993,442.0781,180.2993,452.0781,184.2993,442.0781,180.2993,446.0781" style="stroke:#181818;stroke-width:1;"/><line style="stroke:#181818;stroke-width:1;" x1="180.2993" x2="180.2993" y1="551.1719" y2="571.1719"/><polygon fill="#181818" points="176.2993,561.1719,180.2993,571.1719,184.2993,561.1719,180.2993,565.1719" style="stroke:#181818;stroke-width:1;"/><!--SRC=[XL1DIiD05DxFAMQPBBn0Ml0EhjsapGm6OgAJ2UYkZL052mN18kx42yJGc6X9lS9xD-gRcKeBAWwyWNbyV_FfM2U2mn8wQA67XgR7U_ZWEAFL9wmvJg31ATxW1ATGCPRhK6d6Wd1yMSHAUFw0iLXo3nu9LUAS4wo63RpHhBx53ZIEVQxFH4g45LG-utG2U80M5vPjWl0ueb2ZGagX1amakI0qXSFIuQtTC-clZumL7_BpyEeNNQVzGi3MB9r-Jy_Qf3fDFHcETQQkwGi6-jF82IptvCt1vzvfRVhgSB7Zfr4icRjP04-4_J8XSKx-P0gLGKD3XGLA92BCz-sDXCoKE75RJaqPReDtnk6FnXfgjIUa3LR_rra0hpRhBPOsUsTvNYHohGhJ0YNPHSzrTi6s]--></g></svg>