<svg xmlns="http://www.w3.org/2000/svg" xmlns:xlink="http://www.w3.org/1999/xlink" contentStyleType="text/css" height="1549px" preserveAspectRatio="none" style="width:867px;height:1549px;background:#FFFFFF;" version="1.1" viewBox="0 0 867 1549" width="867px" zoomAndPan="magnify"><title>Anfrage-Lebenszyklus</title><defs/><g><text fill="#000000" font-family="sans-serif" font-size="14" font-weight="bold" lengthAdjust="spacing" textLength="119.0479" x="372.8843" y="34.5332">Anfrage-Lebenszyklus</text><rect fill="none" height="22.6406" style="stroke:none;stroke-width:1;" width="834.8164" x="15" y="51.0645"/><ellipse cx="328.8022" cy="88.7051" fill="#222222" rx="10" ry="10" style="stroke:#222222;stroke-width:1;"/><rect fill="#F1F1F1" height="35.0938" rx="12.5" ry="12.5" style="stroke:#181818;stroke-width:0.5;" width="153.3711" x="252.1167" y="118.7051"/><text fill="#000000" font-family="sans-serif" font-size="12" lengthAdjust="spacing" textLength="133.3711" x="262.1167" y="141.1621">HTTP-Anfrage vom Client</text><rect fill="#F1F1F1" height="35.0938" rx="12.5" ry="12.5" style="stroke:#181818;stroke-width:0.5;" width="194.0938" x="231.7554" y="173.7988"/><text fill="#000000" font-family="sans-serif" font-size="12" lengthAdjust="spacing" textLength="174.0938" x="241.7554" y="196.2559">Round-Robin: PHP-Thread wählen</text><polygon fill="#F1F1F1" points="284.1658,228.8926,373.4387,228.8926,385.4387,240.8926,373.4387,252.8926,284.1658,252.8926,272.1658,240.8926,284.1658,228.8926" style="stroke:#181818;stroke-width:0.5;"/><text fill="#000000" font-family="sans-serif" font-size="11" lengthAdjust="spacing" textLength="89.2729" x="284.1658" y="245.3936">Thread-Puffer voll?</text><text fill="#000000" font-family="sans-serif" font-size="11" lengthAdjust="spacing" textLength="17.1177" x="255.0481" y="238.4756">ja</text><text fill="#000000" font-family="sans-serif" font-size="11" lengthAdjust="spacing" textLength="12.2354" x="385.4387" y="238.4756">nein</text><rect fill="#F1F1F1" height="35.0938" rx="12.5" ry="12.5" style="stroke:#181818;stroke-width:0.5;" width="100.7012" x="152.0586" y="262.8926"/><text fill="#000000" font-family="sans-serif" font-size="12" lengthAdjust="spacing" textLength="80.7012" x="162.0586" y="285.3496">Nächsten Thread versuchen</text><polygon fill="#F1F1F1" points="166.3369,317.9863,238.4814,317.9863,250.4814,329.9863,238.4814,341.9863,166.3369,341.9863,154.3369,329.9863,166.3369,317.9863" style="stroke:#181818;stroke-width:0.5;"/><text fill="#000000" font-family="sans-serif" font-size="11" lengthAdjust="spacing" textLength="72.1445" x="166.3369" y="334.4873">Alle Puffer voll?</text><text fill="#000000" font-family="sans-serif" font-size="11" lengthAdjust="spacing" textLength="17.1177" x="137.2192" y="327.5693">ja</text><text fill="#000000" font-family="sans-serif" font-size="11" lengthAdjust="spacing" textLength="12.2354" x="250.4814" y="327.5693">nein</text><rect fill="#F1F1F1" height="35.0938" rx="12.5" ry="12.5" style="stroke:#181818;stroke-width:0.5;" width="184.0742" x="21" y="351.9863"/><text fill="#000000" font-family="sans-serif" font-size="12" lengthAdjust="spacing" textLength="164.0742" x="31" y="374.4434">HTTP 503 Dienst nicht verfügbar</text><ellipse cx="113.0371" cy="418.0801" fill="none" rx="11" ry="11" style="stroke:#222222;stroke-width:1;"/><ellipse cx="113.0371" cy="418.0801" fill="#222222" rx="6" ry="6" style="stroke:#222222;stroke-width:1;"/><rect fill="#F1F1F1" height="35.0938" rx="12.5" ry="12.5" style="stroke:#181818;stroke-width:0.5;" width="133.4141" x="225.0742" y="351.9863"/><text fill="#000000" font-family="sans-serif" font-size="12" lengthAdjust="spacing" textLength="113.4141" x="235.0742" y="374.4434">An requestChan senden</text><rect fill="#F1F1F1" height="35.0938" rx="12.5" ry="12.5" style="stroke:#181818;stroke-width:0.5;" width="133.4141" x="388.4883" y="262.8926"/><text fill="#000000" font-family="sans-serif" font-size="12" lengthAdjust="spacing" textLength="113.4141" x="398.4883" y="285.3496">An requestChan senden</text><polygon fill="#F1F1F1" points="328.8022,439.0801,340.8022,451.0801,328.8022,463.0801,316.8022,451.0801,328.8022,439.0801" style="stroke:#181818;stroke-width:0.5;"/><path d="M164.2322,473.0801 L164.2322,515.7832 L265.4412,515.7832 L265.4412,483.0801 L255.4412,473.0801 L164.2322,473.0801 " fill="#FEFFDD" style="stroke:#181818;stroke-width:0.5;"/><path d="M255.4412,473.0801 L255.4412,483.0801 L265.4412,483.0801 L255.4412,473.0801 " fill="#FEFFDD" style="stroke:#181818;stroke-width:0.5;"/><text fill="#000000" font-family="sans-serif" font-size="13" lengthAdjust="spacing" textLength="67.2026" x="170.2322" y="491.5752">PHP-Thread</text><text fill="#000000" font-family="sans-serif" font-size="13" lengthAdjust="spacing" textLength="80.209" x="170.2322" y="507.9268">bereits aktiv</text><path d="M415.146,564.7012 L415.146,582.0527 L395.146,586.0527 L415.146,590.0527 L415.146,607.4043 A0,0 0 0 0 415.146,607.4043 L496.1377,607.4043 A0,0 0 0 0 496.1377,607.4043 L496.1377,574.7012 L486.1377,564.7012 L415.146,564.7012 A0,0 0 0 0 415.146,564.7012 " fill="#FEFFDD" style="stroke:#181818;stroke-width:0.5;"/><path d="M486.1377,564.7012 L486.1377,574.7012 L496.1377,574.7012 L486.1377,564.7012 " fill="#FEFFDD" style="stroke:#181818;stroke-width:0.5;"/><text fill="#000000" font-family="sans-serif" font-size="13" lengthAdjust="spacing" textLength="51.3018" x="421.146" y="583.1963">Event-Loop</text><text fill="#000000" font-family="sans-serif" font-size="13" lengthAdjust="spacing" textLength="59.9917" x="421.146" y="599.5479">aufwecken</text><rect fill="#F1F1F1" height="35.0938" rx="12.5" ry="12.5" style="stroke:#181818;stroke-width:0.5;" width="132.6875" x="262.4585" y="568.5059"/><text fill="#000000" font-family="sans-serif" font-size="12" lengthAdjust="spacing" textLength="112.6875" x="272.4585" y="590.9629">AsyncNotifier.Notify()</text><polygon fill="#F1F1F1" points="277.4412,515.7832,380.1633,515.7832,392.1633,527.7832,380.1633,539.7832,277.4412,539.7832,265.4412,527.7832,277.4412,515.7832" style="stroke:#181818;stroke-width:0.5;"/><text fill="#000000" font-family="sans-serif" font-size="11" lengthAdjust="spacing" textLength="17.1177" x="332.8022" y="551.2021">ja</text><text fill="#000000" font-family="sans-serif" font-size="11" lengthAdjust="spacing" textLength="102.7222" x="277.4412" y="532.2842">Channel war leer?</text><text fill="#000000" font-family="sans-serif" font-size="11" lengthAdjust="spacing" textLength="12.2354" x="392.1633" y="525.3662">nein</text><polygon fill="#F1F1F1" points="328.8022,627.4043,340.8022,639.4043,328.8022,651.4043,316.8022,639.4043,328.8022,627.4043" style="stroke:#181818;stroke-width:0.5;"/><rect fill="#F1F1F1" height="35.0938" rx="12.5" ry="12.5" style="stroke:#181818;stroke-width:0.5;" width="139.0801" x="259.2622" y="1129.9199"/><text fill="#000000" font-family="sans-serif" font-size="12" lengthAdjust="spacing" textLength="119.0801" x="269.2622" y="1152.377">responseChan &lt;- data</text><rect fill="#F1F1F1" height="35.0938" rx="12.5" ry="12.5" style="stroke:#181818;stroke-width:0.5;" width="193.7832" x="231.9106" y="1185.0137"/><text fill="#000000" font-family="sans-serif" font-size="12" lengthAdjust="spacing" textLength="173.7832" x="241.9106" y="1207.4707">responseDispatcher &#8594; Goroutine</text><rect fill="#F1F1F1" height="35.0938" rx="12.5" ry="12.5" style="stroke:#181818;stroke-width:0.5;" width="145.3496" x="256.1274" y="1240.1074"/><text fill="#000000" font-family="sans-serif" font-size="12" lengthAdjust="spacing" textLength="125.3496" x="266.1274" y="1262.5645">ResponseWriter.Write()</text><rect fill="#F1F1F1" height="35.0938" rx="12.5" ry="12.5" style="stroke:#181818;stroke-width:0.5;" width="148.7188" x="254.4429" y="1295.2012"/><text fill="#000000" font-family="sans-serif" font-size="12" lengthAdjust="spacing" textLength="128.7188" x="264.4429" y="1317.6582">HTTP-Antwort an Client</text><line style="stroke:#000000;stroke-width:1.5;" x1="15" x2="15" y1="51.0645" y2="1537.5762"/><rect fill="#F1F1F1" height="35.0938" rx="12.5" ry="12.5" style="stroke:#181818;stroke-width:0.5;" width="166.7656" x="549.5742" y="671.4043"/><text fill="#000000" font-family="sans-serif" font-size="12" lengthAdjust="spacing" textLength="146.7656" x="559.5742" y="693.8613">Scheduler hat Anfrage erkannt</text><rect fill="#F1F1F1" height="35.0938" rx="12.5" ry="12.5" style="stroke:#181818;stroke-width:0.5;" width="154.0742" x="555.9199" y="726.498"/><text fill="#000000" font-family="sans-serif" font-size="12" lengthAdjust="spacing" textLength="134.0742" x="565.9199" y="748.9551">Scope für Anfrage erstellen</text><rect fill="#F1F1F1" height="35.0938" rx="12.5" ry="12.5" style="stroke:#181818;stroke-width:0.5;" width="108.7168" x="578.5986" y="781.5918"/><text fill="#000000" font-family="sans-serif" font-size="12" lengthAdjust="spacing" textLength="88.7168" x="588.5986" y="804.0488">Coroutine erstellen</text><rect fill="#F1F1F1" height="35.0938" rx="12.5" ry="12.5" style="stroke:#181818;stroke-width:0.5;" width="166.0098" x="549.9521" y="836.6855"/><text fill="#000000" font-family="sans-serif" font-size="12" lengthAdjust="spacing" textLength="146.0098" x="559.9521" y="859.1426">ENQUEUE_COROUTINE()</text><rect fill="#F1F1F1" height="35.0938" rx="12.5" ry="12.5" style="stroke:#181818;stroke-width:0.5;" width="148.7363" x="558.5889" y="891.7793"/><text fill="#000000" font-family="sans-serif" font-size="12" lengthAdjust="spacing" textLength="128.7363" x="568.5889" y="914.2363">onRequest-Callback aufrufen</text><path d="M749.3242,936.873 L749.3242,962.4004 L729.3242,966.4004 L749.3242,970.4004 L749.3242,995.9277 A0,0 0 0 0 749.3242,995.9277 L843.3159,995.9277 A0,0 0 0 0 843.3159,995.9277 L843.3159,946.873 L833.3159,936.873 L749.3242,936.873 A0,0 0 0 0 749.3242,936.873 " fill="#FEFFDD" style="stroke:#181818;stroke-width:0.5;"/><path d="M833.3159,936.873 L833.3159,946.873 L843.3159,946.873 L833.3159,936.873 " fill="#FEFFDD" style="stroke:#181818;stroke-width:0.5;"/><text fill="#000000" font-family="sans-serif" font-size="13" lengthAdjust="spacing" textLength="66.1235" x="755.3242" y="955.3682">CGo &#8594; Go:</text><text fill="#000000" font-family="sans-serif" font-size="13" lengthAdjust="spacing" textLength="72.9917" x="755.3242" y="971.7197">Anfragedaten</text><text fill="#000000" font-family="sans-serif" font-size="13" lengthAdjust="spacing" textLength="25.3018" x="755.3242" y="988.0713">lesen</text><rect fill="#F1F1F1" height="35.0938" rx="12.5" ry="12.5" style="stroke:#181818;stroke-width:0.5;" width="192.7344" x="536.5898" y="948.8535"/><text fill="#000000" font-family="sans-serif" font-size="12" lengthAdjust="spacing" textLength="172.7344" x="546.5898" y="971.3105">Request::getMethod(), getUri()...</text><path d="M723.9854,1012.123 L723.9854,1029.4746 L703.9854,1033.4746 L723.9854,1037.4746 L723.9854,1054.8262 A0,0 0 0 0 723.9854,1054.8262 L816.5171,1054.8262 A0,0 0 0 0 816.5171,1054.8262 L816.5171,1022.123 L806.5171,1012.123 L723.9854,1012.123 A0,0 0 0 0 723.9854,1012.123 " fill="#FEFFDD" style="stroke:#181818;stroke-width:0.5;"/><path d="M806.5171,1012.123 L806.5171,1022.123 L816.5171,1022.123 L806.5171,1012.123 " fill="#FEFFDD" style="stroke:#181818;stroke-width:0.5;"/><text fill="#000000" font-family="sans-serif" font-size="13" lengthAdjust="spacing" textLength="71.5317" x="729.9854" y="1030.6182">async/await,</text><text fill="#000000" font-family="sans-serif" font-size="13" lengthAdjust="spacing" textLength="62.8608" x="729.9854" y="1046.9697">parallele I/O</text><rect fill="#F1F1F1" height="35.0938" rx="12.5" ry="12.5" style="stroke:#181818;stroke-width:0.5;" width="142.0566" x="561.9287" y="1015.9277"/><text fill="#000000" font-family="sans-serif" font-size="12" lengthAdjust="spacing" textLength="122.0566" x="571.9287" y="1038.3848">Geschäftslogik verarbeiten</text><rect fill="#F1F1F1" height="35.0938" rx="12.5" ry="12.5" style="stroke:#181818;stroke-width:0.5;" width="137.3867" x="564.2637" y="1074.8262"/><text fill="#000000" font-family="sans-serif" font-size="12" lengthAdjust="spacing" textLength="117.3867" x="574.2637" y="1097.2832">Response::write(data)</text><rect fill="#F1F1F1" height="35.0938" rx="12.5" ry="12.5" style="stroke:#181818;stroke-width:0.5;" width="108.7168" x="578.5986" y="1350.2949"/><text fill="#000000" font-family="sans-serif" font-size="12" lengthAdjust="spacing" textLength="88.7168" x="588.5986" y="1372.752">Response::end()</text><rect fill="#F1F1F1" height="35.0938" rx="12.5" ry="12.5" style="stroke:#181818;stroke-width:0.5;" width="202.1094" x="531.9023" y="1405.3887"/><text fill="#000000" font-family="sans-serif" font-size="12" lengthAdjust="spacing" textLength="182.1094" x="541.9023" y="1427.8457">go_async_worker_request_done()</text><rect fill="#F1F1F1" height="35.0938" rx="12.5" ry="12.5" style="stroke:#181818;stroke-width:0.5;" width="180.7637" x="542.5752" y="1460.4824"/><text fill="#000000" font-family="sans-serif" font-size="12" lengthAdjust="spacing" textLength="160.7637" x="552.5752" y="1482.9395">Scope und Ressourcen freigeben</text><ellipse cx="632.957" cy="1526.5762" fill="none" rx="11" ry="11" style="stroke:#222222;stroke-width:1;"/><ellipse cx="632.957" cy="1526.5762" fill="#222222" rx="6" ry="6" style="stroke:#222222;stroke-width:1;"/><line style="stroke:#000000;stroke-width:1.5;" x1="525.9023" x2="525.9023" y1="51.0645" y2="1537.5762"/><line style="stroke:#000000;stroke-width:1.5;" x1="848.3159" x2="848.3159" y1="51.0645" y2="1537.5762"/><line style="stroke:#181818;stroke-width:1;" x1="328.8022" x2="328.8022" y1="98.7051" y2="118.7051"/><polygon fill="#181818" points="324.8022,108.7051,328.8022,118.7051,332.8022,108.7051,328.8022,112.7051" style="stroke:#181818;stroke-width:1;"/><line style="stroke:#181818;stroke-width:1;" x1="328.8022" x2="328.8022" y1="153.7988" y2="173.7988"/><polygon fill="#181818" points="324.8022,163.7988,328.8022,173.7988,332.8022,163.7988,328.8022,167.7988" style="stroke:#181818;stroke-width:1;"/><line style="stroke:#181818;stroke-width:1;" x1="113.0371" x2="113.0371" y1="387.0801" y2="407.0801"/><polygon fill="#181818" points="109.0371,397.0801,113.0371,407.0801,117.0371,397.0801,113.0371,401.0801" style="stroke:#181818;stroke-width:1;"/><line style="stroke:#181818;stroke-width:1;" x1="154.3369" x2="113.0371" y1="329.9863" y2="329.9863"/><line style="stroke:#181818;stroke-width:1;" x1="113.0371" x2="113.0371" y1="329.9863" y2="351.9863"/><polygon fill="#181818" points="109.0371,341.9863,113.0371,351.9863,117.0371,341.9863,113.0371,345.9863" style="stroke:#181818;stroke-width:1;"/><line style="stroke:#181818;stroke-width:1;" x1="250.4814" x2="291.7813" y1="329.9863" y2="329.9863"/><line style="stroke:#181818;stroke-width:1;" x1="291.7813" x2="291.7813" y1="329.9863" y2="351.9863"/><polygon fill="#181818" points="287.7813,341.9863,291.7813,351.9863,295.7813,341.9863,291.7813,345.9863" style="stroke:#181818;stroke-width:1;"/><line style="stroke:#181818;stroke-width:1;" x1="291.7813" x2="291.7813" y1="387.0801" y2="451.0801"/><line style="stroke:#181818;stroke-width:1;" x1="291.7813" x2="316.8022" y1="451.0801" y2="451.0801"/><polygon fill="#181818" points="306.8022,447.0801,316.8022,451.0801,306.8022,455.0801,310.8022,451.0801" style="stroke:#181818;stroke-width:1;"/><line style="stroke:#181818;stroke-width:1;" x1="202.4092" x2="202.4092" y1="297.9863" y2="317.9863"/><polygon fill="#181818" points="198.4092,307.9863,202.4092,317.9863,206.4092,307.9863,202.4092,311.9863" style="stroke:#181818;stroke-width:1;"/><line style="stroke:#181818;stroke-width:1;" x1="272.1658" x2="202.4092" y1="240.8926" y2="240.8926"/><line style="stroke:#181818;stroke-width:1;" x1="202.4092" x2="202.4092" y1="240.8926" y2="262.8926"/><polygon fill="#181818" points="198.4092,252.8926,202.4092,262.8926,206.4092,252.8926,202.4092,256.8926" style="stroke:#181818;stroke-width:1;"/><line style="stroke:#181818;stroke-width:1;" x1="385.4387" x2="455.1953" y1="240.8926" y2="240.8926"/><line style="stroke:#181818;stroke-width:1;" x1="455.1953" x2="455.1953" y1="240.8926" y2="262.8926"/><polygon fill="#181818" points="451.1953,252.8926,455.1953,262.8926,459.1953,252.8926,455.1953,256.8926" style="stroke:#181818;stroke-width:1;"/><line style="stroke:#181818;stroke-width:1;" x1="455.1953" x2="455.1953" y1="297.9863" y2="451.0801"/><line style="stroke:#181818;stroke-width:1;" x1="455.1953" x2="340.8022" y1="451.0801" y2="451.0801"/><polygon fill="#181818" points="350.8022,447.0801,340.8022,451.0801,350.8022,455.0801,346.8022,451.0801" style="stroke:#181818;stroke-width:1;"/><line style="stroke:#181818;stroke-width:1;" x1="328.8022" x2="328.8022" y1="208.8926" y2="228.8926"/><polygon fill="#181818" points="324.8022,218.8926,328.8022,228.8926,332.8022,218.8926,328.8022,222.8926" style="stroke:#181818;stroke-width:1;"/><line style="stroke:#181818;stroke-width:1;" x1="328.8022" x2="328.8022" y1="539.7832" y2="568.5059"/><polygon fill="#181818" points="324.8022,558.5059,328.8022,568.5059,332.8022,558.5059,328.8022,562.5059" style="stroke:#181818;stroke-width:1;"/><line style="stroke:#181818;stroke-width:1;" x1="392.1633" x2="506.1377" y1="527.7832" y2="527.7832"/><polygon fill="#181818" points="502.1377,576.0527,506.1377,586.0527,510.1377,576.0527,506.1377,580.0527" style="stroke:#181818;stroke-width:1;"/><line style="stroke:#181818;stroke-width:1;" x1="506.1377" x2="506.1377" y1="527.7832" y2="639.4043"/><line style="stroke:#181818;stroke-width:1;" x1="506.1377" x2="340.8022" y1="639.4043" y2="639.4043"/><polygon fill="#181818" points="350.8022,635.4043,340.8022,639.4043,350.8022,643.4043,346.8022,639.4043" style="stroke:#181818;stroke-width:1;"/><line style="stroke:#181818;stroke-width:1;" x1="328.8022" x2="328.8022" y1="603.5996" y2="627.4043"/><polygon fill="#181818" points="324.8022,617.4043,328.8022,627.4043,332.8022,617.4043,328.8022,621.4043" style="stroke:#181818;stroke-width:1;"/><line style="stroke:#181818;stroke-width:1;" x1="328.8022" x2="328.8022" y1="463.0801" y2="515.7832"/><polygon fill="#181818" points="324.8022,505.7832,328.8022,515.7832,332.8022,505.7832,328.8022,509.7832" style="stroke:#181818;stroke-width:1;"/><line style="stroke:#181818;stroke-width:1;" x1="328.8022" x2="328.8022" y1="1165.0137" y2="1185.0137"/><polygon fill="#181818" points="324.8022,1175.0137,328.8022,1185.0137,332.8022,1175.0137,328.8022,1179.0137" style="stroke:#181818;stroke-width:1;"/><line style="stroke:#181818;stroke-width:1;" x1="328.8022" x2="328.8022" y1="1220.1074" y2="1240.1074"/><polygon fill="#181818" points="324.8022,1230.1074,328.8022,1240.1074,332.8022,1230.1074,328.8022,1234.1074" style="stroke:#181818;stroke-width:1;"/><line style="stroke:#181818;stroke-width:1;" x1="328.8022" x2="328.8022" y1="1275.2012" y2="1295.2012"/><polygon fill="#181818" points="324.8022,1285.2012,328.8022,1295.2012,332.8022,1285.2012,328.8022,1289.2012" style="stroke:#181818;stroke-width:1;"/><line style="stroke:#181818;stroke-width:1;" x1="632.957" x2="632.957" y1="706.498" y2="726.498"/><polygon fill="#181818" points="628.957,716.498,632.957,726.498,636.957,716.498,632.957,720.498" style="stroke:#181818;stroke-width:1;"/><line style="stroke:#181818;stroke-width:1;" x1="632.957" x2="632.957" y1="761.5918" y2="781.5918"/><polygon fill="#181818" points="628.957,771.5918,632.957,781.5918,636.957,771.5918,632.957,775.5918" style="stroke:#181818;stroke-width:1;"/><line style="stroke:#181818;stroke-width:1;" x1="632.957" x2="632.957" y1="816.6855" y2="836.6855"/><polygon fill="#181818" points="628.957,826.6855,632.957,836.6855,636.957,826.6855,632.957,830.6855" style="stroke:#181818;stroke-width:1;"/><line style="stroke:#181818;stroke-width:1;" x1="632.957" x2="632.957" y1="871.7793" y2="891.7793"/><polygon fill="#181818" points="628.957,881.7793,632.957,891.7793,636.957,881.7793,632.957,885.7793" style="stroke:#181818;stroke-width:1;"/><line style="stroke:#181818;stroke-width:1;" x1="632.957" x2="632.957" y1="926.873" y2="948.8535"/><polygon fill="#181818" points="628.957,938.8535,632.957,948.8535,636.957,938.8535,632.957,942.8535" style="stroke:#181818;stroke-width:1;"/><line style="stroke:#181818;stroke-width:1;" x1="632.957" x2="632.957" y1="983.9473" y2="1015.9277"/><polygon fill="#181818" points="628.957,1005.9277,632.957,1015.9277,636.957,1005.9277,632.957,1009.9277" style="stroke:#181818;stroke-width:1;"/><line style="stroke:#181818;stroke-width:1;" x1="632.957" x2="632.957" y1="1051.0215" y2="1074.8262"/><polygon fill="#181818" points="628.957,1064.8262,632.957,1074.8262,636.957,1064.8262,632.957,1068.8262" style="stroke:#181818;stroke-width:1;"/><line style="stroke:#181818;stroke-width:1;" x1="632.957" x2="632.957" y1="1385.3887" y2="1405.3887"/><polygon fill="#181818" points="628.957,1395.3887,632.957,1405.3887,636.957,1395.3887,632.957,1399.3887" style="stroke:#181818;stroke-width:1;"/><line style="stroke:#181818;stroke-width:1;" x1="632.957" x2="632.957" y1="1440.4824" y2="1460.4824"/><polygon fill="#181818" points="628.957,1450.4824,632.957,1460.4824,636.957,1450.4824,632.957,1454.4824" style="stroke:#181818;stroke-width:1;"/><line style="stroke:#181818;stroke-width:1;" x1="632.957" x2="632.957" y1="1495.5762" y2="1515.5762"/><polygon fill="#181818" points="628.957,1505.5762,632.957,1515.5762,636.957,1505.5762,632.957,1509.5762" style="stroke:#181818;stroke-width:1;"/><line style="stroke:#181818;stroke-width:1;" x1="328.8022" x2="328.8022" y1="651.4043" y2="656.4043"/><line style="stroke:#181818;stroke-width:1;" x1="328.8022" x2="632.957" y1="656.4043" y2="656.4043"/><line style="stroke:#181818;stroke-width:1;" x1="632.957" x2="632.957" y1="656.4043" y2="671.4043"/><polygon fill="#181818" points="628.957,661.4043,632.957,671.4043,636.957,661.4043,632.957,665.4043" style="stroke:#181818;stroke-width:1;"/><line style="stroke:#181818;stroke-width:1;" x1="632.957" x2="632.957" y1="1109.9199" y2="1114.9199"/><line style="stroke:#181818;stroke-width:1;" x1="632.957" x2="328.8022" y1="1114.9199" y2="1114.9199"/><line style="stroke:#181818;stroke-width:1;" x1="328.8022" x2="328.8022" y1="1114.9199" y2="1129.9199"/><polygon fill="#181818" points="324.8022,1119.9199,328.8022,1129.9199,332.8022,1119.9199,328.8022,1123.9199" style="stroke:#181818;stroke-width:1;"/><line style="stroke:#181818;stroke-width:1;" x1="328.8022" x2="328.8022" y1="1330.2949" y2="1335.2949"/><line style="stroke:#181818;stroke-width:1;" x1="328.8022" x2="632.957" y1="1335.2949" y2="1335.2949"/><line style="stroke:#181818;stroke-width:1;" x1="632.957" x2="632.957" y1="1335.2949" y2="1350.2949"/><polygon fill="#181818" points="628.957,1340.2949,632.957,1350.2949,636.957,1340.2949,632.957,1344.2949" style="stroke:#181818;stroke-width:1;"/><text fill="#000000" font-family="sans-serif" font-size="18" lengthAdjust="spacing" textLength="96.0381" x="222.4321" y="69.75">Go-Laufzeit</text><text fill="#000000" font-family="sans-serif" font-size="18" lengthAdjust="spacing" textLength="109.0371" x="632.5906" y="69.75">PHP-Laufzeit</text></g></svg>