<svg xmlns="http://www.w3.org/2000/svg" xmlns:xlink="http://www.w3.org/1999/xlink" contentStyleType="text/css" height="1299px" preserveAspectRatio="none" style="width:846px;height:1299px;background:#FFFFFF;" version="1.1" viewBox="0 0 846 1299" width="846px" zoomAndPan="magnify"><title>PDO Pool &#8212; &#1050;&#1086;&#1084;&#1087;&#1086;&#1085;&#1077;&#1085;&#1090;&#1099;</title><defs/><g><text fill="#000000" font-family="sans-serif" font-size="14" font-weight="bold" lengthAdjust="spacing" textLength="174.7471" x="328.6936" y="24.5332">PDO Pool &#8212; &#1050;&#1086;&#1084;&#1087;&#1086;&#1085;&#1077;&#1085;&#1090;&#1099;</text><!--cluster ???????????????? ???--><g id="cluster_&#1055;&#1086;&#1083;&#1100;&#1079;&#1086;&#1074;&#1072;&#1090;&#1077;&#1083;&#1100;&#1089;&#1082;&#1080;&#1081; &#1082;&#1086;&#1076;"><path d="M370.5,44.6094 L532.001,44.6094 A3.75,3.75 0 0 1 534.501,47.1094 L541.501,68.2188 L541.5,68.2188 A2.5,2.5 0 0 1 544,70.7188 L544,265.1094 A2.5,2.5 0 0 1 541.5,267.6094 L370.5,267.6094 A2.5,2.5 0 0 1 368,265.1094 L368,47.1094 A2.5,2.5 0 0 1 370.5,44.6094 " fill="#E8F5E9" style="stroke:#000000;stroke-width:1.5;"/><line style="stroke:#000000;stroke-width:1.5;" x1="368" x2="541.501" y1="68.2188" y2="68.2188"/><text fill="#000000" font-family="sans-serif" font-size="14" font-weight="bold" lengthAdjust="spacing" textLength="160.501" x="372" y="61.1426">&#1055;&#1086;&#1083;&#1100;&#1079;&#1086;&#1074;&#1072;&#1090;&#1077;&#1083;&#1100;&#1089;&#1082;&#1080;&#1081; &#1082;&#1086;&#1076;</text></g><!--cluster ???? PDO (php-src)--><g id="cluster_&#1071;&#1076;&#1088;&#1086; PDO (php-src)"><path d="M339.5,317.6094 L475.332,317.6094 A3.75,3.75 0 0 1 477.832,320.1094 L484.832,341.2188 L572.5,341.2188 A2.5,2.5 0 0 1 575,343.7188 L575,818.1094 A2.5,2.5 0 0 1 572.5,820.6094 L339.5,820.6094 A2.5,2.5 0 0 1 337,818.1094 L337,320.1094 A2.5,2.5 0 0 1 339.5,317.6094 " fill="#E3F2FD" style="stroke:#000000;stroke-width:1.5;"/><line style="stroke:#000000;stroke-width:1.5;" x1="337" x2="484.832" y1="341.2188" y2="341.2188"/><text fill="#000000" font-family="sans-serif" font-size="14" font-weight="bold" lengthAdjust="spacing" textLength="134.832" x="341" y="334.1426">&#1071;&#1076;&#1088;&#1086; PDO (php-src)</text></g><!--cluster Async Extension--><g id="cluster_Async Extension"><path d="M517.5,870.6094 L631.3135,870.6094 A3.75,3.75 0 0 1 633.8135,873.1094 L640.8135,894.2188 L698.5,894.2188 A2.5,2.5 0 0 1 701,896.7188 L701,1074.1094 A2.5,2.5 0 0 1 698.5,1076.6094 L517.5,1076.6094 A2.5,2.5 0 0 1 515,1074.1094 L515,873.1094 A2.5,2.5 0 0 1 517.5,870.6094 " fill="#FFF3E0" style="stroke:#000000;stroke-width:1.5;"/><line style="stroke:#000000;stroke-width:1.5;" x1="515" x2="640.8135" y1="894.2188" y2="894.2188"/><text fill="#000000" font-family="sans-serif" font-size="14" font-weight="bold" lengthAdjust="spacing" textLength="112.8135" x="519" y="887.1426">Async Extension</text></g><!--cluster ??? ??????????--><g id="cluster_&#1055;&#1091;&#1083; &#1089;&#1086;&#1077;&#1076;&#1080;&#1085;&#1077;&#1085;&#1080;&#1081;"><path d="M26.5,1126.6094 L141.6602,1126.6094 A3.75,3.75 0 0 1 144.1602,1129.1094 L151.1602,1150.2188 L721.5,1150.2188 A2.5,2.5 0 0 1 724,1152.7188 L724,1290.1094 A2.5,2.5 0 0 1 721.5,1292.6094 L26.5,1292.6094 A2.5,2.5 0 0 1 24,1290.1094 L24,1129.1094 A2.5,2.5 0 0 1 26.5,1126.6094 " fill="#FCE4EC" style="stroke:#000000;stroke-width:1.5;"/><line style="stroke:#000000;stroke-width:1.5;" x1="24" x2="151.1602" y1="1150.2188" y2="1150.2188"/><text fill="#000000" font-family="sans-serif" font-size="14" font-weight="bold" lengthAdjust="spacing" textLength="114.1602" x="28" y="1143.1426">&#1055;&#1091;&#1083; &#1089;&#1086;&#1077;&#1076;&#1080;&#1085;&#1077;&#1085;&#1080;&#1081;</text></g><!--cluster ????????--><g id="cluster_&#1050;&#1086;&#1088;&#1091;&#1090;&#1080;&#1085;&#1099;"><path d="M8.5,923.6094 L78.8096,923.6094 A3.75,3.75 0 0 1 81.3096,926.1094 L88.3096,947.2188 L282.5,947.2188 A2.5,2.5 0 0 1 285,949.7188 L285,1021.1094 A2.5,2.5 0 0 1 282.5,1023.6094 L8.5,1023.6094 A2.5,2.5 0 0 1 6,1021.1094 L6,926.1094 A2.5,2.5 0 0 1 8.5,923.6094 " fill="#F3E5F5" style="stroke:#000000;stroke-width:1.5;"/><line style="stroke:#000000;stroke-width:1.5;" x1="6" x2="88.3096" y1="947.2188" y2="947.2188"/><text fill="#000000" font-family="sans-serif" font-size="14" font-weight="bold" lengthAdjust="spacing" textLength="69.3096" x="10" y="940.1426">&#1050;&#1086;&#1088;&#1091;&#1090;&#1080;&#1085;&#1099;</text></g><!--class UserPDO--><g id="elem_UserPDO"><rect codeLine="5" fill="#F1F1F1" height="171.2656" id="UserPDO" rx="2.5" ry="2.5" style="stroke:#181818;stroke-width:0.5;" width="128.7236" x="391.5" y="80.6094"/><ellipse cx="414.4282" cy="96.6094" fill="#ADD1B2" rx="11" ry="11" style="stroke:#181818;stroke-width:1;"/><path d="M417.1938,92.4844 Q417.35,92.2656 417.5375,92.1563 Q417.725,92.0469 417.9438,92.0469 Q418.3188,92.0469 418.5532,92.3125 Q418.7875,92.5625 418.7875,93.1719 L418.7875,94.625 Q418.7875,95.2344 418.5532,95.5 Q418.3188,95.7656 417.9438,95.7656 Q417.6,95.7656 417.3969,95.5625 Q417.1938,95.375 417.0844,94.8594 Q417.0375,94.5 416.85,94.3125 Q416.5219,93.9375 415.9125,93.7188 Q415.3032,93.5 414.6782,93.5 Q413.9125,93.5 413.2719,93.8281 Q412.6469,94.1563 412.1469,94.9063 Q411.6625,95.6563 411.6625,96.6875 L411.6625,97.7813 Q411.6625,99.0156 412.5532,99.8438 Q413.4438,100.6563 415.0375,100.6563 Q415.975,100.6563 416.6313,100.4063 Q417.0219,100.25 417.4438,99.8125 Q417.7094,99.5469 417.85,99.4688 Q418.0063,99.3906 418.2094,99.3906 Q418.5375,99.3906 418.7875,99.6563 Q419.0532,99.9063 419.0532,100.25 Q419.0532,100.5938 418.7094,101 Q418.2094,101.5781 417.4125,101.9063 Q416.3344,102.3594 415.0375,102.3594 Q413.5219,102.3594 412.3188,101.7344 Q411.3344,101.2344 410.6469,100.1719 Q409.9594,99.0938 409.9594,97.8125 L409.9594,96.6563 Q409.9594,95.3281 410.5688,94.1875 Q411.1938,93.0313 412.2875,92.4219 Q413.3813,91.7969 414.6157,91.7969 Q415.35,91.7969 415.9907,91.9688 Q416.6469,92.125 417.1938,92.4844 Z " fill="#000000"/><text fill="#000000" font-family="sans-serif" font-size="14" lengthAdjust="spacing" textLength="79.1055" x="430.19" y="102.3379">PDO &#1086;&#1073;&#1098;&#1077;&#1082;&#1090;</text><line style="stroke:#181818;stroke-width:0.5;" x1="392.5" x2="519.2236" y1="112.6094" y2="112.6094"/><line style="stroke:#181818;stroke-width:0.5;" x1="392.5" x2="519.2236" y1="120.6094" y2="120.6094"/><text fill="#000000" font-family="sans-serif" font-size="14" lengthAdjust="spacing" textLength="44.3447" x="397.5" y="139.1426">query()</text><text fill="#000000" font-family="sans-serif" font-size="14" lengthAdjust="spacing" textLength="38.8965" x="397.5" y="156.752">exec()</text><text fill="#000000" font-family="sans-serif" font-size="14" lengthAdjust="spacing" textLength="57.5791" x="397.5" y="174.3613">prepare()</text><text fill="#000000" font-family="sans-serif" font-size="14" lengthAdjust="spacing" textLength="116.7236" x="397.5" y="191.9707">beginTransaction()</text><text fill="#000000" font-family="sans-serif" font-size="14" lengthAdjust="spacing" textLength="54.4346" x="397.5" y="209.5801">commit()</text><text fill="#000000" font-family="sans-serif" font-size="14" lengthAdjust="spacing" textLength="59.1172" x="397.5" y="227.1895">rollBack()</text><text fill="#000000" font-family="sans-serif" font-size="14" lengthAdjust="spacing" textLength="56.8066" x="397.5" y="244.7988">getPool()</text></g><!--class Template--><g id="elem_Template"><rect codeLine="17" fill="#F1F1F1" height="166.875" id="Template" rx="2.5" ry="2.5" style="stroke:#181818;stroke-width:0.5;" width="205.792" x="353" y="353.6094"/><ellipse cx="418.5566" cy="376.2188" fill="#ADD1B2" rx="11" ry="11" style="stroke:#181818;stroke-width:1;"/><path d="M421.3223,372.0938 Q421.4785,371.875 421.666,371.7656 Q421.8535,371.6563 422.0723,371.6563 Q422.4473,371.6563 422.6816,371.9219 Q422.916,372.1719 422.916,372.7813 L422.916,374.2344 Q422.916,374.8438 422.6816,375.1094 Q422.4473,375.375 422.0723,375.375 Q421.7285,375.375 421.5254,375.1719 Q421.3223,374.9844 421.2129,374.4688 Q421.166,374.1094 420.9785,373.9219 Q420.6504,373.5469 420.041,373.3281 Q419.4316,373.1094 418.8066,373.1094 Q418.041,373.1094 417.4004,373.4375 Q416.7754,373.7656 416.2754,374.5156 Q415.791,375.2656 415.791,376.2969 L415.791,377.3906 Q415.791,378.625 416.6816,379.4531 Q417.5723,380.2656 419.166,380.2656 Q420.1035,380.2656 420.7598,380.0156 Q421.1504,379.8594 421.5723,379.4219 Q421.8379,379.1563 421.9785,379.0781 Q422.1348,379 422.3379,379 Q422.666,379 422.916,379.2656 Q423.1816,379.5156 423.1816,379.8594 Q423.1816,380.2031 422.8379,380.6094 Q422.3379,381.1875 421.541,381.5156 Q420.4629,381.9688 419.166,381.9688 Q417.6504,381.9688 416.4473,381.3438 Q415.4629,380.8438 414.7754,379.7813 Q414.0879,378.7031 414.0879,377.4219 L414.0879,376.2656 Q414.0879,374.9375 414.6973,373.7969 Q415.3223,372.6406 416.416,372.0313 Q417.5098,371.4063 418.7441,371.4063 Q419.4785,371.4063 420.1191,371.5781 Q420.7754,371.7344 421.3223,372.0938 Z " fill="#000000"/><text fill="#000000" font-family="sans-serif" font-size="14" lengthAdjust="spacing" textLength="66.1787" x="439.0566" y="373.1426">pdo_dbh_t</text><text fill="#000000" font-family="sans-serif" font-size="14" lengthAdjust="spacing" textLength="63.0205" x="440.6357" y="390.752">(template)</text><line style="stroke:#181818;stroke-width:0.5;" x1="354" x2="557.792" y1="398.8281" y2="398.8281"/><text fill="#000000" font-family="sans-serif" font-size="14" lengthAdjust="spacing" textLength="129.9512" x="359" y="417.3613">driver : pdo_driver_t*</text><text fill="#000000" font-family="sans-serif" font-size="14" lengthAdjust="spacing" textLength="121.4063" x="359" y="434.9707">data_source : char*</text><text fill="#000000" font-family="sans-serif" font-size="14" lengthAdjust="spacing" textLength="106.6064" x="359" y="452.5801">username : char*</text><text fill="#000000" font-family="sans-serif" font-size="14" lengthAdjust="spacing" textLength="104.2686" x="359" y="470.1895">password : char*</text><line style="stroke:#181818;stroke-width:1;" x1="354" x2="557.792" y1="477.2656" y2="477.2656"/><text fill="#000000" font-family="sans-serif" font-size="14" lengthAdjust="spacing" textLength="164.2334" x="359" y="495.7988">pool : zend_async_pool_t*</text><text fill="#000000" font-family="sans-serif" font-size="14" lengthAdjust="spacing" textLength="193.792" x="359" y="513.4082">pool_connections : HashTable*</text></g><!--class PoolLogic--><g id="elem_PoolLogic"><rect codeLine="27" fill="#F1F1F1" height="206.4844" id="PoolLogic" rx="2.5" ry="2.5" style="stroke:#181818;stroke-width:0.5;" width="182.4473" x="356" y="598.6094"/><ellipse cx="408.7222" cy="614.6094" fill="#ADD1B2" rx="11" ry="11" style="stroke:#181818;stroke-width:1;"/><path d="M411.4878,610.4844 Q411.644,610.2656 411.8315,610.1563 Q412.019,610.0469 412.2378,610.0469 Q412.6128,610.0469 412.8472,610.3125 Q413.0815,610.5625 413.0815,611.1719 L413.0815,612.625 Q413.0815,613.2344 412.8472,613.5 Q412.6128,613.7656 412.2378,613.7656 Q411.894,613.7656 411.6909,613.5625 Q411.4878,613.375 411.3784,612.8594 Q411.3315,612.5 411.144,612.3125 Q410.8159,611.9375 410.2065,611.7188 Q409.5972,611.5 408.9722,611.5 Q408.2065,611.5 407.5659,611.8281 Q406.9409,612.1563 406.4409,612.9063 Q405.9565,613.6563 405.9565,614.6875 L405.9565,615.7813 Q405.9565,617.0156 406.8472,617.8438 Q407.7378,618.6563 409.3315,618.6563 Q410.269,618.6563 410.9253,618.4063 Q411.3159,618.25 411.7378,617.8125 Q412.0034,617.5469 412.144,617.4688 Q412.3003,617.3906 412.5034,617.3906 Q412.8315,617.3906 413.0815,617.6563 Q413.3472,617.9063 413.3472,618.25 Q413.3472,618.5938 413.0034,619 Q412.5034,619.5781 411.7065,619.9063 Q410.6284,620.3594 409.3315,620.3594 Q407.8159,620.3594 406.6128,619.7344 Q405.6284,619.2344 404.9409,618.1719 Q404.2534,617.0938 404.2534,615.8125 L404.2534,614.6563 Q404.2534,613.3281 404.8628,612.1875 Q405.4878,611.0313 406.5815,610.4219 Q407.6753,609.7969 408.9097,609.7969 Q409.644,609.7969 410.2847,609.9688 Q410.9409,610.125 411.4878,610.4844 Z " fill="#000000"/><text fill="#000000" font-family="sans-serif" font-size="14" lengthAdjust="spacing" textLength="68.5029" x="429.2222" y="620.3379">pdo_pool.c</text><line style="stroke:#181818;stroke-width:0.5;" x1="357" x2="537.4473" y1="630.6094" y2="630.6094"/><text fill="#000000" font-family="sans-serif" font-size="14" lengthAdjust="spacing" textLength="113.6338" x="362" y="649.1426">pdo_pool_create()</text><text fill="#000000" font-family="sans-serif" font-size="14" lengthAdjust="spacing" textLength="158.7852" x="362" y="666.752">pdo_pool_acquire_conn()</text><text fill="#000000" font-family="sans-serif" font-size="14" lengthAdjust="spacing" textLength="170.4473" x="362" y="684.3613">pdo_pool_maybe_release()</text><text fill="#000000" font-family="sans-serif" font-size="14" lengthAdjust="spacing" textLength="143.2266" x="362" y="701.9707">pdo_pool_peek_conn()</text><text fill="#000000" font-family="sans-serif" font-size="14" lengthAdjust="spacing" textLength="120.6338" x="362" y="719.5801">pdo_pool_destroy()</text><line style="stroke:#181818;stroke-width:1;" x1="357" x2="537.4473" y1="726.6563" y2="726.6563"/><text fill="#000000" font-family="sans-serif" font-size="14" lengthAdjust="spacing" textLength="116.7373" x="362" y="745.1895">pdo_pool_factory()</text><text fill="#000000" font-family="sans-serif" font-size="14" lengthAdjust="spacing" textLength="136.9717" x="362" y="762.7988">pdo_pool_destructor()</text><text fill="#000000" font-family="sans-serif" font-size="14" lengthAdjust="spacing" textLength="149.4404" x="362" y="780.4082">pdo_pool_healthcheck()</text><text fill="#000000" font-family="sans-serif" font-size="14" lengthAdjust="spacing" textLength="168.123" x="362" y="798.0176">pdo_pool_before_release()</text></g><!--class AsyncPool--><g id="elem_AsyncPool"><rect codeLine="42" fill="#F1F1F1" height="153.6563" id="AsyncPool" rx="2.5" ry="2.5" style="stroke:#181818;stroke-width:0.5;" width="152.6475" x="531.5" y="906.6094"/><ellipse cx="546.5" cy="922.6094" fill="#ADD1B2" rx="11" ry="11" style="stroke:#181818;stroke-width:1;"/><path d="M549.2656,918.4844 Q549.4219,918.2656 549.6094,918.1563 Q549.7969,918.0469 550.0156,918.0469 Q550.3906,918.0469 550.625,918.3125 Q550.8594,918.5625 550.8594,919.1719 L550.8594,920.625 Q550.8594,921.2344 550.625,921.5 Q550.3906,921.7656 550.0156,921.7656 Q549.6719,921.7656 549.4688,921.5625 Q549.2656,921.375 549.1563,920.8594 Q549.1094,920.5 548.9219,920.3125 Q548.5938,919.9375 547.9844,919.7188 Q547.375,919.5 546.75,919.5 Q545.9844,919.5 545.3438,919.8281 Q544.7188,920.1563 544.2188,920.9063 Q543.7344,921.6563 543.7344,922.6875 L543.7344,923.7813 Q543.7344,925.0156 544.625,925.8438 Q545.5156,926.6563 547.1094,926.6563 Q548.0469,926.6563 548.7031,926.4063 Q549.0938,926.25 549.5156,925.8125 Q549.7813,925.5469 549.9219,925.4688 Q550.0781,925.3906 550.2813,925.3906 Q550.6094,925.3906 550.8594,925.6563 Q551.125,925.9063 551.125,926.25 Q551.125,926.5938 550.7813,927 Q550.2813,927.5781 549.4844,927.9063 Q548.4063,928.3594 547.1094,928.3594 Q545.5938,928.3594 544.3906,927.7344 Q543.4063,927.2344 542.7188,926.1719 Q542.0313,925.0938 542.0313,923.8125 L542.0313,922.6563 Q542.0313,921.3281 542.6406,920.1875 Q543.2656,919.0313 544.3594,918.4219 Q545.4531,917.7969 546.6875,917.7969 Q547.4219,917.7969 548.0625,917.9688 Q548.7188,918.125 549.2656,918.4844 Z " fill="#000000"/><text fill="#000000" font-family="sans-serif" font-size="14" lengthAdjust="spacing" textLength="120.6475" x="560.5" y="928.3379">zend_async_pool_t</text><line style="stroke:#181818;stroke-width:0.5;" x1="532.5" x2="683.1475" y1="938.6094" y2="938.6094"/><text fill="#000000" font-family="sans-serif" font-size="14" lengthAdjust="spacing" textLength="116.7305" x="537.5" y="957.1426">min_size : uint32_t</text><text fill="#000000" font-family="sans-serif" font-size="14" lengthAdjust="spacing" textLength="120.6201" x="537.5" y="974.752">max_size : uint32_t</text><text fill="#000000" font-family="sans-serif" font-size="14" lengthAdjust="spacing" textLength="105.0684" x="537.5" y="992.3613">user_data : void*</text><line style="stroke:#181818;stroke-width:1;" x1="532.5" x2="683.1475" y1="999.4375" y2="999.4375"/><text fill="#000000" font-family="sans-serif" font-size="14" lengthAdjust="spacing" textLength="55.2412" x="537.5" y="1017.9707">acquire()</text><text fill="#000000" font-family="sans-serif" font-size="14" lengthAdjust="spacing" textLength="55.2412" x="537.5" y="1035.5801">release()</text><text fill="#000000" font-family="sans-serif" font-size="14" lengthAdjust="spacing" textLength="42.0068" x="537.5" y="1053.1895">close()</text></g><!--class Conn1--><g id="elem_Conn1"><rect codeLine="54" fill="#F1F1F1" height="114.0469" id="Conn1" rx="2.5" ry="2.5" style="stroke:#181818;stroke-width:0.5;" width="198.7988" x="40.5" y="1162.6094"/><ellipse cx="102.5601" cy="1185.2188" fill="#ADD1B2" rx="11" ry="11" style="stroke:#181818;stroke-width:1;"/><path d="M105.3257,1181.0938 Q105.4819,1180.875 105.6694,1180.7656 Q105.8569,1180.6563 106.0757,1180.6563 Q106.4507,1180.6563 106.6851,1180.9219 Q106.9194,1181.1719 106.9194,1181.7813 L106.9194,1183.2344 Q106.9194,1183.8438 106.6851,1184.1094 Q106.4507,1184.375 106.0757,1184.375 Q105.7319,1184.375 105.5288,1184.1719 Q105.3257,1183.9844 105.2163,1183.4688 Q105.1694,1183.1094 104.9819,1182.9219 Q104.6538,1182.5469 104.0444,1182.3281 Q103.4351,1182.1094 102.8101,1182.1094 Q102.0444,1182.1094 101.4038,1182.4375 Q100.7788,1182.7656 100.2788,1183.5156 Q99.7944,1184.2656 99.7944,1185.2969 L99.7944,1186.3906 Q99.7944,1187.625 100.6851,1188.4531 Q101.5757,1189.2656 103.1694,1189.2656 Q104.1069,1189.2656 104.7632,1189.0156 Q105.1538,1188.8594 105.5757,1188.4219 Q105.8413,1188.1563 105.9819,1188.0781 Q106.1382,1188 106.3413,1188 Q106.6694,1188 106.9194,1188.2656 Q107.1851,1188.5156 107.1851,1188.8594 Q107.1851,1189.2031 106.8413,1189.6094 Q106.3413,1190.1875 105.5444,1190.5156 Q104.4663,1190.9688 103.1694,1190.9688 Q101.6538,1190.9688 100.4507,1190.3438 Q99.4663,1189.8438 98.7788,1188.7813 Q98.0913,1187.7031 98.0913,1186.4219 L98.0913,1185.2656 Q98.0913,1183.9375 98.7007,1182.7969 Q99.3257,1181.6406 100.4194,1181.0313 Q101.5132,1180.4063 102.7476,1180.4063 Q103.4819,1180.4063 104.1226,1180.5781 Q104.7788,1180.7344 105.3257,1181.0938 Z " fill="#000000"/><text fill="#000000" font-family="sans-serif" font-size="14" lengthAdjust="spacing" textLength="66.1787" x="123.0601" y="1182.1426">pdo_dbh_t</text><text fill="#000000" font-family="sans-serif" font-size="14" lengthAdjust="spacing" textLength="59.1445" x="126.5771" y="1199.752">(conn #1)</text><line style="stroke:#181818;stroke-width:0.5;" x1="41.5" x2="238.2988" y1="1207.8281" y2="1207.8281"/><text fill="#000000" font-family="sans-serif" font-size="14" lengthAdjust="spacing" textLength="112.8408" x="46.5" y="1226.3613">driver_data : void*</text><text fill="#000000" font-family="sans-serif" font-size="14" lengthAdjust="spacing" textLength="186.7988" x="46.5" y="1243.9707">methods : pdo_dbh_methods*</text><text fill="#000000" font-family="sans-serif" font-size="14" lengthAdjust="spacing" textLength="75.4961" x="46.5" y="1261.5801">in_txn : bool</text><line style="stroke:#181818;stroke-width:0.5;" x1="41.5" x2="238.2988" y1="1268.6563" y2="1268.6563"/></g><!--class Conn2--><g id="elem_Conn2"><rect codeLine="59" fill="#F1F1F1" height="114.0469" id="Conn2" rx="2.5" ry="2.5" style="stroke:#181818;stroke-width:0.5;" width="198.7988" x="274.5" y="1162.6094"/><ellipse cx="336.5601" cy="1185.2188" fill="#ADD1B2" rx="11" ry="11" style="stroke:#181818;stroke-width:1;"/><path d="M339.3257,1181.0938 Q339.4819,1180.875 339.6694,1180.7656 Q339.8569,1180.6563 340.0757,1180.6563 Q340.4507,1180.6563 340.6851,1180.9219 Q340.9194,1181.1719 340.9194,1181.7813 L340.9194,1183.2344 Q340.9194,1183.8438 340.6851,1184.1094 Q340.4507,1184.375 340.0757,1184.375 Q339.7319,1184.375 339.5288,1184.1719 Q339.3257,1183.9844 339.2163,1183.4688 Q339.1694,1183.1094 338.9819,1182.9219 Q338.6538,1182.5469 338.0444,1182.3281 Q337.4351,1182.1094 336.8101,1182.1094 Q336.0444,1182.1094 335.4038,1182.4375 Q334.7788,1182.7656 334.2788,1183.5156 Q333.7944,1184.2656 333.7944,1185.2969 L333.7944,1186.3906 Q333.7944,1187.625 334.6851,1188.4531 Q335.5757,1189.2656 337.1694,1189.2656 Q338.1069,1189.2656 338.7632,1189.0156 Q339.1538,1188.8594 339.5757,1188.4219 Q339.8413,1188.1563 339.9819,1188.0781 Q340.1382,1188 340.3413,1188 Q340.6694,1188 340.9194,1188.2656 Q341.1851,1188.5156 341.1851,1188.8594 Q341.1851,1189.2031 340.8413,1189.6094 Q340.3413,1190.1875 339.5444,1190.5156 Q338.4663,1190.9688 337.1694,1190.9688 Q335.6538,1190.9688 334.4507,1190.3438 Q333.4663,1189.8438 332.7788,1188.7813 Q332.0913,1187.7031 332.0913,1186.4219 L332.0913,1185.2656 Q332.0913,1183.9375 332.7007,1182.7969 Q333.3257,1181.6406 334.4194,1181.0313 Q335.5132,1180.4063 336.7476,1180.4063 Q337.4819,1180.4063 338.1226,1180.5781 Q338.7788,1180.7344 339.3257,1181.0938 Z " fill="#000000"/><text fill="#000000" font-family="sans-serif" font-size="14" lengthAdjust="spacing" textLength="66.1787" x="357.0601" y="1182.1426">pdo_dbh_t</text><text fill="#000000" font-family="sans-serif" font-size="14" lengthAdjust="spacing" textLength="59.1445" x="360.5771" y="1199.752">(conn #2)</text><line style="stroke:#181818;stroke-width:0.5;" x1="275.5" x2="472.2988" y1="1207.8281" y2="1207.8281"/><text fill="#000000" font-family="sans-serif" font-size="14" lengthAdjust="spacing" textLength="112.8408" x="280.5" y="1226.3613">driver_data : void*</text><text fill="#000000" font-family="sans-serif" font-size="14" lengthAdjust="spacing" textLength="186.7988" x="280.5" y="1243.9707">methods : pdo_dbh_methods*</text><text fill="#000000" font-family="sans-serif" font-size="14" lengthAdjust="spacing" textLength="75.4961" x="280.5" y="1261.5801">in_txn : bool</text><line style="stroke:#181818;stroke-width:0.5;" x1="275.5" x2="472.2988" y1="1268.6563" y2="1268.6563"/></g><!--class ConnN--><g id="elem_ConnN"><rect codeLine="64" fill="#F1F1F1" height="114.0469" id="ConnN" rx="2.5" ry="2.5" style="stroke:#181818;stroke-width:0.5;" width="198.7988" x="508.5" y="1162.6094"/><ellipse cx="570.5601" cy="1185.2188" fill="#ADD1B2" rx="11" ry="11" style="stroke:#181818;stroke-width:1;"/><path d="M573.3257,1181.0938 Q573.4819,1180.875 573.6694,1180.7656 Q573.8569,1180.6563 574.0757,1180.6563 Q574.4507,1180.6563 574.6851,1180.9219 Q574.9194,1181.1719 574.9194,1181.7813 L574.9194,1183.2344 Q574.9194,1183.8438 574.6851,1184.1094 Q574.4507,1184.375 574.0757,1184.375 Q573.7319,1184.375 573.5288,1184.1719 Q573.3257,1183.9844 573.2163,1183.4688 Q573.1694,1183.1094 572.9819,1182.9219 Q572.6538,1182.5469 572.0444,1182.3281 Q571.4351,1182.1094 570.8101,1182.1094 Q570.0444,1182.1094 569.4038,1182.4375 Q568.7788,1182.7656 568.2788,1183.5156 Q567.7944,1184.2656 567.7944,1185.2969 L567.7944,1186.3906 Q567.7944,1187.625 568.6851,1188.4531 Q569.5757,1189.2656 571.1694,1189.2656 Q572.1069,1189.2656 572.7632,1189.0156 Q573.1538,1188.8594 573.5757,1188.4219 Q573.8413,1188.1563 573.9819,1188.0781 Q574.1382,1188 574.3413,1188 Q574.6694,1188 574.9194,1188.2656 Q575.1851,1188.5156 575.1851,1188.8594 Q575.1851,1189.2031 574.8413,1189.6094 Q574.3413,1190.1875 573.5444,1190.5156 Q572.4663,1190.9688 571.1694,1190.9688 Q569.6538,1190.9688 568.4507,1190.3438 Q567.4663,1189.8438 566.7788,1188.7813 Q566.0913,1187.7031 566.0913,1186.4219 L566.0913,1185.2656 Q566.0913,1183.9375 566.7007,1182.7969 Q567.3257,1181.6406 568.4194,1181.0313 Q569.5132,1180.4063 570.7476,1180.4063 Q571.4819,1180.4063 572.1226,1180.5781 Q572.7788,1180.7344 573.3257,1181.0938 Z " fill="#000000"/><text fill="#000000" font-family="sans-serif" font-size="14" lengthAdjust="spacing" textLength="66.1787" x="591.0601" y="1182.1426">pdo_dbh_t</text><text fill="#000000" font-family="sans-serif" font-size="14" lengthAdjust="spacing" textLength="61.4688" x="593.415" y="1199.752">(conn #N)</text><line style="stroke:#181818;stroke-width:0.5;" x1="509.5" x2="706.2988" y1="1207.8281" y2="1207.8281"/><text fill="#000000" font-family="sans-serif" font-size="14" lengthAdjust="spacing" textLength="112.8408" x="514.5" y="1226.3613">driver_data : void*</text><text fill="#000000" font-family="sans-serif" font-size="14" lengthAdjust="spacing" textLength="186.7988" x="514.5" y="1243.9707">methods : pdo_dbh_methods*</text><text fill="#000000" font-family="sans-serif" font-size="14" lengthAdjust="spacing" textLength="75.4961" x="514.5" y="1261.5801">in_txn : bool</text><line style="stroke:#181818;stroke-width:0.5;" x1="509.5" x2="706.2988" y1="1268.6563" y2="1268.6563"/></g><!--class CoroA--><g id="elem_CoroA"><rect codeLine="72" fill="#F1F1F1" height="48" id="CoroA" rx="2.5" ry="2.5" style="stroke:#181818;stroke-width:0.5;" width="105.7051" x="22" y="959.6094"/><ellipse cx="37" cy="975.6094" fill="#ADD1B2" rx="11" ry="11" style="stroke:#181818;stroke-width:1;"/><path d="M39.7656,971.4844 Q39.9219,971.2656 40.1094,971.1563 Q40.2969,971.0469 40.5156,971.0469 Q40.8906,971.0469 41.125,971.3125 Q41.3594,971.5625 41.3594,972.1719 L41.3594,973.625 Q41.3594,974.2344 41.125,974.5 Q40.8906,974.7656 40.5156,974.7656 Q40.1719,974.7656 39.9688,974.5625 Q39.7656,974.375 39.6563,973.8594 Q39.6094,973.5 39.4219,973.3125 Q39.0938,972.9375 38.4844,972.7188 Q37.875,972.5 37.25,972.5 Q36.4844,972.5 35.8438,972.8281 Q35.2188,973.1563 34.7188,973.9063 Q34.2344,974.6563 34.2344,975.6875 L34.2344,976.7813 Q34.2344,978.0156 35.125,978.8438 Q36.0156,979.6563 37.6094,979.6563 Q38.5469,979.6563 39.2031,979.4063 Q39.5938,979.25 40.0156,978.8125 Q40.2813,978.5469 40.4219,978.4688 Q40.5781,978.3906 40.7813,978.3906 Q41.1094,978.3906 41.3594,978.6563 Q41.625,978.9063 41.625,979.25 Q41.625,979.5938 41.2813,980 Q40.7813,980.5781 39.9844,980.9063 Q38.9063,981.3594 37.6094,981.3594 Q36.0938,981.3594 34.8906,980.7344 Q33.9063,980.2344 33.2188,979.1719 Q32.5313,978.0938 32.5313,976.8125 L32.5313,975.6563 Q32.5313,974.3281 33.1406,973.1875 Q33.7656,972.0313 34.8594,971.4219 Q35.9531,970.7969 37.1875,970.7969 Q37.9219,970.7969 38.5625,970.9688 Q39.2188,971.125 39.7656,971.4844 Z " fill="#000000"/><text fill="#000000" font-family="sans-serif" font-size="14" lengthAdjust="spacing" textLength="73.7051" x="51" y="981.3379">&#1050;&#1086;&#1088;&#1091;&#1090;&#1080;&#1085;&#1072; A</text><line style="stroke:#181818;stroke-width:0.5;" x1="23" x2="126.7051" y1="991.6094" y2="991.6094"/><line style="stroke:#181818;stroke-width:0.5;" x1="23" x2="126.7051" y1="999.6094" y2="999.6094"/></g><!--class CoroB--><g id="elem_CoroB"><rect codeLine="73" fill="#F1F1F1" height="48" id="CoroB" rx="2.5" ry="2.5" style="stroke:#181818;stroke-width:0.5;" width="105.7051" x="163" y="959.6094"/><ellipse cx="178" cy="975.6094" fill="#ADD1B2" rx="11" ry="11" style="stroke:#181818;stroke-width:1;"/><path d="M180.7656,971.4844 Q180.9219,971.2656 181.1094,971.1563 Q181.2969,971.0469 181.5156,971.0469 Q181.8906,971.0469 182.125,971.3125 Q182.3594,971.5625 182.3594,972.1719 L182.3594,973.625 Q182.3594,974.2344 182.125,974.5 Q181.8906,974.7656 181.5156,974.7656 Q181.1719,974.7656 180.9688,974.5625 Q180.7656,974.375 180.6563,973.8594 Q180.6094,973.5 180.4219,973.3125 Q180.0938,972.9375 179.4844,972.7188 Q178.875,972.5 178.25,972.5 Q177.4844,972.5 176.8438,972.8281 Q176.2188,973.1563 175.7188,973.9063 Q175.2344,974.6563 175.2344,975.6875 L175.2344,976.7813 Q175.2344,978.0156 176.125,978.8438 Q177.0156,979.6563 178.6094,979.6563 Q179.5469,979.6563 180.2031,979.4063 Q180.5938,979.25 181.0156,978.8125 Q181.2813,978.5469 181.4219,978.4688 Q181.5781,978.3906 181.7813,978.3906 Q182.1094,978.3906 182.3594,978.6563 Q182.625,978.9063 182.625,979.25 Q182.625,979.5938 182.2813,980 Q181.7813,980.5781 180.9844,980.9063 Q179.9063,981.3594 178.6094,981.3594 Q177.0938,981.3594 175.8906,980.7344 Q174.9063,980.2344 174.2188,979.1719 Q173.5313,978.0938 173.5313,976.8125 L173.5313,975.6563 Q173.5313,974.3281 174.1406,973.1875 Q174.7656,972.0313 175.8594,971.4219 Q176.9531,970.7969 178.1875,970.7969 Q178.9219,970.7969 179.5625,970.9688 Q180.2188,971.125 180.7656,971.4844 Z " fill="#000000"/><text fill="#000000" font-family="sans-serif" font-size="14" lengthAdjust="spacing" textLength="73.7051" x="192" y="981.3379">&#1050;&#1086;&#1088;&#1091;&#1090;&#1080;&#1085;&#1072; B</text><line style="stroke:#181818;stroke-width:0.5;" x1="164" x2="267.7051" y1="991.6094" y2="991.6094"/><line style="stroke:#181818;stroke-width:0.5;" x1="164" x2="267.7051" y1="999.6094" y2="999.6094"/></g><g id="elem_GMN25"><path d="M594.5,407.6094 L594.5,433.1094 L559.23,437.1094 L594.5,441.1094 L594.5,466.6641 A0,0 0 0 0 594.5,466.6641 L839.1343,466.6641 A0,0 0 0 0 839.1343,466.6641 L839.1343,417.6094 L829.1343,407.6094 L594.5,407.6094 A0,0 0 0 0 594.5,407.6094 " fill="#FEFFDD" style="stroke:#181818;stroke-width:0.5;"/><path d="M829.1343,407.6094 L829.1343,417.6094 L839.1343,417.6094 L829.1343,407.6094 " fill="#FEFFDD" style="stroke:#181818;stroke-width:0.5;"/><text fill="#000000" font-family="sans-serif" font-size="13" lengthAdjust="spacing" textLength="198.9355" x="600.5" y="426.1045">Template &#1053;&#1045; &#1087;&#1086;&#1076;&#1082;&#1083;&#1102;&#1095;&#1072;&#1077;&#1090;&#1089;&#1103; &#1082; &#1041;&#1044;.</text><text fill="#000000" font-family="sans-serif" font-size="13" lengthAdjust="spacing" textLength="186.0244" x="600.5" y="442.4561">&#1061;&#1088;&#1072;&#1085;&#1080;&#1090; credentials &#1080; &#1085;&#1072;&#1089;&#1090;&#1088;&#1086;&#1081;&#1082;&#1080;</text><text fill="#000000" font-family="sans-serif" font-size="13" lengthAdjust="spacing" textLength="223.6343" x="600.5" y="458.8076">&#1076;&#1083;&#1103; &#1089;&#1086;&#1079;&#1076;&#1072;&#1085;&#1080;&#1103; &#1088;&#1077;&#1072;&#1083;&#1100;&#1085;&#1099;&#1093; &#1089;&#1086;&#1077;&#1076;&#1080;&#1085;&#1077;&#1085;&#1080;&#1081;.</text></g><g id="elem_GMN28"><path d="M304,954.1094 L304,1013.1641 A0,0 0 0 0 304,1013.1641 L496.2788,1013.1641 A0,0 0 0 0 496.2788,1013.1641 L496.2788,964.1094 L486.2788,954.1094 L408.82,954.1094 L429.83,804.8794 L400.82,954.1094 L304,954.1094 A0,0 0 0 0 304,954.1094 " fill="#FEFFDD" style="stroke:#181818;stroke-width:0.5;"/><path d="M486.2788,954.1094 L486.2788,964.1094 L496.2788,964.1094 L486.2788,954.1094 " fill="#FEFFDD" style="stroke:#181818;stroke-width:0.5;"/><text fill="#000000" font-family="sans-serif" font-size="13" lengthAdjust="spacing" textLength="171.2788" x="310" y="972.6045">pool_connections: HashTable</text><text fill="#000000" font-family="sans-serif" font-size="13" lengthAdjust="spacing" textLength="114.7021" x="310" y="988.9561">&#1082;&#1083;&#1102;&#1095; = coroutine ID</text><text fill="#000000" font-family="sans-serif" font-size="13" lengthAdjust="spacing" textLength="137.3696" x="310" y="1005.3076">&#1079;&#1085;&#1072;&#1095;&#1077;&#1085;&#1080;&#1077; = pdo_dbh_t*</text></g><!--link UserPDO to Template--><g id="link_UserPDO_Template"><path codeLine="76" d="M456,251.8494 C456,284.1894 456,314.9994 456,347.1694 " fill="none" id="UserPDO-to-Template" style="stroke:#181818;stroke-width:1;"/><polygon fill="#181818" points="456,353.1694,460,344.1694,456,348.1694,452,344.1694,456,353.1694" style="stroke:#181818;stroke-width:1;"/><text fill="#000000" font-family="sans-serif" font-size="13" lengthAdjust="spacing" textLength="28.9072" x="457" y="298.1045">inner</text></g><!--link Template to AsyncPool--><g id="link_Template_AsyncPool"><path codeLine="77" d="M516.8,520.8794 C531.83,544.9094 546.37,571.8894 556,598.6094 C592.89,700.9794 603.6936,821.294 606.8136,900.424 " fill="none" id="Template-to-AsyncPool" style="stroke:#181818;stroke-width:1;"/><polygon fill="#181818" points="607.05,906.4194,610.6923,897.2688,606.853,901.4233,602.6985,897.584,607.05,906.4194" style="stroke:#181818;stroke-width:1;"/><text fill="#000000" font-family="sans-serif" font-size="13" lengthAdjust="spacing" textLength="24.5781" x="602" y="707.1045">pool</text></g><!--link Template to PoolLogic--><g id="link_Template_PoolLogic"><path codeLine="78" d="M453.16,520.8094 C452.32,545.4494 451.5851,566.7629 450.7051,592.4929 " fill="none" id="Template-to-PoolLogic" style="stroke:#181818;stroke-width:1;"/><polygon fill="#181818" points="450.5,598.4894,454.8053,589.6314,450.6709,593.4923,446.81,589.3579,450.5,598.4894" style="stroke:#181818;stroke-width:1;"/><text fill="#000000" font-family="sans-serif" font-size="13" lengthAdjust="spacing" textLength="62.7148" x="453" y="565.1045">&#1091;&#1087;&#1088;&#1072;&#1074;&#1083;&#1103;&#1077;&#1090;</text></g><!--link AsyncPool to Conn1--><g id="link_AsyncPool_Conn1"><path codeLine="79" d="M548.22,1060.7294 C537.76,1070.0894 526.26,1078.4994 514,1084.6094 C499.19,1091.9794 456.41,1090.5594 440,1092.6094 C439.68,1092.6494 257.29,1118.4794 257,1118.6094 C233.74,1129.1094 216.0378,1141.7058 197.3578,1158.3658 " fill="none" id="AsyncPool-to-Conn1" style="stroke:#181818;stroke-width:1;"/><polygon fill="#181818" points="192.88,1162.3594,202.2592,1159.3542,196.6115,1159.0314,196.9343,1153.3837,192.88,1162.3594" style="stroke:#181818;stroke-width:1;"/><text fill="#000000" font-family="sans-serif" font-size="13" lengthAdjust="spacing" textLength="41.355" x="441" y="1107.1045">&#1093;&#1088;&#1072;&#1085;&#1080;&#1090;</text></g><!--link AsyncPool to Conn2--><g id="link_AsyncPool_Conn2"><path codeLine="80" d="M537.33,1060.6394 C529.52,1068.7894 521.63,1076.9094 514,1084.6094 C488.19,1110.6594 463.3225,1134.6895 438.2925,1158.4395 " fill="none" id="AsyncPool-to-Conn2" style="stroke:#181818;stroke-width:1;"/><polygon fill="#181818" points="433.94,1162.5694,443.222,1159.2762,437.5671,1159.1278,437.7154,1153.4729,433.94,1162.5694" style="stroke:#181818;stroke-width:1;"/><text fill="#000000" font-family="sans-serif" font-size="13" lengthAdjust="spacing" textLength="41.355" x="503" y="1107.1045">&#1093;&#1088;&#1072;&#1085;&#1080;&#1090;</text></g><!--link AsyncPool to ConnN--><g id="link_AsyncPool_ConnN"><path codeLine="81" d="M608,1060.9094 C608,1093.9794 608,1126.0194 608,1156.4394 " fill="none" id="AsyncPool-to-ConnN" style="stroke:#181818;stroke-width:1;"/><polygon fill="#181818" points="608,1162.4394,612,1153.4394,608,1157.4394,604,1153.4394,608,1162.4394" style="stroke:#181818;stroke-width:1;"/><text fill="#000000" font-family="sans-serif" font-size="13" lengthAdjust="spacing" textLength="41.355" x="609" y="1107.1045">&#1093;&#1088;&#1072;&#1085;&#1080;&#1090;</text></g><!--link PoolLogic to AsyncPool--><g id="link_PoolLogic_AsyncPool"><path codeLine="82" d="M456.03,804.8194 C461.79,823.2494 470.61,840.9194 484,854.6094 C493.65,864.4694 502.48,855.0094 514,862.6094 C531.45,874.1294 543.3059,885.295 556.5759,901.695 " fill="none" id="PoolLogic-to-AsyncPool" style="stroke:#181818;stroke-width:1;"/><polygon fill="#181818" points="560.35,906.3594,557.7984,896.8468,557.2049,902.4724,551.5793,901.879,560.35,906.3594" style="stroke:#181818;stroke-width:1;"/><text fill="#000000" font-family="sans-serif" font-size="13" lengthAdjust="spacing" textLength="96.1099" x="485" y="851.1045">acquire / release</text></g><!--link CoroA to Conn1--><g id="link_CoroA_Conn1"><path codeLine="84" d="M81.47,1007.8994 C91.39,1043.6194 109.0549,1107.1881 122.7649,1156.5681 " fill="none" id="CoroA-to-Conn1" style="stroke:#181818;stroke-width:1;stroke-dasharray:7.0,7.0;"/><polygon fill="#181818" points="124.37,1162.3494,125.8165,1152.6073,123.0324,1157.5316,118.1081,1154.7475,124.37,1162.3494" style="stroke:#181818;stroke-width:1;"/><text fill="#000000" font-family="sans-serif" font-size="13" lengthAdjust="spacing" textLength="63.0767" x="110" y="1107.1045">&#1087;&#1088;&#1080;&#1074;&#1103;&#1079;&#1072;&#1085;&#1072;</text></g><!--link CoroB to Conn2--><g id="link_CoroB_Conn2"><path codeLine="85" d="M215.89,1007.6894 C216.86,1034.7294 222.03,1079.7594 244,1110.6094 C247.94,1116.1394 251.52,1114.6194 257,1118.6094 C275.47,1132.0594 290.0893,1143.7807 307.4493,1158.6207 " fill="none" id="CoroB-to-Conn2" style="stroke:#181818;stroke-width:1;stroke-dasharray:7.0,7.0;"/><polygon fill="#181818" points="312.01,1162.5194,307.768,1153.6309,308.2094,1159.2705,302.5698,1159.7118,312.01,1162.5194" style="stroke:#181818;stroke-width:1;"/><text fill="#000000" font-family="sans-serif" font-size="13" lengthAdjust="spacing" textLength="63.0767" x="245" y="1107.1045">&#1087;&#1088;&#1080;&#1074;&#1103;&#1079;&#1072;&#1085;&#1072;</text></g><!--SRC=[nLRTQXD15BxVfnZYJLj8rDI21XJwaw0WjHVrJbWckwVPnStCEZkfhL9e8oAeA8BU2EALrqP9QRLQNs7c5NmIpqms-zCazKhSYuIPyvsTxtpdPrQ6CWAoiNQ7R70UaT_xRubwhqxL3_KBVt-gG_LJz_KBnucfTvzsW5JKHpISw9Vg2F-_ge7k8mZN-a1zLyVg6y6_KpMia0lDgwsbvZNos27uU15D4b8n9w7vYtwENjzrlq9eGkuc88nXX3JFWnw8tRdvR0qxu1MMiO2O2YZijA4Jiar1MK8z6N9MC7cysmrbOKFmA5h1S0fR7P0c_dHdpzah1lnP3VM-EhKgpSL1N4s4Ds_YMspLMslb-6AVktuxSEKzDYUX6qTKmhmDSZDT5QBqHRWDWZI8zR8BLoxaPYgfc_2Uy00nNa15RkkXP8ns9mqnqdZ8XJzXg5PpZ4brWpm2vhiqsMMUQtQAHzkrnna3gsQ2w9iq2JPfEuA5LAEpOHkVccTZDLhUvftGAmGxXhYU09IXcCsnXNeFUg40U_0qUvVkji4L405DfhuW1hW_qzk7H0fUhAgY96FK5jOFBzLU-GKzOvvc3O16Cl02A1LMPcx35XTdoPSBRTcaWZHt9B04HSSAQxLQYyrBvGgRo9fLtFhQ5iuLxuRCJS97faPw8PEBTLVcDhepqsPgopN5XyPj7lfJQoZDLR6j9lBYHNn6gEgZVg9E2CwCKvm3GvmRTjIO-M72NcrUQQxERYoJONBXygYlLd5nUQAfflFlWWoudumx3b-NxkGGr4pkC4IqKSoK-RaqwZcD-d-aiPxJMF-tD4fvnBj2x-idU0bW2lKBaxp5vb9hgPoyCamDo79ALl3bSt4h6Mx5d3k-AAhL6_ayRI1B1iB9DemrxuU67MPbQpwV6WGByHUEzm7UPIVwjJhKVITtDk1HWI7mgOLXaKw5rFyEMJyBoNcSvPos5xauRYl7iMgHMYrdLB7CZzLNv7raNpgeMDXA1glFWZcCenWYx0IIyArCJPkDJ2lrGRqZzajWYBVwYNwbdw4_IgGFz6kyw8bwezxMh8_wbCT5SCJxm6H8euIeOs9EH8- -kKNLD_EPC78P6iL7G-085oDltDZ7MJ2mtnXOKlhfr35HSt0E4XD46agRIycx9fPCLMVQLLQuoKOiqi38TVnI4BmdGmRarjh8TcIfFqiFFKHCrdaB6O4_]--></g></svg>