<svg xmlns="http://www.w3.org/2000/svg" xmlns:xlink="http://www.w3.org/1999/xlink" contentStyleType="text/css" height="893px" preserveAspectRatio="none" style="width:1197px;height:893px;background:#FAFAFA;" version="1.1" viewBox="0 0 1197 893" width="1197px" zoomAndPan="magnify"><title>&#1046;&#1080;&#1079;&#1085;&#1077;&#1085;&#1085;&#1099;&#1081; &#1094;&#1080;&#1082;&#1083; &#1089;&#1086;&#1077;&#1076;&#1080;&#1085;&#1077;&#1085;&#1080;&#1103; &#1074; &#1087;&#1091;&#1083;&#1077;</title><defs/><g><rect fill="#FAFAFA" height="893" style="stroke:none;stroke-width:1;" width="1197" x="0" y="0"/><text fill="#000000" font-family="sans-serif" font-size="14" font-weight="bold" lengthAdjust="spacing" textLength="255.2266" x="469.5554" y="34.5332">&#1046;&#1080;&#1079;&#1085;&#1077;&#1085;&#1085;&#1099;&#1081; &#1094;&#1080;&#1082;&#1083; &#1089;&#1086;&#1077;&#1076;&#1080;&#1085;&#1077;&#1085;&#1080;&#1103; &#1074; &#1087;&#1091;&#1083;&#1077;</text><ellipse cx="402.5824" cy="58.6094" fill="#222222" rx="10" ry="10" style="stroke:#222222;stroke-width:1;"/><rect fill="#FFFFFF" height="50.1875" rx="12.5" ry="12.5" style="stroke:#333333;stroke-width:0.5;" width="198.4063" x="303.3793" y="88.6094"/><text fill="#000000" font-family="sans-serif" font-size="12" lengthAdjust="spacing" textLength="109.5176" x="313.3793" y="111.0664">&#1050;&#1086;&#1088;&#1091;&#1090;&#1080;&#1085;&#1072; &#1074;&#1099;&#1079;&#1099;&#1074;&#1072;&#1077;&#1090;</text><text fill="#000000" font-family="sans-serif" font-size="12" lengthAdjust="spacing" textLength="178.4063" x="313.3793" y="126.1602">$pdo-&gt;query() / exec() / prepare()</text><polygon fill="#FFF9C4" points="306.4855,158.7969,498.6793,158.7969,510.6793,170.7969,498.6793,182.7969,306.4855,182.7969,294.4855,170.7969,306.4855,158.7969" style="stroke:#333333;stroke-width:0.5;"/><text fill="#000000" font-family="sans-serif" font-size="11" lengthAdjust="spacing" textLength="192.1938" x="306.4855" y="175.2979">&#1045;&#1089;&#1090;&#1100; &#1089;&#1086;&#1077;&#1076;&#1080;&#1085;&#1077;&#1085;&#1080;&#1077; &#1076;&#1083;&#1103; &#1101;&#1090;&#1086;&#1081; &#1082;&#1086;&#1088;&#1091;&#1090;&#1080;&#1085;&#1099;?</text><text fill="#000000" font-family="sans-serif" font-size="11" lengthAdjust="spacing" textLength="12.5361" x="281.9493" y="168.3799">&#1076;&#1072;</text><text fill="#000000" font-family="sans-serif" font-size="11" lengthAdjust="spacing" textLength="17.2305" x="510.6793" y="168.3799">&#1085;&#1077;&#1090;</text><rect fill="#FFFFFF" height="35.0938" rx="12.5" ry="12.5" style="stroke:#333333;stroke-width:0.5;" width="185.9961" x="11" y="192.7969"/><text fill="#000000" font-family="sans-serif" font-size="12" lengthAdjust="spacing" textLength="165.9961" x="21" y="215.2539">&#1048;&#1089;&#1087;&#1086;&#1083;&#1100;&#1079;&#1086;&#1074;&#1072;&#1090;&#1100; &#1089;&#1091;&#1097;&#1077;&#1089;&#1090;&#1074;&#1091;&#1102;&#1097;&#1077;&#1077;</text><rect fill="#FFFFFF" height="35.0938" rx="12.5" ry="12.5" style="stroke:#333333;stroke-width:0.5;" width="193.7656" x="604.2839" y="192.7969"/><text fill="#000000" font-family="sans-serif" font-size="12" lengthAdjust="spacing" textLength="173.7656" x="614.2839" y="215.2539">&#1047;&#1072;&#1087;&#1088;&#1086;&#1089;&#1080;&#1090;&#1100; &#1091; &#1087;&#1091;&#1083;&#1072; (pool acquire)</text><polygon fill="#FFF9C4" points="228.9961,247.8906,380.2676,247.8906,392.2676,259.8906,380.2676,271.8906,228.9961,271.8906,216.9961,259.8906,228.9961,247.8906" style="stroke:#333333;stroke-width:0.5;"/><text fill="#000000" font-family="sans-serif" font-size="11" lengthAdjust="spacing" textLength="12.5361" x="308.6318" y="283.3096">&#1076;&#1072;</text><text fill="#000000" font-family="sans-serif" font-size="11" lengthAdjust="spacing" textLength="151.2715" x="228.9961" y="264.3916">&#1045;&#1089;&#1090;&#1100; &#1089;&#1074;&#1086;&#1073;&#1086;&#1076;&#1085;&#1086;&#1077; &#1089;&#1086;&#1077;&#1076;&#1080;&#1085;&#1077;&#1085;&#1080;&#1077;?</text><rect fill="#FFFFFF" height="35.0938" rx="12.5" ry="12.5" style="stroke:#333333;stroke-width:0.5;" width="124.959" x="242.1523" y="304.8096"/><text fill="#000000" font-family="sans-serif" font-size="12" lengthAdjust="spacing" textLength="104.959" x="252.1523" y="327.2666">&#1042;&#1099;&#1076;&#1072;&#1090;&#1100; &#1089;&#1074;&#1086;&#1073;&#1086;&#1076;&#1085;&#1086;&#1077;</text><polygon fill="#FFF9C4" points="438.4753,247.8906,558.3743,247.8906,570.3743,259.8906,558.3743,271.8906,438.4753,271.8906,426.4753,259.8906,438.4753,247.8906" style="stroke:#333333;stroke-width:0.5;"/><text fill="#000000" font-family="sans-serif" font-size="11" lengthAdjust="spacing" textLength="12.5361" x="502.4248" y="283.3096">&#1076;&#1072;</text><text fill="#000000" font-family="sans-serif" font-size="11" lengthAdjust="spacing" textLength="119.8989" x="438.4753" y="264.3916">&#1058;&#1077;&#1082;&#1091;&#1097;&#1077;&#1077; &#1082;&#1086;&#1083;-&#1074;&#1086; &lt; max?</text><text fill="#000000" font-family="sans-serif" font-size="11" lengthAdjust="spacing" textLength="17.2305" x="570.3743" y="257.4736">&#1085;&#1077;&#1090;</text><path d="M604.582,304.8096 L604.582,346.6885 L584.582,350.6885 L604.582,354.6885 L604.582,396.5674 A0,0 0 0 0 604.582,396.5674 L800.0918,396.5674 A0,0 0 0 0 800.0918,396.5674 L800.0918,314.8096 L790.0918,304.8096 L604.582,304.8096 A0,0 0 0 0 604.582,304.8096 " fill="#FFFFEE" style="stroke:#AAAAAA;stroke-width:0.5;"/><path d="M790.0918,304.8096 L790.0918,314.8096 L800.0918,314.8096 L790.0918,304.8096 " fill="#FFFFEE" style="stroke:#AAAAAA;stroke-width:0.5;"/><text fill="#000000" font-family="sans-serif" font-size="13" lengthAdjust="spacing" textLength="112.0107" x="610.582" y="323.3047">pdo_pool_factory():</text><text fill="#000000" font-family="sans-serif" font-size="13" lengthAdjust="spacing" textLength="125.0298" x="610.582" y="339.6563">1. ecalloc(pdo_dbh_t)</text><text fill="#000000" font-family="sans-serif" font-size="13" lengthAdjust="spacing" textLength="161.1162" x="610.582" y="356.0078">2. estrdup(DSN, user, pass)</text><text fill="#000000" font-family="sans-serif" font-size="13" lengthAdjust="spacing" textLength="174.5098" x="610.582" y="372.3594">3. driver-&gt;db_handle_factory()</text><text fill="#000000" font-family="sans-serif" font-size="13" lengthAdjust="spacing" textLength="153.7021" x="610.582" y="388.7109">4. efree(&#1082;&#1086;&#1087;&#1080;&#1080; credentials)</text><rect fill="#FFFFFF" height="35.0938" rx="12.5" ry="12.5" style="stroke:#333333;stroke-width:0.5;" width="172.3145" x="412.2676" y="333.1416"/><text fill="#000000" font-family="sans-serif" font-size="12" lengthAdjust="spacing" textLength="152.3145" x="422.2676" y="355.5986">&#1057;&#1086;&#1079;&#1076;&#1072;&#1090;&#1100; &#1085;&#1086;&#1074;&#1086;&#1077; &#1089;&#1086;&#1077;&#1076;&#1080;&#1085;&#1077;&#1085;&#1080;&#1077;</text><path d="M1001.9707,317.2432 L1001.9707,342.7705 L981.9707,346.7705 L1001.9707,350.7705 L1001.9707,376.2979 A0,0 0 0 0 1001.9707,376.2979 L1185.3374,376.2979 A0,0 0 0 0 1185.3374,376.2979 L1185.3374,327.2432 L1175.3374,317.2432 L1001.9707,317.2432 A0,0 0 0 0 1001.9707,317.2432 " fill="#FFFFEE" style="stroke:#AAAAAA;stroke-width:0.5;"/><path d="M1175.3374,317.2432 L1175.3374,327.2432 L1185.3374,327.2432 L1175.3374,317.2432 " fill="#FFFFEE" style="stroke:#AAAAAA;stroke-width:0.5;"/><text fill="#000000" font-family="sans-serif" font-size="13" lengthAdjust="spacing" textLength="162.3667" x="1007.9707" y="335.7383">&#1050;&#1086;&#1088;&#1091;&#1090;&#1080;&#1085;&#1072; &#1087;&#1088;&#1080;&#1086;&#1089;&#1090;&#1072;&#1085;&#1086;&#1074;&#1083;&#1077;&#1085;&#1072;.</text><text fill="#000000" font-family="sans-serif" font-size="13" lengthAdjust="spacing" textLength="101.7656" x="1007.9707" y="352.0898">&#1044;&#1088;&#1091;&#1075;&#1080;&#1077; &#1082;&#1086;&#1088;&#1091;&#1090;&#1080;&#1085;&#1099;</text><text fill="#000000" font-family="sans-serif" font-size="13" lengthAdjust="spacing" textLength="137.8013" x="1007.9707" y="368.4414">&#1087;&#1088;&#1086;&#1076;&#1086;&#1083;&#1078;&#1072;&#1102;&#1090; &#1088;&#1072;&#1073;&#1086;&#1090;&#1072;&#1090;&#1100;.</text><rect fill="#FFFFFF" height="35.0938" rx="12.5" ry="12.5" style="stroke:#333333;stroke-width:0.5;" width="161.8789" x="820.0918" y="329.2236"/><text fill="#000000" font-family="sans-serif" font-size="12" lengthAdjust="spacing" textLength="141.8789" x="830.0918" y="351.6807">&#1054;&#1078;&#1080;&#1076;&#1072;&#1085;&#1080;&#1077; &#1086;&#1089;&#1074;&#1086;&#1073;&#1086;&#1078;&#1076;&#1077;&#1085;&#1080;&#1103;</text><rect fill="#FFFFFF" height="50.1875" rx="12.5" ry="12.5" style="stroke:#333333;stroke-width:0.5;" width="148.4902" x="626.9216" y="436.5674"/><text fill="#000000" font-family="sans-serif" font-size="12" lengthAdjust="spacing" textLength="128.4902" x="636.9216" y="459.0244">&#1055;&#1088;&#1080;&#1074;&#1103;&#1079;&#1072;&#1090;&#1100; &#1089;&#1086;&#1077;&#1076;&#1080;&#1085;&#1077;&#1085;&#1080;&#1077;</text><text fill="#000000" font-family="sans-serif" font-size="12" lengthAdjust="spacing" textLength="73.2832" x="636.9216" y="474.1182">&#1082; coroutine ID</text><rect fill="#FFFFFF" height="50.1875" rx="12.5" ry="12.5" style="stroke:#333333;stroke-width:0.5;" width="166.7363" x="617.7986" y="506.7549"/><text fill="#000000" font-family="sans-serif" font-size="12" lengthAdjust="spacing" textLength="146.7363" x="627.7986" y="529.2119">&#1047;&#1072;&#1088;&#1077;&#1075;&#1080;&#1089;&#1090;&#1088;&#1080;&#1088;&#1086;&#1074;&#1072;&#1090;&#1100; cleanup</text><text fill="#000000" font-family="sans-serif" font-size="12" lengthAdjust="spacing" textLength="140.2207" x="627.7986" y="544.3057">&#1085;&#1072; &#1079;&#1072;&#1074;&#1077;&#1088;&#1096;&#1077;&#1085;&#1080;&#1077; &#1082;&#1086;&#1088;&#1091;&#1090;&#1080;&#1085;&#1099;</text><polygon fill="#FFF9C4" points="402.5824,562.9424,414.5824,574.9424,402.5824,586.9424,390.5824,574.9424,402.5824,562.9424" style="stroke:#333333;stroke-width:0.5;"/><rect fill="#FFFFFF" height="35.0938" rx="12.5" ry="12.5" style="stroke:#333333;stroke-width:0.5;" width="244.7305" x="280.2172" y="606.9424"/><text fill="#000000" font-family="sans-serif" font-size="12" lengthAdjust="spacing" textLength="224.7305" x="290.2172" y="629.3994">&#1042;&#1099;&#1087;&#1086;&#1083;&#1085;&#1080;&#1090;&#1100; &#1079;&#1072;&#1087;&#1088;&#1086;&#1089; &#1095;&#1077;&#1088;&#1077;&#1079; conn-&gt;methods</text><polygon fill="#FFF9C4" points="308.9105,662.0361,496.2543,662.0361,508.2543,674.0361,496.2543,686.0361,308.9105,686.0361,296.9105,674.0361,308.9105,662.0361" style="stroke:#333333;stroke-width:0.5;"/><text fill="#000000" font-family="sans-serif" font-size="11" lengthAdjust="spacing" textLength="187.3438" x="308.9105" y="678.5371">&#1040;&#1082;&#1090;&#1080;&#1074;&#1085;&#1072;&#1103; &#1090;&#1088;&#1072;&#1085;&#1079;&#1072;&#1082;&#1094;&#1080;&#1103; &#1080;&#1083;&#1080; statement?</text><text fill="#000000" font-family="sans-serif" font-size="11" lengthAdjust="spacing" textLength="12.5361" x="284.3744" y="671.6191">&#1076;&#1072;</text><text fill="#000000" font-family="sans-serif" font-size="11" lengthAdjust="spacing" textLength="17.2305" x="508.2543" y="671.6191">&#1085;&#1077;&#1090;</text><path d="M338.9396,696.0361 L338.9396,737.915 L318.9396,741.915 L338.9396,745.915 L338.9396,787.7939 A0,0 0 0 0 338.9396,787.7939 L482.4176,787.7939 A0,0 0 0 0 482.4176,787.7939 L482.4176,706.0361 L472.4176,696.0361 L338.9396,696.0361 A0,0 0 0 0 338.9396,696.0361 " fill="#FFFFEE" style="stroke:#AAAAAA;stroke-width:0.5;"/><path d="M472.4176,696.0361 L472.4176,706.0361 L482.4176,706.0361 L472.4176,696.0361 " fill="#FFFFEE" style="stroke:#AAAAAA;stroke-width:0.5;"/><text fill="#000000" font-family="sans-serif" font-size="13" lengthAdjust="spacing" textLength="122.478" x="344.9396" y="714.5313">Pinning: &#1089;&#1086;&#1077;&#1076;&#1080;&#1085;&#1077;&#1085;&#1080;&#1077;</text><text fill="#000000" font-family="sans-serif" font-size="13" lengthAdjust="spacing" textLength="112.1567" x="344.9396" y="730.8828">&#1085;&#1077; &#1074;&#1077;&#1088;&#1085;&#1105;&#1090;&#1089;&#1103; &#1074; &#1087;&#1091;&#1083;,</text><text fill="#000000" font-family="sans-serif" font-size="13" lengthAdjust="spacing" textLength="120.5293" x="344.9396" y="747.2344">&#1087;&#1086;&#1082;&#1072; &#1085;&#1077; &#1079;&#1072;&#1074;&#1077;&#1088;&#1096;&#1072;&#1090;&#1089;&#1103;</text><text fill="#000000" font-family="sans-serif" font-size="13" lengthAdjust="spacing" textLength="103.562" x="344.9396" y="763.5859">&#1074;&#1089;&#1077; &#1090;&#1088;&#1072;&#1085;&#1079;&#1072;&#1082;&#1094;&#1080;&#1080; &#1080;</text><text fill="#000000" font-family="sans-serif" font-size="13" lengthAdjust="spacing" textLength="75.1563" x="344.9396" y="779.9375">&#1089;&#1090;&#1077;&#1081;&#1090;&#1084;&#1077;&#1085;&#1090;&#1099;.</text><rect fill="#FFFFFF" height="35.0938" rx="12.5" ry="12.5" style="stroke:#333333;stroke-width:0.5;" width="236.7734" x="82.1661" y="724.3682"/><text fill="#000000" font-family="sans-serif" font-size="12" lengthAdjust="spacing" textLength="69.0234" x="92.1661" y="746.8252">&#1057;&#1086;&#1077;&#1076;&#1080;&#1085;&#1077;&#1085;&#1080;&#1077;</text><text fill="#000000" font-family="sans-serif" font-size="12" font-weight="bold" lengthAdjust="spacing" textLength="68.7715" x="164.5236" y="746.8252">&#1079;&#1072;&#1082;&#1088;&#1077;&#1087;&#1083;&#1077;&#1085;&#1086;</text><text fill="#000000" font-family="sans-serif" font-size="12" lengthAdjust="spacing" textLength="72.3105" x="236.629" y="746.8252">&#1079;&#1072; &#1082;&#1086;&#1088;&#1091;&#1090;&#1080;&#1085;&#1086;&#1081;</text><ellipse cx="200.5529" cy="833.7939" fill="none" rx="11" ry="11" style="stroke:#222222;stroke-width:1;"/><ellipse cx="200.5529" cy="833.7939" fill="#222222" rx="6" ry="6" style="stroke:#222222;stroke-width:1;"/><path d="M726.8063,696.0361 L726.8063,721.5635 L706.8063,725.5635 L726.8063,729.5635 L726.8063,755.0908 A0,0 0 0 0 726.8063,755.0908 L879.2789,755.0908 A0,0 0 0 0 879.2789,755.0908 L879.2789,706.0361 L869.2789,696.0361 L726.8063,696.0361 A0,0 0 0 0 726.8063,696.0361 " fill="#FFFFEE" style="stroke:#AAAAAA;stroke-width:0.5;"/><path d="M869.2789,696.0361 L869.2789,706.0361 L879.2789,706.0361 L869.2789,696.0361 " fill="#FFFFEE" style="stroke:#AAAAAA;stroke-width:0.5;"/><text fill="#000000" font-family="sans-serif" font-size="13" lengthAdjust="spacing" textLength="98.998" x="732.8063" y="714.5313">before_release():</text><text fill="#000000" font-family="sans-serif" font-size="13" lengthAdjust="spacing" textLength="115.2988" x="732.8063" y="730.8828">&#1077;&#1089;&#1083;&#1080; in_txn == true,</text><text fill="#000000" font-family="sans-serif" font-size="13" lengthAdjust="spacing" textLength="131.4727" x="732.8063" y="747.2344">&#1074;&#1099;&#1087;&#1086;&#1083;&#1085;&#1080;&#1090; ROLLBACK</text><rect fill="#FFFFFF" height="35.0938" rx="12.5" ry="12.5" style="stroke:#333333;stroke-width:0.5;" width="204.3887" x="502.4176" y="708.0166"/><text fill="#000000" font-family="sans-serif" font-size="12" lengthAdjust="spacing" textLength="184.3887" x="512.4176" y="730.4736">&#1057;&#1086;&#1077;&#1076;&#1080;&#1085;&#1077;&#1085;&#1080;&#1077; &#1074;&#1086;&#1079;&#1074;&#1088;&#1072;&#1097;&#1072;&#1077;&#1090;&#1089;&#1103; &#1074; &#1087;&#1091;&#1083;</text><rect fill="#FFFFFF" height="35.0938" rx="12.5" ry="12.5" style="stroke:#333333;stroke-width:0.5;" width="182.7793" x="513.2223" y="790.0908"/><text fill="#000000" font-family="sans-serif" font-size="12" lengthAdjust="spacing" textLength="162.7793" x="523.2223" y="812.5479">&#1044;&#1086;&#1089;&#1090;&#1091;&#1087;&#1085;&#1086; &#1076;&#1083;&#1103; &#1076;&#1088;&#1091;&#1075;&#1080;&#1093; &#1082;&#1086;&#1088;&#1091;&#1090;&#1080;&#1085;</text><ellipse cx="604.6119" cy="871.1846" fill="none" rx="11" ry="11" style="stroke:#222222;stroke-width:1;"/><ellipse cx="604.6119" cy="871.1846" fill="#222222" rx="6" ry="6" style="stroke:#222222;stroke-width:1;"/><line style="stroke:#555555;stroke-width:1;" x1="402.5824" x2="402.5824" y1="68.6094" y2="88.6094"/><polygon fill="#555555" points="398.5824,78.6094,402.5824,88.6094,406.5824,78.6094,402.5824,82.6094" style="stroke:#555555;stroke-width:1;"/><line style="stroke:#555555;stroke-width:1;" x1="304.6318" x2="304.6318" y1="271.8906" y2="304.8096"/><polygon fill="#555555" points="300.6318,294.8096,304.6318,304.8096,308.6318,294.8096,304.6318,298.8096" style="stroke:#555555;stroke-width:1;"/><line style="stroke:#555555;stroke-width:1;" x1="304.6318" x2="304.6318" y1="339.9033" y2="416.5674"/><polygon fill="#555555" points="300.6318,406.5674,304.6318,416.5674,308.6318,406.5674,304.6318,410.5674" style="stroke:#555555;stroke-width:1;"/><line style="stroke:#555555;stroke-width:1;" x1="498.4248" x2="498.4248" y1="271.8906" y2="333.1416"/><polygon fill="#555555" points="494.4248,323.1416,498.4248,333.1416,502.4248,323.1416,498.4248,327.1416" style="stroke:#555555;stroke-width:1;"/><line style="stroke:#555555;stroke-width:1;" x1="498.4248" x2="498.4248" y1="368.2354" y2="416.5674"/><polygon fill="#555555" points="494.4248,406.5674,498.4248,416.5674,502.4248,406.5674,498.4248,410.5674" style="stroke:#555555;stroke-width:1;"/><line style="stroke:#555555;stroke-width:1;" x1="392.2676" x2="426.4753" y1="259.8906" y2="259.8906"/><polygon fill="#555555" points="416.4753,255.8906,426.4753,259.8906,416.4753,263.8906,420.4753,259.8906" style="stroke:#555555;stroke-width:1;"/><line style="stroke:#555555;stroke-width:1;" x1="701.1667" x2="701.1667" y1="227.8906" y2="232.8906"/><line style="stroke:#555555;stroke-width:1;" x1="701.1667" x2="304.6318" y1="232.8906" y2="232.8906"/><line style="stroke:#555555;stroke-width:1;" x1="304.6318" x2="304.6318" y1="232.8906" y2="247.8906"/><polygon fill="#555555" points="300.6318,237.8906,304.6318,247.8906,308.6318,237.8906,304.6318,241.8906" style="stroke:#555555;stroke-width:1;"/><line style="stroke:#555555;stroke-width:1;" x1="570.3743" x2="901.0313" y1="259.8906" y2="259.8906"/><line style="stroke:#555555;stroke-width:1;" x1="901.0313" x2="901.0313" y1="259.8906" y2="329.2236"/><polygon fill="#555555" points="897.0313,319.2236,901.0313,329.2236,905.0313,319.2236,901.0313,323.2236" style="stroke:#555555;stroke-width:1;"/><line style="stroke:#555555;stroke-width:1;" x1="901.0313" x2="901.0313" y1="364.3174" y2="416.5674"/><polygon fill="#555555" points="897.0313,406.5674,901.0313,416.5674,905.0313,406.5674,901.0313,410.5674" style="stroke:#555555;stroke-width:1;"/><line style="stroke:#555555;stroke-width:1;" x1="304.6318" x2="901.0313" y1="416.5674" y2="416.5674"/><line style="stroke:#555555;stroke-width:1;" x1="701.1667" x2="701.1667" y1="416.5674" y2="436.5674"/><polygon fill="#555555" points="697.1667,426.5674,701.1667,436.5674,705.1667,426.5674,701.1667,430.5674" style="stroke:#555555;stroke-width:1;"/><line style="stroke:#555555;stroke-width:1;" x1="701.1667" x2="701.1667" y1="486.7549" y2="506.7549"/><polygon fill="#555555" points="697.1667,496.7549,701.1667,506.7549,705.1667,496.7549,701.1667,500.7549" style="stroke:#555555;stroke-width:1;"/><line style="stroke:#555555;stroke-width:1;" x1="294.4855" x2="103.998" y1="170.7969" y2="170.7969"/><line style="stroke:#555555;stroke-width:1;" x1="103.998" x2="103.998" y1="170.7969" y2="192.7969"/><polygon fill="#555555" points="99.998,182.7969,103.998,192.7969,107.998,182.7969,103.998,186.7969" style="stroke:#555555;stroke-width:1;"/><line style="stroke:#555555;stroke-width:1;" x1="510.6793" x2="701.1667" y1="170.7969" y2="170.7969"/><line style="stroke:#555555;stroke-width:1;" x1="701.1667" x2="701.1667" y1="170.7969" y2="192.7969"/><polygon fill="#555555" points="697.1667,182.7969,701.1667,192.7969,705.1667,182.7969,701.1667,186.7969" style="stroke:#555555;stroke-width:1;"/><line style="stroke:#555555;stroke-width:1;" x1="103.998" x2="103.998" y1="227.8906" y2="574.9424"/><line style="stroke:#555555;stroke-width:1;" x1="103.998" x2="390.5824" y1="574.9424" y2="574.9424"/><polygon fill="#555555" points="380.5824,570.9424,390.5824,574.9424,380.5824,578.9424,384.5824,574.9424" style="stroke:#555555;stroke-width:1;"/><line style="stroke:#555555;stroke-width:1;" x1="701.1667" x2="701.1667" y1="556.9424" y2="574.9424"/><line style="stroke:#555555;stroke-width:1;" x1="701.1667" x2="414.5824" y1="574.9424" y2="574.9424"/><polygon fill="#555555" points="424.5824,570.9424,414.5824,574.9424,424.5824,578.9424,420.5824,574.9424" style="stroke:#555555;stroke-width:1;"/><line style="stroke:#555555;stroke-width:1;" x1="402.5824" x2="402.5824" y1="138.7969" y2="158.7969"/><polygon fill="#555555" points="398.5824,148.7969,402.5824,158.7969,406.5824,148.7969,402.5824,152.7969" style="stroke:#555555;stroke-width:1;"/><line style="stroke:#555555;stroke-width:1;" x1="402.5824" x2="402.5824" y1="586.9424" y2="606.9424"/><polygon fill="#555555" points="398.5824,596.9424,402.5824,606.9424,406.5824,596.9424,402.5824,600.9424" style="stroke:#555555;stroke-width:1;"/><line style="stroke:#555555;stroke-width:1;" x1="200.5529" x2="200.5529" y1="759.4619" y2="822.7939"/><polygon fill="#555555" points="196.5529,812.7939,200.5529,822.7939,204.5529,812.7939,200.5529,816.7939" style="stroke:#555555;stroke-width:1;"/><line style="stroke:#555555;stroke-width:1;" x1="604.6119" x2="604.6119" y1="743.1104" y2="790.0908"/><polygon fill="#555555" points="600.6119,780.0908,604.6119,790.0908,608.6119,780.0908,604.6119,784.0908" style="stroke:#555555;stroke-width:1;"/><line style="stroke:#555555;stroke-width:1;" x1="604.6119" x2="604.6119" y1="825.1846" y2="860.1846"/><polygon fill="#555555" points="600.6119,850.1846,604.6119,860.1846,608.6119,850.1846,604.6119,854.1846" style="stroke:#555555;stroke-width:1;"/><line style="stroke:#555555;stroke-width:1;" x1="296.9105" x2="200.5529" y1="674.0361" y2="674.0361"/><line style="stroke:#555555;stroke-width:1;" x1="200.5529" x2="200.5529" y1="674.0361" y2="724.3682"/><polygon fill="#555555" points="196.5529,714.3682,200.5529,724.3682,204.5529,714.3682,200.5529,718.3682" style="stroke:#555555;stroke-width:1;"/><line style="stroke:#555555;stroke-width:1;" x1="508.2543" x2="604.6119" y1="674.0361" y2="674.0361"/><line style="stroke:#555555;stroke-width:1;" x1="604.6119" x2="604.6119" y1="674.0361" y2="708.0166"/><polygon fill="#555555" points="600.6119,698.0166,604.6119,708.0166,608.6119,698.0166,604.6119,702.0166" style="stroke:#555555;stroke-width:1;"/><line style="stroke:#555555;stroke-width:1;" x1="402.5824" x2="402.5824" y1="642.0361" y2="662.0361"/><polygon fill="#555555" points="398.5824,652.0361,402.5824,662.0361,406.5824,652.0361,402.5824,656.0361" style="stroke:#555555;stroke-width:1;"/><!--SRC=[XLLTZzj457tthnW97fBLRb1fUI1f5srtYuIee2glI94tdcoiEkDqF2dRjsvMGD6s550fY0TG-GKcn4sQT9E_CFEFE7Vi97Rgb5avMi_SEVVSSpyStVD5pvLkbnsxhNidCkmBxp0CGidU-_I0_fnePU6sbF_0LmzlXjBZChEwQbUPrLjuTfLO7lbkDnHUsOMF3w-zuyAxUKWPVfCTVcHNxb24YfSIl7LhqohlvC0knr6-2ZZJB_H4Z_MbJl1ScWlzcfdli3NLCsREz1px8xocvnFpZEaXqmjphcSwSPn8kL8vJbt_eUVcaJat0siRmmfGOpn37Ul439ptUrwujt-_p-N3IfLzmFWfRzb_UfA3AAzK6uxZjrb5_shEpC0yAV6k4uRN6KYOf_0q1rVmp3as5vzKcUfm0PYHZgiEmwhhtm6rWFdCF46eS-AKUS357q0F3a7utFn8RpffE3o8E30kYVeIvJT4iZ2FuEyCGjZxvqifObRfXM60vDxl-v9JB7HfCvuXdF-3PmHan5OQOaa4gVzVeEPenNmJgs4jYRTr-ZVWfcbqfDgKej-ZE-mwwxgdMvsyXE5uvSP23xTIpQAaHLN6f7_IKQijMaXwauHfjb7s8QM-NZY_KcEyvGP1sAgGgNVSQQfgmU93M4HAUlrUvUYhBtPPF-9ob_NSA2hQNQqnJ_eFkDpRzuwR7LTu0LzxBPXU0sHRSbwniYmGoOIr9FUuKBuRv72vy6nWAscB9P4gzgT-1GGejgpGUIuvht2GDSx_Y_Ls4r6vJGWGMt6MZ9a5Z6l5gy_felutPR3H4qLBMyAWXO80lHWrFs3OYealkQ74rxP883o_xMJjy9VbDZJFK2_nreRzMkWfQuMOKCeNd7rsr73MxGI4X3ZR1W6QPRPipbR0NT7l0S1A0ISuIX3Nu_Kms0WKVPioJ9l5jhmLtzRoUDs_p7nFK00QWvmGU_jThZgX5ordq4ze7W8TadEQDmChqQK5cTA0f4au0Vo4OGOgtaNnbCwUboL3R6Sdmo46YooZyvqTot4ZAffocMObPNF75y8N9_LIxLTMjCLIzI3JpmZcB3_8TzU69DcKEDWRUStZzDRQT0YNIOamK4HFLcQsT1Fz6hzlY1ViBsfEeRBiMwJ2NkdKBTFFjjSO3E0Q4yv-O8eXRLVicBT3oPkIexmYdfz7z1sm2VL5KvqATkC6KxBFT_CX5ugAtVtozksR1uUVbyHJry_JlWMR1MLn-UNIesMdccytKjt8Is4B-Jy0]--></g></svg>