<svg xmlns="http://www.w3.org/2000/svg" xmlns:xlink="http://www.w3.org/1999/xlink" contentStyleType="text/css" height="975px" preserveAspectRatio="none" style="width:746px;height:975px;background:#FFFFFF;" version="1.1" viewBox="0 0 746 975" width="746px" zoomAndPan="magnify"><title>Recoleccion de basura en una corrutina separada</title><defs/><g><text fill="#000000" font-family="sans-serif" font-size="14" font-weight="bold" lengthAdjust="spacing" textLength="289.3926" x="224.762" y="29.5332">Recoleccion de basura en una corrutina separada</text><rect fill="#FFFFFF" height="616.0313" style="stroke:#181818;stroke-width:1;" width="10" x="340.5522" y="298.0313"/><rect fill="#FFFFFF" height="398.5703" style="stroke:#181818;stroke-width:1;" width="10" x="531.3794" y="448.7891"/><rect fill="none" height="234.8125" style="stroke:#000000;stroke-width:1.5;" width="572.5137" x="157.4028" y="583.1953"/><line style="stroke:#181818;stroke-width:0.5;stroke-dasharray:5.0,5.0;" x1="48" x2="48" y1="76.2188" y2="939.0625"/><line style="stroke:#181818;stroke-width:0.5;stroke-dasharray:5.0,5.0;" x1="205.4028" x2="205.4028" y1="76.2188" y2="939.0625"/><line style="stroke:#181818;stroke-width:0.5;stroke-dasharray:5.0,5.0;" x1="344.7559" x2="344.7559" y1="76.2188" y2="939.0625"/><line style="stroke:#181818;stroke-width:0.5;stroke-dasharray:5.0,5.0;" x1="535.8589" x2="535.8589" y1="76.2188" y2="939.0625"/><line style="stroke:#181818;stroke-width:0.5;stroke-dasharray:5.0,5.0;" x1="654.3203" x2="654.3203" y1="76.2188" y2="939.0625"/><rect fill="#E2E2F0" height="31.6094" rx="2.5" ry="2.5" style="stroke:#181818;stroke-width:0.5;" width="87.9307" x="5" y="43.6094"/><text fill="#000000" font-family="sans-serif" font-size="14" lengthAdjust="spacing" textLength="73.9307" x="12" y="65.1426">Corrutina A</text><rect fill="#E2E2F0" height="31.6094" rx="2.5" ry="2.5" style="stroke:#181818;stroke-width:0.5;" width="87.9307" x="5" y="938.0625"/><text fill="#000000" font-family="sans-serif" font-size="14" lengthAdjust="spacing" textLength="73.9307" x="12" y="959.5957">Corrutina A</text><rect fill="#E2E2F0" height="31.6094" rx="2.5" ry="2.5" style="stroke:#181818;stroke-width:0.5;" width="77.041" x="167.4028" y="43.6094"/><text fill="#000000" font-family="sans-serif" font-size="14" lengthAdjust="spacing" textLength="63.041" x="174.4028" y="65.1426">Planificador</text><rect fill="#E2E2F0" height="31.6094" rx="2.5" ry="2.5" style="stroke:#181818;stroke-width:0.5;" width="77.041" x="167.4028" y="938.0625"/><text fill="#000000" font-family="sans-serif" font-size="14" lengthAdjust="spacing" textLength="63.041" x="174.4028" y="959.5957">Planificador</text><rect fill="#E2E2F0" height="31.6094" rx="2.5" ry="2.5" style="stroke:#181818;stroke-width:0.5;" width="99.5928" x="295.7559" y="43.6094"/><text fill="#000000" font-family="sans-serif" font-size="14" lengthAdjust="spacing" textLength="85.5928" x="302.7559" y="65.1426">Corrutina GC</text><rect fill="#E2E2F0" height="31.6094" rx="2.5" ry="2.5" style="stroke:#181818;stroke-width:0.5;" width="99.5928" x="295.7559" y="938.0625"/><text fill="#000000" font-family="sans-serif" font-size="14" lengthAdjust="spacing" textLength="85.5928" x="302.7559" y="959.5957">Corrutina GC</text><rect fill="#E2E2F0" height="31.6094" rx="2.5" ry="2.5" style="stroke:#181818;stroke-width:0.5;" width="105.041" x="483.8589" y="43.6094"/><text fill="#000000" font-family="sans-serif" font-size="14" lengthAdjust="spacing" textLength="91.041" x="490.8589" y="65.1426">Corrutina Dtor</text><rect fill="#E2E2F0" height="31.6094" rx="2.5" ry="2.5" style="stroke:#181818;stroke-width:0.5;" width="105.041" x="483.8589" y="938.0625"/><text fill="#000000" font-family="sans-serif" font-size="14" lengthAdjust="spacing" textLength="91.041" x="490.8589" y="959.5957">Corrutina Dtor</text><rect fill="#E2E2F0" height="31.6094" rx="2.5" ry="2.5" style="stroke:#181818;stroke-width:0.5;" width="87.9307" x="611.3203" y="43.6094"/><text fill="#000000" font-family="sans-serif" font-size="14" lengthAdjust="spacing" textLength="73.9307" x="618.3203" y="65.1426">Corrutina B</text><rect fill="#E2E2F0" height="31.6094" rx="2.5" ry="2.5" style="stroke:#181818;stroke-width:0.5;" width="87.9307" x="611.3203" y="938.0625"/><text fill="#000000" font-family="sans-serif" font-size="14" lengthAdjust="spacing" textLength="73.9307" x="618.3203" y="959.5957">Corrutina B</text><rect fill="#FFFFFF" height="616.0313" style="stroke:#181818;stroke-width:1;" width="10" x="340.5522" y="298.0313"/><rect fill="#FFFFFF" height="398.5703" style="stroke:#181818;stroke-width:1;" width="10" x="531.3794" y="448.7891"/><rect fill="#EEEEEE" height="3" style="stroke:#EEEEEE;stroke-width:1;" width="739.9165" x="0" y="107.3945"/><line style="stroke:#000000;stroke-width:1;" x1="0" x2="739.9165" y1="107.3945" y2="107.3945"/><line style="stroke:#000000;stroke-width:1;" x1="0" x2="739.9165" y1="110.3945" y2="110.3945"/><rect fill="#EEEEEE" height="24.3516" style="stroke:#000000;stroke-width:2;" width="161.3608" x="289.2778" y="96.2188"/><text fill="#000000" font-family="sans-serif" font-size="13" font-weight="bold" lengthAdjust="spacing" textLength="143.749" x="295.2778" y="113.7139">Umbral de GC alcanzado</text><line style="stroke:#181818;stroke-width:1;" x1="48.9653" x2="90.9653" y1="169.2734" y2="169.2734"/><line style="stroke:#181818;stroke-width:1;" x1="90.9653" x2="90.9653" y1="169.2734" y2="182.2734"/><line style="stroke:#181818;stroke-width:1;" x1="49.9653" x2="90.9653" y1="182.2734" y2="182.2734"/><polygon fill="#181818" points="59.9653,178.2734,49.9653,182.2734,59.9653,186.2734,55.9653,182.2734" style="stroke:#181818;stroke-width:1;"/><text fill="#000000" font-family="sans-serif" font-size="13" lengthAdjust="spacing" textLength="106.9453" x="55.9653" y="148.0654">gc_possible_root()</text><text fill="#000000" font-family="sans-serif" font-size="13" lengthAdjust="spacing" textLength="53.4727" x="55.9653" y="164.417">bufer lleno</text><polygon fill="#181818" points="193.9233,227.9766,203.9233,231.9766,193.9233,235.9766,197.9233,231.9766" style="stroke:#181818;stroke-width:1;"/><line style="stroke:#181818;stroke-width:1;" x1="48.9653" x2="199.9233" y1="231.9766" y2="231.9766"/><text fill="#000000" font-family="sans-serif" font-size="13" lengthAdjust="spacing" textLength="132.958" x="55.9653" y="227.1201">start_gc_in_coroutine()</text><path d="M210,195.2734 L210,254.2734 L345,254.2734 L345,205.2734 L335,195.2734 L210,195.2734 " fill="#FEFFDD" style="stroke:#181818;stroke-width:0.5;"/><path d="M335,195.2734 L335,205.2734 L345,205.2734 L335,195.2734 " fill="#FEFFDD" style="stroke:#181818;stroke-width:0.5;"/><text fill="#000000" font-family="sans-serif" font-size="13" lengthAdjust="spacing" textLength="68.6499" x="216" y="213.7686">Corrutina A</text><text fill="#000000" font-family="sans-serif" font-size="13" lengthAdjust="spacing" textLength="83.1035" x="216" y="230.1201">no esta bloqueada,</text><text fill="#000000" font-family="sans-serif" font-size="13" lengthAdjust="spacing" textLength="114.9116" x="216" y="246.4717">continua la ejecucion</text><polygon fill="#181818" points="328.5522,294.0313,338.5522,298.0313,328.5522,302.0313,332.5522,298.0313" style="stroke:#181818;stroke-width:1;"/><line style="stroke:#181818;stroke-width:1;" x1="205.9233" x2="334.5522" y1="298.0313" y2="298.0313"/><text fill="#000000" font-family="sans-serif" font-size="13" lengthAdjust="spacing" textLength="115.6289" x="212.9233" y="276.8232">spawn gc_coroutine</text><text fill="#000000" font-family="sans-serif" font-size="13" lengthAdjust="spacing" textLength="64.3081" x="212.9233" y="293.1748">(gc_scope)</text><line style="stroke:#181818;stroke-width:1;" x1="350.5522" x2="392.5522" y1="344.7344" y2="344.7344"/><line style="stroke:#181818;stroke-width:1;" x1="392.5522" x2="392.5522" y1="344.7344" y2="357.7344"/><line style="stroke:#181818;stroke-width:1;" x1="351.5522" x2="392.5522" y1="357.7344" y2="357.7344"/><polygon fill="#181818" points="361.5522,353.7344,351.5522,357.7344,361.5522,361.7344,357.5522,357.7344" style="stroke:#181818;stroke-width:1;"/><text fill="#000000" font-family="sans-serif" font-size="13" lengthAdjust="spacing" textLength="145.2344" x="357.5522" y="323.5264">zend_gc_collect_cycles()</text><text fill="#000000" font-family="sans-serif" font-size="13" lengthAdjust="spacing" textLength="107.6563" x="357.5522" y="339.8779">marcado, recoleccion</text><rect fill="#EEEEEE" height="3" style="stroke:#EEEEEE;stroke-width:1;" width="739.9165" x="0" y="386.9102"/><line style="stroke:#000000;stroke-width:1;" x1="0" x2="739.9165" y1="386.9102" y2="386.9102"/><line style="stroke:#000000;stroke-width:1;" x1="0" x2="739.9165" y1="389.9102" y2="389.9102"/><rect fill="#EEEEEE" height="24.3516" style="stroke:#000000;stroke-width:2;" width="137.5254" x="301.1956" y="375.7344"/><text fill="#000000" font-family="sans-serif" font-size="13" font-weight="bold" lengthAdjust="spacing" textLength="119.9136" x="307.1956" y="393.2295">Llamando destructores</text><polygon fill="#181818" points="519.3794,444.7891,529.3794,448.7891,519.3794,452.7891,523.3794,448.7891" style="stroke:#181818;stroke-width:1;"/><line style="stroke:#181818;stroke-width:1;" x1="350.5522" x2="525.3794" y1="448.7891" y2="448.7891"/><text fill="#000000" font-family="sans-serif" font-size="13" lengthAdjust="spacing" textLength="124.2998" x="357.5522" y="427.5811">spawn dtor_coroutine</text><text fill="#000000" font-family="sans-serif" font-size="13" lengthAdjust="spacing" textLength="161.8271" x="357.5522" y="443.9326">(dtor_scope, HI_PRIORITY)</text><line style="stroke:#181818;stroke-width:1;" x1="350.5522" x2="392.5522" y1="495.4922" y2="495.4922"/><line style="stroke:#181818;stroke-width:1;" x1="392.5522" x2="392.5522" y1="495.4922" y2="508.4922"/><line style="stroke:#181818;stroke-width:1;" x1="351.5522" x2="392.5522" y1="508.4922" y2="508.4922"/><polygon fill="#181818" points="361.5522,504.4922,351.5522,508.4922,361.5522,512.4922,357.5522,508.4922" style="stroke:#181818;stroke-width:1;"/><text fill="#000000" font-family="sans-serif" font-size="13" lengthAdjust="spacing" textLength="71.5063" x="357.5522" y="474.2842">SUSPEND()</text><text fill="#000000" font-family="sans-serif" font-size="13" lengthAdjust="spacing" textLength="104.7808" x="357.5522" y="490.6357">espera dtor_scope</text><line style="stroke:#181818;stroke-width:1;" x1="541.3794" x2="583.3794" y1="555.1953" y2="555.1953"/><line style="stroke:#181818;stroke-width:1;" x1="583.3794" x2="583.3794" y1="555.1953" y2="568.1953"/><line style="stroke:#181818;stroke-width:1;" x1="542.3794" x2="583.3794" y1="568.1953" y2="568.1953"/><polygon fill="#181818" points="552.3794,564.1953,542.3794,568.1953,552.3794,572.1953,548.3794,568.1953" style="stroke:#181818;stroke-width:1;"/><text fill="#000000" font-family="sans-serif" font-size="13" lengthAdjust="spacing" textLength="84.9063" x="548.3794" y="533.9873">obj-&gt;dtor_obj()</text><text fill="#000000" font-family="sans-serif" font-size="13" lengthAdjust="spacing" textLength="80.9199" x="548.3794" y="550.3389">llamar destructor</text><path d="M157.4028,583.1953 L217.5737,583.1953 L217.5737,591.5469 L207.5737,601.5469 L157.4028,601.5469 L157.4028,583.1953 " fill="#EEEEEE" style="stroke:#000000;stroke-width:1.5;"/><rect fill="none" height="234.8125" style="stroke:#000000;stroke-width:1.5;" width="572.5137" x="157.4028" y="583.1953"/><text fill="#000000" font-family="sans-serif" font-size="13" font-weight="bold" lengthAdjust="spacing" textLength="15.1709" x="172.4028" y="597.6904">alt</text><text fill="#000000" font-family="sans-serif" font-size="11" font-weight="bold" lengthAdjust="spacing" textLength="127.7568" x="232.5737" y="596.6143">[Destructor called await]</text><polygon fill="#181818" points="216.9233,622.8984,206.9233,626.8984,216.9233,630.8984,212.9233,626.8984" style="stroke:#181818;stroke-width:1;"/><line style="stroke:#181818;stroke-width:1;" x1="210.9233" x2="530.3794" y1="626.8984" y2="626.8984"/><text fill="#000000" font-family="sans-serif" font-size="13" lengthAdjust="spacing" textLength="71.5063" x="222.9233" y="622.042">SUSPEND()</text><path d="M546,606.5469 L546,632.5469 L688,632.5469 L688,616.5469 L678,606.5469 L546,606.5469 " fill="#FEFFDD" style="stroke:#181818;stroke-width:0.5;"/><path d="M678,606.5469 L678,616.5469 L688,616.5469 L678,606.5469 " fill="#FEFFDD" style="stroke:#181818;stroke-width:0.5;"/><text fill="#000000" font-family="sans-serif" font-size="13" lengthAdjust="spacing" textLength="121.3672" x="552" y="625.042">El destructor espera E/S</text><polygon fill="#181818" points="643.2856,656.25,653.2856,660.25,643.2856,664.25,647.2856,660.25" style="stroke:#181818;stroke-width:1;"/><line style="stroke:#181818;stroke-width:1;" x1="205.9233" x2="649.2856" y1="660.25" y2="660.25"/><text fill="#000000" font-family="sans-serif" font-size="13" lengthAdjust="spacing" textLength="155.3652" x="212.9233" y="655.3936">cambiar a otra corrutina</text><line style="stroke:#181818;stroke-width:1;" x1="655.2856" x2="697.2856" y1="690.6016" y2="690.6016"/><line style="stroke:#181818;stroke-width:1;" x1="697.2856" x2="697.2856" y1="690.6016" y2="703.6016"/><line style="stroke:#181818;stroke-width:1;" x1="656.2856" x2="697.2856" y1="703.6016" y2="703.6016"/><polygon fill="#181818" points="666.2856,699.6016,656.2856,703.6016,666.2856,707.6016,662.2856,703.6016" style="stroke:#181818;stroke-width:1;"/><text fill="#000000" font-family="sans-serif" font-size="13" lengthAdjust="spacing" textLength="55.6309" x="662.2856" y="685.7451">trabajando...</text><polygon fill="#181818" points="519.3794,746.3047,529.3794,750.3047,519.3794,754.3047,523.3794,750.3047" style="stroke:#181818;stroke-width:1;"/><line style="stroke:#181818;stroke-width:1;" x1="205.9233" x2="525.3794" y1="750.3047" y2="750.3047"/><text fill="#000000" font-family="sans-serif" font-size="13" lengthAdjust="spacing" textLength="111.6362" x="212.9233" y="729.0967">microtarea &#8594; generar</text><text fill="#000000" font-family="sans-serif" font-size="13" lengthAdjust="spacing" textLength="106.9517" x="212.9233" y="745.4482">nueva corrutina dtor</text><line style="stroke:#181818;stroke-width:1;" x1="541.3794" x2="583.3794" y1="797.0078" y2="797.0078"/><line style="stroke:#181818;stroke-width:1;" x1="583.3794" x2="583.3794" y1="797.0078" y2="810.0078"/><line style="stroke:#181818;stroke-width:1;" x1="542.3794" x2="583.3794" y1="810.0078" y2="810.0078"/><polygon fill="#181818" points="552.3794,806.0078,542.3794,810.0078,552.3794,814.0078,548.3794,810.0078" style="stroke:#181818;stroke-width:1;"/><text fill="#000000" font-family="sans-serif" font-size="13" lengthAdjust="spacing" textLength="49.1499" x="548.3794" y="775.7998">continuar</text><text fill="#000000" font-family="sans-serif" font-size="13" lengthAdjust="spacing" textLength="75.8608" x="548.3794" y="792.1514">desde dtor_idx</text><polygon fill="#181818" points="216.9233,843.3594,206.9233,847.3594,216.9233,851.3594,212.9233,847.3594" style="stroke:#181818;stroke-width:1;"/><line style="stroke:#181818;stroke-width:1;" x1="210.9233" x2="535.3794" y1="847.3594" y2="847.3594"/><text fill="#000000" font-family="sans-serif" font-size="13" lengthAdjust="spacing" textLength="127.9116" x="222.9233" y="842.5029">dtor_scope completado</text><polygon fill="#181818" points="328.5522,873.7109,338.5522,877.7109,328.5522,881.7109,332.5522,877.7109" style="stroke:#181818;stroke-width:1;"/><line style="stroke:#181818;stroke-width:1;" x1="205.9233" x2="334.5522" y1="877.7109" y2="877.7109"/><text fill="#000000" font-family="sans-serif" font-size="13" lengthAdjust="spacing" textLength="64.2764" x="212.9233" y="872.8545">RESUME()</text><line style="stroke:#181818;stroke-width:1;" x1="350.5522" x2="392.5522" y1="913.0625" y2="913.0625"/><line style="stroke:#181818;stroke-width:1;" x1="392.5522" x2="392.5522" y1="913.0625" y2="926.0625"/><line style="stroke:#181818;stroke-width:1;" x1="345.5522" x2="392.5522" y1="926.0625" y2="926.0625"/><polygon fill="#181818" points="355.5522,922.0625,345.5522,926.0625,355.5522,930.0625,351.5522,926.0625" style="stroke:#181818;stroke-width:1;"/><text fill="#000000" font-family="sans-serif" font-size="13" lengthAdjust="spacing" textLength="90.3081" x="357.5522" y="908.2061">liberando memoria</text><!--SRC=[TLFBRjim4BppAnOvsO3ZtWCuW5zmVMWJMCcXW021ejOMQueKIAfE-W7zW7vYlwHBAf8b0_59t9sT7SxGNdg5iECsvoU4jL4AXPT6WzJ08S6QM-v3mvh6IusCKSLB8MkkFTprTLZU0NUm7BSJKMBHABIn6KzZm6vzfOwOtNeCs7XZRo2Xz9cALKIi65iiY0fUIekkDAg00_Am7HOBnfPm_mXBU82Jo6hZdCmLPjOOFvccEc-EHxHmR9HgWL4rWPsdbHcDI9s9Rk5aohGXVwmybVu11dQaMZgW7kJAY3CMirGBewdNe0DyGz44cnbhwMaFoQKbDR_eeAlVaEe97PqmDKuPfsn-XJp89i9tKxzH5raSYl5bubqeTE4s5RTdgKyp47soqPirLuhgi47dRIF8KHUjQKcZwPsOWWuZER4G1StWwpvxFkoV3lkN7mDrCQ61lkGrUTv-tmH1_CAbTt3bO2nkksur-S_xnzYdhp0YI2iKlL36kF83uH3wP65aPa2_Zh1BhbyVkyEy1YmVmlPVdYAgZsKLZBX8Bqhm1ZXDb_GyUZyYUDK1BoRQFP_FnoGVLwkaiCPpTuP_V_wszgPQuoNQSSDvuqhtTb9zjAPg_PF56wFahmvs5xwwItDLhT3J_wx0SJxZXtVO9g_VjcJH8BQZHGoFfCBAsFSX0Js__m00]--></g></svg>