<svg xmlns="http://www.w3.org/2000/svg" xmlns:xlink="http://www.w3.org/1999/xlink" contentStyleType="text/css" height="829px" preserveAspectRatio="none" style="width:461px;height:829px;background:#FFFFFF;" version="1.1" viewBox="0 0 461 829" width="461px" zoomAndPan="magnify"><title>Panoramica: FrankenPHP + TrueAsync</title><defs/><g><text fill="#000000" font-family="sans-serif" font-size="14" font-weight="bold" lengthAdjust="spacing" textLength="242.375" x="102.7461" y="24.5332">Panoramica: FrankenPHP + TrueAsync</text><!--cluster Go Runtime--><g id="cluster_Go Runtime"><rect fill="#FFF3E0" height="335" rx="2.5" ry="2.5" style="stroke:#181818;stroke-width:1;" width="198" x="139" y="45.6094"/><text fill="#000000" font-family="sans-serif" font-size="14" font-weight="bold" lengthAdjust="spacing" textLength="79.3311" x="198.3345" y="62.1426">Go Runtime</text></g><!--cluster Inter-Process Communication--><g id="cluster_Inter-Process Communication"><rect fill="#FFF9C4" height="117" rx="2.5" ry="2.5" style="stroke:#181818;stroke-width:1;" width="438" x="9" y="430.6094"/><text fill="#000000" font-family="sans-serif" font-size="14" font-weight="bold" lengthAdjust="spacing" textLength="199.1514" x="128.4243" y="447.1426">Comunicazione Inter-Processo</text></g><!--cluster PHP Runtime (TrueAsync)--><g id="cluster_PHP Runtime (TrueAsync)"><rect fill="#E3F2FD" height="226" rx="2.5" ry="2.5" style="stroke:#181818;stroke-width:1;" width="302" x="7" y="597.6094"/><text fill="#000000" font-family="sans-serif" font-size="14" font-weight="bold" lengthAdjust="spacing" textLength="174.248" x="70.876" y="614.1426">PHP Runtime (TrueAsync)</text></g><!--entity Caddy--><g id="elem_Caddy"><rect fill="#F1F1F1" height="47.6094" rx="2.5" ry="2.5" style="stroke:#181818;stroke-width:0.5;" width="166.0342" x="155" y="81.6094"/><rect fill="#F1F1F1" height="10" style="stroke:#181818;stroke-width:0.5;" width="15" x="301.0342" y="86.6094"/><rect fill="#F1F1F1" height="2" style="stroke:#181818;stroke-width:0.5;" width="4" x="299.0342" y="88.6094"/><rect fill="#F1F1F1" height="2" style="stroke:#181818;stroke-width:0.5;" width="4" x="299.0342" y="92.6094"/><text fill="#000000" font-family="sans-serif" font-size="14" lengthAdjust="spacing" textLength="126.0342" x="170" y="116.1426">Server HTTP Caddy</text></g><!--entity G1--><g id="elem_G1"><rect fill="#F1F1F1" height="47.6094" rx="2.5" ry="2.5" style="stroke:#181818;stroke-width:0.5;" width="101.4824" x="187.5" y="190.6094"/><rect fill="#F1F1F1" height="10" style="stroke:#181818;stroke-width:0.5;" width="15" x="268.9824" y="195.6094"/><rect fill="#F1F1F1" height="2" style="stroke:#181818;stroke-width:0.5;" width="4" x="266.9824" y="197.6094"/><rect fill="#F1F1F1" height="2" style="stroke:#181818;stroke-width:0.5;" width="4" x="266.9824" y="201.6094"/><text fill="#000000" font-family="sans-serif" font-size="14" lengthAdjust="spacing" textLength="61.4824" x="202.5" y="225.1426">Goroutine</text></g><!--entity RR--><g id="elem_RR"><rect fill="#F1F1F1" height="65.2188" rx="2.5" ry="2.5" style="stroke:#181818;stroke-width:0.5;" width="122.4961" x="161" y="299.6094"/><rect fill="#F1F1F1" height="10" style="stroke:#181818;stroke-width:0.5;" width="15" x="263.4961" y="304.6094"/><rect fill="#F1F1F1" height="2" style="stroke:#181818;stroke-width:0.5;" width="4" x="261.4961" y="306.6094"/><rect fill="#F1F1F1" height="2" style="stroke:#181818;stroke-width:0.5;" width="4" x="261.4961" y="310.6094"/><text fill="#000000" font-family="sans-serif" font-size="14" lengthAdjust="spacing" textLength="82.4961" x="176" y="334.1426">Round-Robin</text><text fill="#000000" font-family="sans-serif" font-size="14" lengthAdjust="spacing" textLength="66.917" x="176" y="351.752">Dispatcher</text></g><!--entity ReqChan--><g id="elem_ReqChan"><path d="M30,476.6094 L120.165,476.6094 C125.165,476.6094 125.165,499.2188 125.165,499.2188 C125.165,499.2188 125.165,521.8281 120.165,521.8281 L30,521.8281 C25,521.8281 25,499.2188 25,499.2188 C25,499.2188 25,476.6094 30,476.6094 " fill="#F1F1F1" style="stroke:#181818;stroke-width:0.5;"/><path d="M120.165,476.6094 C115.165,476.6094 115.165,499.2188 115.165,499.2188 C115.165,521.8281 120.165,521.8281 120.165,521.8281 " fill="none" style="stroke:#181818;stroke-width:0.5;"/><text fill="#000000" font-family="sans-serif" font-size="14" lengthAdjust="spacing" textLength="80.165" x="30" y="496.1426">requestChan</text><text fill="#000000" font-family="sans-serif" font-size="14" lengthAdjust="spacing" textLength="60.6963" x="30" y="513.752">(bufferizzato)</text></g><!--entity RespChan--><g id="elem_RespChan"><path d="M324.5,485.1094 L425.5615,485.1094 C430.5615,485.1094 430.5615,498.9141 430.5615,498.9141 C430.5615,498.9141 430.5615,512.7188 425.5615,512.7188 L324.5,512.7188 C319.5,512.7188 319.5,498.9141 319.5,498.9141 C319.5,498.9141 319.5,485.1094 324.5,485.1094 " fill="#F1F1F1" style="stroke:#181818;stroke-width:0.5;"/><path d="M425.5615,485.1094 C420.5615,485.1094 420.5615,498.9141 420.5615,498.9141 C420.5615,512.7188 425.5615,512.7188 425.5615,512.7188 " fill="none" style="stroke:#181818;stroke-width:0.5;"/><text fill="#000000" font-family="sans-serif" font-size="14" lengthAdjust="spacing" textLength="91.0615" x="324.5" y="504.6426">responseChan</text></g><!--entity Notifier--><g id="elem_Notifier"><rect fill="#F1F1F1" height="65.2188" rx="2.5" ry="2.5" style="stroke:#181818;stroke-width:0.5;" width="124.0615" x="160" y="466.6094"/><rect fill="#F1F1F1" height="10" style="stroke:#181818;stroke-width:0.5;" width="15" x="264.0615" y="471.6094"/><rect fill="#F1F1F1" height="2" style="stroke:#181818;stroke-width:0.5;" width="4" x="262.0615" y="473.6094"/><rect fill="#F1F1F1" height="2" style="stroke:#181818;stroke-width:0.5;" width="4" x="262.0615" y="477.6094"/><text fill="#000000" font-family="sans-serif" font-size="14" lengthAdjust="spacing" textLength="82.4688" x="175" y="501.1426">AsyncNotifier</text><text fill="#000000" font-family="sans-serif" font-size="14" lengthAdjust="spacing" textLength="84.0615" x="175" y="518.752">eventfd / pipe</text></g><!--entity Reactor--><g id="elem_Reactor"><rect fill="#F1F1F1" height="47.6094" rx="2.5" ry="2.5" style="stroke:#181818;stroke-width:0.5;" width="131.0273" x="161.5" y="633.6094"/><rect fill="#F1F1F1" height="10" style="stroke:#181818;stroke-width:0.5;" width="15" x="272.5273" y="638.6094"/><rect fill="#F1F1F1" height="2" style="stroke:#181818;stroke-width:0.5;" width="4" x="270.5273" y="640.6094"/><rect fill="#F1F1F1" height="2" style="stroke:#181818;stroke-width:0.5;" width="4" x="270.5273" y="644.6094"/><text fill="#000000" font-family="sans-serif" font-size="14" lengthAdjust="spacing" textLength="91.0273" x="176.5" y="668.1426">Reactor (libuv)</text></g><!--entity Sched--><g id="elem_Sched"><rect fill="#F1F1F1" height="47.6094" rx="2.5" ry="2.5" style="stroke:#181818;stroke-width:0.5;" width="103.041" x="23.5" y="633.6094"/><rect fill="#F1F1F1" height="10" style="stroke:#181818;stroke-width:0.5;" width="15" x="106.541" y="638.6094"/><rect fill="#F1F1F1" height="2" style="stroke:#181818;stroke-width:0.5;" width="4" x="104.541" y="640.6094"/><rect fill="#F1F1F1" height="2" style="stroke:#181818;stroke-width:0.5;" width="4" x="104.541" y="644.6094"/><text fill="#000000" font-family="sans-serif" font-size="14" lengthAdjust="spacing" textLength="63.041" x="38.5" y="668.1426">Scheduler</text></g><!--entity CR1--><g id="elem_CR1"><rect fill="#F1F1F1" height="47.6094" rx="2.5" ry="2.5" style="stroke:#181818;stroke-width:0.5;" width="100.7031" x="149.5" y="759.6094"/><rect fill="#F1F1F1" height="10" style="stroke:#181818;stroke-width:0.5;" width="15" x="230.2031" y="764.6094"/><rect fill="#F1F1F1" height="2" style="stroke:#181818;stroke-width:0.5;" width="4" x="228.2031" y="766.6094"/><rect fill="#F1F1F1" height="2" style="stroke:#181818;stroke-width:0.5;" width="4" x="228.2031" y="770.6094"/><text fill="#000000" font-family="sans-serif" font-size="14" lengthAdjust="spacing" textLength="60.7031" x="164.5" y="794.1426">Coroutine</text></g><!--link Caddy to G1--><g id="link_Caddy_G1"><path d="M238,129.8294 C238,147.7694 238,166.4994 238,184.4394 " fill="none" id="Caddy-to-G1" style="stroke:#181818;stroke-width:1;"/><polygon fill="#181818" points="238,190.4394,242,181.4394,238,185.4394,234,181.4394,238,190.4394" style="stroke:#181818;stroke-width:1;"/></g><!--link G1 to RR--><g id="link_G1_RR"><path d="M234.8,238.7094 C232.39,256.0894 229.8934,274.1661 227.2334,293.3661 " fill="none" id="G1-to-RR" style="stroke:#181818;stroke-width:1;"/><polygon fill="#181818" points="226.41,299.3094,231.6072,290.9434,227.0962,294.3567,223.6829,289.8456,226.41,299.3094" style="stroke:#181818;stroke-width:1;"/></g><!--link RR to ReqChan--><g id="link_RR_ReqChan"><path d="M168.81,364.7694 C155.83,374.0094 142.63,384.8294 132,396.6094 C110.2,420.7694 95.686,449.1929 86.126,471.0329 " fill="none" id="RR-to-ReqChan" style="stroke:#181818;stroke-width:1;"/><polygon fill="#181818" points="83.72,476.5294,90.9933,469.8886,85.725,471.949,83.6646,466.6807,83.72,476.5294" style="stroke:#181818;stroke-width:1;"/><text fill="#000000" font-family="sans-serif" font-size="13" lengthAdjust="spacing" textLength="80.9136" x="133" y="411.1045">Richiesta HTTP</text></g><!--link RR to Notifier--><g id="link_RR_Notifier"><path d="M222,364.9194 C222,394.1394 222,431.2094 222,460.3894 " fill="none" id="RR-to-Notifier" style="stroke:#181818;stroke-width:1;"/><polygon fill="#181818" points="222,466.3894,226,457.3894,222,461.3894,218,457.3894,222,466.3894" style="stroke:#181818;stroke-width:1;"/><text fill="#000000" font-family="sans-serif" font-size="13" lengthAdjust="spacing" textLength="41.8882" x="223" y="411.1045">Notify()</text></g><!--link Notifier to Reactor--><g id="link_Notifier_Reactor"><path d="M223.01,531.7794 C223.97,561.7894 225.1988,600.1724 226.0588,627.1424 " fill="none" id="Notifier-to-Reactor" style="stroke:#181818;stroke-width:1;"/><polygon fill="#181818" points="226.25,633.1394,229.9611,624.0165,226.0906,628.1419,221.9652,624.2714,226.25,633.1394" style="stroke:#181818;stroke-width:1;"/><text fill="#000000" font-family="sans-serif" font-size="13" lengthAdjust="spacing" textLength="46.9727" x="225" y="578.1045">fd pronto</text></g><!--link ReqChan to Sched--><g id="link_ReqChan_Sched"><path d="M75,521.8694 C75,551.2694 75,597.4394 75,627.5094 " fill="none" id="ReqChan-to-Sched" style="stroke:#181818;stroke-width:1;"/><polygon fill="#181818" points="75,633.5094,79,624.5094,75,628.5094,71,624.5094,75,633.5094" style="stroke:#181818;stroke-width:1;"/><text fill="#000000" font-family="sans-serif" font-size="13" lengthAdjust="spacing" textLength="99.709" x="76" y="578.1045">check_requests()</text></g><!--link Sched to CR1--><g id="link_Sched_CR1"><path d="M98.22,681.6394 C120.53,703.7794 149.8103,732.8239 172.2203,755.0539 " fill="none" id="Sched-to-CR1" style="stroke:#181818;stroke-width:1;"/><polygon fill="#181818" points="176.48,759.2794,172.9074,750.1013,172.9302,755.7581,167.2734,755.7809,176.48,759.2794" style="stroke:#181818;stroke-width:1;"/><text fill="#000000" font-family="sans-serif" font-size="13" lengthAdjust="spacing" textLength="37.5781" x="145" y="726.1045">spawn</text></g><!--link CR1 to RespChan--><g id="link_CR1_RespChan"><path d="M232.63,759.5794 C256.91,740.9794 289.28,712.8194 310,681.6094 C347.39,625.2794 365.0626,550.7227 371.3526,519.2927 " fill="none" id="CR1-to-RespChan" style="stroke:#181818;stroke-width:1;"/><polygon fill="#181818" points="372.53,513.4094,366.8416,521.4494,371.5488,518.3122,374.6861,523.0193,372.53,513.4094" style="stroke:#181818;stroke-width:1;"/><text fill="#000000" font-family="sans-serif" font-size="13" lengthAdjust="spacing" textLength="101.8672" x="352" y="663.1045">Response::write()</text></g><!--link RespChan to G1--><g id="link_RespChan_G1"><path d="M371.53,485.0194 C362.61,452.4094 336.98,365.4494 301,299.6094 C288.94,277.5394 275.3982,259.4694 261.9582,243.2494 " fill="none" id="RespChan-to-G1" style="stroke:#181818;stroke-width:1;"/><polygon fill="#181818" points="258.13,238.6294,260.7923,248.1116,261.3202,242.4794,266.9523,243.0073,258.13,238.6294" style="stroke:#181818;stroke-width:1;"/><text fill="#000000" font-family="sans-serif" font-size="13" lengthAdjust="spacing" textLength="91.0317" x="341" y="337.6045">Risposta HTTP</text></g></g></svg>