<svg xmlns="http://www.w3.org/2000/svg" xmlns:xlink="http://www.w3.org/1999/xlink" contentStyleType="text/css" height="935px" preserveAspectRatio="none" style="width:763px;height:935px;background:#FFFFFF;" version="1.1" viewBox="0 0 763 935" width="763px" zoomAndPan="magnify"><title>Creating a Connection from the Pool</title><defs/><g><text fill="#000000" font-family="sans-serif" font-size="14" font-weight="bold" lengthAdjust="spacing" textLength="243.4551" x="261.5437" y="29.5332">Creating a Connection from the Pool</text><rect fill="none" height="591.0313" style="stroke:#000000;stroke-width:1.5;" width="630.6221" x="126.9204" y="183.2734"/><rect fill="none" height="378.5703" style="stroke:#000000;stroke-width:1.5;" width="494.6646" x="252.8779" y="238.9766"/><line style="stroke:#181818;stroke-width:0.5;stroke-dasharray:5.0,5.0;" x1="42" x2="42" y1="76.2188" y2="898.7109"/><line style="stroke:#181818;stroke-width:0.5;stroke-dasharray:5.0,5.0;" x1="177.9204" x2="177.9204" y1="76.2188" y2="898.7109"/><line style="stroke:#181818;stroke-width:0.5;stroke-dasharray:5.0,5.0;" x1="329.8779" x2="329.8779" y1="76.2188" y2="898.7109"/><line style="stroke:#181818;stroke-width:0.5;stroke-dasharray:5.0,5.0;" x1="467.5254" x2="467.5254" y1="76.2188" y2="898.7109"/><line style="stroke:#181818;stroke-width:0.5;stroke-dasharray:5.0,5.0;" x1="635.1025" x2="635.1025" y1="76.2188" y2="898.7109"/><rect fill="#E2E2F0" height="31.6094" rx="2.5" ry="2.5" style="stroke:#181818;stroke-width:0.5;" width="74.7031" x="5" y="43.6094"/><text fill="#000000" font-family="sans-serif" font-size="14" lengthAdjust="spacing" textLength="60.7031" x="12" y="65.1426">Coroutine</text><rect fill="#E2E2F0" height="31.6094" rx="2.5" ry="2.5" style="stroke:#181818;stroke-width:0.5;" width="74.7031" x="5" y="897.7109"/><text fill="#000000" font-family="sans-serif" font-size="14" lengthAdjust="spacing" textLength="60.7031" x="12" y="919.2441">Coroutine</text><rect fill="#E2E2F0" height="31.6094" rx="2.5" ry="2.5" style="stroke:#181818;stroke-width:0.5;" width="82.5029" x="136.9204" y="43.6094"/><text fill="#000000" font-family="sans-serif" font-size="14" lengthAdjust="spacing" textLength="68.5029" x="143.9204" y="65.1426">pdo_pool.c</text><rect fill="#E2E2F0" height="31.6094" rx="2.5" ry="2.5" style="stroke:#181818;stroke-width:0.5;" width="82.5029" x="136.9204" y="897.7109"/><text fill="#000000" font-family="sans-serif" font-size="14" lengthAdjust="spacing" textLength="68.5029" x="143.9204" y="919.2441">pdo_pool.c</text><rect fill="#E2E2F0" height="31.6094" rx="2.5" ry="2.5" style="stroke:#181818;stroke-width:0.5;" width="134.6475" x="262.8779" y="43.6094"/><text fill="#000000" font-family="sans-serif" font-size="14" lengthAdjust="spacing" textLength="120.6475" x="269.8779" y="65.1426">zend_async_pool_t</text><rect fill="#E2E2F0" height="31.6094" rx="2.5" ry="2.5" style="stroke:#181818;stroke-width:0.5;" width="134.6475" x="262.8779" y="897.7109"/><text fill="#000000" font-family="sans-serif" font-size="14" lengthAdjust="spacing" textLength="120.6475" x="269.8779" y="919.2441">zend_async_pool_t</text><rect fill="#E2E2F0" height="31.6094" rx="2.5" ry="2.5" style="stroke:#181818;stroke-width:0.5;" width="121.4131" x="407.5254" y="43.6094"/><text fill="#000000" font-family="sans-serif" font-size="14" lengthAdjust="spacing" textLength="107.4131" x="414.5254" y="65.1426">pdo_pool_factory</text><rect fill="#E2E2F0" height="31.6094" rx="2.5" ry="2.5" style="stroke:#181818;stroke-width:0.5;" width="121.4131" x="407.5254" y="897.7109"/><text fill="#000000" font-family="sans-serif" font-size="14" lengthAdjust="spacing" textLength="107.4131" x="414.5254" y="919.2441">pdo_pool_factory</text><rect fill="#E2E2F0" height="31.6094" rx="2.5" ry="2.5" style="stroke:#181818;stroke-width:0.5;" width="101.8965" x="585.1025" y="43.6094"/><text fill="#000000" font-family="sans-serif" font-size="14" lengthAdjust="spacing" textLength="87.8965" x="592.1025" y="65.1426">MySQL Driver</text><rect fill="#E2E2F0" height="31.6094" rx="2.5" ry="2.5" style="stroke:#181818;stroke-width:0.5;" width="101.8965" x="585.1025" y="897.7109"/><text fill="#000000" font-family="sans-serif" font-size="14" lengthAdjust="spacing" textLength="87.8965" x="592.1025" y="919.2441">MySQL Driver</text><polygon fill="#181818" points="166.1719,104.5703,176.1719,108.5703,166.1719,112.5703,170.1719,108.5703" style="stroke:#181818;stroke-width:1;"/><line style="stroke:#181818;stroke-width:1;" x1="42.3516" x2="172.1719" y1="108.5703" y2="108.5703"/><text fill="#000000" font-family="sans-serif" font-size="13" lengthAdjust="spacing" textLength="111.8203" x="49.3516" y="103.7139">query("SELECT 1")</text><line style="stroke:#181818;stroke-width:1;" x1="178.1719" x2="220.1719" y1="155.2734" y2="155.2734"/><line style="stroke:#181818;stroke-width:1;" x1="220.1719" x2="220.1719" y1="155.2734" y2="168.2734"/><line style="stroke:#181818;stroke-width:1;" x1="179.1719" x2="220.1719" y1="168.2734" y2="168.2734"/><polygon fill="#181818" points="189.1719,164.2734,179.1719,168.2734,189.1719,172.2734,185.1719,168.2734" style="stroke:#181818;stroke-width:1;"/><text fill="#000000" font-family="sans-serif" font-size="13" lengthAdjust="spacing" textLength="112.7534" x="185.1719" y="134.0654">Look up connection</text><text fill="#000000" font-family="sans-serif" font-size="13" lengthAdjust="spacing" textLength="116.3335" x="185.1719" y="150.417">for current coroutine</text><path d="M126.9204,183.2734 L187.0913,183.2734 L187.0913,191.625 L177.0913,201.625 L126.9204,201.625 L126.9204,183.2734 " fill="#EEEEEE" style="stroke:#000000;stroke-width:1.5;"/><rect fill="none" height="591.0313" style="stroke:#000000;stroke-width:1.5;" width="630.6221" x="126.9204" y="183.2734"/><text fill="#000000" font-family="sans-serif" font-size="13" font-weight="bold" lengthAdjust="spacing" textLength="15.1709" x="141.9204" y="197.7686">alt</text><text fill="#000000" font-family="sans-serif" font-size="11" font-weight="bold" lengthAdjust="spacing" textLength="121.5747" x="202.0913" y="196.6924">[Connection not found]</text><polygon fill="#181818" points="318.2017,219.9766,328.2017,223.9766,318.2017,227.9766,322.2017,223.9766" style="stroke:#181818;stroke-width:1;"/><line style="stroke:#181818;stroke-width:1;" x1="178.1719" x2="324.2017" y1="223.9766" y2="223.9766"/><text fill="#000000" font-family="sans-serif" font-size="13" lengthAdjust="spacing" textLength="51.2954" x="185.1719" y="219.1201">acquire()</text><path d="M252.8779,238.9766 L313.0488,238.9766 L313.0488,247.3281 L303.0488,257.3281 L252.8779,257.3281 L252.8779,238.9766 " fill="#EEEEEE" style="stroke:#000000;stroke-width:1.5;"/><rect fill="none" height="378.5703" style="stroke:#000000;stroke-width:1.5;" width="494.6646" x="252.8779" y="238.9766"/><text fill="#000000" font-family="sans-serif" font-size="13" font-weight="bold" lengthAdjust="spacing" textLength="15.1709" x="267.8779" y="253.4717">alt</text><text fill="#000000" font-family="sans-serif" font-size="11" font-weight="bold" lengthAdjust="spacing" textLength="170.833" x="328.0488" y="252.3955">[No free connections, but &lt; max]</text><polygon fill="#181818" points="456.2319,275.6797,466.2319,279.6797,456.2319,283.6797,460.2319,279.6797" style="stroke:#181818;stroke-width:1;"/><line style="stroke:#181818;stroke-width:1;" x1="330.2017" x2="462.2319" y1="279.6797" y2="279.6797"/><text fill="#000000" font-family="sans-serif" font-size="13" lengthAdjust="spacing" textLength="63.5908" x="337.2017" y="274.8232">create new</text><line style="stroke:#181818;stroke-width:1;" x1="468.2319" x2="510.2319" y1="310.0313" y2="310.0313"/><line style="stroke:#181818;stroke-width:1;" x1="510.2319" x2="510.2319" y1="310.0313" y2="323.0313"/><line style="stroke:#181818;stroke-width:1;" x1="469.2319" x2="510.2319" y1="323.0313" y2="323.0313"/><polygon fill="#181818" points="479.2319,319.0313,469.2319,323.0313,479.2319,327.0313,475.2319,323.0313" style="stroke:#181818;stroke-width:1;"/><text fill="#000000" font-family="sans-serif" font-size="13" lengthAdjust="spacing" textLength="153.5815" x="475.2319" y="305.1748">conn = ecalloc(pdo_dbh_t)</text><line style="stroke:#181818;stroke-width:1;" x1="468.2319" x2="510.2319" y1="386.0859" y2="386.0859"/><line style="stroke:#181818;stroke-width:1;" x1="510.2319" x2="510.2319" y1="386.0859" y2="399.0859"/><line style="stroke:#181818;stroke-width:1;" x1="469.2319" x2="510.2319" y1="399.0859" y2="399.0859"/><polygon fill="#181818" points="479.2319,395.0859,469.2319,399.0859,479.2319,403.0859,475.2319,399.0859" style="stroke:#181818;stroke-width:1;"/><text fill="#000000" font-family="sans-serif" font-size="13" lengthAdjust="spacing" textLength="65.019" x="475.2319" y="348.5264">Copy DSN,</text><text fill="#000000" font-family="sans-serif" font-size="13" lengthAdjust="spacing" textLength="90.3271" x="475.2319" y="364.8779">login, password</text><text fill="#000000" font-family="sans-serif" font-size="13" lengthAdjust="spacing" textLength="135.1035" x="475.2319" y="381.2295">from template (estrdup)</text><polygon fill="#181818" points="624.0508,425.4375,634.0508,429.4375,624.0508,433.4375,628.0508,429.4375" style="stroke:#181818;stroke-width:1;"/><line style="stroke:#181818;stroke-width:1;" x1="468.2319" x2="630.0508" y1="429.4375" y2="429.4375"/><text fill="#000000" font-family="sans-serif" font-size="13" lengthAdjust="spacing" textLength="143.8188" x="475.2319" y="424.5811">db_handle_factory(conn)</text><line style="stroke:#181818;stroke-width:1;" x1="636.0508" x2="678.0508" y1="476.1406" y2="476.1406"/><line style="stroke:#181818;stroke-width:1;" x1="678.0508" x2="678.0508" y1="476.1406" y2="489.1406"/><line style="stroke:#181818;stroke-width:1;" x1="637.0508" x2="678.0508" y1="489.1406" y2="489.1406"/><polygon fill="#181818" points="647.0508,485.1406,637.0508,489.1406,647.0508,493.1406,643.0508,489.1406" style="stroke:#181818;stroke-width:1;"/><text fill="#000000" font-family="sans-serif" font-size="13" lengthAdjust="spacing" textLength="68.6309" x="643.0508" y="454.9326">Parse DSN,</text><text fill="#000000" font-family="sans-serif" font-size="13" lengthAdjust="spacing" textLength="92.4917" x="643.0508" y="471.2842">TCP connection</text><polygon fill="#181818" points="479.2319,515.4922,469.2319,519.4922,479.2319,523.4922,475.2319,519.4922" style="stroke:#181818;stroke-width:1;"/><line style="stroke:#181818;stroke-width:1;stroke-dasharray:2.0,2.0;" x1="473.2319" x2="635.0508" y1="519.4922" y2="519.4922"/><text fill="#000000" font-family="sans-serif" font-size="13" lengthAdjust="spacing" textLength="18.7827" x="485.2319" y="514.6357">OK</text><line style="stroke:#181818;stroke-width:1;" x1="468.2319" x2="510.2319" y1="566.1953" y2="566.1953"/><line style="stroke:#181818;stroke-width:1;" x1="510.2319" x2="510.2319" y1="566.1953" y2="579.1953"/><line style="stroke:#181818;stroke-width:1;" x1="469.2319" x2="510.2319" y1="579.1953" y2="579.1953"/><polygon fill="#181818" points="479.2319,575.1953,469.2319,579.1953,479.2319,583.1953,475.2319,579.1953" style="stroke:#181818;stroke-width:1;"/><text fill="#000000" font-family="sans-serif" font-size="13" lengthAdjust="spacing" textLength="86.709" x="475.2319" y="544.9873">Free credential</text><text fill="#000000" font-family="sans-serif" font-size="13" lengthAdjust="spacing" textLength="79.479" x="475.2319" y="561.3389">copies (efree)</text><polygon fill="#181818" points="341.2017,605.5469,331.2017,609.5469,341.2017,613.5469,337.2017,609.5469" style="stroke:#181818;stroke-width:1;"/><line style="stroke:#181818;stroke-width:1;stroke-dasharray:2.0,2.0;" x1="335.2017" x2="467.2319" y1="609.5469" y2="609.5469"/><text fill="#000000" font-family="sans-serif" font-size="13" lengthAdjust="spacing" textLength="28.1899" x="347.2017" y="604.6904">conn</text><polygon fill="#181818" points="189.1719,642.8984,179.1719,646.8984,189.1719,650.8984,185.1719,646.8984" style="stroke:#181818;stroke-width:1;"/><line style="stroke:#181818;stroke-width:1;stroke-dasharray:2.0,2.0;" x1="183.1719" x2="329.2017" y1="646.8984" y2="646.8984"/><text fill="#000000" font-family="sans-serif" font-size="13" lengthAdjust="spacing" textLength="28.1899" x="195.1719" y="642.042">conn</text><line style="stroke:#181818;stroke-width:1;" x1="178.1719" x2="220.1719" y1="693.6016" y2="693.6016"/><line style="stroke:#181818;stroke-width:1;" x1="220.1719" x2="220.1719" y1="693.6016" y2="706.6016"/><line style="stroke:#181818;stroke-width:1;" x1="179.1719" x2="220.1719" y1="706.6016" y2="706.6016"/><polygon fill="#181818" points="189.1719,702.6016,179.1719,706.6016,189.1719,710.6016,185.1719,706.6016" style="stroke:#181818;stroke-width:1;"/><text fill="#000000" font-family="sans-serif" font-size="13" lengthAdjust="spacing" textLength="57.8208" x="185.1719" y="672.3936">Bind conn</text><text fill="#000000" font-family="sans-serif" font-size="13" lengthAdjust="spacing" textLength="84.5444" x="185.1719" y="688.7451">to coroutine ID</text><line style="stroke:#181818;stroke-width:1;" x1="178.1719" x2="220.1719" y1="753.3047" y2="753.3047"/><line style="stroke:#181818;stroke-width:1;" x1="220.1719" x2="220.1719" y1="753.3047" y2="766.3047"/><line style="stroke:#181818;stroke-width:1;" x1="179.1719" x2="220.1719" y1="766.3047" y2="766.3047"/><polygon fill="#181818" points="189.1719,762.3047,179.1719,766.3047,189.1719,770.3047,185.1719,766.3047" style="stroke:#181818;stroke-width:1;"/><text fill="#000000" font-family="sans-serif" font-size="13" lengthAdjust="spacing" textLength="97.5571" x="185.1719" y="732.0967">Register cleanup</text><text fill="#000000" font-family="sans-serif" font-size="13" lengthAdjust="spacing" textLength="138.0298" x="185.1719" y="748.4482">on coroutine completion</text><polygon fill="#181818" points="624.0508,816.0078,634.0508,820.0078,624.0508,824.0078,628.0508,820.0078" style="stroke:#181818;stroke-width:1;"/><line style="stroke:#181818;stroke-width:1;" x1="178.1719" x2="630.0508" y1="820.0078" y2="820.0078"/><text fill="#000000" font-family="sans-serif" font-size="13" lengthAdjust="spacing" textLength="83.1035" x="185.1719" y="798.7998">Execute query</text><text fill="#000000" font-family="sans-serif" font-size="13" lengthAdjust="spacing" textLength="110.2017" x="185.1719" y="815.1514">via conn-&gt;methods</text><polygon fill="#181818" points="189.1719,846.3594,179.1719,850.3594,189.1719,854.3594,185.1719,850.3594" style="stroke:#181818;stroke-width:1;"/><line style="stroke:#181818;stroke-width:1;stroke-dasharray:2.0,2.0;" x1="183.1719" x2="635.0508" y1="850.3594" y2="850.3594"/><text fill="#000000" font-family="sans-serif" font-size="13" lengthAdjust="spacing" textLength="36.8481" x="195.1719" y="845.5029">Result</text><polygon fill="#181818" points="53.3516,876.7109,43.3516,880.7109,53.3516,884.7109,49.3516,880.7109" style="stroke:#181818;stroke-width:1;"/><line style="stroke:#181818;stroke-width:1;stroke-dasharray:2.0,2.0;" x1="47.3516" x2="177.1719" y1="880.7109" y2="880.7109"/><text fill="#000000" font-family="sans-serif" font-size="13" lengthAdjust="spacing" textLength="87.4263" x="59.3516" y="875.8545">PDOStatement</text><!--SRC=[VLDDRnen4BtxLumuWKGYzLgraTg5I5LeGakEAwsCFO0Lut7yaOJ- -jg6_I11sPDt_TwRcVTcWmeQeNB8Wp9Ru52HCIY28WCRHti8EuGbaMRCSXUKK9QR0AEA7CL4mH5m3_dj_DvAQcoYNOi2A0fdW7zePCFzmOY2QqB1_SWVFe9RjMR3HI1tADZRu_aS-Vkm-hE0cLClw0hgU6GijmXNDwKJ-0hF4TrXF5hD5_Fg4RwC9gnSz805qHD42wBpepORSY2YSvWgYTO0nhWEGziC1TXGD991UbhPRhAapSLpL0x74rOWcNzFoMx4GJa_XNKCy0ts_At0yjEh9CcJ0KbGvFmG3BvsoFRo79VKuJkWu5gJ66TRvNhNXCddj8hi0MQh-sbjD6sLcOBbth-IaycJiYIujpftC4OVd8psek0nYgGdrysE6wcnpNES6-iv9-2GikJEuwc7nsevyEa3wwprXxlFHxijfZkKALF5TMq4MOK-3PBZk336koXp7mMKrlcOvY2YVfiwsBij-wcCB9Ur2TJl5FoQNKB_nQto8SqeD78JRMtIklKaGIa5B9wKRbfsP-By3KLCAPNbhysBugNsrSqUmuwaPmCBkv8-wi2wUSflbEAOFQn22doVR6F_0G00]--></g></svg>