<svg xmlns="http://www.w3.org/2000/svg" xmlns:xlink="http://www.w3.org/1999/xlink" contentStyleType="text/css" height="1290px" preserveAspectRatio="none" style="width:536px;height:1290px;background:#FFFFFF;" version="1.1" viewBox="0 0 536 1290" width="536px" zoomAndPan="magnify"><title>acquire() &#8212; Interner Algorithmus</title><defs/><g><text fill="#000000" font-family="sans-serif" font-size="14" font-weight="bold" lengthAdjust="spacing" textLength="201.8994" x="165.6019" y="34.5332">acquire() &#8212; Interner Algorithmus</text><ellipse cx="226.1398" cy="58.6094" fill="#222222" rx="10" ry="10" style="stroke:#222222;stroke-width:1;"/><rect fill="#F1F1F1" height="35.0938" rx="12.5" ry="12.5" style="stroke:#181818;stroke-width:0.5;" width="272.1465" x="90.0665" y="88.6094"/><text fill="#000000" font-family="sans-serif" font-size="12" lengthAdjust="spacing" textLength="252.1465" x="100.0665" y="111.0664">zend_async_pool_acquire(pool, result, timeout)</text><rect fill="#F1F1F1" height="35.0938" rx="12.5" ry="12.5" style="stroke:#181818;stroke-width:0.5;" width="129.3945" x="161.4425" y="192.6211"/><text fill="#000000" font-family="sans-serif" font-size="12" lengthAdjust="spacing" textLength="109.3945" x="171.4425" y="215.0781">PoolException werfen</text><ellipse cx="226.1398" cy="266.668" fill="none" rx="11" ry="11" style="stroke:#222222;stroke-width:1;"/><ellipse cx="226.1398" cy="266.668" fill="#222222" rx="6" ry="6" style="stroke:#222222;stroke-width:1;"/><polygon fill="#F1F1F1" points="194.6464,143.7031,257.6332,143.7031,269.6332,155.7031,257.6332,167.7031,194.6464,167.7031,182.6464,155.7031,194.6464,143.7031" style="stroke:#181818;stroke-width:0.5;"/><text fill="#000000" font-family="sans-serif" font-size="11" lengthAdjust="spacing" textLength="17.1177" x="230.1398" y="179.1221">ja</text><text fill="#000000" font-family="sans-serif" font-size="11" lengthAdjust="spacing" textLength="62.9868" x="194.6464" y="160.2041">Pool geschl.?</text><rect fill="#F1F1F1" height="35.0938" rx="12.5" ry="12.5" style="stroke:#181818;stroke-width:0.5;" width="208.0977" x="122.0909" y="372.2578"/><text fill="#000000" font-family="sans-serif" font-size="12" lengthAdjust="spacing" textLength="188.0977" x="132.0909" y="394.7148">ServiceUnavailableException werfen</text><ellipse cx="226.1398" cy="445.3867" fill="none" rx="11" ry="11" style="stroke:#222222;stroke-width:1;"/><ellipse cx="226.1398" cy="445.3867" fill="#222222" rx="6" ry="6" style="stroke:#222222;stroke-width:1;"/><polygon fill="#F1F1F1" points="191.2975,319.668,260.9821,319.668,272.9821,333.5039,260.9821,347.3398,191.2975,347.3398,179.2975,333.5039,191.2975,319.668" style="stroke:#181818;stroke-width:0.5;"/><text fill="#000000" font-family="sans-serif" font-size="11" lengthAdjust="spacing" textLength="17.1177" x="230.1398" y="358.7588">ja</text><text fill="#000000" font-family="sans-serif" font-size="11" lengthAdjust="spacing" textLength="69.6846" x="191.2975" y="331.0869">CircuitBreaker</text><text fill="#000000" font-family="sans-serif" font-size="11" lengthAdjust="spacing" textLength="56.8477" x="191.2975" y="344.9229">INAKTIV?</text><polygon fill="#F1F1F1" points="43.8027,511.3867,98.2227,511.3867,110.2227,525.2227,98.2227,539.0586,43.8027,539.0586,31.8027,525.2227,43.8027,511.3867" style="stroke:#181818;stroke-width:0.5;"/><text fill="#000000" font-family="sans-serif" font-size="11" lengthAdjust="spacing" textLength="17.1177" x="75.0127" y="550.4775">ja</text><text fill="#000000" font-family="sans-serif" font-size="11" lengthAdjust="spacing" textLength="48.3076" x="43.8027" y="522.8057">Idle-Puffer</text><text fill="#000000" font-family="sans-serif" font-size="11" lengthAdjust="spacing" textLength="54.4199" x="43.8027" y="536.6416">nicht leer?</text><rect fill="#F1F1F1" height="50.1875" rx="12.5" ry="12.5" style="stroke:#181818;stroke-width:0.5;" width="120.0254" x="11" y="571.9775"/><text fill="#000000" font-family="sans-serif" font-size="12" lengthAdjust="spacing" textLength="87.3633" x="21" y="594.4346">Ressource aus</text><text fill="#000000" font-family="sans-serif" font-size="12" lengthAdjust="spacing" textLength="100.0254" x="21" y="609.5283">Ringpuffer entnehmen</text><rect fill="#F1F1F1" height="50.1875" rx="12.5" ry="12.5" style="stroke:#181818;stroke-width:0.5;" width="111.3652" x="15.3301" y="748.7666"/><text fill="#000000" font-family="sans-serif" font-size="12" lengthAdjust="spacing" textLength="91.3652" x="25.3301" y="771.2236">Ressource zerst&#246;ren</text><text fill="#000000" font-family="sans-serif" font-size="12" lengthAdjust="spacing" textLength="61.3477" x="25.3301" y="786.3174">(Destruktor)</text><ellipse cx="72.5127" cy="835.4541" fill="#A80036" rx="1.5" ry="1.5" style="stroke:#A80036;stroke-width:1;"/><ellipse cx="227.6398" cy="489.8867" fill="#A80036" rx="1.5" ry="1.5" style="stroke:#A80036;stroke-width:1;"/><line style="stroke:#A80036;stroke-width:1;" x1="71.0127" x2="226.1398" y1="833.9541" y2="833.9541"/><line style="stroke:#A80036;stroke-width:1;" x1="226.1398" x2="226.1398" y1="488.3867" y2="833.9541"/><polygon fill="#F1F1F1" points="36.4631,696.1768,105.5623,696.1768,117.5623,710.0127,105.5623,723.8486,36.4631,723.8486,24.4631,710.0127,36.4631,696.1768" style="stroke:#181818;stroke-width:0.5;"/><text fill="#000000" font-family="sans-serif" font-size="11" lengthAdjust="spacing" textLength="12.2354" x="75.0127" y="735.2676">nein</text><text fill="#000000" font-family="sans-serif" font-size="11" lengthAdjust="spacing" textLength="68.4868" x="36.4631" y="707.5957">beforeAcquire</text><text fill="#000000" font-family="sans-serif" font-size="11" lengthAdjust="spacing" textLength="69.0991" x="36.4631" y="721.4316">gab true zur&#252;ck?</text><text fill="#000000" font-family="sans-serif" font-size="11" lengthAdjust="spacing" textLength="17.1177" x="117.5623" y="707.5957">ja</text><polygon fill="#F1F1F1" points="33.7104,647.2588,108.3149,647.2588,120.3149,659.2588,108.3149,671.2588,33.7104,671.2588,21.7104,659.2588,33.7104,647.2588" style="stroke:#181818;stroke-width:0.5;"/><text fill="#000000" font-family="sans-serif" font-size="11" lengthAdjust="spacing" textLength="14.6738" x="75.0127" y="682.6777">gesetzt</text><text fill="#000000" font-family="sans-serif" font-size="11" lengthAdjust="spacing" textLength="74.6045" x="33.7104" y="663.7598">beforeAcquire?</text><polygon fill="#F1F1F1" points="71.0127,889.79,83.0127,901.79,71.0127,913.79,59.0127,901.79,71.0127,889.79" style="stroke:#181818;stroke-width:0.5;"/><rect fill="#F1F1F1" height="35.0938" rx="12.5" ry="12.5" style="stroke:#181818;stroke-width:0.5;" width="101.3926" x="20.3164" y="947.665"/><text fill="#000000" font-family="sans-serif" font-size="12" lengthAdjust="spacing" textLength="81.3926" x="30.3164" y="970.1221">active_count++</text><rect fill="#F1F1F1" height="35.0938" rx="12.5" ry="12.5" style="stroke:#181818;stroke-width:0.5;" width="101.3691" x="20.3281" y="1002.7588"/><text fill="#000000" font-family="sans-serif" font-size="12" lengthAdjust="spacing" textLength="81.3691" x="30.3281" y="1025.2158">Ressource zur&#252;ckgeben</text><ellipse cx="71.0127" cy="1068.8525" fill="none" rx="11" ry="11" style="stroke:#222222;stroke-width:1;"/><ellipse cx="71.0127" cy="1068.8525" fill="#222222" rx="6" ry="6" style="stroke:#222222;stroke-width:1;"/><polygon fill="#F1F1F1" points="332.8918,511.3867,394.9495,511.3867,406.9495,525.2227,394.9495,539.0586,332.8918,539.0586,320.8918,525.2227,332.8918,511.3867" style="stroke:#181818;stroke-width:0.5;"/><text fill="#000000" font-family="sans-serif" font-size="11" lengthAdjust="spacing" textLength="17.1177" x="367.9207" y="550.4775">ja</text><text fill="#000000" font-family="sans-serif" font-size="11" lengthAdjust="spacing" textLength="58.3945" x="332.8918" y="522.8057">idle + active</text><text fill="#000000" font-family="sans-serif" font-size="11" lengthAdjust="spacing" textLength="62.0576" x="332.8918" y="536.6416">&lt; max_size?</text><rect fill="#F1F1F1" height="35.0938" rx="12.5" ry="12.5" style="stroke:#181818;stroke-width:0.5;" width="80.0176" x="323.9119" y="571.9775"/><text fill="#000000" font-family="sans-serif" font-size="12" lengthAdjust="spacing" textLength="60.0176" x="333.9119" y="594.4346">Factory aufrufen</text><path d="M190.6953,632.165 L190.6953,691.2197 L322.2588,691.2197 L322.2588,642.165 L312.2588,632.165 L190.6953,632.165 " fill="#FEFFDD" style="stroke:#181818;stroke-width:0.5;"/><path d="M312.2588,632.165 L312.2588,642.165 L322.2588,642.165 L312.2588,632.165 " fill="#FEFFDD" style="stroke:#181818;stroke-width:0.5;"/><text fill="#000000" font-family="sans-serif" font-size="13" lengthAdjust="spacing" textLength="91.0127" x="196.6953" y="650.6602">Factory-Fehler &#8212;</text><text fill="#000000" font-family="sans-serif" font-size="13" lengthAdjust="spacing" textLength="49.8672" x="196.6953" y="667.0117">nicht fatal.</text><text fill="#000000" font-family="sans-serif" font-size="13" lengthAdjust="spacing" textLength="110.5635" x="196.6953" y="683.3633">Weiter zum Warten.</text><rect fill="#F1F1F1" height="35.0938" rx="12.5" ry="12.5" style="stroke:#181818;stroke-width:0.5;" width="101.3926" x="313.2244" y="743.8096"/><text fill="#000000" font-family="sans-serif" font-size="12" lengthAdjust="spacing" textLength="81.3926" x="323.2244" y="766.2666">active_count++</text><rect fill="#F1F1F1" height="35.0938" rx="12.5" ry="12.5" style="stroke:#181818;stroke-width:0.5;" width="101.3691" x="313.2361" y="813.9033"/><text fill="#000000" font-family="sans-serif" font-size="12" lengthAdjust="spacing" textLength="81.3691" x="323.2361" y="836.3604">Ressource zur&#252;ckgeben</text><ellipse cx="363.9207" cy="894.9971" fill="none" rx="11" ry="11" style="stroke:#222222;stroke-width:1;"/><ellipse cx="363.9207" cy="894.9971" fill="#222222" rx="6" ry="6" style="stroke:#222222;stroke-width:1;"/><polygon fill="#F1F1F1" points="334.2588,691.2197,393.5825,691.2197,405.5825,705.0557,393.5825,718.8916,334.2588,718.8916,322.2588,705.0557,334.2588,691.2197" style="stroke:#181818;stroke-width:0.5;"/><text fill="#000000" font-family="sans-serif" font-size="11" lengthAdjust="spacing" textLength="17.1177" x="367.9207" y="730.3105">ja</text><text fill="#000000" font-family="sans-serif" font-size="11" lengthAdjust="spacing" textLength="36.6738" x="334.2588" y="702.6387">Factory</text><text fill="#000000" font-family="sans-serif" font-size="11" lengthAdjust="spacing" textLength="59.3237" x="334.2588" y="716.4746">erfolgreich?</text><text fill="#000000" font-family="sans-serif" font-size="11" lengthAdjust="spacing" textLength="12.2354" x="405.5825" y="702.6387">nein</text><path d="M322.506,1109.8525 L322.506,1151.7314 L302.506,1155.7314 L322.506,1159.7314 L322.506,1201.6104 A0,0 0 0 0 322.506,1201.6104 L524.1031,1201.6104 A0,0 0 0 0 524.1031,1201.6104 L524.1031,1119.8525 L514.1031,1109.8525 L322.506,1109.8525 A0,0 0 0 0 322.506,1109.8525 " fill="#FEFFDD" style="stroke:#181818;stroke-width:0.5;"/><path d="M514.1031,1109.8525 L514.1031,1119.8525 L524.1031,1119.8525 L514.1031,1109.8525 " fill="#FEFFDD" style="stroke:#181818;stroke-width:0.5;"/><text fill="#000000" font-family="sans-serif" font-size="13" lengthAdjust="spacing" textLength="91.7617" x="328.506" y="1128.3477">1. Waiter erstellen</text><text fill="#000000" font-family="sans-serif" font-size="13" lengthAdjust="spacing" textLength="125.0171" x="328.506" y="1144.6992">2. Zur FIFO-Warteschlange hinzuf.</text><text fill="#000000" font-family="sans-serif" font-size="13" lengthAdjust="spacing" textLength="149.9189" x="328.506" y="1161.0508">3. Timeout registrieren (falls &gt; 0)</text><text fill="#000000" font-family="sans-serif" font-size="13" lengthAdjust="spacing" textLength="180.5972" x="328.506" y="1177.4023">4. ZEND_ASYNC_SUSPEND()</text><text fill="#000000" font-family="sans-serif" font-size="13" lengthAdjust="spacing" textLength="151.0425" x="328.506" y="1193.7539">5. Coroutine wird suspendiert</text><rect fill="#F1F1F1" height="35.0938" rx="12.5" ry="12.5" style="stroke:#181818;stroke-width:0.5;" width="152.7324" x="149.7736" y="1138.1846"/><text fill="#000000" font-family="sans-serif" font-size="12" lengthAdjust="spacing" textLength="132.7324" x="159.7736" y="1160.6416">pool_wait_for_resource()</text><rect fill="#F1F1F1" height="35.0938" rx="12.5" ry="12.5" style="stroke:#181818;stroke-width:0.5;" width="122.0527" x="165.1134" y="1221.6104"/><text fill="#000000" font-family="sans-serif" font-size="12" lengthAdjust="spacing" textLength="102.0527" x="175.1134" y="1244.0674">Coroutine fortgesetzt</text><ellipse cx="227.6398" cy="1278.2041" fill="#A80036" rx="1.5" ry="1.5" style="stroke:#A80036;stroke-width:1;"/><ellipse cx="227.6398" cy="489.8867" fill="#A80036" rx="1.5" ry="1.5" style="stroke:#A80036;stroke-width:1;"/><line style="stroke:#A80036;stroke-width:1;" x1="226.1398" x2="226.1398" y1="1276.7041" y2="1276.7041"/><line style="stroke:#A80036;stroke-width:1;" x1="226.1398" x2="226.1398" y1="488.3867" y2="1276.7041"/><line style="stroke:#181818;stroke-width:1;" x1="226.1398" x2="226.1398" y1="68.6094" y2="88.6094"/><polygon fill="#181818" points="222.1398,78.6094,226.1398,88.6094,230.1398,78.6094,226.1398,82.6094" style="stroke:#181818;stroke-width:1;"/><line style="stroke:#181818;stroke-width:1;" x1="226.1398" x2="226.1398" y1="227.7148" y2="255.668"/><polygon fill="#181818" points="222.1398,245.668,226.1398,255.668,230.1398,245.668,226.1398,249.668" style="stroke:#181818;stroke-width:1;"/><line style="stroke:#181818;stroke-width:1;" x1="226.1398" x2="226.1398" y1="167.7031" y2="192.6211"/><polygon fill="#181818" points="222.1398,182.6211,226.1398,192.6211,230.1398,182.6211,226.1398,186.6211" style="stroke:#181818;stroke-width:1;"/><line style="stroke:#181818;stroke-width:1;" x1="269.6332" x2="300.837" y1="155.7031" y2="155.7031"/><polygon fill="#181818" points="296.837,225.668,300.837,235.668,304.837,225.668,300.837,229.668" style="stroke:#181818;stroke-width:1;"/><line style="stroke:#181818;stroke-width:1;" x1="300.837" x2="300.837" y1="155.7031" y2="299.668"/><line style="stroke:#181818;stroke-width:1;" x1="300.837" x2="226.1398" y1="299.668" y2="299.668"/><line style="stroke:#181818;stroke-width:1;" x1="226.1398" x2="226.1398" y1="299.668" y2="319.668"/><polygon fill="#181818" points="222.1398,309.668,226.1398,319.668,230.1398,309.668,226.1398,313.668" style="stroke:#181818;stroke-width:1;"/><line style="stroke:#181818;stroke-width:1;" x1="226.1398" x2="226.1398" y1="123.7031" y2="143.7031"/><polygon fill="#181818" points="222.1398,133.7031,226.1398,143.7031,230.1398,133.7031,226.1398,137.7031" style="stroke:#181818;stroke-width:1;"/><line style="stroke:#181818;stroke-width:1;" x1="226.1398" x2="226.1398" y1="407.3516" y2="434.3867"/><polygon fill="#181818" points="222.1398,424.3867,226.1398,434.3867,230.1398,424.3867,226.1398,428.3867" style="stroke:#181818;stroke-width:1;"/><line style="stroke:#181818;stroke-width:1;" x1="226.1398" x2="226.1398" y1="347.3398" y2="372.2578"/><polygon fill="#181818" points="222.1398,362.2578,226.1398,372.2578,230.1398,362.2578,226.1398,366.2578" style="stroke:#181818;stroke-width:1;"/><line style="stroke:#181818;stroke-width:1;" x1="272.9821" x2="340.1886" y1="333.5039" y2="333.5039"/><polygon fill="#181818" points="336.1886,404.3867,340.1886,414.3867,344.1886,404.3867,340.1886,408.3867" style="stroke:#181818;stroke-width:1;"/><line style="stroke:#181818;stroke-width:1;" x1="340.1886" x2="340.1886" y1="333.5039" y2="478.3867"/><line style="stroke:#181818;stroke-width:1;" x1="340.1886" x2="226.1398" y1="478.3867" y2="478.3867"/><line style="stroke:#181818;stroke-width:1;" x1="226.1398" x2="226.1398" y1="478.3867" y2="496.3867"/><line style="stroke:#181818;stroke-width:1;" x1="71.0127" x2="71.0127" y1="798.9541" y2="833.9541"/><polygon fill="#181818" points="67.0127,823.9541,71.0127,833.9541,75.0127,823.9541,71.0127,827.9541" style="stroke:#181818;stroke-width:1;"/><line style="stroke:#181818;stroke-width:1;" x1="71.0127" x2="71.0127" y1="723.8486" y2="748.7666"/><polygon fill="#181818" points="67.0127,738.7666,71.0127,748.7666,75.0127,738.7666,71.0127,742.7666" style="stroke:#181818;stroke-width:1;"/><line style="stroke:#181818;stroke-width:1;" x1="117.5623" x2="136.6953" y1="710.0127" y2="710.0127"/><polygon fill="#181818" points="132.6953,777.4424,136.6953,787.4424,140.6953,777.4424,136.6953,781.4424" style="stroke:#181818;stroke-width:1;"/><line style="stroke:#181818;stroke-width:1;" x1="136.6953" x2="136.6953" y1="710.0127" y2="864.8721"/><line style="stroke:#181818;stroke-width:1;" x1="136.6953" x2="71.0127" y1="864.8721" y2="864.8721"/><line style="stroke:#181818;stroke-width:1;" x1="71.0127" x2="71.0127" y1="864.8721" y2="889.79"/><polygon fill="#181818" points="67.0127,879.79,71.0127,889.79,75.0127,879.79,71.0127,883.79" style="stroke:#181818;stroke-width:1;"/><line style="stroke:#181818;stroke-width:1;" x1="71.0127" x2="71.0127" y1="671.2588" y2="696.1768"/><polygon fill="#181818" points="67.0127,686.1768,71.0127,696.1768,75.0127,686.1768,71.0127,690.1768" style="stroke:#181818;stroke-width:1;"/><line style="stroke:#181818;stroke-width:1;" x1="120.3149" x2="158.6953" y1="659.2588" y2="659.2588"/><polygon fill="#181818" points="154.6953,770.5244,158.6953,780.5244,162.6953,770.5244,158.6953,774.5244" style="stroke:#181818;stroke-width:1;"/><line style="stroke:#181818;stroke-width:1;" x1="158.6953" x2="158.6953" y1="659.2588" y2="901.79"/><line style="stroke:#181818;stroke-width:1;" x1="158.6953" x2="83.0127" y1="901.79" y2="901.79"/><polygon fill="#181818" points="93.0127,897.79,83.0127,901.79,93.0127,905.79,89.0127,901.79" style="stroke:#181818;stroke-width:1;"/><line style="stroke:#181818;stroke-width:1;" x1="71.0127" x2="71.0127" y1="622.165" y2="647.2588"/><polygon fill="#181818" points="67.0127,637.2588,71.0127,647.2588,75.0127,637.2588,71.0127,641.2588" style="stroke:#181818;stroke-width:1;"/><line style="stroke:#181818;stroke-width:1;" x1="71.0127" x2="71.0127" y1="913.79" y2="947.665"/><polygon fill="#181818" points="67.0127,937.665,71.0127,947.665,75.0127,937.665,71.0127,941.665" style="stroke:#181818;stroke-width:1;"/><line style="stroke:#181818;stroke-width:1;" x1="71.0127" x2="71.0127" y1="982.7588" y2="1002.7588"/><polygon fill="#181818" points="67.0127,992.7588,71.0127,1002.7588,75.0127,992.7588,71.0127,996.7588" style="stroke:#181818;stroke-width:1;"/><line style="stroke:#181818;stroke-width:1;" x1="71.0127" x2="71.0127" y1="1037.8525" y2="1057.8525"/><polygon fill="#181818" points="67.0127,1047.8525,71.0127,1057.8525,75.0127,1047.8525,71.0127,1051.8525" style="stroke:#181818;stroke-width:1;"/><line style="stroke:#181818;stroke-width:1;" x1="363.9207" x2="363.9207" y1="778.9033" y2="813.9033"/><polygon fill="#181818" points="359.9207,803.9033,363.9207,813.9033,367.9207,803.9033,363.9207,807.9033" style="stroke:#181818;stroke-width:1;"/><line style="stroke:#181818;stroke-width:1;" x1="363.9207" x2="363.9207" y1="848.9971" y2="883.9971"/><polygon fill="#181818" points="359.9207,873.9971,363.9207,883.9971,367.9207,873.9971,363.9207,877.9971" style="stroke:#181818;stroke-width:1;"/><line style="stroke:#181818;stroke-width:1;" x1="363.9207" x2="363.9207" y1="718.8916" y2="743.8096"/><polygon fill="#181818" points="359.9207,733.8096,363.9207,743.8096,367.9207,733.8096,363.9207,737.8096" style="stroke:#181818;stroke-width:1;"/><line style="stroke:#181818;stroke-width:1;" x1="405.5825" x2="424.6169" y1="705.0557" y2="705.0557"/><polygon fill="#181818" points="420.6169,810.9854,424.6169,820.9854,428.6169,810.9854,424.6169,814.9854" style="stroke:#181818;stroke-width:1;"/><line style="stroke:#181818;stroke-width:1;" x1="424.6169" x2="424.6169" y1="705.0557" y2="935.79"/><line style="stroke:#181818;stroke-width:1;" x1="424.6169" x2="363.9207" y1="935.79" y2="935.79"/><line style="stroke:#181818;stroke-width:1;" x1="363.9207" x2="363.9207" y1="935.79" y2="1099.8525"/><polygon fill="#181818" points="359.9207,1089.8525,363.9207,1099.8525,367.9207,1089.8525,363.9207,1093.8525" style="stroke:#181818;stroke-width:1;"/><line style="stroke:#181818;stroke-width:1;" x1="363.9207" x2="363.9207" y1="607.0713" y2="691.2197"/><polygon fill="#181818" points="359.9207,681.2197,363.9207,691.2197,367.9207,681.2197,363.9207,685.2197" style="stroke:#181818;stroke-width:1;"/><line style="stroke:#181818;stroke-width:1;" x1="71.0127" x2="71.0127" y1="539.0586" y2="571.9775"/><polygon fill="#181818" points="67.0127,561.9775,71.0127,571.9775,75.0127,561.9775,71.0127,565.9775" style="stroke:#181818;stroke-width:1;"/><line style="stroke:#181818;stroke-width:1;" x1="363.9207" x2="363.9207" y1="539.0586" y2="571.9775"/><polygon fill="#181818" points="359.9207,561.9775,363.9207,571.9775,367.9207,561.9775,363.9207,565.9775" style="stroke:#181818;stroke-width:1;"/><line style="stroke:#181818;stroke-width:1;" x1="110.2227" x2="320.8918" y1="525.2227" y2="525.2227"/><polygon fill="#181818" points="310.8918,521.2227,320.8918,525.2227,310.8918,529.2227,314.8918,525.2227" style="stroke:#181818;stroke-width:1;"/><line style="stroke:#181818;stroke-width:1;" x1="226.1398" x2="71.0127" y1="496.3867" y2="496.3867"/><line style="stroke:#181818;stroke-width:1;" x1="71.0127" x2="71.0127" y1="496.3867" y2="511.3867"/><polygon fill="#181818" points="67.0127,501.3867,71.0127,511.3867,75.0127,501.3867,71.0127,505.3867" style="stroke:#181818;stroke-width:1;"/><line style="stroke:#181818;stroke-width:1;" x1="406.9495" x2="441.9495" y1="525.2227" y2="525.2227"/><line style="stroke:#181818;stroke-width:1;" x1="441.9495" x2="441.9495" y1="525.2227" y2="1099.8525"/><polygon fill="#181818" points="437.9495,1089.8525,441.9495,1099.8525,445.9495,1089.8525,441.9495,1093.8525" style="stroke:#181818;stroke-width:1;"/><line style="stroke:#181818;stroke-width:1;" x1="226.1398" x2="441.9495" y1="1099.8525" y2="1099.8525"/><line style="stroke:#181818;stroke-width:1;" x1="226.1398" x2="226.1398" y1="1099.8525" y2="1138.1846"/><polygon fill="#181818" points="222.1398,1128.1846,226.1398,1138.1846,230.1398,1128.1846,226.1398,1132.1846" style="stroke:#181818;stroke-width:1;"/><line style="stroke:#181818;stroke-width:1;" x1="226.1398" x2="226.1398" y1="1173.2783" y2="1221.6104"/><polygon fill="#181818" points="222.1398,1211.6104,226.1398,1221.6104,230.1398,1211.6104,226.1398,1215.6104" style="stroke:#181818;stroke-width:1;"/><line style="stroke:#181818;stroke-width:1;" x1="226.1398" x2="226.1398" y1="1256.7041" y2="1276.7041"/><polygon fill="#181818" points="222.1398,1266.7041,226.1398,1276.7041,230.1398,1266.7041,226.1398,1270.7041" style="stroke:#181818;stroke-width:1;"/></g></svg>