<svg xmlns="http://www.w3.org/2000/svg" xmlns:xlink="http://www.w3.org/1999/xlink" contentStyleType="text/css" height="604px" preserveAspectRatio="none" style="width:387px;height:604px;background:#FFFFFF;" version="1.1" viewBox="0 0 387 604" width="387px" zoomAndPan="magnify"><title>Resource Lifecycle</title><defs/><g><text fill="#000000" font-family="sans-serif" font-size="14" font-weight="bold" lengthAdjust="spacing" textLength="127.6201" x="128.4548" y="34.5332">Resource Lifecycle</text><ellipse cx="172.0719" cy="58.6094" fill="#222222" rx="10" ry="10" style="stroke:#222222;stroke-width:1;"/><rect fill="#F1F1F1" height="35.0938" rx="12.5" ry="12.5" style="stroke:#181818;stroke-width:0.5;" width="67.3496" x="138.3971" y="88.6094"/><text fill="#000000" font-family="sans-serif" font-size="12" lengthAdjust="spacing" textLength="47.3496" x="148.3971" y="111.0664">acquire()</text><polygon fill="#F1F1F1" points="112.152,143.7031,231.9918,143.7031,243.9918,155.7031,231.9918,167.7031,112.152,167.7031,100.152,155.7031,112.152,143.7031" style="stroke:#181818;stroke-width:0.5;"/><text fill="#000000" font-family="sans-serif" font-size="11" lengthAdjust="spacing" textLength="119.8398" x="112.152" y="160.2041">Is there a free resource?</text><text fill="#000000" font-family="sans-serif" font-size="11" lengthAdjust="spacing" textLength="17.1177" x="83.0343" y="153.2861">yes</text><text fill="#000000" font-family="sans-serif" font-size="11" lengthAdjust="spacing" textLength="12.2354" x="243.9918" y="153.2861">no</text><rect fill="#F1F1F1" height="35.0938" rx="12.5" ry="12.5" style="stroke:#181818;stroke-width:0.5;" width="130.0449" x="11" y="177.7031"/><text fill="#000000" font-family="sans-serif" font-size="12" lengthAdjust="spacing" textLength="110.0449" x="21" y="200.1602">Take from idle buffer</text><polygon fill="#F1F1F1" points="233.7275,177.7031,302.5151,177.7031,314.5151,189.7031,302.5151,201.7031,233.7275,201.7031,221.7275,189.7031,233.7275,177.7031" style="stroke:#181818;stroke-width:0.5;"/><text fill="#000000" font-family="sans-serif" font-size="11" lengthAdjust="spacing" textLength="68.7876" x="233.7275" y="194.2041">Count &lt; max?</text><text fill="#000000" font-family="sans-serif" font-size="11" lengthAdjust="spacing" textLength="17.1177" x="204.6099" y="187.2861">yes</text><text fill="#000000" font-family="sans-serif" font-size="11" lengthAdjust="spacing" textLength="12.2354" x="314.5151" y="187.2861">no</text><rect fill="#F1F1F1" height="50.1875" rx="12.5" ry="12.5" style="stroke:#181818;stroke-width:0.5;" width="81.3652" x="171.0449" y="211.7031"/><text fill="#000000" font-family="sans-serif" font-size="12" lengthAdjust="spacing" textLength="61.3652" x="181.0449" y="234.1602">Create new</text><text fill="#000000" font-family="sans-serif" font-size="12" lengthAdjust="spacing" textLength="44.0039" x="181.0449" y="249.2539">(factory)</text><rect fill="#F1F1F1" height="35.0938" rx="12.5" ry="12.5" style="stroke:#181818;stroke-width:0.5;" width="104.0293" x="272.5005" y="211.7031"/><text fill="#000000" font-family="sans-serif" font-size="12" lengthAdjust="spacing" textLength="84.0293" x="282.5005" y="234.1602">Wait for release</text><polygon fill="#F1F1F1" points="268.1213,267.8906,280.1213,279.8906,268.1213,291.8906,256.1213,279.8906,268.1213,267.8906" style="stroke:#181818;stroke-width:0.5;"/><polygon fill="#F1F1F1" points="172.0719,297.8906,184.0719,309.8906,172.0719,321.8906,160.0719,309.8906,172.0719,297.8906" style="stroke:#181818;stroke-width:0.5;"/><rect fill="#F1F1F1" height="35.0938" rx="12.5" ry="12.5" style="stroke:#181818;stroke-width:0.5;" width="54.6875" x="144.7281" y="341.8906"/><text fill="#000000" font-family="sans-serif" font-size="12" lengthAdjust="spacing" textLength="34.6875" x="154.7281" y="364.3477">Usage</text><rect fill="#F1F1F1" height="35.0938" rx="12.5" ry="12.5" style="stroke:#181818;stroke-width:0.5;" width="67.3496" x="138.3971" y="396.9844"/><text fill="#000000" font-family="sans-serif" font-size="12" lengthAdjust="spacing" textLength="47.3496" x="148.3971" y="419.4414">release()</text><polygon fill="#F1F1F1" points="105.1078,452.0781,239.036,452.0781,251.036,464.0781,239.036,476.0781,105.1078,476.0781,93.1078,464.0781,105.1078,452.0781" style="stroke:#181818;stroke-width:0.5;"/><text fill="#000000" font-family="sans-serif" font-size="11" lengthAdjust="spacing" textLength="133.9282" x="105.1078" y="468.5791">beforeRelease succeeded?</text><text fill="#000000" font-family="sans-serif" font-size="11" lengthAdjust="spacing" textLength="17.1177" x="75.9901" y="461.6611">yes</text><text fill="#000000" font-family="sans-serif" font-size="11" lengthAdjust="spacing" textLength="12.2354" x="251.036" y="461.6611">no</text><rect fill="#F1F1F1" height="35.0938" rx="12.5" ry="12.5" style="stroke:#181818;stroke-width:0.5;" width="125.3926" x="20.4115" y="486.0781"/><text fill="#000000" font-family="sans-serif" font-size="12" lengthAdjust="spacing" textLength="105.3926" x="30.4115" y="508.5352">Return to idle buffer</text><rect fill="#F1F1F1" height="35.0938" rx="12.5" ry="12.5" style="stroke:#181818;stroke-width:0.5;" width="126.0254" x="198.0233" y="486.0781"/><text fill="#000000" font-family="sans-serif" font-size="12" lengthAdjust="spacing" textLength="106.0254" x="208.0233" y="508.5352">Destroy (destructor)</text><polygon fill="#F1F1F1" points="172.0719,527.1719,184.0719,539.1719,172.0719,551.1719,160.0719,539.1719,172.0719,527.1719" style="stroke:#181818;stroke-width:0.5;"/><ellipse cx="172.0719" cy="582.1719" fill="none" rx="11" ry="11" style="stroke:#222222;stroke-width:1;"/><ellipse cx="172.0719" cy="582.1719" fill="#222222" rx="6" ry="6" style="stroke:#222222;stroke-width:1;"/><line style="stroke:#181818;stroke-width:1;" x1="172.0719" x2="172.0719" y1="68.6094" y2="88.6094"/><polygon fill="#181818" points="168.0719,78.6094,172.0719,88.6094,176.0719,78.6094,172.0719,82.6094" style="stroke:#181818;stroke-width:1;"/><line style="stroke:#181818;stroke-width:1;" x1="221.7275" x2="211.7275" y1="189.7031" y2="189.7031"/><line style="stroke:#181818;stroke-width:1;" x1="211.7275" x2="211.7275" y1="189.7031" y2="211.7031"/><polygon fill="#181818" points="207.7275,201.7031,211.7275,211.7031,215.7275,201.7031,211.7275,205.7031" style="stroke:#181818;stroke-width:1;"/><line style="stroke:#181818;stroke-width:1;" x1="314.5151" x2="324.5151" y1="189.7031" y2="189.7031"/><line style="stroke:#181818;stroke-width:1;" x1="324.5151" x2="324.5151" y1="189.7031" y2="211.7031"/><polygon fill="#181818" points="320.5151,201.7031,324.5151,211.7031,328.5151,201.7031,324.5151,205.7031" style="stroke:#181818;stroke-width:1;"/><line style="stroke:#181818;stroke-width:1;" x1="211.7275" x2="211.7275" y1="261.8906" y2="279.8906"/><line style="stroke:#181818;stroke-width:1;" x1="211.7275" x2="256.1213" y1="279.8906" y2="279.8906"/><polygon fill="#181818" points="246.1213,275.8906,256.1213,279.8906,246.1213,283.8906,250.1213,279.8906" style="stroke:#181818;stroke-width:1;"/><line style="stroke:#181818;stroke-width:1;" x1="324.5151" x2="324.5151" y1="246.7969" y2="279.8906"/><line style="stroke:#181818;stroke-width:1;" x1="324.5151" x2="280.1213" y1="279.8906" y2="279.8906"/><polygon fill="#181818" points="290.1213,275.8906,280.1213,279.8906,290.1213,283.8906,286.1213,279.8906" style="stroke:#181818;stroke-width:1;"/><line style="stroke:#181818;stroke-width:1;" x1="100.152" x2="76.0225" y1="155.7031" y2="155.7031"/><line style="stroke:#181818;stroke-width:1;" x1="76.0225" x2="76.0225" y1="155.7031" y2="177.7031"/><polygon fill="#181818" points="72.0225,167.7031,76.0225,177.7031,80.0225,167.7031,76.0225,171.7031" style="stroke:#181818;stroke-width:1;"/><line style="stroke:#181818;stroke-width:1;" x1="243.9918" x2="268.1213" y1="155.7031" y2="155.7031"/><line style="stroke:#181818;stroke-width:1;" x1="268.1213" x2="268.1213" y1="155.7031" y2="177.7031"/><polygon fill="#181818" points="264.1213,167.7031,268.1213,177.7031,272.1213,167.7031,268.1213,171.7031" style="stroke:#181818;stroke-width:1;"/><line style="stroke:#181818;stroke-width:1;" x1="76.0225" x2="76.0225" y1="212.7969" y2="309.8906"/><line style="stroke:#181818;stroke-width:1;" x1="76.0225" x2="160.0719" y1="309.8906" y2="309.8906"/><polygon fill="#181818" points="150.0719,305.8906,160.0719,309.8906,150.0719,313.8906,154.0719,309.8906" style="stroke:#181818;stroke-width:1;"/><line style="stroke:#181818;stroke-width:1;" x1="268.1213" x2="268.1213" y1="291.8906" y2="309.8906"/><line style="stroke:#181818;stroke-width:1;" x1="268.1213" x2="184.0719" y1="309.8906" y2="309.8906"/><polygon fill="#181818" points="194.0719,305.8906,184.0719,309.8906,194.0719,313.8906,190.0719,309.8906" style="stroke:#181818;stroke-width:1;"/><line style="stroke:#181818;stroke-width:1;" x1="172.0719" x2="172.0719" y1="123.7031" y2="143.7031"/><polygon fill="#181818" points="168.0719,133.7031,172.0719,143.7031,176.0719,133.7031,172.0719,137.7031" style="stroke:#181818;stroke-width:1;"/><line style="stroke:#181818;stroke-width:1;" x1="172.0719" x2="172.0719" y1="321.8906" y2="341.8906"/><polygon fill="#181818" points="168.0719,331.8906,172.0719,341.8906,176.0719,331.8906,172.0719,335.8906" style="stroke:#181818;stroke-width:1;"/><line style="stroke:#181818;stroke-width:1;" x1="172.0719" x2="172.0719" y1="376.9844" y2="396.9844"/><polygon fill="#181818" points="168.0719,386.9844,172.0719,396.9844,176.0719,386.9844,172.0719,390.9844" style="stroke:#181818;stroke-width:1;"/><line style="stroke:#181818;stroke-width:1;" x1="93.1078" x2="83.1078" y1="464.0781" y2="464.0781"/><line style="stroke:#181818;stroke-width:1;" x1="83.1078" x2="83.1078" y1="464.0781" y2="486.0781"/><polygon fill="#181818" points="79.1078,476.0781,83.1078,486.0781,87.1078,476.0781,83.1078,480.0781" style="stroke:#181818;stroke-width:1;"/><line style="stroke:#181818;stroke-width:1;" x1="251.036" x2="261.036" y1="464.0781" y2="464.0781"/><line style="stroke:#181818;stroke-width:1;" x1="261.036" x2="261.036" y1="464.0781" y2="486.0781"/><polygon fill="#181818" points="257.036,476.0781,261.036,486.0781,265.036,476.0781,261.036,480.0781" style="stroke:#181818;stroke-width:1;"/><line style="stroke:#181818;stroke-width:1;" x1="83.1078" x2="83.1078" y1="521.1719" y2="539.1719"/><line style="stroke:#181818;stroke-width:1;" x1="83.1078" x2="160.0719" y1="539.1719" y2="539.1719"/><polygon fill="#181818" points="150.0719,535.1719,160.0719,539.1719,150.0719,543.1719,154.0719,539.1719" style="stroke:#181818;stroke-width:1;"/><line style="stroke:#181818;stroke-width:1;" x1="261.036" x2="261.036" y1="521.1719" y2="539.1719"/><line style="stroke:#181818;stroke-width:1;" x1="261.036" x2="184.0719" y1="539.1719" y2="539.1719"/><polygon fill="#181818" points="194.0719,535.1719,184.0719,539.1719,194.0719,543.1719,190.0719,539.1719" style="stroke:#181818;stroke-width:1;"/><line style="stroke:#181818;stroke-width:1;" x1="172.0719" x2="172.0719" y1="432.0781" y2="452.0781"/><polygon fill="#181818" points="168.0719,442.0781,172.0719,452.0781,176.0719,442.0781,172.0719,446.0781" style="stroke:#181818;stroke-width:1;"/><line style="stroke:#181818;stroke-width:1;" x1="172.0719" x2="172.0719" y1="551.1719" y2="571.1719"/><polygon fill="#181818" points="168.0719,561.1719,172.0719,571.1719,176.0719,561.1719,172.0719,565.1719" style="stroke:#181818;stroke-width:1;"/><!--SRC=[VO-nJWGn34HxVuNBx2_aa2YE1ebg1QAXoIKJYDXBm744-_Sajoia12A55TdFunbDke1drDB4W-zIX5_z0gAgJfJ8El_Uai1C1w8KsTnMrXS8s74KW6NVlPv6FxDPKIVY_kozUqM7ofbJw5TEBKR8WR1KiCbbeuRciRIiVCLdz_bRvY9r53W5PtmyPHETro9hTpHcF-KkzADBoh58DxV0LUnW3YdILia-LFVS1sHtvZlW2NqJyzRbshm70i8V-MPeaynQ_ijdRr1LoiecZ4yRrlkftKRLyaPV]--></g></svg>