<svg xmlns="http://www.w3.org/2000/svg" xmlns:xlink="http://www.w3.org/1999/xlink" contentStyleType="text/css" height="594px" preserveAspectRatio="none" style="width:327px;height:594px;background:#FFFFFF;" version="1.1" viewBox="0 0 327 594" width="327px" zoomAndPan="magnify"><title>Healthcheck &#8212; Verificacion periodica</title><defs/><g><text fill="#000000" font-family="sans-serif" font-size="14" font-weight="bold" lengthAdjust="spacing" textLength="240.0713" x="42.0073" y="34.5332">Healthcheck &#8212; Verificacion periodica</text><ellipse cx="145.8711" cy="58.6094" fill="#222222" rx="10" ry="10" style="stroke:#222222;stroke-width:1;"/><rect fill="#F1F1F1" height="35.0938" rx="12.5" ry="12.5" style="stroke:#181818;stroke-width:0.5;" width="77.3398" x="107.2012" y="88.6094"/><text fill="#000000" font-family="sans-serif" font-size="12" lengthAdjust="spacing" textLength="57.3398" x="117.2012" y="111.0664">Temporizador disparado</text><rect fill="#F1F1F1" height="35.0938" rx="12.5" ry="12.5" style="stroke:#181818;stroke-width:0.5;" width="107.3633" x="92.1895" y="209.2109"/><text fill="#000000" font-family="sans-serif" font-size="12" lengthAdjust="spacing" textLength="87.3633" x="102.1895" y="231.668">Extraer recurso</text><polygon fill="#F1F1F1" points="111.3215,264.3047,180.4207,264.3047,192.4207,278.1406,180.4207,291.9766,111.3215,291.9766,99.3215,278.1406,111.3215,264.3047" style="stroke:#181818;stroke-width:0.5;"/><text fill="#000000" font-family="sans-serif" font-size="11" lengthAdjust="spacing" textLength="66.0322" x="111.3215" y="275.7236">healthcheck()</text><text fill="#000000" font-family="sans-serif" font-size="11" lengthAdjust="spacing" textLength="69.0991" x="111.3215" y="289.5596">devolvio true?</text><text fill="#000000" font-family="sans-serif" font-size="11" lengthAdjust="spacing" textLength="17.1177" x="82.2039" y="275.7236">si</text><text fill="#000000" font-family="sans-serif" font-size="11" lengthAdjust="spacing" textLength="12.2354" x="192.4207" y="275.7236">no</text><rect fill="#F1F1F1" height="50.1875" rx="12.5" ry="12.5" style="stroke:#181818;stroke-width:0.5;" width="72.6992" x="45" y="301.9766"/><text fill="#000000" font-family="sans-serif" font-size="12" lengthAdjust="spacing" textLength="49.3594" x="55" y="324.4336">Return to</text><text fill="#000000" font-family="sans-serif" font-size="12" lengthAdjust="spacing" textLength="52.6992" x="55" y="339.5273">idle buffer</text><rect fill="#F1F1F1" height="50.1875" rx="12.5" ry="12.5" style="stroke:#181818;stroke-width:0.5;" width="81.3477" x="169.7188" y="301.9766"/><text fill="#000000" font-family="sans-serif" font-size="12" lengthAdjust="spacing" textLength="41.3438" x="179.7188" y="324.4336">Destruir</text><text fill="#000000" font-family="sans-serif" font-size="12" lengthAdjust="spacing" textLength="61.3477" x="179.7188" y="339.5273">(destructor)</text><rect fill="#F1F1F1" height="50.1875" rx="12.5" ry="12.5" style="stroke:#181818;stroke-width:0.5;" width="125.3867" x="147.6992" y="436.082"/><text fill="#000000" font-family="sans-serif" font-size="12" lengthAdjust="spacing" textLength="105.3867" x="157.6992" y="458.5391">Create replacement</text><text fill="#000000" font-family="sans-serif" font-size="12" lengthAdjust="spacing" textLength="44.0039" x="157.6992" y="473.6328">(factory)</text><polygon fill="#F1F1F1" points="179.9761,387.1641,240.8091,387.1641,252.8091,399.1641,240.8091,411.1641,179.9761,411.1641,167.9761,399.1641,179.9761,387.1641" style="stroke:#181818;stroke-width:0.5;"/><text fill="#000000" font-family="sans-serif" font-size="11" lengthAdjust="spacing" textLength="17.1177" x="214.3926" y="422.583">si</text><text fill="#000000" font-family="sans-serif" font-size="11" lengthAdjust="spacing" textLength="60.833" x="179.9761" y="403.665">Total &lt; min?</text><polygon fill="#F1F1F1" points="210.3926,506.2695,222.3926,518.2695,210.3926,530.2695,198.3926,518.2695,210.3926,506.2695" style="stroke:#181818;stroke-width:0.5;"/><polygon fill="#F1F1F1" points="145.8711,536.2695,157.8711,548.2695,145.8711,560.2695,133.8711,548.2695,145.8711,536.2695" style="stroke:#181818;stroke-width:0.5;"/><polygon fill="#F1F1F1" points="106.7454,143.7031,184.9968,143.7031,196.9968,157.5391,184.9968,171.375,106.7454,171.375,94.7454,157.5391,106.7454,143.7031" style="stroke:#181818;stroke-width:0.5;"/><text fill="#000000" font-family="sans-serif" font-size="11" lengthAdjust="spacing" textLength="17.1177" x="149.8711" y="182.7939">si</text><text fill="#000000" font-family="sans-serif" font-size="11" lengthAdjust="spacing" textLength="78.2515" x="106.7454" y="155.1221">Resources exist</text><text fill="#000000" font-family="sans-serif" font-size="11" lengthAdjust="spacing" textLength="66.043" x="106.7454" y="168.958">in idle buffer?</text><text fill="#000000" font-family="sans-serif" font-size="11" lengthAdjust="spacing" textLength="12.2354" x="82.51" y="155.1221">no</text><ellipse cx="24" cy="202.7031" fill="none" rx="11" ry="11" style="stroke:#222222;stroke-width:1;"/><ellipse cx="24" cy="202.7031" fill="#222222" rx="6" ry="6" style="stroke:#222222;stroke-width:1;"/><line style="stroke:#181818;stroke-width:1;" x1="145.8711" x2="145.8711" y1="68.6094" y2="88.6094"/><polygon fill="#181818" points="141.8711,78.6094,145.8711,88.6094,149.8711,78.6094,145.8711,82.6094" style="stroke:#181818;stroke-width:1;"/><line style="stroke:#181818;stroke-width:1;" x1="210.3926" x2="210.3926" y1="411.1641" y2="436.082"/><polygon fill="#181818" points="206.3926,426.082,210.3926,436.082,214.3926,426.082,210.3926,430.082" style="stroke:#181818;stroke-width:1;"/><line style="stroke:#181818;stroke-width:1;" x1="252.8091" x2="283.0859" y1="399.1641" y2="399.1641"/><polygon fill="#181818" points="279.0859,451.1758,283.0859,461.1758,287.0859,451.1758,283.0859,455.1758" style="stroke:#181818;stroke-width:1;"/><line style="stroke:#181818;stroke-width:1;" x1="283.0859" x2="283.0859" y1="399.1641" y2="518.2695"/><line style="stroke:#181818;stroke-width:1;" x1="283.0859" x2="222.3926" y1="518.2695" y2="518.2695"/><polygon fill="#181818" points="232.3926,514.2695,222.3926,518.2695,232.3926,522.2695,228.3926,518.2695" style="stroke:#181818;stroke-width:1;"/><line style="stroke:#181818;stroke-width:1;" x1="210.3926" x2="210.3926" y1="486.2695" y2="506.2695"/><polygon fill="#181818" points="206.3926,496.2695,210.3926,506.2695,214.3926,496.2695,210.3926,500.2695" style="stroke:#181818;stroke-width:1;"/><line style="stroke:#181818;stroke-width:1;" x1="210.3926" x2="210.3926" y1="352.1641" y2="387.1641"/><polygon fill="#181818" points="206.3926,377.1641,210.3926,387.1641,214.3926,377.1641,210.3926,381.1641" style="stroke:#181818;stroke-width:1;"/><line style="stroke:#181818;stroke-width:1;" x1="99.3215" x2="81.3496" y1="278.1406" y2="278.1406"/><line style="stroke:#181818;stroke-width:1;" x1="81.3496" x2="81.3496" y1="278.1406" y2="301.9766"/><polygon fill="#181818" points="77.3496,291.9766,81.3496,301.9766,85.3496,291.9766,81.3496,295.9766" style="stroke:#181818;stroke-width:1;"/><line style="stroke:#181818;stroke-width:1;" x1="192.4207" x2="210.3926" y1="278.1406" y2="278.1406"/><line style="stroke:#181818;stroke-width:1;" x1="210.3926" x2="210.3926" y1="278.1406" y2="301.9766"/><polygon fill="#181818" points="206.3926,291.9766,210.3926,301.9766,214.3926,291.9766,210.3926,295.9766" style="stroke:#181818;stroke-width:1;"/><line style="stroke:#181818;stroke-width:1;" x1="81.3496" x2="81.3496" y1="352.1641" y2="548.2695"/><line style="stroke:#181818;stroke-width:1;" x1="81.3496" x2="133.8711" y1="548.2695" y2="548.2695"/><polygon fill="#181818" points="123.8711,544.2695,133.8711,548.2695,123.8711,552.2695,127.8711,548.2695" style="stroke:#181818;stroke-width:1;"/><line style="stroke:#181818;stroke-width:1;" x1="210.3926" x2="210.3926" y1="530.2695" y2="548.2695"/><line style="stroke:#181818;stroke-width:1;" x1="210.3926" x2="157.8711" y1="548.2695" y2="548.2695"/><polygon fill="#181818" points="167.8711,544.2695,157.8711,548.2695,167.8711,552.2695,163.8711,548.2695" style="stroke:#181818;stroke-width:1;"/><line style="stroke:#181818;stroke-width:1;" x1="145.8711" x2="145.8711" y1="244.3047" y2="264.3047"/><polygon fill="#181818" points="141.8711,254.3047,145.8711,264.3047,149.8711,254.3047,145.8711,258.3047" style="stroke:#181818;stroke-width:1;"/><line style="stroke:#181818;stroke-width:1;" x1="145.8711" x2="145.8711" y1="171.375" y2="209.2109"/><polygon fill="#181818" points="141.8711,199.2109,145.8711,209.2109,149.8711,199.2109,145.8711,203.2109" style="stroke:#181818;stroke-width:1;"/><line style="stroke:#181818;stroke-width:1;" x1="145.8711" x2="145.8711" y1="560.2695" y2="570.2695"/><line style="stroke:#181818;stroke-width:1;" x1="145.8711" x2="301.0859" y1="570.2695" y2="570.2695"/><polygon fill="#181818" points="297.0859,369.8633,301.0859,359.8633,305.0859,369.8633,301.0859,365.8633" style="stroke:#181818;stroke-width:1;"/><line style="stroke:#181818;stroke-width:1;" x1="301.0859" x2="301.0859" y1="157.5391" y2="570.2695"/><line style="stroke:#181818;stroke-width:1;" x1="301.0859" x2="196.9968" y1="157.5391" y2="157.5391"/><polygon fill="#181818" points="206.9968,153.5391,196.9968,157.5391,206.9968,161.5391,202.9968,157.5391" style="stroke:#181818;stroke-width:1;"/><line style="stroke:#181818;stroke-width:1;" x1="94.7454" x2="24" y1="157.5391" y2="157.5391"/><line style="stroke:#181818;stroke-width:1;" x1="24" x2="24" y1="157.5391" y2="191.7031"/><polygon fill="#181818" points="20,181.7031,24,191.7031,28,181.7031,24,185.7031" style="stroke:#181818;stroke-width:1;"/><line style="stroke:#181818;stroke-width:1;" x1="145.8711" x2="145.8711" y1="123.7031" y2="143.7031"/><polygon fill="#181818" points="141.8711,133.7031,145.8711,143.7031,149.8711,133.7031,145.8711,137.7031" style="stroke:#181818;stroke-width:1;"/><!--SRC=[RP0nRiCm34LtdOAZV8MuG8UqGCSY23fvKIGA9cfJ0KMZyTP3z8GzIMd3hJDKWq1GN-z_Kaa7X1SCW_Qnn_WEtvzVy8f29L64DoionQ1KsBcgGTIvmvb65CWac5hdFdeoX3zXBPD4h80tgjenCL2obykKCyfZ0rJ1prWR1tOEppUL41La-sUafKyPVB_7yKt7WZe9OmAL2OsZFV8TQQMTLWreCT_Tj5q5E5JBn-LE_eHLfSmT-xHKKzGYpPRWDyMvQ1ZW0KRY_qrNqb4mADeKro54795jSf_30foRza-Bd2YxlR9xszkIopPRhku7]--></g></svg>