<svg xmlns="http://www.w3.org/2000/svg" xmlns:xlink="http://www.w3.org/1999/xlink" contentStyleType="text/css" height="787px" preserveAspectRatio="none" style="width:513px;height:787px;background:#FFFFFF;" version="1.1" viewBox="0 0 513 787" width="513px" zoomAndPan="magnify"><title>Ciclo di Vita dell'Evento</title><defs/><g><text fill="#000000" font-family="sans-serif" font-size="14" font-weight="bold" lengthAdjust="spacing" textLength="101.9375" x="198.8526" y="24.5332">Ciclo di Vita dell'Evento</text><ellipse cx="214.94" cy="54.6094" fill="#222222" rx="10" ry="10" style="stroke:#222222;stroke-width:1;"/><g id="Created"><rect fill="#F1F1F1" height="67.7969" rx="12.5" ry="12.5" style="stroke:#181818;stroke-width:0.5;" width="90.3828" x="169.94" y="142.6094"/><line style="stroke:#181818;stroke-width:0.5;" x1="169.94" x2="260.3228" y1="170.2188" y2="170.2188"/><text fill="#000000" font-family="sans-serif" font-size="14" lengthAdjust="spacing" textLength="49.8066" x="190.2281" y="162.1426">Creato</text><text fill="#000000" font-family="sans-serif" font-size="12" lengthAdjust="spacing" textLength="70.3828" x="174.94" y="187.6758">ref_count = 1</text><text fill="#000000" font-family="sans-serif" font-size="12" lengthAdjust="spacing" textLength="45.6973" x="174.94" y="202.7695">flags = 0</text></g><g id="Active"><rect fill="#F1F1F1" height="67.7969" rx="12.5" ry="12.5" style="stroke:#181818;stroke-width:0.5;" width="137.4219" x="146.44" y="288.6094"/><line style="stroke:#181818;stroke-width:0.5;" x1="146.44" x2="283.8619" y1="316.2188" y2="316.2188"/><text fill="#000000" font-family="sans-serif" font-size="14" lengthAdjust="spacing" textLength="38.124" x="196.0889" y="308.1426">Attivo</text><text fill="#000000" font-family="sans-serif" font-size="12" lengthAdjust="spacing" textLength="99.7441" x="151.44" y="333.6758">loop_ref_count &gt; 0</text><text fill="#000000" font-family="sans-serif" font-size="12" lengthAdjust="spacing" textLength="117.4219" x="151.44" y="348.7695">active_event_count++</text></g><g id="Triggered"><rect fill="#F1F1F1" height="52.7031" rx="12.5" ry="12.5" style="stroke:#181818;stroke-width:0.5;" width="156.1016" x="48.94" y="450.6094"/><line style="stroke:#181818;stroke-width:0.5;" x1="48.94" x2="205.0416" y1="478.2188" y2="478.2188"/><text fill="#000000" font-family="sans-serif" font-size="14" lengthAdjust="spacing" textLength="59.917" x="97.0323" y="470.1426">Attivato</text><text fill="#000000" font-family="sans-serif" font-size="12" lengthAdjust="spacing" textLength="136.1016" x="53.94" y="495.6758">triggered_events aggiornato</text></g><g id="Closed"><rect fill="#F1F1F1" height="67.7969" rx="12.5" ry="12.5" style="stroke:#181818;stroke-width:0.5;" width="151.4082" x="138.44" y="597.6094"/><line style="stroke:#181818;stroke-width:0.5;" x1="138.44" x2="289.8482" y1="625.2188" y2="625.2188"/><text fill="#000000" font-family="sans-serif" font-size="14" lengthAdjust="spacing" textLength="43.5791" x="192.3546" y="617.1426">Chiuso</text><text fill="#000000" font-family="sans-serif" font-size="12" lengthAdjust="spacing" textLength="105.4922" x="143.44" y="642.6758">flags |= F_CLOSED</text><text fill="#000000" font-family="sans-serif" font-size="12" lengthAdjust="spacing" textLength="131.4082" x="143.44" y="657.7695">sottoscrizione non possibile</text></g><g id="Stopped"><rect fill="#F1F1F1" height="52.7031" rx="12.5" ry="12.5" style="stroke:#181818;stroke-width:0.5;" width="119.7441" x="241.94" y="450.6094"/><line style="stroke:#181818;stroke-width:0.5;" x1="241.94" x2="361.6841" y1="478.2188" y2="478.2188"/><text fill="#000000" font-family="sans-serif" font-size="14" lengthAdjust="spacing" textLength="52.1582" x="275.733" y="470.1426">Fermato</text><text fill="#000000" font-family="sans-serif" font-size="12" lengthAdjust="spacing" textLength="99.7441" x="246.94" y="495.6758">loop_ref_count = 0</text></g><ellipse cx="213.94" cy="770.6094" fill="none" rx="11" ry="11" style="stroke:#222222;stroke-width:1;"/><ellipse cx="213.94" cy="770.6094" fill="#222222" rx="6" ry="6" style="stroke:#222222;stroke-width:1;"/><!--link *start* to Created--><g id="link_*start*_Created"><path d="M214.94,64.6294 C214.94,80.9294 214.94,110.0394 214.94,136.4294 " fill="none" id="*start*-to-Created" style="stroke:#181818;stroke-width:1;"/><polygon fill="#181818" points="214.94,142.4294,218.94,133.4294,214.94,137.4294,210.94,133.4294,214.94,142.4294" style="stroke:#181818;stroke-width:1;"/><text fill="#000000" font-family="sans-serif" font-size="13" lengthAdjust="spacing" textLength="59.2617" x="215.94" y="109.1045">nuovo evento</text></g><!--link Created to Active--><g id="link_Created_Active"><path d="M214.94,210.6494 C214.94,233.8994 214.94,258.8994 214.94,282.2294 " fill="none" id="Created-to-Active" style="stroke:#181818;stroke-width:1;"/><polygon fill="#181818" points="214.94,288.2294,218.94,279.2294,214.94,283.2294,210.94,279.2294,214.94,288.2294" style="stroke:#181818;stroke-width:1;"/><text fill="#000000" font-family="sans-serif" font-size="13" lengthAdjust="spacing" textLength="33.9409" x="215.94" y="255.1045">start()</text></g><!--link Created to Created--><g id="link_Created_Created"><path d="M260.17,163.2294 C278.99,162.3094 294.94,166.7694 294.94,176.6094 C294.94,186.4494 284.9828,191.2023 266.1628,190.2823 " fill="none" id="Created-to-Created" style="stroke:#181818;stroke-width:1;"/><polygon fill="#181818" points="260.17,189.9894,268.964,194.424,265.164,190.2335,269.3546,186.4336,260.17,189.9894" style="stroke:#181818;stroke-width:1;"/><text fill="#000000" font-family="sans-serif" font-size="13" lengthAdjust="spacing" textLength="84.5444" x="300.94" y="182.1045">add_callback()</text></g><!--link Active to Active--><g id="link_Active_Active"><path d="M283.62,315.8894 C303.28,316.1494 318.44,318.3894 318.44,322.6094 C318.44,326.8294 309.2795,328.99 289.6195,329.25 " fill="none" id="Active-to-Active" style="stroke:#181818;stroke-width:1;"/><polygon fill="#181818" points="283.62,329.3294,292.6721,333.21,288.6196,329.2633,292.5663,325.2107,283.62,329.3294" style="stroke:#181818;stroke-width:1;"/><text fill="#000000" font-family="sans-serif" font-size="13" lengthAdjust="spacing" textLength="84.5444" x="324.44" y="328.1045">add_callback()</text></g><!--link Active to Active--><g id="link_Active_Active"><path d="M283.47,310.8694 C343.4,306.4494 414.44,310.3594 414.44,322.6094 C414.44,334.8594 349.3837,339.2107 289.4537,334.7907 " fill="none" id="Active-to-Active-1" style="stroke:#181818;stroke-width:1;"/><polygon fill="#181818" points="283.47,334.3494,292.1514,339.0005,288.4565,334.7171,292.7398,331.0222,283.47,334.3494" style="stroke:#181818;stroke-width:1;"/><text fill="#000000" font-family="sans-serif" font-size="13" lengthAdjust="spacing" textLength="80.2026" x="420.44" y="328.1045">del_callback()</text></g><!--link Active to Triggered--><g id="link_Active_Triggered"><path d="M146.06,325.5494 C100.85,330.8494 44.76,345.9494 14.94,386.6094 C6,398.7994 6.97,407.7694 14.94,420.6094 C23.06,433.6994 30.1049,440.7976 43.5349,448.5576 " fill="none" id="Active-to-Triggered" style="stroke:#181818;stroke-width:1;"/><polygon fill="#181818" points="48.73,451.5594,42.9385,443.5933,44.4007,449.0579,38.9361,450.5201,48.73,451.5594" style="stroke:#181818;stroke-width:1;"/><text fill="#000000" font-family="sans-serif" font-size="13" lengthAdjust="spacing" textLength="77.3145" x="15.94" y="409.1045">callback libuv</text></g><!--link Triggered to Active--><g id="link_Triggered_Active"><path d="M122.09,450.2994 C119.88,431.5594 119.68,406.1594 129.94,386.6094 C136,375.0594 140.6121,368.8881 150.7921,360.4881 " fill="none" id="Triggered-to-Active" style="stroke:#181818;stroke-width:1;"/><polygon fill="#181818" points="155.42,356.6694,145.9323,359.3122,151.5634,359.8516,151.0239,365.4827,155.42,356.6694" style="stroke:#181818;stroke-width:1;"/><text fill="#000000" font-family="sans-serif" font-size="13" lengthAdjust="spacing" textLength="47.6646" x="164.1795" y="401.1045">NOTIFY</text><text fill="#000000" font-family="sans-serif" font-size="13" lengthAdjust="spacing" textLength="114.1436" x="130.94" y="417.4561">(timer periodico, poll)</text></g><!--link Triggered to Closed--><g id="link_Triggered_Closed"><path d="M119.62,503.8994 C115.78,522.6294 113.74,548.0294 123.94,567.6094 C130.02,579.2794 134.6748,585.4912 145.0748,593.8112 " fill="none" id="Triggered-to-Closed" style="stroke:#181818;stroke-width:1;"/><polygon fill="#181818" points="149.76,597.5594,145.231,588.8136,145.8557,594.4359,140.2334,595.0606,149.76,597.5594" style="stroke:#181818;stroke-width:1;"/><text fill="#000000" font-family="sans-serif" font-size="13" lengthAdjust="spacing" textLength="133.6436" x="124.94" y="548.1045">NOTIFY_AND_CLOSE</text><text fill="#000000" font-family="sans-serif" font-size="13" lengthAdjust="spacing" textLength="115.5845" x="133.9695" y="564.4561">(DNS, exec, Future)</text></g><!--link Active to Stopped--><g id="link_Active_Stopped"><path d="M235.97,356.7294 C241.91,366.2994 248.28,376.7994 253.94,386.6094 C266.19,407.8394 276.5127,427.0809 285.9227,445.1009 " fill="none" id="Active-to-Stopped" style="stroke:#181818;stroke-width:1;"/><polygon fill="#181818" points="288.7,450.4194,288.0797,440.5901,286.3856,445.9873,280.9884,444.2932,288.7,450.4194" style="stroke:#181818;stroke-width:1;"/><text fill="#000000" font-family="sans-serif" font-size="13" lengthAdjust="spacing" textLength="33.23" x="271.94" y="409.1045">stop()</text></g><!--link Stopped to Active--><g id="link_Stopped_Active"><path d="M313.33,450.2794 C319.79,431.5294 324.65,406.1194 313.94,386.6094 C306.83,373.6594 300.6997,366.4765 288.5497,357.8365 " fill="none" id="Stopped-to-Active" style="stroke:#181818;stroke-width:1;"/><polygon fill="#181818" points="283.66,354.3594,288.6765,362.8349,287.7348,357.257,293.3127,356.3153,283.66,354.3594" style="stroke:#181818;stroke-width:1;"/><text fill="#000000" font-family="sans-serif" font-size="13" lengthAdjust="spacing" textLength="33.9409" x="320.94" y="409.1045">start()</text></g><!--link Stopped to Closed--><g id="link_Stopped_Closed"><path d="M292.79,503.6294 C285.74,521.9994 275.14,547.0594 262.94,567.6094 C256.92,577.7394 253.1801,583.3405 245.9501,592.6505 " fill="none" id="Stopped-to-Closed" style="stroke:#181818;stroke-width:1;"/><polygon fill="#181818" points="242.27,597.3894,250.9494,592.7345,245.3368,593.4403,244.6309,587.8277,242.27,597.3894" style="stroke:#181818;stroke-width:1;"/><text fill="#000000" font-family="sans-serif" font-size="13" lengthAdjust="spacing" textLength="53.4663" x="280.94" y="556.1045">dispose()</text></g><!--link Closed to *end*--><g id="link_Closed_*end*"><path d="M213.94,665.7694 C213.94,696.3394 213.94,733.8394 213.94,753.3894 " fill="none" id="Closed-to-*end*" style="stroke:#181818;stroke-width:1;"/><polygon fill="#181818" points="213.94,759.3894,217.94,750.3894,213.94,754.3894,209.94,750.3894,213.94,759.3894" style="stroke:#181818;stroke-width:1;"/><text fill="#000000" font-family="sans-serif" font-size="13" lengthAdjust="spacing" textLength="76.248" x="214.94" y="710.1045">ref_count = 0</text><text fill="#000000" font-family="sans-serif" font-size="13" lengthAdjust="spacing" textLength="53.4663" x="226.3309" y="726.4561">dispose()</text></g></g></svg>