<svg xmlns="http://www.w3.org/2000/svg" xmlns:xlink="http://www.w3.org/1999/xlink" contentStyleType="text/css" height="684px" preserveAspectRatio="none" style="width:876px;height:684px;background:#FFFFFF;" version="1.1" viewBox="0 0 876 684" width="876px" zoomAndPan="magnify"><title>&#1042;&#1079;&#1072;&#1080;&#1084;&#1086;&#1076;&#1077;&#1081;&#1089;&#1090;&#1074;&#1080;&#1077; Scheduler &#1080; Reactor</title><defs/><g><text fill="#000000" font-family="sans-serif" font-size="14" font-weight="bold" lengthAdjust="spacing" textLength="257.3867" x="305.51" y="29.5332">&#1042;&#1079;&#1072;&#1080;&#1084;&#1086;&#1076;&#1077;&#1081;&#1089;&#1090;&#1074;&#1080;&#1077; Scheduler &#1080; Reactor</text><rect fill="none" height="221.2969" style="stroke:#000000;stroke-width:1.5;" width="674.2598" x="152" y="251.2344"/><line style="stroke:#181818;stroke-width:0.5;stroke-dasharray:5.0,5.0;" x1="199" x2="199" y1="93.8281" y2="629.9375"/><line style="stroke:#181818;stroke-width:0.5;stroke-dasharray:5.0,5.0;" x1="450.8022" x2="450.8022" y1="93.8281" y2="629.9375"/><line style="stroke:#181818;stroke-width:0.5;stroke-dasharray:5.0,5.0;" x1="675.0112" x2="675.0112" y1="93.8281" y2="629.9375"/><rect fill="#E2E2F0" height="31.6094" rx="2.5" ry="2.5" style="stroke:#181818;stroke-width:0.5;" width="74.4775" x="162" y="61.2188"/><text fill="#000000" font-family="sans-serif" font-size="14" lengthAdjust="spacing" textLength="60.4775" x="169" y="82.752">&#1050;&#1086;&#1088;&#1091;&#1090;&#1080;&#1085;&#1072;</text><rect fill="#E2E2F0" height="31.6094" rx="2.5" ry="2.5" style="stroke:#181818;stroke-width:0.5;" width="74.4775" x="162" y="628.9375"/><text fill="#000000" font-family="sans-serif" font-size="14" lengthAdjust="spacing" textLength="60.4775" x="169" y="650.4707">&#1050;&#1086;&#1088;&#1091;&#1090;&#1080;&#1085;&#1072;</text><rect fill="#E2E2F0" height="31.6094" rx="2.5" ry="2.5" style="stroke:#181818;stroke-width:0.5;" width="77.041" x="412.8022" y="61.2188"/><text fill="#000000" font-family="sans-serif" font-size="14" lengthAdjust="spacing" textLength="63.041" x="419.8022" y="82.752">Scheduler</text><rect fill="#E2E2F0" height="31.6094" rx="2.5" ry="2.5" style="stroke:#181818;stroke-width:0.5;" width="77.041" x="412.8022" y="628.9375"/><text fill="#000000" font-family="sans-serif" font-size="14" lengthAdjust="spacing" textLength="63.041" x="419.8022" y="650.4707">Scheduler</text><rect fill="#E2E2F0" height="49.2188" rx="2.5" ry="2.5" style="stroke:#181818;stroke-width:0.5;" width="63.0205" x="644.0112" y="43.6094"/><text fill="#000000" font-family="sans-serif" font-size="14" lengthAdjust="spacing" textLength="49.0205" x="651.0112" y="65.1426">Reactor</text><text fill="#000000" font-family="sans-serif" font-size="14" lengthAdjust="spacing" textLength="38.1172" x="656.4629" y="82.752">(libuv)</text><rect fill="#E2E2F0" height="49.2188" rx="2.5" ry="2.5" style="stroke:#181818;stroke-width:0.5;" width="63.0205" x="644.0112" y="628.9375"/><text fill="#000000" font-family="sans-serif" font-size="14" lengthAdjust="spacing" textLength="49.0205" x="651.0112" y="650.4707">Reactor</text><text fill="#000000" font-family="sans-serif" font-size="14" lengthAdjust="spacing" textLength="38.1172" x="656.4629" y="668.0801">(libuv)</text><rect fill="#EEEEEE" height="3" style="stroke:#EEEEEE;stroke-width:1;" width="869.4067" x="0" y="125.0039"/><line style="stroke:#000000;stroke-width:1;" x1="0" x2="869.4067" y1="125.0039" y2="125.0039"/><line style="stroke:#000000;stroke-width:1;" x1="0" x2="869.4067" y1="128.0039" y2="128.0039"/><rect fill="#EEEEEE" height="24.3516" style="stroke:#000000;stroke-width:2;" width="261.7617" x="303.8225" y="113.8281"/><text fill="#000000" font-family="sans-serif" font-size="13" font-weight="bold" lengthAdjust="spacing" textLength="244.1499" x="309.8225" y="131.3232">&#1050;&#1086;&#1088;&#1091;&#1090;&#1080;&#1085;&#1072; &#1087;&#1086;&#1076;&#1087;&#1080;&#1089;&#1099;&#1074;&#1072;&#1077;&#1090;&#1089;&#1103; &#1085;&#1072; &#1089;&#1086;&#1073;&#1099;&#1090;&#1080;&#1077;</text><polygon fill="#181818" points="439.3228,177.707,449.3228,181.707,439.3228,185.707,443.3228,181.707" style="stroke:#181818;stroke-width:1;"/><line style="stroke:#181818;stroke-width:1;" x1="199.2388" x2="445.3228" y1="181.707" y2="181.707"/><text fill="#000000" font-family="sans-serif" font-size="13" lengthAdjust="spacing" textLength="71.5063" x="206.2388" y="176.8506">SUSPEND()</text><path d="M5,153.1797 L5,195.1797 L194,195.1797 L194,163.1797 L184,153.1797 L5,153.1797 " fill="#FEFFDD" style="stroke:#181818;stroke-width:0.5;"/><path d="M184,153.1797 L184,163.1797 L194,163.1797 L184,153.1797 " fill="#FEFFDD" style="stroke:#181818;stroke-width:0.5;"/><text fill="#000000" font-family="sans-serif" font-size="13" lengthAdjust="spacing" textLength="113.7944" x="11" y="171.6748">&#1050;&#1086;&#1088;&#1091;&#1090;&#1080;&#1085;&#1072; &#1078;&#1076;&#1105;&#1090; I/O,</text><text fill="#000000" font-family="sans-serif" font-size="13" lengthAdjust="spacing" textLength="168.27" x="11" y="188.0264">&#1090;&#1072;&#1081;&#1084;&#1077;&#1088; &#1080;&#1083;&#1080; &#1076;&#1088;&#1091;&#1075;&#1086;&#1077; &#1089;&#1086;&#1073;&#1099;&#1090;&#1080;&#1077;</text><line style="stroke:#181818;stroke-width:1;" x1="451.3228" x2="493.3228" y1="223.2344" y2="223.2344"/><line style="stroke:#181818;stroke-width:1;" x1="493.3228" x2="493.3228" y1="223.2344" y2="236.2344"/><line style="stroke:#181818;stroke-width:1;" x1="452.3228" x2="493.3228" y1="236.2344" y2="236.2344"/><polygon fill="#181818" points="462.3228,232.2344,452.3228,236.2344,462.3228,240.2344,458.3228,236.2344" style="stroke:#181818;stroke-width:1;"/><text fill="#000000" font-family="sans-serif" font-size="13" lengthAdjust="spacing" textLength="188.5635" x="458.3228" y="218.3779">&#1045;&#1089;&#1090;&#1100; &#1077;&#1097;&#1105; &#1082;&#1086;&#1088;&#1091;&#1090;&#1080;&#1085;&#1099; &#1074; &#1086;&#1095;&#1077;&#1088;&#1077;&#1076;&#1080;?</text><path d="M152,251.2344 L212.1709,251.2344 L212.1709,259.5859 L202.1709,269.5859 L152,269.5859 L152,251.2344 " fill="#EEEEEE" style="stroke:#000000;stroke-width:1.5;"/><rect fill="none" height="221.2969" style="stroke:#000000;stroke-width:1.5;" width="674.2598" x="152" y="251.2344"/><text fill="#000000" font-family="sans-serif" font-size="13" font-weight="bold" lengthAdjust="spacing" textLength="15.1709" x="167" y="265.7295">alt</text><text fill="#000000" font-family="sans-serif" font-size="11" font-weight="bold" lengthAdjust="spacing" textLength="102.3892" x="227.1709" y="264.6533">[&#1086;&#1095;&#1077;&#1088;&#1077;&#1076;&#1100; &#1085;&#1077; &#1087;&#1091;&#1089;&#1090;&#1072;]</text><polygon fill="#181818" points="210.2388,287.9375,200.2388,291.9375,210.2388,295.9375,206.2388,291.9375" style="stroke:#181818;stroke-width:1;"/><line style="stroke:#181818;stroke-width:1;" x1="204.2388" x2="450.3228" y1="291.9375" y2="291.9375"/><text fill="#000000" font-family="sans-serif" font-size="13" lengthAdjust="spacing" textLength="228.084" x="216.2388" y="287.0811">switch context &#8594; &#1089;&#1083;&#1077;&#1076;&#1091;&#1102;&#1097;&#1072;&#1103; &#1082;&#1086;&#1088;&#1091;&#1090;&#1080;&#1085;&#1072;</text><line style="stroke:#000000;stroke-width:1;stroke-dasharray:2.0,2.0;" x1="152" x2="826.2598" y1="300.9375" y2="300.9375"/><text fill="#000000" font-family="sans-serif" font-size="11" font-weight="bold" lengthAdjust="spacing" textLength="86.5713" x="157" y="312.3564">[&#1086;&#1095;&#1077;&#1088;&#1077;&#1076;&#1100; &#1087;&#1091;&#1089;&#1090;&#1072;]</text><polygon fill="#181818" points="663.5215,345.3008,673.5215,349.3008,663.5215,353.3008,667.5215,349.3008" style="stroke:#181818;stroke-width:1;"/><line style="stroke:#181818;stroke-width:1;" x1="451.3228" x2="669.5215" y1="349.3008" y2="349.3008"/><text fill="#000000" font-family="sans-serif" font-size="13" lengthAdjust="spacing" textLength="185.7896" x="458.3228" y="344.4443">reactor_execute(&#1073;&#1083;&#1086;&#1082;&#1080;&#1088;&#1091;&#1102;&#1097;&#1080;&#1081;)</text><path d="M680,320.7734 L680,362.7734 L810,362.7734 L810,330.7734 L800,320.7734 L680,320.7734 " fill="#FEFFDD" style="stroke:#181818;stroke-width:0.5;"/><path d="M800,320.7734 L800,330.7734 L810,330.7734 L800,320.7734 " fill="#FEFFDD" style="stroke:#181818;stroke-width:0.5;"/><text fill="#000000" font-family="sans-serif" font-size="13" lengthAdjust="spacing" textLength="109.7383" x="686" y="339.2686">&#1046;&#1076;&#1105;&#1084; &#1073;&#1083;&#1080;&#1078;&#1072;&#1081;&#1096;&#1077;&#1077;</text><text fill="#000000" font-family="sans-serif" font-size="13" lengthAdjust="spacing" textLength="98.1094" x="686" y="355.6201">&#1089;&#1086;&#1073;&#1099;&#1090;&#1080;&#1077; &#1086;&#1090; libuv</text><polygon fill="#181818" points="462.3228,386.8281,452.3228,390.8281,462.3228,394.8281,458.3228,390.8281" style="stroke:#181818;stroke-width:1;"/><line style="stroke:#181818;stroke-width:1;stroke-dasharray:2.0,2.0;" x1="456.3228" x2="674.5215" y1="390.8281" y2="390.8281"/><text fill="#000000" font-family="sans-serif" font-size="13" lengthAdjust="spacing" textLength="118.2124" x="468.3228" y="385.9717">&#1089;&#1086;&#1073;&#1099;&#1090;&#1080;&#1077; &#1089;&#1088;&#1072;&#1073;&#1086;&#1090;&#1072;&#1083;&#1086;</text><line style="stroke:#181818;stroke-width:1;" x1="451.3228" x2="493.3228" y1="421.1797" y2="421.1797"/><line style="stroke:#181818;stroke-width:1;" x1="493.3228" x2="493.3228" y1="421.1797" y2="434.1797"/><line style="stroke:#181818;stroke-width:1;" x1="452.3228" x2="493.3228" y1="434.1797" y2="434.1797"/><polygon fill="#181818" points="462.3228,430.1797,452.3228,434.1797,462.3228,438.1797,458.3228,434.1797" style="stroke:#181818;stroke-width:1;"/><text fill="#000000" font-family="sans-serif" font-size="13" lengthAdjust="spacing" textLength="204.1089" x="458.3228" y="416.3232">enqueue &#1087;&#1088;&#1086;&#1073;&#1091;&#1078;&#1076;&#1105;&#1085;&#1085;&#1099;&#1077; &#1082;&#1086;&#1088;&#1091;&#1090;&#1080;&#1085;&#1099;</text><polygon fill="#181818" points="210.2388,460.5313,200.2388,464.5313,210.2388,468.5313,206.2388,464.5313" style="stroke:#181818;stroke-width:1;"/><line style="stroke:#181818;stroke-width:1;" x1="204.2388" x2="450.3228" y1="464.5313" y2="464.5313"/><text fill="#000000" font-family="sans-serif" font-size="13" lengthAdjust="spacing" textLength="154.356" x="216.2388" y="459.6748">switch context &#8594; &#1082;&#1086;&#1088;&#1091;&#1090;&#1080;&#1085;&#1072;</text><rect fill="#EEEEEE" height="3" style="stroke:#EEEEEE;stroke-width:1;" width="869.4067" x="0" y="500.707"/><line style="stroke:#000000;stroke-width:1;" x1="0" x2="869.4067" y1="500.707" y2="500.707"/><line style="stroke:#000000;stroke-width:1;" x1="0" x2="869.4067" y1="503.707" y2="503.707"/><rect fill="#EEEEEE" height="24.3516" style="stroke:#000000;stroke-width:2;" width="175.916" x="346.7454" y="489.5313"/><text fill="#000000" font-family="sans-serif" font-size="13" font-weight="bold" lengthAdjust="spacing" textLength="158.3042" x="352.7454" y="507.0264">&#1052;&#1077;&#1078;&#1076;&#1091; &#1087;&#1077;&#1088;&#1077;&#1082;&#1083;&#1102;&#1095;&#1077;&#1085;&#1080;&#1103;&#1084;&#1080;</text><line style="stroke:#181818;stroke-width:1;" x1="451.3228" x2="493.3228" y1="546.2344" y2="546.2344"/><line style="stroke:#181818;stroke-width:1;" x1="493.3228" x2="493.3228" y1="546.2344" y2="559.2344"/><line style="stroke:#181818;stroke-width:1;" x1="452.3228" x2="493.3228" y1="559.2344" y2="559.2344"/><polygon fill="#181818" points="462.3228,555.2344,452.3228,559.2344,462.3228,563.2344,458.3228,559.2344" style="stroke:#181818;stroke-width:1;"/><text fill="#000000" font-family="sans-serif" font-size="13" lengthAdjust="spacing" textLength="138.3345" x="458.3228" y="541.3779">&#1054;&#1073;&#1088;&#1072;&#1073;&#1086;&#1090;&#1072;&#1090;&#1100; microtasks</text><polygon fill="#181818" points="663.5215,596.7617,673.5215,600.7617,663.5215,604.7617,667.5215,600.7617" style="stroke:#181818;stroke-width:1;"/><line style="stroke:#181818;stroke-width:1;" x1="451.3228" x2="669.5215" y1="600.7617" y2="600.7617"/><text fill="#000000" font-family="sans-serif" font-size="13" lengthAdjust="spacing" textLength="200.1987" x="458.3228" y="595.9053">reactor_execute(&#1085;&#1077;&#1073;&#1083;&#1086;&#1082;&#1080;&#1088;&#1091;&#1102;&#1097;&#1080;&#1081;)</text><path d="M680,572.2344 L680,614.2344 L858,614.2344 L858,582.2344 L848,572.2344 L680,572.2344 " fill="#FEFFDD" style="stroke:#181818;stroke-width:0.5;"/><path d="M848,572.2344 L848,582.2344 L858,582.2344 L848,572.2344 " fill="#FEFFDD" style="stroke:#181818;stroke-width:0.5;"/><text fill="#000000" font-family="sans-serif" font-size="13" lengthAdjust="spacing" textLength="157.8853" x="686" y="590.7295">&#1057;&#1086;&#1073;&#1088;&#1072;&#1090;&#1100; &#1075;&#1086;&#1090;&#1086;&#1074;&#1099;&#1077; &#1089;&#1086;&#1073;&#1099;&#1090;&#1080;&#1103;</text><text fill="#000000" font-family="sans-serif" font-size="13" lengthAdjust="spacing" textLength="83.7319" x="686" y="607.0811">&#1073;&#1077;&#1079; &#1086;&#1078;&#1080;&#1076;&#1072;&#1085;&#1080;&#1103;</text><!--SRC=[ZPB1RjD048Rl-nIZdXA9Ydkam04uS054n2qICkv2B8nTx3Nqc2OIK0KHjH8S44BY3PmGqqtI9gym-mey2V-kqoXEg5HVRE_Ep3Vp_wC25KhYCpxdd3LVy88dNF3K79iUZt5IKCllo8Cib0cnfgVIyrMS277e9IhmWqClKhJ7ttbXkgQF7CsNdE-HbzAzE8chOUjAxjxzLGDMrTjHBGnUPE_gBcwDR3Pf6qIyT1qlMQFZ0JhEkJ0zV0_9tPjZt8_Cm2KKr6mAOVkY_JibdnhKUjPwyk3H_LfTHB6I5CgNgl4Vq1-Uc5FJeuUt7zzgHpZFUGgz2jE5BZo7DWX01ly6iTW22r7IDh3yrMfiFXDAd9XJujacqGo8nuIJZvO0HoQixmhXXQfoQDClGUCb4grbkI0yQvYRjK7f-q3v7VBZICaZHNy_dDd-vgv2ttmn9vnRmMRLcOKCKxc3kuQqSWcmfFnwBe-adobPun582nJNhhYbQPxMNRfJF0bUTQpatwp2V44kGKDmA6m-WLj0xwgFQAf7RaTScIlu_eQ-MndekOk28vk9Dpggzd-L9gEtcSoadRFh2lHBvo48JB7eBPzkAlYkkj51kTC_CA9bzEqsbqhFU0wXe3iYjHbYpxJRtTqj-eaMDmPp6_Kcy9DOUUdhLDp47opGTHvL_FdbzEYk87RFGLpmsCcoARSPjYDKBFWSHc4qZUtDoqd4Fm00]--></g></svg>