<svg xmlns="http://www.w3.org/2000/svg" xmlns:xlink="http://www.w3.org/1999/xlink" contentStyleType="text/css" height="1290px" preserveAspectRatio="none" style="width:613px;height:1290px;background:#FFFFFF;" version="1.1" viewBox="0 0 613 1290" width="613px" zoomAndPan="magnify"><title>acquire() &#8212; &#1074;&#1085;&#1091;&#1090;&#1088;&#1077;&#1085;&#1085;&#1080;&#1081; &#1072;&#1083;&#1075;&#1086;&#1088;&#1080;&#1090;&#1084;</title><defs/><g><text fill="#000000" font-family="sans-serif" font-size="14" font-weight="bold" lengthAdjust="spacing" textLength="232.832" x="188.8977" y="34.5332">acquire() &#8212; &#1074;&#1085;&#1091;&#1090;&#1088;&#1077;&#1085;&#1085;&#1080;&#1081; &#1072;&#1083;&#1075;&#1086;&#1088;&#1080;&#1090;&#1084;</text><ellipse cx="250.8579" cy="58.6094" fill="#222222" rx="10" ry="10" style="stroke:#222222;stroke-width:1;"/><rect fill="#F1F1F1" height="35.0938" rx="12.5" ry="12.5" style="stroke:#181818;stroke-width:0.5;" width="272.1465" x="114.7847" y="88.6094"/><text fill="#000000" font-family="sans-serif" font-size="12" lengthAdjust="spacing" textLength="252.1465" x="124.7847" y="111.0664">zend_async_pool_acquire(pool, result, timeout)</text><rect fill="#F1F1F1" height="35.0938" rx="12.5" ry="12.5" style="stroke:#181818;stroke-width:0.5;" width="129.3945" x="186.1606" y="192.6211"/><text fill="#000000" font-family="sans-serif" font-size="12" lengthAdjust="spacing" textLength="109.3945" x="196.1606" y="215.0781">throw PoolException</text><ellipse cx="250.8579" cy="266.668" fill="none" rx="11" ry="11" style="stroke:#222222;stroke-width:1;"/><ellipse cx="250.8579" cy="266.668" fill="#222222" rx="6" ry="6" style="stroke:#222222;stroke-width:1;"/><polygon fill="#F1F1F1" points="217.7451,143.7031,283.9707,143.7031,295.9707,155.7031,283.9707,167.7031,217.7451,167.7031,205.7451,155.7031,217.7451,143.7031" style="stroke:#181818;stroke-width:0.5;"/><text fill="#000000" font-family="sans-serif" font-size="11" lengthAdjust="spacing" textLength="12.5361" x="254.8579" y="179.1221">&#1076;&#1072;</text><text fill="#000000" font-family="sans-serif" font-size="11" lengthAdjust="spacing" textLength="66.2256" x="217.7451" y="160.2041">Pool &#1079;&#1072;&#1082;&#1088;&#1099;&#1090;?</text><rect fill="#F1F1F1" height="35.0938" rx="12.5" ry="12.5" style="stroke:#181818;stroke-width:0.5;" width="208.0977" x="146.8091" y="372.2578"/><text fill="#000000" font-family="sans-serif" font-size="12" lengthAdjust="spacing" textLength="188.0977" x="156.8091" y="394.7148">throw ServiceUnavailableException</text><ellipse cx="250.8579" cy="445.3867" fill="none" rx="11" ry="11" style="stroke:#222222;stroke-width:1;"/><ellipse cx="250.8579" cy="445.3867" fill="#222222" rx="6" ry="6" style="stroke:#222222;stroke-width:1;"/><polygon fill="#F1F1F1" points="216.0156,319.668,285.7002,319.668,297.7002,333.5039,285.7002,347.3398,216.0156,347.3398,204.0156,333.5039,216.0156,319.668" style="stroke:#181818;stroke-width:0.5;"/><text fill="#000000" font-family="sans-serif" font-size="11" lengthAdjust="spacing" textLength="12.5361" x="254.8579" y="358.7588">&#1076;&#1072;</text><text fill="#000000" font-family="sans-serif" font-size="11" lengthAdjust="spacing" textLength="69.6846" x="216.0156" y="331.0869">CircuitBreaker</text><text fill="#000000" font-family="sans-serif" font-size="11" lengthAdjust="spacing" textLength="56.8477" x="216.0156" y="344.9229">INACTIVE?</text><polygon fill="#F1F1F1" points="50.4507,511.3867,98.7583,511.3867,110.7583,525.2227,98.7583,539.0586,50.4507,539.0586,38.4507,525.2227,50.4507,511.3867" style="stroke:#181818;stroke-width:0.5;"/><text fill="#000000" font-family="sans-serif" font-size="11" lengthAdjust="spacing" textLength="12.5361" x="78.6045" y="550.4775">&#1076;&#1072;</text><text fill="#000000" font-family="sans-serif" font-size="11" lengthAdjust="spacing" textLength="48.3076" x="50.4507" y="522.8057">idle buffer</text><text fill="#000000" font-family="sans-serif" font-size="11" lengthAdjust="spacing" textLength="43.3608" x="50.4507" y="536.6416">&#1085;&#1077; &#1087;&#1091;&#1089;&#1090;?</text><rect fill="#F1F1F1" height="50.1875" rx="12.5" ry="12.5" style="stroke:#181818;stroke-width:0.5;" width="108.2305" x="20.4893" y="571.9775"/><text fill="#000000" font-family="sans-serif" font-size="12" lengthAdjust="spacing" textLength="88.0371" x="30.4893" y="594.4346">&#1048;&#1079;&#1074;&#1083;&#1077;&#1095;&#1100; &#1088;&#1077;&#1089;&#1091;&#1088;&#1089;</text><text fill="#000000" font-family="sans-serif" font-size="12" lengthAdjust="spacing" textLength="88.2305" x="30.4893" y="609.5283">&#1080;&#1079; circular buffer</text><rect fill="#F1F1F1" height="50.1875" rx="12.5" ry="12.5" style="stroke:#181818;stroke-width:0.5;" width="127.209" x="11" y="748.7666"/><text fill="#000000" font-family="sans-serif" font-size="12" lengthAdjust="spacing" textLength="107.209" x="21" y="771.2236">&#1059;&#1085;&#1080;&#1095;&#1090;&#1086;&#1078;&#1080;&#1090;&#1100; &#1088;&#1077;&#1089;&#1091;&#1088;&#1089;</text><text fill="#000000" font-family="sans-serif" font-size="12" lengthAdjust="spacing" textLength="61.3477" x="21" y="786.3174">(destructor)</text><ellipse cx="76.1045" cy="835.4541" fill="#A80036" rx="1.5" ry="1.5" style="stroke:#A80036;stroke-width:1;"/><ellipse cx="252.3579" cy="489.8867" fill="#A80036" rx="1.5" ry="1.5" style="stroke:#A80036;stroke-width:1;"/><line style="stroke:#A80036;stroke-width:1;" x1="74.6045" x2="250.8579" y1="833.9541" y2="833.9541"/><line style="stroke:#A80036;stroke-width:1;" x1="250.8579" x2="250.8579" y1="488.3867" y2="833.9541"/><polygon fill="#F1F1F1" points="40.3611,696.1768,108.8479,696.1768,120.8479,710.0127,108.8479,723.8486,40.3611,723.8486,28.3611,710.0127,40.3611,696.1768" style="stroke:#181818;stroke-width:0.5;"/><text fill="#000000" font-family="sans-serif" font-size="11" lengthAdjust="spacing" textLength="17.2305" x="78.6045" y="735.2676">&#1085;&#1077;&#1090;</text><text fill="#000000" font-family="sans-serif" font-size="11" lengthAdjust="spacing" textLength="68.4868" x="40.3611" y="707.5957">beforeAcquire</text><text fill="#000000" font-family="sans-serif" font-size="11" lengthAdjust="spacing" textLength="64.2007" x="40.3611" y="721.4316">&#1074;&#1077;&#1088;&#1085;&#1091;&#1083; true?</text><text fill="#000000" font-family="sans-serif" font-size="11" lengthAdjust="spacing" textLength="12.5361" x="120.8479" y="707.5957">&#1076;&#1072;</text><polygon fill="#F1F1F1" points="37.3022,647.2588,111.9067,647.2588,123.9067,659.2588,111.9067,671.2588,37.3022,671.2588,25.3022,659.2588,37.3022,647.2588" style="stroke:#181818;stroke-width:0.5;"/><text fill="#000000" font-family="sans-serif" font-size="11" lengthAdjust="spacing" textLength="29.772" x="78.6045" y="682.6777">&#1079;&#1072;&#1076;&#1072;&#1085;</text><text fill="#000000" font-family="sans-serif" font-size="11" lengthAdjust="spacing" textLength="74.6045" x="37.3022" y="663.7598">beforeAcquire?</text><polygon fill="#F1F1F1" points="74.6045,889.79,86.6045,901.79,74.6045,913.79,62.6045,901.79,74.6045,889.79" style="stroke:#181818;stroke-width:0.5;"/><rect fill="#F1F1F1" height="35.0938" rx="12.5" ry="12.5" style="stroke:#181818;stroke-width:0.5;" width="101.3926" x="23.9082" y="947.665"/><text fill="#000000" font-family="sans-serif" font-size="12" lengthAdjust="spacing" textLength="81.3926" x="33.9082" y="970.1221">active_count++</text><rect fill="#F1F1F1" height="35.0938" rx="12.5" ry="12.5" style="stroke:#181818;stroke-width:0.5;" width="101.3691" x="23.9199" y="1002.7588"/><text fill="#000000" font-family="sans-serif" font-size="12" lengthAdjust="spacing" textLength="81.3691" x="33.9199" y="1025.2158">return resource</text><ellipse cx="74.6045" cy="1068.8525" fill="none" rx="11" ry="11" style="stroke:#222222;stroke-width:1;"/><ellipse cx="74.6045" cy="1068.8525" fill="#222222" rx="6" ry="6" style="stroke:#222222;stroke-width:1;"/><polygon fill="#F1F1F1" points="376.5503,511.3867,438.6079,511.3867,450.6079,525.2227,438.6079,539.0586,376.5503,539.0586,364.5503,525.2227,376.5503,511.3867" style="stroke:#181818;stroke-width:0.5;"/><text fill="#000000" font-family="sans-serif" font-size="11" lengthAdjust="spacing" textLength="12.5361" x="411.5791" y="550.4775">&#1076;&#1072;</text><text fill="#000000" font-family="sans-serif" font-size="11" lengthAdjust="spacing" textLength="58.3945" x="376.5503" y="522.8057">idle + active</text><text fill="#000000" font-family="sans-serif" font-size="11" lengthAdjust="spacing" textLength="62.0576" x="376.5503" y="536.6416">&lt; max_size?</text><rect fill="#F1F1F1" height="35.0938" rx="12.5" ry="12.5" style="stroke:#181818;stroke-width:0.5;" width="106.2734" x="354.4424" y="571.9775"/><text fill="#000000" font-family="sans-serif" font-size="12" lengthAdjust="spacing" textLength="86.2734" x="364.4424" y="594.4346">&#1042;&#1099;&#1079;&#1074;&#1072;&#1090;&#1100; factory</text><path d="M202.209,632.165 L202.209,691.2197 L370.4746,691.2197 L370.4746,642.165 L360.4746,632.165 L202.209,632.165 " fill="#FEFFDD" style="stroke:#181818;stroke-width:0.5;"/><path d="M360.4746,632.165 L360.4746,642.165 L370.4746,642.165 L360.4746,632.165 " fill="#FEFFDD" style="stroke:#181818;stroke-width:0.5;"/><text fill="#000000" font-family="sans-serif" font-size="13" lengthAdjust="spacing" textLength="107.4023" x="208.209" y="650.6602">&#1054;&#1096;&#1080;&#1073;&#1082;&#1072; factory &#8212;</text><text fill="#000000" font-family="sans-serif" font-size="13" lengthAdjust="spacing" textLength="88.5498" x="208.209" y="667.0117">&#1085;&#1077; &#1092;&#1072;&#1090;&#1072;&#1083;&#1100;&#1085;&#1072;&#1103;.</text><text fill="#000000" font-family="sans-serif" font-size="13" lengthAdjust="spacing" textLength="147.2656" x="208.209" y="683.3633">&#1055;&#1077;&#1088;&#1077;&#1093;&#1086;&#1076;&#1080;&#1084; &#1082; &#1086;&#1078;&#1080;&#1076;&#1072;&#1085;&#1080;&#1102;.</text><rect fill="#F1F1F1" height="35.0938" rx="12.5" ry="12.5" style="stroke:#181818;stroke-width:0.5;" width="101.3926" x="356.8828" y="743.8096"/><text fill="#000000" font-family="sans-serif" font-size="12" lengthAdjust="spacing" textLength="81.3926" x="366.8828" y="766.2666">active_count++</text><rect fill="#F1F1F1" height="35.0938" rx="12.5" ry="12.5" style="stroke:#181818;stroke-width:0.5;" width="101.3691" x="356.8945" y="813.9033"/><text fill="#000000" font-family="sans-serif" font-size="12" lengthAdjust="spacing" textLength="81.3691" x="366.8945" y="836.3604">return resource</text><ellipse cx="407.5791" cy="894.9971" fill="none" rx="11" ry="11" style="stroke:#222222;stroke-width:1;"/><ellipse cx="407.5791" cy="894.9971" fill="#222222" rx="6" ry="6" style="stroke:#222222;stroke-width:1;"/><polygon fill="#F1F1F1" points="382.4746,691.2197,432.6836,691.2197,444.6836,705.0557,432.6836,718.8916,382.4746,718.8916,370.4746,705.0557,382.4746,691.2197" style="stroke:#181818;stroke-width:0.5;"/><text fill="#000000" font-family="sans-serif" font-size="11" lengthAdjust="spacing" textLength="12.5361" x="411.5791" y="730.3105">&#1076;&#1072;</text><text fill="#000000" font-family="sans-serif" font-size="11" lengthAdjust="spacing" textLength="36.6738" x="382.4746" y="702.6387">Factory</text><text fill="#000000" font-family="sans-serif" font-size="11" lengthAdjust="spacing" textLength="50.209" x="382.4746" y="716.4746">&#1091;&#1089;&#1087;&#1077;&#1096;&#1077;&#1085;?</text><text fill="#000000" font-family="sans-serif" font-size="11" lengthAdjust="spacing" textLength="17.2305" x="444.6836" y="702.6387">&#1085;&#1077;&#1090;</text><path d="M347.2241,1109.8525 L347.2241,1151.7314 L327.2241,1155.7314 L347.2241,1159.7314 L347.2241,1201.6104 A0,0 0 0 0 347.2241,1201.6104 L601.6274,1201.6104 A0,0 0 0 0 601.6274,1201.6104 L601.6274,1119.8525 L591.6274,1109.8525 L347.2241,1109.8525 A0,0 0 0 0 347.2241,1109.8525 " fill="#FEFFDD" style="stroke:#181818;stroke-width:0.5;"/><path d="M591.6274,1109.8525 L591.6274,1119.8525 L601.6274,1119.8525 L591.6274,1109.8525 " fill="#FEFFDD" style="stroke:#181818;stroke-width:0.5;"/><text fill="#000000" font-family="sans-serif" font-size="13" lengthAdjust="spacing" textLength="102.8638" x="353.2241" y="1128.3477">1. &#1057;&#1086;&#1079;&#1076;&#1072;&#1090;&#1100; waiter</text><text fill="#000000" font-family="sans-serif" font-size="13" lengthAdjust="spacing" textLength="169.457" x="353.2241" y="1144.6992">2. &#1044;&#1086;&#1073;&#1072;&#1074;&#1080;&#1090;&#1100; &#1074; &#1086;&#1095;&#1077;&#1088;&#1077;&#1076;&#1100; FIFO</text><text fill="#000000" font-family="sans-serif" font-size="13" lengthAdjust="spacing" textLength="233.4033" x="353.2241" y="1161.0508">3. &#1047;&#1072;&#1088;&#1077;&#1075;&#1080;&#1089;&#1090;&#1088;&#1080;&#1088;&#1086;&#1074;&#1072;&#1090;&#1100; timeout (&#1077;&#1089;&#1083;&#1080; &gt; 0)</text><text fill="#000000" font-family="sans-serif" font-size="13" lengthAdjust="spacing" textLength="180.5972" x="353.2241" y="1177.4023">4. ZEND_ASYNC_SUSPEND()</text><text fill="#000000" font-family="sans-serif" font-size="13" lengthAdjust="spacing" textLength="173.2085" x="353.2241" y="1193.7539">5. &#1050;&#1086;&#1088;&#1091;&#1090;&#1080;&#1085;&#1072; &#1087;&#1088;&#1080;&#1086;&#1089;&#1090;&#1072;&#1085;&#1086;&#1074;&#1083;&#1077;&#1085;&#1072;</text><rect fill="#F1F1F1" height="35.0938" rx="12.5" ry="12.5" style="stroke:#181818;stroke-width:0.5;" width="152.7324" x="174.4917" y="1138.1846"/><text fill="#000000" font-family="sans-serif" font-size="12" lengthAdjust="spacing" textLength="132.7324" x="184.4917" y="1160.6416">pool_wait_for_resource()</text><rect fill="#F1F1F1" height="35.0938" rx="12.5" ry="12.5" style="stroke:#181818;stroke-width:0.5;" width="153.9219" x="173.897" y="1221.6104"/><text fill="#000000" font-family="sans-serif" font-size="12" lengthAdjust="spacing" textLength="133.9219" x="183.897" y="1244.0674">&#1050;&#1086;&#1088;&#1091;&#1090;&#1080;&#1085;&#1072; &#1074;&#1086;&#1079;&#1086;&#1073;&#1085;&#1086;&#1074;&#1083;&#1077;&#1085;&#1072;</text><ellipse cx="252.3579" cy="1278.2041" fill="#A80036" rx="1.5" ry="1.5" style="stroke:#A80036;stroke-width:1;"/><ellipse cx="252.3579" cy="489.8867" fill="#A80036" rx="1.5" ry="1.5" style="stroke:#A80036;stroke-width:1;"/><line style="stroke:#A80036;stroke-width:1;" x1="250.8579" x2="250.8579" y1="1276.7041" y2="1276.7041"/><line style="stroke:#A80036;stroke-width:1;" x1="250.8579" x2="250.8579" y1="488.3867" y2="1276.7041"/><line style="stroke:#181818;stroke-width:1;" x1="250.8579" x2="250.8579" y1="68.6094" y2="88.6094"/><polygon fill="#181818" points="246.8579,78.6094,250.8579,88.6094,254.8579,78.6094,250.8579,82.6094" style="stroke:#181818;stroke-width:1;"/><line style="stroke:#181818;stroke-width:1;" x1="250.8579" x2="250.8579" y1="227.7148" y2="255.668"/><polygon fill="#181818" points="246.8579,245.668,250.8579,255.668,254.8579,245.668,250.8579,249.668" style="stroke:#181818;stroke-width:1;"/><line style="stroke:#181818;stroke-width:1;" x1="250.8579" x2="250.8579" y1="167.7031" y2="192.6211"/><polygon fill="#181818" points="246.8579,182.6211,250.8579,192.6211,254.8579,182.6211,250.8579,186.6211" style="stroke:#181818;stroke-width:1;"/><line style="stroke:#181818;stroke-width:1;" x1="295.9707" x2="325.5552" y1="155.7031" y2="155.7031"/><polygon fill="#181818" points="321.5552,225.668,325.5552,235.668,329.5552,225.668,325.5552,229.668" style="stroke:#181818;stroke-width:1;"/><line style="stroke:#181818;stroke-width:1;" x1="325.5552" x2="325.5552" y1="155.7031" y2="299.668"/><line style="stroke:#181818;stroke-width:1;" x1="325.5552" x2="250.8579" y1="299.668" y2="299.668"/><line style="stroke:#181818;stroke-width:1;" x1="250.8579" x2="250.8579" y1="299.668" y2="319.668"/><polygon fill="#181818" points="246.8579,309.668,250.8579,319.668,254.8579,309.668,250.8579,313.668" style="stroke:#181818;stroke-width:1;"/><line style="stroke:#181818;stroke-width:1;" x1="250.8579" x2="250.8579" y1="123.7031" y2="143.7031"/><polygon fill="#181818" points="246.8579,133.7031,250.8579,143.7031,254.8579,133.7031,250.8579,137.7031" style="stroke:#181818;stroke-width:1;"/><line style="stroke:#181818;stroke-width:1;" x1="250.8579" x2="250.8579" y1="407.3516" y2="434.3867"/><polygon fill="#181818" points="246.8579,424.3867,250.8579,434.3867,254.8579,424.3867,250.8579,428.3867" style="stroke:#181818;stroke-width:1;"/><line style="stroke:#181818;stroke-width:1;" x1="250.8579" x2="250.8579" y1="347.3398" y2="372.2578"/><polygon fill="#181818" points="246.8579,362.2578,250.8579,372.2578,254.8579,362.2578,250.8579,366.2578" style="stroke:#181818;stroke-width:1;"/><line style="stroke:#181818;stroke-width:1;" x1="297.7002" x2="364.9067" y1="333.5039" y2="333.5039"/><polygon fill="#181818" points="360.9067,404.3867,364.9067,414.3867,368.9067,404.3867,364.9067,408.3867" style="stroke:#181818;stroke-width:1;"/><line style="stroke:#181818;stroke-width:1;" x1="364.9067" x2="364.9067" y1="333.5039" y2="478.3867"/><line style="stroke:#181818;stroke-width:1;" x1="364.9067" x2="250.8579" y1="478.3867" y2="478.3867"/><line style="stroke:#181818;stroke-width:1;" x1="250.8579" x2="250.8579" y1="478.3867" y2="496.3867"/><line style="stroke:#181818;stroke-width:1;" x1="74.6045" x2="74.6045" y1="798.9541" y2="833.9541"/><polygon fill="#181818" points="70.6045,823.9541,74.6045,833.9541,78.6045,823.9541,74.6045,827.9541" style="stroke:#181818;stroke-width:1;"/><line style="stroke:#181818;stroke-width:1;" x1="74.6045" x2="74.6045" y1="723.8486" y2="748.7666"/><polygon fill="#181818" points="70.6045,738.7666,74.6045,748.7666,78.6045,738.7666,74.6045,742.7666" style="stroke:#181818;stroke-width:1;"/><line style="stroke:#181818;stroke-width:1;" x1="120.8479" x2="148.209" y1="710.0127" y2="710.0127"/><polygon fill="#181818" points="144.209,777.4424,148.209,787.4424,152.209,777.4424,148.209,781.4424" style="stroke:#181818;stroke-width:1;"/><line style="stroke:#181818;stroke-width:1;" x1="148.209" x2="148.209" y1="710.0127" y2="864.8721"/><line style="stroke:#181818;stroke-width:1;" x1="148.209" x2="74.6045" y1="864.8721" y2="864.8721"/><line style="stroke:#181818;stroke-width:1;" x1="74.6045" x2="74.6045" y1="864.8721" y2="889.79"/><polygon fill="#181818" points="70.6045,879.79,74.6045,889.79,78.6045,879.79,74.6045,883.79" style="stroke:#181818;stroke-width:1;"/><line style="stroke:#181818;stroke-width:1;" x1="74.6045" x2="74.6045" y1="671.2588" y2="696.1768"/><polygon fill="#181818" points="70.6045,686.1768,74.6045,696.1768,78.6045,686.1768,74.6045,690.1768" style="stroke:#181818;stroke-width:1;"/><line style="stroke:#181818;stroke-width:1;" x1="123.9067" x2="170.209" y1="659.2588" y2="659.2588"/><polygon fill="#181818" points="166.209,770.5244,170.209,780.5244,174.209,770.5244,170.209,774.5244" style="stroke:#181818;stroke-width:1;"/><line style="stroke:#181818;stroke-width:1;" x1="170.209" x2="170.209" y1="659.2588" y2="901.79"/><line style="stroke:#181818;stroke-width:1;" x1="170.209" x2="86.6045" y1="901.79" y2="901.79"/><polygon fill="#181818" points="96.6045,897.79,86.6045,901.79,96.6045,905.79,92.6045,901.79" style="stroke:#181818;stroke-width:1;"/><line style="stroke:#181818;stroke-width:1;" x1="74.6045" x2="74.6045" y1="622.165" y2="647.2588"/><polygon fill="#181818" points="70.6045,637.2588,74.6045,647.2588,78.6045,637.2588,74.6045,641.2588" style="stroke:#181818;stroke-width:1;"/><line style="stroke:#181818;stroke-width:1;" x1="74.6045" x2="74.6045" y1="913.79" y2="947.665"/><polygon fill="#181818" points="70.6045,937.665,74.6045,947.665,78.6045,937.665,74.6045,941.665" style="stroke:#181818;stroke-width:1;"/><line style="stroke:#181818;stroke-width:1;" x1="74.6045" x2="74.6045" y1="982.7588" y2="1002.7588"/><polygon fill="#181818" points="70.6045,992.7588,74.6045,1002.7588,78.6045,992.7588,74.6045,996.7588" style="stroke:#181818;stroke-width:1;"/><line style="stroke:#181818;stroke-width:1;" x1="74.6045" x2="74.6045" y1="1037.8525" y2="1057.8525"/><polygon fill="#181818" points="70.6045,1047.8525,74.6045,1057.8525,78.6045,1047.8525,74.6045,1051.8525" style="stroke:#181818;stroke-width:1;"/><line style="stroke:#181818;stroke-width:1;" x1="407.5791" x2="407.5791" y1="778.9033" y2="813.9033"/><polygon fill="#181818" points="403.5791,803.9033,407.5791,813.9033,411.5791,803.9033,407.5791,807.9033" style="stroke:#181818;stroke-width:1;"/><line style="stroke:#181818;stroke-width:1;" x1="407.5791" x2="407.5791" y1="848.9971" y2="883.9971"/><polygon fill="#181818" points="403.5791,873.9971,407.5791,883.9971,411.5791,873.9971,407.5791,877.9971" style="stroke:#181818;stroke-width:1;"/><line style="stroke:#181818;stroke-width:1;" x1="407.5791" x2="407.5791" y1="718.8916" y2="743.8096"/><polygon fill="#181818" points="403.5791,733.8096,407.5791,743.8096,411.5791,733.8096,407.5791,737.8096" style="stroke:#181818;stroke-width:1;"/><line style="stroke:#181818;stroke-width:1;" x1="444.6836" x2="468.2754" y1="705.0557" y2="705.0557"/><polygon fill="#181818" points="464.2754,810.9854,468.2754,820.9854,472.2754,810.9854,468.2754,814.9854" style="stroke:#181818;stroke-width:1;"/><line style="stroke:#181818;stroke-width:1;" x1="468.2754" x2="468.2754" y1="705.0557" y2="935.79"/><line style="stroke:#181818;stroke-width:1;" x1="468.2754" x2="407.5791" y1="935.79" y2="935.79"/><line style="stroke:#181818;stroke-width:1;" x1="407.5791" x2="407.5791" y1="935.79" y2="1099.8525"/><polygon fill="#181818" points="403.5791,1089.8525,407.5791,1099.8525,411.5791,1089.8525,407.5791,1093.8525" style="stroke:#181818;stroke-width:1;"/><line style="stroke:#181818;stroke-width:1;" x1="407.5791" x2="407.5791" y1="607.0713" y2="691.2197"/><polygon fill="#181818" points="403.5791,681.2197,407.5791,691.2197,411.5791,681.2197,407.5791,685.2197" style="stroke:#181818;stroke-width:1;"/><line style="stroke:#181818;stroke-width:1;" x1="74.6045" x2="74.6045" y1="539.0586" y2="571.9775"/><polygon fill="#181818" points="70.6045,561.9775,74.6045,571.9775,78.6045,561.9775,74.6045,565.9775" style="stroke:#181818;stroke-width:1;"/><line style="stroke:#181818;stroke-width:1;" x1="407.5791" x2="407.5791" y1="539.0586" y2="571.9775"/><polygon fill="#181818" points="403.5791,561.9775,407.5791,571.9775,411.5791,561.9775,407.5791,565.9775" style="stroke:#181818;stroke-width:1;"/><line style="stroke:#181818;stroke-width:1;" x1="110.7583" x2="364.5503" y1="525.2227" y2="525.2227"/><polygon fill="#181818" points="354.5503,521.2227,364.5503,525.2227,354.5503,529.2227,358.5503,525.2227" style="stroke:#181818;stroke-width:1;"/><line style="stroke:#181818;stroke-width:1;" x1="250.8579" x2="74.6045" y1="496.3867" y2="496.3867"/><line style="stroke:#181818;stroke-width:1;" x1="74.6045" x2="74.6045" y1="496.3867" y2="511.3867"/><polygon fill="#181818" points="70.6045,501.3867,74.6045,511.3867,78.6045,501.3867,74.6045,505.3867" style="stroke:#181818;stroke-width:1;"/><line style="stroke:#181818;stroke-width:1;" x1="450.6079" x2="495.7158" y1="525.2227" y2="525.2227"/><line style="stroke:#181818;stroke-width:1;" x1="495.7158" x2="495.7158" y1="525.2227" y2="1099.8525"/><polygon fill="#181818" points="491.7158,1089.8525,495.7158,1099.8525,499.7158,1089.8525,495.7158,1093.8525" style="stroke:#181818;stroke-width:1;"/><line style="stroke:#181818;stroke-width:1;" x1="250.8579" x2="495.7158" y1="1099.8525" y2="1099.8525"/><line style="stroke:#181818;stroke-width:1;" x1="250.8579" x2="250.8579" y1="1099.8525" y2="1138.1846"/><polygon fill="#181818" points="246.8579,1128.1846,250.8579,1138.1846,254.8579,1128.1846,250.8579,1132.1846" style="stroke:#181818;stroke-width:1;"/><line style="stroke:#181818;stroke-width:1;" x1="250.8579" x2="250.8579" y1="1173.2783" y2="1221.6104"/><polygon fill="#181818" points="246.8579,1211.6104,250.8579,1221.6104,254.8579,1211.6104,250.8579,1215.6104" style="stroke:#181818;stroke-width:1;"/><line style="stroke:#181818;stroke-width:1;" x1="250.8579" x2="250.8579" y1="1256.7041" y2="1276.7041"/><polygon fill="#181818" points="246.8579,1266.7041,250.8579,1276.7041,254.8579,1266.7041,250.8579,1270.7041" style="stroke:#181818;stroke-width:1;"/><!--SRC=[VLJTJXD15BxVfvZBDf36tvlMQ10XuGP9AYGQaisoJ67YibDdPmlbgYqQJ22Q61AD5nhZ2vH2fGA5LpZp2Zw9vyoK_aZhDarsv_nzv_lE6Irqn5aGlac5ufai-rCxOj22hjap3LE3DdJnru7V39fm0ITmXOSTqu1BpqjqeBJdvNTvlEu7IJKE_RAKaN-JZ3wccU996kbffiKMbwdE5ZnFb5Xc2OqCpZ3hkQcP0zDuacLwaySi0wVGp7eCdxpUL7ARaUlSJiZBMiYuO2s9bcKFougIopOhL9WA_LJnu3LNg_72uipiYuMLkSb9YrnLHCYNuw0IY2XOY_X_Ig2THzY9LbLNJwmZQMjfgKJ5aA0sWsjah3w-3VY2ZRQGlhRPDuUCQ4NNFUoxZj4TE6CXuOy2rSk9754WLLhZ9QduZADqa9o8mmBGTIN6UcFk5bQgaPXmmRHA-HXqzF0euNY6VPZ6uDHX_qdw8-u6NC4lalvM1vbrdc3oK4kLBOn4RqWjUxJrIrb61s-EeI3KeiBzKAQndffoIV8OcAgO1aYcAkH3idW4kA_357FXg_4ZjXNi-8dOvMDb-6GEh11DsqGf8CJL8QxdtSbgJ5B2DVRudXPW0cbZGKy6tWS_cV1OQiwKsDZK8op2DyJHWMCuX-ODQjhJKISQGlEMUgDDDOTuq3GVSwDEt-qyjCqx5FCKSruoE6TEM3TEAF27tB1O5jIGNZtLydRJjmEXVPmu_wRL3AttFstSpJ7uWJNEg89bdiAuiiPxQ3n2up4MR_Mc2re8oUmxg72A9_CByy-j-trq_unPo722xdLxINNmVzNNjNVH8BquexXq7VQOtN4aFyYnLtEBp_oPuil5MR-uN5p2huopFSJKN-bweviFwK3wQAanEnxMBQjTM-N2NefDhq-EbxyTsB8DKryZGSZEq4xy1G00]--></g></svg>