<svg xmlns="http://www.w3.org/2000/svg" xmlns:xlink="http://www.w3.org/1999/xlink" contentStyleType="text/css" height="684px" preserveAspectRatio="none" style="width:781px;height:684px;background:#FFFFFF;" version="1.1" viewBox="0 0 781 684" width="781px" zoomAndPan="magnify"><title>Interaccion entre Scheduler y Reactor</title><defs/><g><text fill="#000000" font-family="sans-serif" font-size="14" font-weight="bold" lengthAdjust="spacing" textLength="227.9443" x="272.9978" y="29.5332">Interaccion entre Scheduler y Reactor</text><rect fill="none" height="221.2969" style="stroke:#000000;stroke-width:1.5;" width="654.9399" x="110" y="251.2344"/><line style="stroke:#181818;stroke-width:0.5;stroke-dasharray:5.0,5.0;" x1="157" x2="157" y1="93.8281" y2="629.9375"/><line style="stroke:#181818;stroke-width:0.5;stroke-dasharray:5.0,5.0;" x1="363.2817" x2="363.2817" y1="93.8281" y2="629.9375"/><line style="stroke:#181818;stroke-width:0.5;stroke-dasharray:5.0,5.0;" x1="609.9907" x2="609.9907" y1="93.8281" y2="629.9375"/><rect fill="#E2E2F0" height="31.6094" rx="2.5" ry="2.5" style="stroke:#181818;stroke-width:0.5;" width="74.7031" x="120" y="61.2188"/><text fill="#000000" font-family="sans-serif" font-size="14" lengthAdjust="spacing" textLength="60.7031" x="127" y="82.752">Corrutina</text><rect fill="#E2E2F0" height="31.6094" rx="2.5" ry="2.5" style="stroke:#181818;stroke-width:0.5;" width="74.7031" x="120" y="628.9375"/><text fill="#000000" font-family="sans-serif" font-size="14" lengthAdjust="spacing" textLength="60.7031" x="127" y="650.4707">Corrutina</text><rect fill="#E2E2F0" height="31.6094" rx="2.5" ry="2.5" style="stroke:#181818;stroke-width:0.5;" width="77.041" x="325.2817" y="61.2188"/><text fill="#000000" font-family="sans-serif" font-size="14" lengthAdjust="spacing" textLength="63.041" x="332.2817" y="82.752">Planificador</text><rect fill="#E2E2F0" height="31.6094" rx="2.5" ry="2.5" style="stroke:#181818;stroke-width:0.5;" width="77.041" x="325.2817" y="628.9375"/><text fill="#000000" font-family="sans-serif" font-size="14" lengthAdjust="spacing" textLength="63.041" x="332.2817" y="650.4707">Planificador</text><rect fill="#E2E2F0" height="49.2188" rx="2.5" ry="2.5" style="stroke:#181818;stroke-width:0.5;" width="63.0205" x="578.9907" y="43.6094"/><text fill="#000000" font-family="sans-serif" font-size="14" lengthAdjust="spacing" textLength="49.0205" x="585.9907" y="65.1426">Reactor</text><text fill="#000000" font-family="sans-serif" font-size="14" lengthAdjust="spacing" textLength="38.1172" x="591.4424" y="82.752">(libuv)</text><rect fill="#E2E2F0" height="49.2188" rx="2.5" ry="2.5" style="stroke:#181818;stroke-width:0.5;" width="63.0205" x="578.9907" y="628.9375"/><text fill="#000000" font-family="sans-serif" font-size="14" lengthAdjust="spacing" textLength="49.0205" x="585.9907" y="650.4707">Reactor</text><text fill="#000000" font-family="sans-serif" font-size="14" lengthAdjust="spacing" textLength="38.1172" x="591.4424" y="668.0801">(libuv)</text><rect fill="#EEEEEE" height="3" style="stroke:#EEEEEE;stroke-width:1;" width="774.9399" x="0" y="125.0039"/><line style="stroke:#000000;stroke-width:1;" x1="0" x2="774.9399" y1="125.0039" y2="125.0039"/><line style="stroke:#000000;stroke-width:1;" x1="0" x2="774.9399" y1="128.0039" y2="128.0039"/><rect fill="#EEEEEE" height="24.3516" style="stroke:#000000;stroke-width:2;" width="223.4854" x="275.7273" y="113.8281"/><text fill="#000000" font-family="sans-serif" font-size="13" font-weight="bold" lengthAdjust="spacing" textLength="205.8735" x="281.7273" y="131.3232">Coroutine subscribes to an event</text><polygon fill="#181818" points="351.8022,177.707,361.8022,181.707,351.8022,185.707,355.8022,181.707" style="stroke:#181818;stroke-width:1;"/><line style="stroke:#181818;stroke-width:1;" x1="157.3516" x2="357.8022" y1="181.707" y2="181.707"/><text fill="#000000" font-family="sans-serif" font-size="13" lengthAdjust="spacing" textLength="71.5063" x="164.3516" y="176.8506">SUSPEND()</text><path d="M5,153.1797 L5,195.1797 L153,195.1797 L153,163.1797 L143,153.1797 L5,153.1797 " fill="#FEFFDD" style="stroke:#181818;stroke-width:0.5;"/><path d="M143,153.1797 L143,163.1797 L153,163.1797 L143,153.1797 " fill="#FEFFDD" style="stroke:#181818;stroke-width:0.5;"/><text fill="#000000" font-family="sans-serif" font-size="13" lengthAdjust="spacing" textLength="121.3862" x="11" y="171.6748">Coroutine awaits I/O,</text><text fill="#000000" font-family="sans-serif" font-size="13" lengthAdjust="spacing" textLength="127.1753" x="11" y="188.0264">timer or another event</text><line style="stroke:#181818;stroke-width:1;" x1="363.8022" x2="405.8022" y1="223.2344" y2="223.2344"/><line style="stroke:#181818;stroke-width:1;" x1="405.8022" x2="405.8022" y1="223.2344" y2="236.2344"/><line style="stroke:#181818;stroke-width:1;" x1="364.8022" x2="405.8022" y1="236.2344" y2="236.2344"/><polygon fill="#181818" points="374.8022,232.2344,364.8022,236.2344,374.8022,240.2344,370.8022,236.2344" style="stroke:#181818;stroke-width:1;"/><text fill="#000000" font-family="sans-serif" font-size="13" lengthAdjust="spacing" textLength="232.6987" x="370.8022" y="218.3779">Are there more coroutines in the queue?</text><path d="M110,251.2344 L170.1709,251.2344 L170.1709,259.5859 L160.1709,269.5859 L110,269.5859 L110,251.2344 " fill="#EEEEEE" style="stroke:#000000;stroke-width:1.5;"/><rect fill="none" height="221.2969" style="stroke:#000000;stroke-width:1.5;" width="654.9399" x="110" y="251.2344"/><text fill="#000000" font-family="sans-serif" font-size="13" font-weight="bold" lengthAdjust="spacing" textLength="15.1709" x="125" y="265.7295">alt</text><text fill="#000000" font-family="sans-serif" font-size="11" font-weight="bold" lengthAdjust="spacing" textLength="107.5615" x="185.1709" y="264.6533">[queue is not empty]</text><polygon fill="#181818" points="168.3516,287.9375,158.3516,291.9375,168.3516,295.9375,164.3516,291.9375" style="stroke:#181818;stroke-width:1;"/><line style="stroke:#181818;stroke-width:1;" x1="162.3516" x2="362.8022" y1="291.9375" y2="291.9375"/><text fill="#000000" font-family="sans-serif" font-size="13" lengthAdjust="spacing" textLength="182.4507" x="174.3516" y="287.0811">switch context -&gt; next coroutine</text><line style="stroke:#000000;stroke-width:1;stroke-dasharray:2.0,2.0;" x1="110" x2="764.9399" y1="300.9375" y2="300.9375"/><text fill="#000000" font-family="sans-serif" font-size="11" font-weight="bold" lengthAdjust="spacing" textLength="87.4038" x="115" y="312.3564">[queue is empty]</text><polygon fill="#181818" points="598.501,345.3008,608.501,349.3008,598.501,353.3008,602.501,349.3008" style="stroke:#181818;stroke-width:1;"/><line style="stroke:#181818;stroke-width:1;" x1="363.8022" x2="604.501" y1="349.3008" y2="349.3008"/><text fill="#000000" font-family="sans-serif" font-size="13" lengthAdjust="spacing" textLength="149.5762" x="370.8022" y="344.4443">reactor_execute(blocking)</text><path d="M615,320.7734 L615,362.7734 L749,362.7734 L749,330.7734 L739,320.7734 L615,320.7734 " fill="#FEFFDD" style="stroke:#181818;stroke-width:0.5;"/><path d="M739,320.7734 L739,330.7734 L749,330.7734 L739,320.7734 " fill="#FEFFDD" style="stroke:#181818;stroke-width:0.5;"/><text fill="#000000" font-family="sans-serif" font-size="13" lengthAdjust="spacing" textLength="113.439" x="621" y="339.2686">Wait for the nearest</text><text fill="#000000" font-family="sans-serif" font-size="13" lengthAdjust="spacing" textLength="91.7617" x="621" y="355.6201">event from libuv</text><polygon fill="#181818" points="374.8022,386.8281,364.8022,390.8281,374.8022,394.8281,370.8022,390.8281" style="stroke:#181818;stroke-width:1;"/><line style="stroke:#181818;stroke-width:1;stroke-dasharray:2.0,2.0;" x1="368.8022" x2="609.501" y1="390.8281" y2="390.8281"/><text fill="#000000" font-family="sans-serif" font-size="13" lengthAdjust="spacing" textLength="86.7217" x="380.8022" y="385.9717">event triggered</text><line style="stroke:#181818;stroke-width:1;" x1="363.8022" x2="405.8022" y1="421.1797" y2="421.1797"/><line style="stroke:#181818;stroke-width:1;" x1="405.8022" x2="405.8022" y1="421.1797" y2="434.1797"/><line style="stroke:#181818;stroke-width:1;" x1="364.8022" x2="405.8022" y1="434.1797" y2="434.1797"/><polygon fill="#181818" points="374.8022,430.1797,364.8022,434.1797,374.8022,438.1797,370.8022,434.1797" style="stroke:#181818;stroke-width:1;"/><text fill="#000000" font-family="sans-serif" font-size="13" lengthAdjust="spacing" textLength="177.0806" x="370.8022" y="416.3232">enqueue awakened coroutines</text><polygon fill="#181818" points="168.3516,460.5313,158.3516,464.5313,168.3516,468.5313,164.3516,464.5313" style="stroke:#181818;stroke-width:1;"/><line style="stroke:#181818;stroke-width:1;" x1="162.3516" x2="362.8022" y1="464.5313" y2="464.5313"/><text fill="#000000" font-family="sans-serif" font-size="13" lengthAdjust="spacing" textLength="154.2671" x="174.3516" y="459.6748">switch context -&gt; coroutine</text><rect fill="#EEEEEE" height="3" style="stroke:#EEEEEE;stroke-width:1;" width="774.9399" x="0" y="500.707"/><line style="stroke:#000000;stroke-width:1;" x1="0" x2="774.9399" y1="500.707" y2="500.707"/><line style="stroke:#000000;stroke-width:1;" x1="0" x2="774.9399" y1="503.707" y2="503.707"/><rect fill="#EEEEEE" height="24.3516" style="stroke:#000000;stroke-width:2;" width="179.439" x="297.7505" y="489.5313"/><text fill="#000000" font-family="sans-serif" font-size="13" font-weight="bold" lengthAdjust="spacing" textLength="161.8271" x="303.7505" y="507.0264">Between context switches</text><line style="stroke:#181818;stroke-width:1;" x1="363.8022" x2="405.8022" y1="546.2344" y2="546.2344"/><line style="stroke:#181818;stroke-width:1;" x1="405.8022" x2="405.8022" y1="546.2344" y2="559.2344"/><line style="stroke:#181818;stroke-width:1;" x1="364.8022" x2="405.8022" y1="559.2344" y2="559.2344"/><polygon fill="#181818" points="374.8022,555.2344,364.8022,559.2344,374.8022,563.2344,370.8022,559.2344" style="stroke:#181818;stroke-width:1;"/><text fill="#000000" font-family="sans-serif" font-size="13" lengthAdjust="spacing" textLength="112.6899" x="370.8022" y="541.3779">Procesar microtareas</text><polygon fill="#181818" points="598.501,596.7617,608.501,600.7617,598.501,604.7617,602.501,600.7617" style="stroke:#181818;stroke-width:1;"/><line style="stroke:#181818;stroke-width:1;" x1="363.8022" x2="604.501" y1="600.7617" y2="600.7617"/><text fill="#000000" font-family="sans-serif" font-size="13" lengthAdjust="spacing" textLength="175.5952" x="370.8022" y="595.9053">reactor_execute(non-blocking)</text><path d="M615,572.2344 L615,614.2344 L753,614.2344 L753,582.2344 L743,572.2344 L615,572.2344 " fill="#FEFFDD" style="stroke:#181818;stroke-width:0.5;"/><path d="M743,572.2344 L743,582.2344 L753,582.2344 L743,572.2344 " fill="#FEFFDD" style="stroke:#181818;stroke-width:0.5;"/><text fill="#000000" font-family="sans-serif" font-size="13" lengthAdjust="spacing" textLength="117.7808" x="621" y="590.7295">Collect ready events</text><text fill="#000000" font-family="sans-serif" font-size="13" lengthAdjust="spacing" textLength="85.2681" x="621" y="607.0811">without waiting</text><!--SRC=[ZPB1JW8n48RlVOe99qWatadGA7hWeaPYl92OqXtOXkuKsrc1jtVQoh943-wXE-tCVFtxjspP8InCZLNhC82c2bvH6_O1viGO9BIUbDhfmDROdIQ6mSm7tx8b782Ea6QN-OwNytbsMV2pnPA6pgxQhr6k-rbKQZg5RWU8xIgQO5SOWRte0_n2GKodIgKY6D-K3M02YxV5o-FJmt2ao3E2mpLFUYIzrvOZpA-VhvR4jf7Z-dHYpxM46QjKOVMWTm4X5I0qNWPpmaMmb1BmsMABjqffnoK66q6WWCsEZmhaww1PyGJYthAfXIKE7pWbAFqxja8NyGpx0tIwemc44dtW0KtBE5mvRxQMDgFSa8q8TbEB4-zoV5XBKr9Dg0D6NbAnSnry0_akSji9F-uPKGfPO1jnexhKqnLHKIrURv5awUpNFvtecK1LVWlto7j4wefAZrn0UWE_5Bm4Rp16QAm9ddNSHlKFryZJ-EnStxMPTmuDfuxgM4o8In89jSY4zAIaHNq3]--></g></svg>