<svg xmlns="http://www.w3.org/2000/svg" xmlns:xlink="http://www.w3.org/1999/xlink" contentStyleType="text/css" height="975px" preserveAspectRatio="none" style="width:773px;height:975px;background:#FFFFFF;" version="1.1" viewBox="0 0 773 975" width="773px" zoomAndPan="magnify"><title>&#1057;&#1073;&#1086;&#1088;&#1082;&#1072; &#1084;&#1091;&#1089;&#1086;&#1088;&#1072; &#1074; &#1086;&#1090;&#1076;&#1077;&#1083;&#1100;&#1085;&#1086;&#1081; &#1082;&#1086;&#1088;&#1091;&#1090;&#1080;&#1085;&#1077;</title><defs/><g><text fill="#000000" font-family="sans-serif" font-size="14" font-weight="bold" lengthAdjust="spacing" textLength="264.4346" x="250.6384" y="29.5332">&#1057;&#1073;&#1086;&#1088;&#1082;&#1072; &#1084;&#1091;&#1089;&#1086;&#1088;&#1072; &#1074; &#1086;&#1090;&#1076;&#1077;&#1083;&#1100;&#1085;&#1086;&#1081; &#1082;&#1086;&#1088;&#1091;&#1090;&#1080;&#1085;&#1077;</text><rect fill="#FFFFFF" height="616.0313" style="stroke:#181818;stroke-width:1;" width="10" x="340.4395" y="298.0313"/><rect fill="#FFFFFF" height="398.5703" style="stroke:#181818;stroke-width:1;" width="10" x="531.2666" y="448.7891"/><rect fill="none" height="234.8125" style="stroke:#000000;stroke-width:1.5;" width="599.4214" x="157.29" y="583.1953"/><line style="stroke:#181818;stroke-width:0.5;stroke-dasharray:5.0,5.0;" x1="48" x2="48" y1="76.2188" y2="939.0625"/><line style="stroke:#181818;stroke-width:0.5;stroke-dasharray:5.0,5.0;" x1="205.29" x2="205.29" y1="76.2188" y2="939.0625"/><line style="stroke:#181818;stroke-width:0.5;stroke-dasharray:5.0,5.0;" x1="345.3848" x2="345.3848" y1="76.2188" y2="939.0625"/><line style="stroke:#181818;stroke-width:0.5;stroke-dasharray:5.0,5.0;" x1="535.4878" x2="535.4878" y1="76.2188" y2="939.0625"/><line style="stroke:#181818;stroke-width:0.5;stroke-dasharray:5.0,5.0;" x1="683.7036" x2="683.7036" y1="76.2188" y2="939.0625"/><rect fill="#E2E2F0" height="31.6094" rx="2.5" ry="2.5" style="stroke:#181818;stroke-width:0.5;" width="87.7051" x="5" y="43.6094"/><text fill="#000000" font-family="sans-serif" font-size="14" lengthAdjust="spacing" textLength="73.7051" x="12" y="65.1426">&#1050;&#1086;&#1088;&#1091;&#1090;&#1080;&#1085;&#1072; A</text><rect fill="#E2E2F0" height="31.6094" rx="2.5" ry="2.5" style="stroke:#181818;stroke-width:0.5;" width="87.7051" x="5" y="938.0625"/><text fill="#000000" font-family="sans-serif" font-size="14" lengthAdjust="spacing" textLength="73.7051" x="12" y="959.5957">&#1050;&#1086;&#1088;&#1091;&#1090;&#1080;&#1085;&#1072; A</text><rect fill="#E2E2F0" height="31.6094" rx="2.5" ry="2.5" style="stroke:#181818;stroke-width:0.5;" width="77.041" x="167.29" y="43.6094"/><text fill="#000000" font-family="sans-serif" font-size="14" lengthAdjust="spacing" textLength="63.041" x="174.29" y="65.1426">Scheduler</text><rect fill="#E2E2F0" height="31.6094" rx="2.5" ry="2.5" style="stroke:#181818;stroke-width:0.5;" width="77.041" x="167.29" y="938.0625"/><text fill="#000000" font-family="sans-serif" font-size="14" lengthAdjust="spacing" textLength="63.041" x="174.29" y="959.5957">Scheduler</text><rect fill="#E2E2F0" height="31.6094" rx="2.5" ry="2.5" style="stroke:#181818;stroke-width:0.5;" width="98.1094" x="296.3848" y="43.6094"/><text fill="#000000" font-family="sans-serif" font-size="14" lengthAdjust="spacing" textLength="84.1094" x="303.3848" y="65.1426">GC-&#1082;&#1086;&#1088;&#1091;&#1090;&#1080;&#1085;&#1072;</text><rect fill="#E2E2F0" height="31.6094" rx="2.5" ry="2.5" style="stroke:#181818;stroke-width:0.5;" width="98.1094" x="296.3848" y="938.0625"/><text fill="#000000" font-family="sans-serif" font-size="14" lengthAdjust="spacing" textLength="84.1094" x="303.3848" y="959.5957">GC-&#1082;&#1086;&#1088;&#1091;&#1090;&#1080;&#1085;&#1072;</text><rect fill="#E2E2F0" height="31.6094" rx="2.5" ry="2.5" style="stroke:#181818;stroke-width:0.5;" width="103.5576" x="484.4878" y="43.6094"/><text fill="#000000" font-family="sans-serif" font-size="14" lengthAdjust="spacing" textLength="89.5576" x="491.4878" y="65.1426">Dtor-&#1082;&#1086;&#1088;&#1091;&#1090;&#1080;&#1085;&#1072;</text><rect fill="#E2E2F0" height="31.6094" rx="2.5" ry="2.5" style="stroke:#181818;stroke-width:0.5;" width="103.5576" x="484.4878" y="938.0625"/><text fill="#000000" font-family="sans-serif" font-size="14" lengthAdjust="spacing" textLength="89.5576" x="491.4878" y="959.5957">Dtor-&#1082;&#1086;&#1088;&#1091;&#1090;&#1080;&#1085;&#1072;</text><rect fill="#E2E2F0" height="31.6094" rx="2.5" ry="2.5" style="stroke:#181818;stroke-width:0.5;" width="87.7051" x="640.7036" y="43.6094"/><text fill="#000000" font-family="sans-serif" font-size="14" lengthAdjust="spacing" textLength="73.7051" x="647.7036" y="65.1426">&#1050;&#1086;&#1088;&#1091;&#1090;&#1080;&#1085;&#1072; B</text><rect fill="#E2E2F0" height="31.6094" rx="2.5" ry="2.5" style="stroke:#181818;stroke-width:0.5;" width="87.7051" x="640.7036" y="938.0625"/><text fill="#000000" font-family="sans-serif" font-size="14" lengthAdjust="spacing" textLength="73.7051" x="647.7036" y="959.5957">&#1050;&#1086;&#1088;&#1091;&#1090;&#1080;&#1085;&#1072; B</text><rect fill="#FFFFFF" height="616.0313" style="stroke:#181818;stroke-width:1;" width="10" x="340.4395" y="298.0313"/><rect fill="#FFFFFF" height="398.5703" style="stroke:#181818;stroke-width:1;" width="10" x="531.2666" y="448.7891"/><rect fill="#EEEEEE" height="3" style="stroke:#EEEEEE;stroke-width:1;" width="766.7114" x="0" y="107.3945"/><line style="stroke:#000000;stroke-width:1;" x1="0" x2="766.7114" y1="107.3945" y2="107.3945"/><line style="stroke:#000000;stroke-width:1;" x1="0" x2="766.7114" y1="110.3945" y2="110.3945"/><rect fill="#EEEEEE" height="24.3516" style="stroke:#000000;stroke-width:2;" width="147.561" x="309.5752" y="96.2188"/><text fill="#000000" font-family="sans-serif" font-size="13" font-weight="bold" lengthAdjust="spacing" textLength="129.9492" x="315.5752" y="113.7139">&#1055;&#1086;&#1088;&#1086;&#1075; GC &#1076;&#1086;&#1089;&#1090;&#1080;&#1075;&#1085;&#1091;&#1090;</text><line style="stroke:#181818;stroke-width:1;" x1="48.8525" x2="90.8525" y1="169.2734" y2="169.2734"/><line style="stroke:#181818;stroke-width:1;" x1="90.8525" x2="90.8525" y1="169.2734" y2="182.2734"/><line style="stroke:#181818;stroke-width:1;" x1="49.8525" x2="90.8525" y1="182.2734" y2="182.2734"/><polygon fill="#181818" points="59.8525,178.2734,49.8525,182.2734,59.8525,186.2734,55.8525,182.2734" style="stroke:#181818;stroke-width:1;"/><text fill="#000000" font-family="sans-serif" font-size="13" lengthAdjust="spacing" textLength="106.9453" x="55.8525" y="148.0654">gc_possible_root()</text><text fill="#000000" font-family="sans-serif" font-size="13" lengthAdjust="spacing" textLength="78.9775" x="55.8525" y="164.417">&#1073;&#1091;&#1092;&#1077;&#1088; &#1087;&#1086;&#1083;&#1086;&#1085;</text><polygon fill="#181818" points="193.8105,227.9766,203.8105,231.9766,193.8105,235.9766,197.8105,231.9766" style="stroke:#181818;stroke-width:1;"/><line style="stroke:#181818;stroke-width:1;" x1="48.8525" x2="199.8105" y1="231.9766" y2="231.9766"/><text fill="#000000" font-family="sans-serif" font-size="13" lengthAdjust="spacing" textLength="132.958" x="55.8525" y="227.1201">start_gc_in_coroutine()</text><path d="M210,195.2734 L210,254.2734 L349,254.2734 L349,205.2734 L339,195.2734 L210,195.2734 " fill="#FEFFDD" style="stroke:#181818;stroke-width:0.5;"/><path d="M339,195.2734 L339,205.2734 L349,205.2734 L339,195.2734 " fill="#FEFFDD" style="stroke:#181818;stroke-width:0.5;"/><text fill="#000000" font-family="sans-serif" font-size="13" lengthAdjust="spacing" textLength="68.4404" x="216" y="213.7686">&#1050;&#1086;&#1088;&#1091;&#1090;&#1080;&#1085;&#1072; A</text><text fill="#000000" font-family="sans-serif" font-size="13" lengthAdjust="spacing" textLength="97.2969" x="216" y="230.1201">&#1085;&#1077; &#1073;&#1083;&#1086;&#1082;&#1080;&#1088;&#1091;&#1077;&#1090;&#1089;&#1103;,</text><text fill="#000000" font-family="sans-serif" font-size="13" lengthAdjust="spacing" textLength="118.2124" x="216" y="246.4717">&#1087;&#1088;&#1086;&#1076;&#1086;&#1083;&#1078;&#1072;&#1077;&#1090; &#1088;&#1072;&#1073;&#1086;&#1090;&#1091;</text><polygon fill="#181818" points="328.4395,294.0313,338.4395,298.0313,328.4395,302.0313,332.4395,298.0313" style="stroke:#181818;stroke-width:1;"/><line style="stroke:#181818;stroke-width:1;" x1="205.8105" x2="334.4395" y1="298.0313" y2="298.0313"/><text fill="#000000" font-family="sans-serif" font-size="13" lengthAdjust="spacing" textLength="115.6289" x="212.8105" y="276.8232">spawn gc_coroutine</text><text fill="#000000" font-family="sans-serif" font-size="13" lengthAdjust="spacing" textLength="64.3081" x="212.8105" y="293.1748">(gc_scope)</text><line style="stroke:#181818;stroke-width:1;" x1="350.4395" x2="392.4395" y1="344.7344" y2="344.7344"/><line style="stroke:#181818;stroke-width:1;" x1="392.4395" x2="392.4395" y1="344.7344" y2="357.7344"/><line style="stroke:#181818;stroke-width:1;" x1="351.4395" x2="392.4395" y1="357.7344" y2="357.7344"/><polygon fill="#181818" points="361.4395,353.7344,351.4395,357.7344,361.4395,361.7344,357.4395,357.7344" style="stroke:#181818;stroke-width:1;"/><text fill="#000000" font-family="sans-serif" font-size="13" lengthAdjust="spacing" textLength="145.2344" x="357.4395" y="323.5264">zend_gc_collect_cycles()</text><text fill="#000000" font-family="sans-serif" font-size="13" lengthAdjust="spacing" textLength="106.2598" x="357.4395" y="339.8779">&#1084;&#1072;&#1088;&#1082;&#1080;&#1088;&#1086;&#1074;&#1082;&#1072;, &#1089;&#1073;&#1086;&#1088;</text><rect fill="#EEEEEE" height="3" style="stroke:#EEEEEE;stroke-width:1;" width="766.7114" x="0" y="386.9102"/><line style="stroke:#000000;stroke-width:1;" x1="0" x2="766.7114" y1="386.9102" y2="386.9102"/><line style="stroke:#000000;stroke-width:1;" x1="0" x2="766.7114" y1="389.9102" y2="389.9102"/><rect fill="#EEEEEE" height="24.3516" style="stroke:#000000;stroke-width:2;" width="153.0454" x="306.833" y="375.7344"/><text fill="#000000" font-family="sans-serif" font-size="13" font-weight="bold" lengthAdjust="spacing" textLength="135.4336" x="312.833" y="393.2295">&#1042;&#1099;&#1079;&#1086;&#1074; &#1076;&#1077;&#1089;&#1090;&#1088;&#1091;&#1082;&#1090;&#1086;&#1088;&#1086;&#1074;</text><polygon fill="#181818" points="519.2666,444.7891,529.2666,448.7891,519.2666,452.7891,523.2666,448.7891" style="stroke:#181818;stroke-width:1;"/><line style="stroke:#181818;stroke-width:1;" x1="350.4395" x2="525.2666" y1="448.7891" y2="448.7891"/><text fill="#000000" font-family="sans-serif" font-size="13" lengthAdjust="spacing" textLength="124.2998" x="357.4395" y="427.5811">spawn dtor_coroutine</text><text fill="#000000" font-family="sans-serif" font-size="13" lengthAdjust="spacing" textLength="161.8271" x="357.4395" y="443.9326">(dtor_scope, HI_PRIORITY)</text><line style="stroke:#181818;stroke-width:1;" x1="350.4395" x2="392.4395" y1="495.4922" y2="495.4922"/><line style="stroke:#181818;stroke-width:1;" x1="392.4395" x2="392.4395" y1="495.4922" y2="508.4922"/><line style="stroke:#181818;stroke-width:1;" x1="351.4395" x2="392.4395" y1="508.4922" y2="508.4922"/><polygon fill="#181818" points="361.4395,504.4922,351.4395,508.4922,361.4395,512.4922,357.4395,508.4922" style="stroke:#181818;stroke-width:1;"/><text fill="#000000" font-family="sans-serif" font-size="13" lengthAdjust="spacing" textLength="71.5063" x="357.4395" y="474.2842">SUSPEND()</text><text fill="#000000" font-family="sans-serif" font-size="13" lengthAdjust="spacing" textLength="97.3984" x="357.4395" y="490.6357">&#1078;&#1076;&#1105;&#1090; dtor_scope</text><line style="stroke:#181818;stroke-width:1;" x1="541.2666" x2="583.2666" y1="555.1953" y2="555.1953"/><line style="stroke:#181818;stroke-width:1;" x1="583.2666" x2="583.2666" y1="555.1953" y2="568.1953"/><line style="stroke:#181818;stroke-width:1;" x1="542.2666" x2="583.2666" y1="568.1953" y2="568.1953"/><polygon fill="#181818" points="552.2666,564.1953,542.2666,568.1953,552.2666,572.1953,548.2666,568.1953" style="stroke:#181818;stroke-width:1;"/><text fill="#000000" font-family="sans-serif" font-size="13" lengthAdjust="spacing" textLength="84.9063" x="548.2666" y="533.9873">obj-&gt;dtor_obj()</text><text fill="#000000" font-family="sans-serif" font-size="13" lengthAdjust="spacing" textLength="114.2896" x="548.2666" y="550.3389">&#1074;&#1099;&#1079;&#1086;&#1074; &#1076;&#1077;&#1089;&#1090;&#1088;&#1091;&#1082;&#1090;&#1086;&#1088;&#1072;</text><path d="M157.29,583.1953 L217.4609,583.1953 L217.4609,591.5469 L207.4609,601.5469 L157.29,601.5469 L157.29,583.1953 " fill="#EEEEEE" style="stroke:#000000;stroke-width:1.5;"/><rect fill="none" height="234.8125" style="stroke:#000000;stroke-width:1.5;" width="599.4214" x="157.29" y="583.1953"/><text fill="#000000" font-family="sans-serif" font-size="13" font-weight="bold" lengthAdjust="spacing" textLength="15.1709" x="172.29" y="597.6904">alt</text><text fill="#000000" font-family="sans-serif" font-size="11" font-weight="bold" lengthAdjust="spacing" textLength="145.0679" x="232.4609" y="596.6143">[&#1044;&#1077;&#1089;&#1090;&#1088;&#1091;&#1082;&#1090;&#1086;&#1088; &#1074;&#1099;&#1079;&#1074;&#1072;&#1083; await]</text><polygon fill="#181818" points="216.8105,622.8984,206.8105,626.8984,216.8105,630.8984,212.8105,626.8984" style="stroke:#181818;stroke-width:1;"/><line style="stroke:#181818;stroke-width:1;" x1="210.8105" x2="530.2666" y1="626.8984" y2="626.8984"/><text fill="#000000" font-family="sans-serif" font-size="13" lengthAdjust="spacing" textLength="71.5063" x="222.8105" y="622.042">SUSPEND()</text><path d="M546,606.5469 L546,632.5469 L689,632.5469 L689,616.5469 L679,606.5469 L546,606.5469 " fill="#FEFFDD" style="stroke:#181818;stroke-width:0.5;"/><path d="M679,606.5469 L679,616.5469 L689,616.5469 L679,606.5469 " fill="#FEFFDD" style="stroke:#181818;stroke-width:0.5;"/><text fill="#000000" font-family="sans-serif" font-size="13" lengthAdjust="spacing" textLength="122.3447" x="552" y="625.042">&#1044;&#1077;&#1089;&#1090;&#1088;&#1091;&#1082;&#1090;&#1086;&#1088; &#1078;&#1076;&#1105;&#1090; I/O</text><polygon fill="#181818" points="672.5562,656.25,682.5562,660.25,672.5562,664.25,676.5562,660.25" style="stroke:#181818;stroke-width:1;"/><line style="stroke:#181818;stroke-width:1;" x1="205.8105" x2="678.5562" y1="660.25" y2="660.25"/><text fill="#000000" font-family="sans-serif" font-size="13" lengthAdjust="spacing" textLength="208.5205" x="212.8105" y="655.3936">&#1087;&#1077;&#1088;&#1077;&#1082;&#1083;&#1102;&#1095;&#1077;&#1085;&#1080;&#1077; &#1085;&#1072; &#1076;&#1088;&#1091;&#1075;&#1091;&#1102; &#1082;&#1086;&#1088;&#1091;&#1090;&#1080;&#1085;&#1091;</text><line style="stroke:#181818;stroke-width:1;" x1="684.5562" x2="726.5562" y1="690.6016" y2="690.6016"/><line style="stroke:#181818;stroke-width:1;" x1="726.5562" x2="726.5562" y1="690.6016" y2="703.6016"/><line style="stroke:#181818;stroke-width:1;" x1="685.5562" x2="726.5562" y1="703.6016" y2="703.6016"/><polygon fill="#181818" points="695.5562,699.6016,685.5562,703.6016,695.5562,707.6016,691.5562,703.6016" style="stroke:#181818;stroke-width:1;"/><text fill="#000000" font-family="sans-serif" font-size="13" lengthAdjust="spacing" textLength="53.1553" x="691.5562" y="685.7451">&#1088;&#1072;&#1073;&#1086;&#1090;&#1072;...</text><polygon fill="#181818" points="519.2666,746.3047,529.2666,750.3047,519.2666,754.3047,523.2666,750.3047" style="stroke:#181818;stroke-width:1;"/><line style="stroke:#181818;stroke-width:1;" x1="205.8105" x2="525.2666" y1="750.3047" y2="750.3047"/><text fill="#000000" font-family="sans-serif" font-size="13" lengthAdjust="spacing" textLength="111.6362" x="212.8105" y="729.0967">microtask &#8594; spawn</text><text fill="#000000" font-family="sans-serif" font-size="13" lengthAdjust="spacing" textLength="120.1992" x="212.8105" y="745.4482">&#1085;&#1086;&#1074;&#1072;&#1103; dtor-&#1082;&#1086;&#1088;&#1091;&#1090;&#1080;&#1085;&#1072;</text><line style="stroke:#181818;stroke-width:1;" x1="541.2666" x2="583.2666" y1="797.0078" y2="797.0078"/><line style="stroke:#181818;stroke-width:1;" x1="583.2666" x2="583.2666" y1="797.0078" y2="810.0078"/><line style="stroke:#181818;stroke-width:1;" x1="542.2666" x2="583.2666" y1="810.0078" y2="810.0078"/><polygon fill="#181818" points="552.2666,806.0078,542.2666,810.0078,552.2666,814.0078,548.2666,810.0078" style="stroke:#181818;stroke-width:1;"/><text fill="#000000" font-family="sans-serif" font-size="13" lengthAdjust="spacing" textLength="72.5854" x="548.2666" y="775.7998">&#1087;&#1088;&#1086;&#1076;&#1086;&#1083;&#1078;&#1080;&#1090;&#1100;</text><text fill="#000000" font-family="sans-serif" font-size="13" lengthAdjust="spacing" textLength="56.3608" x="548.2666" y="792.1514">&#1089; dtor_idx</text><polygon fill="#181818" points="216.8105,843.3594,206.8105,847.3594,216.8105,851.3594,212.8105,847.3594" style="stroke:#181818;stroke-width:1;"/><line style="stroke:#181818;stroke-width:1;" x1="210.8105" x2="535.2666" y1="847.3594" y2="847.3594"/><text fill="#000000" font-family="sans-serif" font-size="13" lengthAdjust="spacing" textLength="127.3276" x="222.8105" y="842.5029">dtor_scope &#1079;&#1072;&#1074;&#1077;&#1088;&#1096;&#1105;&#1085;</text><polygon fill="#181818" points="328.4395,873.7109,338.4395,877.7109,328.4395,881.7109,332.4395,877.7109" style="stroke:#181818;stroke-width:1;"/><line style="stroke:#181818;stroke-width:1;" x1="205.8105" x2="334.4395" y1="877.7109" y2="877.7109"/><text fill="#000000" font-family="sans-serif" font-size="13" lengthAdjust="spacing" textLength="64.2764" x="212.8105" y="872.8545">RESUME()</text><line style="stroke:#181818;stroke-width:1;" x1="350.4395" x2="392.4395" y1="913.0625" y2="913.0625"/><line style="stroke:#181818;stroke-width:1;" x1="392.4395" x2="392.4395" y1="913.0625" y2="926.0625"/><line style="stroke:#181818;stroke-width:1;" x1="345.4395" x2="392.4395" y1="926.0625" y2="926.0625"/><polygon fill="#181818" points="355.4395,922.0625,345.4395,926.0625,355.4395,930.0625,351.4395,926.0625" style="stroke:#181818;stroke-width:1;"/><text fill="#000000" font-family="sans-serif" font-size="13" lengthAdjust="spacing" textLength="134.7988" x="357.4395" y="908.2061">&#1086;&#1089;&#1074;&#1086;&#1073;&#1086;&#1078;&#1076;&#1077;&#1085;&#1080;&#1077; &#1087;&#1072;&#1084;&#1103;&#1090;&#1080;</text><!--SRC=[XLFBJjjG4DtVhnYn0Wde7Yb82I2QHGiYPL49oJAE1MvTEx8lfUqAGjLMAY82TTLDrJymWT0qaF0BSt-XNz9pn-HXG2qIaczcvioPCsTqe4EV-2UVyy0SS8ypuXjpP0xbYKURyDNaI-xmjJdcFW_uDo4FOQGrkOkVEaert4G7Nj1m8qrJ_BqGpgWyHMvAvM9MpTlrwtkXdqXGNiM4rQMvUuqoILrTAkOjwpXvFDD6_aEj8eaLfKebuXyozO0lq8Cmyy0SIk85zsq9bKfAbMbkaSgqG3kUquZJDDWEVIU9OpqzinNnEV8-SiSS4Dy2w1h__Rn41aHPgi77GN4GELwSn7iwYFpf6HN5sgSasDdL2_HGG413PyAQB6IFkpQCFaqmRCqYUYl4BwNd5MSsH7Q3ijYcEL8g9m0cc0qq6kv-P6SOSTYAfl5ClRZXpoZNqy5R5umWDlA7LH_ygEv8KHZwddQyzrxefpBv3MTYeAuGQLihpH9y9CRAvJqpN_cN3LfjErPRcQA7CNFTsw9mti_kRiIpZaU1gVmWN6VfQTLPtwYkRLHVl9mWBhkVe5xRhAslF5yMhbTyQKuXq1X5AUatxXjllvfRb3Y-fAZzR_QPKcweYRyzZD5TRHlhk2Pttmsq8lmDMmwjCQ8eqO8X7aKTZb5ziYOLemrN00R_mOOusnuEzyHynbSVReA7hA5GQQ4kuB6JU-SChrYmoX1ex2BEvkVdYvtkr7eJU4citVGr_VbqbkzC76kDa9cM2FtWH0iQt07Tyt4N8nzlHUOmNrLGVwVWmF6oXigD5qdGEKDNp6w-c5DSNzqlUg9u1nihjSrdAv1ymYhsxW4ni5DRaSVItGBxnhJi19EuE9A_]--></g></svg>