<svg xmlns="http://www.w3.org/2000/svg" xmlns:xlink="http://www.w3.org/1999/xlink" contentStyleType="text/css" height="829px" preserveAspectRatio="none" style="width:498px;height:829px;background:#FFFFFF;" version="1.1" viewBox="0 0 498 829" width="498px" zoomAndPan="magnify"><title>&#1054;&#1073;&#1097;&#1072;&#1103; &#1089;&#1093;&#1077;&#1084;&#1072;: FrankenPHP + TrueAsync</title><defs/><g><text fill="#000000" font-family="sans-serif" font-size="14" font-weight="bold" lengthAdjust="spacing" textLength="272.8086" x="106.0293" y="24.5332">&#1054;&#1073;&#1097;&#1072;&#1103; &#1089;&#1093;&#1077;&#1084;&#1072;: FrankenPHP + TrueAsync</text><!--cluster Go Runtime--><g id="cluster_Go Runtime"><rect fill="#FFF3E0" height="335" rx="2.5" ry="2.5" style="stroke:#181818;stroke-width:1;" width="198" x="179" y="45.6094"/><text fill="#000000" font-family="sans-serif" font-size="14" font-weight="bold" lengthAdjust="spacing" textLength="79.3311" x="238.3345" y="62.1426">Go Runtime</text></g><!--cluster ????????????? ?????--><g id="cluster_&#1052;&#1077;&#1078;&#1087;&#1088;&#1086;&#1094;&#1077;&#1089;&#1089;&#1085;&#1072;&#1103; &#1089;&#1074;&#1103;&#1079;&#1100;"><rect fill="#FFF9C4" height="117" rx="2.5" ry="2.5" style="stroke:#181818;stroke-width:1;" width="480" x="7" y="430.6094"/><text fill="#000000" font-family="sans-serif" font-size="14" font-weight="bold" lengthAdjust="spacing" textLength="155.3262" x="169.3369" y="447.1426">&#1052;&#1077;&#1078;&#1087;&#1088;&#1086;&#1094;&#1077;&#1089;&#1089;&#1085;&#1072;&#1103; &#1089;&#1074;&#1103;&#1079;&#1100;</text></g><!--cluster PHP Runtime (TrueAsync)--><g id="cluster_PHP Runtime (TrueAsync)"><rect fill="#E3F2FD" height="226" rx="2.5" ry="2.5" style="stroke:#181818;stroke-width:1;" width="302" x="42" y="597.6094"/><text fill="#000000" font-family="sans-serif" font-size="14" font-weight="bold" lengthAdjust="spacing" textLength="174.248" x="105.876" y="614.1426">PHP Runtime (TrueAsync)</text></g><!--entity Caddy--><g id="elem_Caddy"><rect fill="#F1F1F1" height="47.6094" rx="2.5" ry="2.5" style="stroke:#181818;stroke-width:0.5;" width="166.0342" x="195" y="81.6094"/><rect fill="#F1F1F1" height="10" style="stroke:#181818;stroke-width:0.5;" width="15" x="341.0342" y="86.6094"/><rect fill="#F1F1F1" height="2" style="stroke:#181818;stroke-width:0.5;" width="4" x="339.0342" y="88.6094"/><rect fill="#F1F1F1" height="2" style="stroke:#181818;stroke-width:0.5;" width="4" x="339.0342" y="92.6094"/><text fill="#000000" font-family="sans-serif" font-size="14" lengthAdjust="spacing" textLength="126.0342" x="210" y="116.1426">Caddy HTTP Server</text></g><!--entity G1--><g id="elem_G1"><rect fill="#F1F1F1" height="47.6094" rx="2.5" ry="2.5" style="stroke:#181818;stroke-width:0.5;" width="99.9033" x="228" y="190.6094"/><rect fill="#F1F1F1" height="10" style="stroke:#181818;stroke-width:0.5;" width="15" x="307.9033" y="195.6094"/><rect fill="#F1F1F1" height="2" style="stroke:#181818;stroke-width:0.5;" width="4" x="305.9033" y="197.6094"/><rect fill="#F1F1F1" height="2" style="stroke:#181818;stroke-width:0.5;" width="4" x="305.9033" y="201.6094"/><text fill="#000000" font-family="sans-serif" font-size="14" lengthAdjust="spacing" textLength="59.9033" x="243" y="225.1426">&#1043;&#1086;&#1088;&#1091;&#1090;&#1080;&#1085;&#1072;</text></g><!--entity RR--><g id="elem_RR"><rect fill="#F1F1F1" height="65.2188" rx="2.5" ry="2.5" style="stroke:#181818;stroke-width:0.5;" width="122.4961" x="201" y="299.6094"/><rect fill="#F1F1F1" height="10" style="stroke:#181818;stroke-width:0.5;" width="15" x="303.4961" y="304.6094"/><rect fill="#F1F1F1" height="2" style="stroke:#181818;stroke-width:0.5;" width="4" x="301.4961" y="306.6094"/><rect fill="#F1F1F1" height="2" style="stroke:#181818;stroke-width:0.5;" width="4" x="301.4961" y="310.6094"/><text fill="#000000" font-family="sans-serif" font-size="14" lengthAdjust="spacing" textLength="82.4961" x="216" y="334.1426">Round-Robin</text><text fill="#000000" font-family="sans-serif" font-size="14" lengthAdjust="spacing" textLength="66.917" x="216" y="351.752">Dispatcher</text></g><!--entity ReqChan--><g id="elem_ReqChan"><path d="M28,476.6094 L160.0283,476.6094 C165.0283,476.6094 165.0283,499.2188 165.0283,499.2188 C165.0283,499.2188 165.0283,521.8281 160.0283,521.8281 L28,521.8281 C23,521.8281 23,499.2188 23,499.2188 C23,499.2188 23,476.6094 28,476.6094 " fill="#F1F1F1" style="stroke:#181818;stroke-width:0.5;"/><path d="M160.0283,476.6094 C155.0283,476.6094 155.0283,499.2188 155.0283,499.2188 C155.0283,521.8281 160.0283,521.8281 160.0283,521.8281 " fill="none" style="stroke:#181818;stroke-width:0.5;"/><text fill="#000000" font-family="sans-serif" font-size="14" lengthAdjust="spacing" textLength="80.165" x="28" y="496.1426">requestChan</text><text fill="#000000" font-family="sans-serif" font-size="14" lengthAdjust="spacing" textLength="122.0283" x="28" y="513.752">(&#1073;&#1091;&#1092;&#1077;&#1088;&#1080;&#1079;&#1086;&#1074;&#1072;&#1085;&#1085;&#1099;&#1081;)</text></g><!--entity RespChan--><g id="elem_RespChan"><path d="M364.5,485.1094 L465.5615,485.1094 C470.5615,485.1094 470.5615,498.9141 470.5615,498.9141 C470.5615,498.9141 470.5615,512.7188 465.5615,512.7188 L364.5,512.7188 C359.5,512.7188 359.5,498.9141 359.5,498.9141 C359.5,498.9141 359.5,485.1094 364.5,485.1094 " fill="#F1F1F1" style="stroke:#181818;stroke-width:0.5;"/><path d="M465.5615,485.1094 C460.5615,485.1094 460.5615,498.9141 460.5615,498.9141 C460.5615,512.7188 465.5615,512.7188 465.5615,512.7188 " fill="none" style="stroke:#181818;stroke-width:0.5;"/><text fill="#000000" font-family="sans-serif" font-size="14" lengthAdjust="spacing" textLength="91.0615" x="364.5" y="504.6426">responseChan</text></g><!--entity Notifier--><g id="elem_Notifier"><rect fill="#F1F1F1" height="65.2188" rx="2.5" ry="2.5" style="stroke:#181818;stroke-width:0.5;" width="124.0615" x="200" y="466.6094"/><rect fill="#F1F1F1" height="10" style="stroke:#181818;stroke-width:0.5;" width="15" x="304.0615" y="471.6094"/><rect fill="#F1F1F1" height="2" style="stroke:#181818;stroke-width:0.5;" width="4" x="302.0615" y="473.6094"/><rect fill="#F1F1F1" height="2" style="stroke:#181818;stroke-width:0.5;" width="4" x="302.0615" y="477.6094"/><text fill="#000000" font-family="sans-serif" font-size="14" lengthAdjust="spacing" textLength="82.4688" x="215" y="501.1426">AsyncNotifier</text><text fill="#000000" font-family="sans-serif" font-size="14" lengthAdjust="spacing" textLength="84.0615" x="215" y="518.752">eventfd / pipe</text></g><!--entity Reactor--><g id="elem_Reactor"><rect fill="#F1F1F1" height="47.6094" rx="2.5" ry="2.5" style="stroke:#181818;stroke-width:0.5;" width="131.0273" x="196.5" y="633.6094"/><rect fill="#F1F1F1" height="10" style="stroke:#181818;stroke-width:0.5;" width="15" x="307.5273" y="638.6094"/><rect fill="#F1F1F1" height="2" style="stroke:#181818;stroke-width:0.5;" width="4" x="305.5273" y="640.6094"/><rect fill="#F1F1F1" height="2" style="stroke:#181818;stroke-width:0.5;" width="4" x="305.5273" y="644.6094"/><text fill="#000000" font-family="sans-serif" font-size="14" lengthAdjust="spacing" textLength="91.0273" x="211.5" y="668.1426">Reactor (libuv)</text></g><!--entity Sched--><g id="elem_Sched"><rect fill="#F1F1F1" height="47.6094" rx="2.5" ry="2.5" style="stroke:#181818;stroke-width:0.5;" width="103.041" x="58.5" y="633.6094"/><rect fill="#F1F1F1" height="10" style="stroke:#181818;stroke-width:0.5;" width="15" x="141.541" y="638.6094"/><rect fill="#F1F1F1" height="2" style="stroke:#181818;stroke-width:0.5;" width="4" x="139.541" y="640.6094"/><rect fill="#F1F1F1" height="2" style="stroke:#181818;stroke-width:0.5;" width="4" x="139.541" y="644.6094"/><text fill="#000000" font-family="sans-serif" font-size="14" lengthAdjust="spacing" textLength="63.041" x="73.5" y="668.1426">Scheduler</text></g><!--entity CR1--><g id="elem_CR1"><rect fill="#F1F1F1" height="47.6094" rx="2.5" ry="2.5" style="stroke:#181818;stroke-width:0.5;" width="100.4775" x="186" y="759.6094"/><rect fill="#F1F1F1" height="10" style="stroke:#181818;stroke-width:0.5;" width="15" x="266.4775" y="764.6094"/><rect fill="#F1F1F1" height="2" style="stroke:#181818;stroke-width:0.5;" width="4" x="264.4775" y="766.6094"/><rect fill="#F1F1F1" height="2" style="stroke:#181818;stroke-width:0.5;" width="4" x="264.4775" y="770.6094"/><text fill="#000000" font-family="sans-serif" font-size="14" lengthAdjust="spacing" textLength="60.4775" x="201" y="794.1426">&#1050;&#1086;&#1088;&#1091;&#1090;&#1080;&#1085;&#1072;</text></g><!--link Caddy to G1--><g id="link_Caddy_G1"><path d="M278,129.8294 C278,147.7694 278,166.4994 278,184.4394 " fill="none" id="Caddy-to-G1" style="stroke:#181818;stroke-width:1;"/><polygon fill="#181818" points="278,190.4394,282,181.4394,278,185.4394,274,181.4394,278,190.4394" style="stroke:#181818;stroke-width:1;"/></g><!--link G1 to RR--><g id="link_G1_RR"><path d="M274.8,238.7094 C272.39,256.0894 269.8934,274.1661 267.2334,293.3661 " fill="none" id="G1-to-RR" style="stroke:#181818;stroke-width:1;"/><polygon fill="#181818" points="266.41,299.3094,271.6072,290.9434,267.0962,294.3567,263.6829,289.8456,266.41,299.3094" style="stroke:#181818;stroke-width:1;"/></g><!--link RR to ReqChan--><g id="link_RR_ReqChan"><path d="M212.43,364.6494 C199.01,374.1794 184.92,385.1794 173,396.6094 C147.22,421.3394 126.1705,449.8455 111.4905,471.4655 " fill="none" id="RR-to-ReqChan" style="stroke:#181818;stroke-width:1;"/><polygon fill="#181818" points="108.12,476.4294,116.4849,471.2306,110.9287,472.2928,109.8665,466.7366,108.12,476.4294" style="stroke:#181818;stroke-width:1;"/><text fill="#000000" font-family="sans-serif" font-size="13" lengthAdjust="spacing" textLength="79.46" x="174" y="411.1045">HTTP-&#1079;&#1072;&#1087;&#1088;&#1086;&#1089;</text></g><!--link RR to Notifier--><g id="link_RR_Notifier"><path d="M262,364.9194 C262,394.1394 262,431.2094 262,460.3894 " fill="none" id="RR-to-Notifier" style="stroke:#181818;stroke-width:1;"/><polygon fill="#181818" points="262,466.3894,266,457.3894,262,461.3894,258,457.3894,262,466.3894" style="stroke:#181818;stroke-width:1;"/><text fill="#000000" font-family="sans-serif" font-size="13" lengthAdjust="spacing" textLength="41.8882" x="263" y="411.1045">Notify()</text></g><!--link Notifier to Reactor--><g id="link_Notifier_Reactor"><path d="M262,531.7794 C262,561.7894 262,600.1694 262,627.1394 " fill="none" id="Notifier-to-Reactor" style="stroke:#181818;stroke-width:1;"/><polygon fill="#181818" points="262,633.1394,266,624.1394,262,628.1394,258,624.1394,262,633.1394" style="stroke:#181818;stroke-width:1;"/><text fill="#000000" font-family="sans-serif" font-size="13" lengthAdjust="spacing" textLength="46.9727" x="263" y="578.1045">fd ready</text></g><!--link ReqChan to Sched--><g id="link_ReqChan_Sched"><path d="M96.22,521.8694 C99.23,551.2694 103.9486,597.4706 107.0286,627.5406 " fill="none" id="ReqChan-to-Sched" style="stroke:#181818;stroke-width:1;"/><polygon fill="#181818" points="107.64,633.5094,110.7021,624.1486,107.1305,628.5354,102.7438,624.9638,107.64,633.5094" style="stroke:#181818;stroke-width:1;"/><text fill="#000000" font-family="sans-serif" font-size="13" lengthAdjust="spacing" textLength="99.709" x="103" y="578.1045">check_requests()</text></g><!--link Sched to CR1--><g id="link_Sched_CR1"><path d="M133.4,681.6394 C155.89,703.7794 185.4234,732.8409 208.0134,755.0709 " fill="none" id="Sched-to-CR1" style="stroke:#181818;stroke-width:1;"/><polygon fill="#181818" points="212.29,759.2794,208.6807,750.1157,208.7262,755.7724,203.0695,755.8178,212.29,759.2794" style="stroke:#181818;stroke-width:1;"/><text fill="#000000" font-family="sans-serif" font-size="13" lengthAdjust="spacing" textLength="37.5781" x="181" y="726.1045">spawn</text></g><!--link CR1 to RespChan--><g id="link_CR1_RespChan"><path d="M267.87,759.5694 C291.83,740.8594 324.01,712.5694 345,681.6094 C383.28,625.1394 403.3621,550.6214 410.7121,519.2314 " fill="none" id="CR1-to-RespChan" style="stroke:#181818;stroke-width:1;"/><polygon fill="#181818" points="412.08,513.3894,406.1335,521.2404,410.9401,518.2577,413.9228,523.0643,412.08,513.3894" style="stroke:#181818;stroke-width:1;"/><text fill="#000000" font-family="sans-serif" font-size="13" lengthAdjust="spacing" textLength="101.8672" x="389" y="663.1045">Response::write()</text></g><!--link RespChan to G1--><g id="link_RespChan_G1"><path d="M411.53,485.0194 C402.61,452.4094 376.98,365.4494 341,299.6094 C328.94,277.5394 315.3982,259.4694 301.9582,243.2494 " fill="none" id="RespChan-to-G1" style="stroke:#181818;stroke-width:1;"/><polygon fill="#181818" points="298.13,238.6294,300.7923,248.1116,301.3202,242.4794,306.9523,243.0073,298.13,238.6294" style="stroke:#181818;stroke-width:1;"/><text fill="#000000" font-family="sans-serif" font-size="13" lengthAdjust="spacing" textLength="71.5444" x="381" y="337.6045">HTTP-&#1086;&#1090;&#1074;&#1077;&#1090;</text></g><!--SRC=[RLBBQXin5DthAuIpiIccTTDDPr4eJkoiYf6zIqgHPnH7UAAPQ3GEfXJif2cK5hBehfH-mzIGfeN6_GNfZthrc261QZEQUu-EpZr7YgkKOVrT_p0VTMMkiLcRAtsZ_-WgmWD9nPo9qS48Fy8JMRANnLB421LpBd8gwIcUqdW-arafadwMPXBl3DowXyW1GMTih9PmZsInecAMCeH27RU66IQbKFoKjTpntVqd-2t2i0xxD4cM-60o6U4namicNsDQO5Vr0Fr5RytAN9eB_KlVwShrXptV95PMbsHJBex47YzogkAJm448UdTFW_u68__KVyqA-3xe6p1XRVcS7tfZhlMj-UpbFUy_2_BEIbR2MSbWKwZ-2OLhsk3ZfNaF32jGTAktUgChOBepd_JlJijTpSuizY55aMUYOBOUC4NUW0wTwwyonOyvaqU2BPXGnmb-Z7EUCpTEtNmmb8qjE8lRJNeWOcT_T_1qi5UxJ1YD5MJNJlcqN7IyFxxc0MEmBIdJO9tx2_P__O_zVTApCdnstUuBcmSQzjmMR4U4-Ast0KSktovuLGN_rpMadWemRhjiTn1gYfx4Iuym-24PXNTHyzgsamfD-CJpDo6emhBuZiM0N430upWN89e4dS5_w92GJHITIwwOFTnq_NJD25lmOGFHNw1_]--></g></svg>