<svg xmlns="http://www.w3.org/2000/svg" xmlns:xlink="http://www.w3.org/1999/xlink" contentStyleType="text/css" height="1549px" preserveAspectRatio="none" style="width:945px;height:1549px;background:#FFFFFF;" version="1.1" viewBox="0 0 945 1549" width="945px" zoomAndPan="magnify"><title>&#1046;&#1080;&#1079;&#1085;&#1077;&#1085;&#1085;&#1099;&#1081; &#1094;&#1080;&#1082;&#1083; &#1079;&#1072;&#1087;&#1088;&#1086;&#1089;&#1072;</title><defs/><g><text fill="#000000" font-family="sans-serif" font-size="14" font-weight="bold" lengthAdjust="spacing" textLength="178.7051" x="382.0652" y="34.5332">&#1046;&#1080;&#1079;&#1085;&#1077;&#1085;&#1085;&#1099;&#1081; &#1094;&#1080;&#1082;&#1083; &#1079;&#1072;&#1087;&#1088;&#1086;&#1089;&#1072;</text><rect fill="none" height="22.6406" style="stroke:none;stroke-width:1;" width="912.8354" x="15" y="51.0645"/><ellipse cx="353.1655" cy="88.7051" fill="#222222" rx="10" ry="10" style="stroke:#222222;stroke-width:1;"/><rect fill="#F1F1F1" height="35.0938" rx="12.5" ry="12.5" style="stroke:#181818;stroke-width:0.5;" width="156.6113" x="274.8599" y="118.7051"/><text fill="#000000" font-family="sans-serif" font-size="12" lengthAdjust="spacing" textLength="136.6113" x="284.8599" y="141.1621">HTTP-&#1079;&#1072;&#1087;&#1088;&#1086;&#1089; &#1086;&#1090; &#1082;&#1083;&#1080;&#1077;&#1085;&#1090;&#1072;</text><rect fill="#F1F1F1" height="35.0938" rx="12.5" ry="12.5" style="stroke:#181818;stroke-width:0.5;" width="206.9434" x="249.6938" y="173.7988"/><text fill="#000000" font-family="sans-serif" font-size="12" lengthAdjust="spacing" textLength="186.9434" x="259.6938" y="196.2559">Round-Robin: &#1074;&#1099;&#1073;&#1088;&#1072;&#1090;&#1100; PHP-&#1087;&#1086;&#1090;&#1086;&#1082;</text><polygon fill="#F1F1F1" points="297.6257,228.8926,408.7053,228.8926,420.7053,240.8926,408.7053,252.8926,297.6257,252.8926,285.6257,240.8926,297.6257,228.8926" style="stroke:#181818;stroke-width:0.5;"/><text fill="#000000" font-family="sans-serif" font-size="11" lengthAdjust="spacing" textLength="111.0796" x="297.6257" y="245.3936">&#1041;&#1091;&#1092;&#1077;&#1088; &#1087;&#1086;&#1090;&#1086;&#1082;&#1072; &#1087;&#1086;&#1083;&#1086;&#1085;?</text><text fill="#000000" font-family="sans-serif" font-size="11" lengthAdjust="spacing" textLength="12.5361" x="273.0896" y="238.4756">&#1076;&#1072;</text><text fill="#000000" font-family="sans-serif" font-size="11" lengthAdjust="spacing" textLength="17.2305" x="420.7053" y="238.4756">&#1085;&#1077;&#1090;</text><rect fill="#F1F1F1" height="35.0938" rx="12.5" ry="12.5" style="stroke:#181818;stroke-width:0.5;" width="195.7051" x="111.5176" y="262.8926"/><text fill="#000000" font-family="sans-serif" font-size="12" lengthAdjust="spacing" textLength="175.7051" x="121.5176" y="285.3496">&#1055;&#1086;&#1087;&#1088;&#1086;&#1073;&#1086;&#1074;&#1072;&#1090;&#1100; &#1089;&#1083;&#1077;&#1076;&#1091;&#1102;&#1097;&#1080;&#1081; &#1087;&#1086;&#1090;&#1086;&#1082;</text><polygon fill="#F1F1F1" points="157.0449,317.9863,261.6953,317.9863,273.6953,329.9863,261.6953,341.9863,157.0449,341.9863,145.0449,329.9863,157.0449,317.9863" style="stroke:#181818;stroke-width:0.5;"/><text fill="#000000" font-family="sans-serif" font-size="11" lengthAdjust="spacing" textLength="104.6504" x="157.0449" y="334.4873">&#1042;&#1089;&#1077; &#1073;&#1091;&#1092;&#1077;&#1088;&#1099; &#1087;&#1086;&#1083;&#1085;&#1099;?</text><text fill="#000000" font-family="sans-serif" font-size="11" lengthAdjust="spacing" textLength="12.5361" x="132.5088" y="327.5693">&#1076;&#1072;</text><text fill="#000000" font-family="sans-serif" font-size="11" lengthAdjust="spacing" textLength="17.2305" x="273.6953" y="327.5693">&#1085;&#1077;&#1090;</text><rect fill="#F1F1F1" height="35.0938" rx="12.5" ry="12.5" style="stroke:#181818;stroke-width:0.5;" width="184.0742" x="21" y="351.9863"/><text fill="#000000" font-family="sans-serif" font-size="12" lengthAdjust="spacing" textLength="164.0742" x="31" y="374.4434">HTTP 503 Service Unavailable</text><ellipse cx="113.0371" cy="418.0801" fill="none" rx="11" ry="11" style="stroke:#222222;stroke-width:1;"/><ellipse cx="113.0371" cy="418.0801" fill="#222222" rx="6" ry="6" style="stroke:#222222;stroke-width:1;"/><rect fill="#F1F1F1" height="35.0938" rx="12.5" ry="12.5" style="stroke:#181818;stroke-width:0.5;" width="161.2578" x="225.0742" y="351.9863"/><text fill="#000000" font-family="sans-serif" font-size="12" lengthAdjust="spacing" textLength="141.2578" x="235.0742" y="374.4434">&#1054;&#1090;&#1087;&#1088;&#1072;&#1074;&#1080;&#1090;&#1100; &#1074; requestChan</text><rect fill="#F1F1F1" height="35.0938" rx="12.5" ry="12.5" style="stroke:#181818;stroke-width:0.5;" width="161.2578" x="416.332" y="262.8926"/><text fill="#000000" font-family="sans-serif" font-size="12" lengthAdjust="spacing" textLength="141.2578" x="426.332" y="285.3496">&#1054;&#1090;&#1087;&#1088;&#1072;&#1074;&#1080;&#1090;&#1100; &#1074; requestChan</text><polygon fill="#F1F1F1" points="353.1655,439.0801,365.1655,451.0801,353.1655,463.0801,341.1655,451.0801,353.1655,439.0801" style="stroke:#181818;stroke-width:0.5;"/><path d="M203.6858,473.0801 L203.6858,515.7832 L298.1726,515.7832 L298.1726,483.0801 L288.1726,473.0801 L203.6858,473.0801 " fill="#FEFFDD" style="stroke:#181818;stroke-width:0.5;"/><path d="M288.1726,473.0801 L288.1726,483.0801 L298.1726,483.0801 L288.1726,473.0801 " fill="#FEFFDD" style="stroke:#181818;stroke-width:0.5;"/><text fill="#000000" font-family="sans-serif" font-size="13" lengthAdjust="spacing" textLength="64.2002" x="209.6858" y="491.5752">PHP-&#1087;&#1086;&#1090;&#1086;&#1082;</text><text fill="#000000" font-family="sans-serif" font-size="13" lengthAdjust="spacing" textLength="73.4868" x="209.6858" y="507.9268">&#1091;&#1078;&#1077; &#1072;&#1082;&#1090;&#1080;&#1074;&#1077;&#1085;</text><path d="M439.5093,564.7012 L439.5093,582.0527 L419.5093,586.0527 L439.5093,590.0527 L439.5093,607.4043 A0,0 0 0 0 439.5093,607.4043 L525.833,607.4043 A0,0 0 0 0 525.833,607.4043 L525.833,574.7012 L515.833,564.7012 L439.5093,564.7012 A0,0 0 0 0 439.5093,564.7012 " fill="#FEFFDD" style="stroke:#181818;stroke-width:0.5;"/><path d="M515.833,564.7012 L515.833,574.7012 L525.833,574.7012 L515.833,564.7012 " fill="#FEFFDD" style="stroke:#181818;stroke-width:0.5;"/><text fill="#000000" font-family="sans-serif" font-size="13" lengthAdjust="spacing" textLength="65.3237" x="445.5093" y="583.1963">&#1055;&#1088;&#1086;&#1073;&#1091;&#1076;&#1080;&#1090;&#1100;</text><text fill="#000000" font-family="sans-serif" font-size="13" lengthAdjust="spacing" textLength="59.9917" x="445.5093" y="599.5479">event loop</text><rect fill="#F1F1F1" height="35.0938" rx="12.5" ry="12.5" style="stroke:#181818;stroke-width:0.5;" width="132.6875" x="286.8218" y="568.5059"/><text fill="#000000" font-family="sans-serif" font-size="12" lengthAdjust="spacing" textLength="112.6875" x="296.8218" y="590.9629">AsyncNotifier.Notify()</text><polygon fill="#F1F1F1" points="310.1726,515.7832,396.1584,515.7832,408.1584,527.7832,396.1584,539.7832,310.1726,539.7832,298.1726,527.7832,310.1726,515.7832" style="stroke:#181818;stroke-width:0.5;"/><text fill="#000000" font-family="sans-serif" font-size="11" lengthAdjust="spacing" textLength="12.5361" x="357.1655" y="551.2021">&#1076;&#1072;</text><text fill="#000000" font-family="sans-serif" font-size="11" lengthAdjust="spacing" textLength="85.9858" x="310.1726" y="532.2842">&#1050;&#1072;&#1085;&#1072;&#1083; &#1073;&#1099;&#1083; &#1087;&#1091;&#1089;&#1090;?</text><text fill="#000000" font-family="sans-serif" font-size="11" lengthAdjust="spacing" textLength="17.2305" x="408.1584" y="525.3662">&#1085;&#1077;&#1090;</text><polygon fill="#F1F1F1" points="353.1655,627.4043,365.1655,639.4043,353.1655,651.4043,341.1655,639.4043,353.1655,627.4043" style="stroke:#181818;stroke-width:0.5;"/><rect fill="#F1F1F1" height="35.0938" rx="12.5" ry="12.5" style="stroke:#181818;stroke-width:0.5;" width="139.0801" x="283.6255" y="1129.9199"/><text fill="#000000" font-family="sans-serif" font-size="12" lengthAdjust="spacing" textLength="119.0801" x="293.6255" y="1152.377">responseChan &lt;- data</text><rect fill="#F1F1F1" height="35.0938" rx="12.5" ry="12.5" style="stroke:#181818;stroke-width:0.5;" width="192.9688" x="256.6812" y="1185.0137"/><text fill="#000000" font-family="sans-serif" font-size="12" lengthAdjust="spacing" textLength="172.9688" x="266.6812" y="1207.4707">responseDispatcher &#8594; &#1075;&#1086;&#1088;&#1091;&#1090;&#1080;&#1085;&#1072;</text><rect fill="#F1F1F1" height="35.0938" rx="12.5" ry="12.5" style="stroke:#181818;stroke-width:0.5;" width="145.3496" x="280.4907" y="1240.1074"/><text fill="#000000" font-family="sans-serif" font-size="12" lengthAdjust="spacing" textLength="125.3496" x="290.4907" y="1262.5645">ResponseWriter.Write()</text><rect fill="#F1F1F1" height="35.0938" rx="12.5" ry="12.5" style="stroke:#181818;stroke-width:0.5;" width="133.127" x="286.6021" y="1295.2012"/><text fill="#000000" font-family="sans-serif" font-size="12" lengthAdjust="spacing" textLength="113.127" x="296.6021" y="1317.6582">HTTP-&#1086;&#1090;&#1074;&#1077;&#1090; &#1082;&#1083;&#1080;&#1077;&#1085;&#1090;&#1091;</text><line style="stroke:#000000;stroke-width:1.5;" x1="15" x2="15" y1="51.0645" y2="1537.5762"/><rect fill="#F1F1F1" height="35.0938" rx="12.5" ry="12.5" style="stroke:#181818;stroke-width:0.5;" width="179.9785" x="598.6553" y="671.4043"/><text fill="#000000" font-family="sans-serif" font-size="12" lengthAdjust="spacing" textLength="159.9785" x="608.6553" y="693.8613">Scheduler &#1086;&#1073;&#1085;&#1072;&#1088;&#1091;&#1078;&#1080;&#1083; &#1079;&#1072;&#1087;&#1088;&#1086;&#1089;</text><rect fill="#F1F1F1" height="35.0938" rx="12.5" ry="12.5" style="stroke:#181818;stroke-width:0.5;" width="175.4902" x="600.8994" y="726.498"/><text fill="#000000" font-family="sans-serif" font-size="12" lengthAdjust="spacing" textLength="155.4902" x="610.8994" y="748.9551">&#1057;&#1086;&#1079;&#1076;&#1072;&#1090;&#1100; Scope &#1076;&#1083;&#1103; &#1079;&#1072;&#1087;&#1088;&#1086;&#1089;&#1072;</text><rect fill="#F1F1F1" height="35.0938" rx="12.5" ry="12.5" style="stroke:#181818;stroke-width:0.5;" width="119.0234" x="629.1328" y="781.5918"/><text fill="#000000" font-family="sans-serif" font-size="12" lengthAdjust="spacing" textLength="99.0234" x="639.1328" y="804.0488">&#1057;&#1086;&#1079;&#1076;&#1072;&#1090;&#1100; &#1082;&#1086;&#1088;&#1091;&#1090;&#1080;&#1085;&#1091;</text><rect fill="#F1F1F1" height="35.0938" rx="12.5" ry="12.5" style="stroke:#181818;stroke-width:0.5;" width="166.0098" x="605.6396" y="836.6855"/><text fill="#000000" font-family="sans-serif" font-size="12" lengthAdjust="spacing" textLength="146.0098" x="615.6396" y="859.1426">ENQUEUE_COROUTINE()</text><rect fill="#F1F1F1" height="35.0938" rx="12.5" ry="12.5" style="stroke:#181818;stroke-width:0.5;" width="174.9922" x="601.1484" y="891.7793"/><text fill="#000000" font-family="sans-serif" font-size="12" lengthAdjust="spacing" textLength="154.9922" x="611.1484" y="914.2363">&#1042;&#1099;&#1079;&#1074;&#1072;&#1090;&#1100; onRequest callback</text><path d="M805.0117,936.873 L805.0117,962.4004 L785.0117,966.4004 L805.0117,970.4004 L805.0117,995.9277 A0,0 0 0 0 805.0117,995.9277 L916.269,995.9277 A0,0 0 0 0 916.269,995.9277 L916.269,946.873 L906.269,936.873 L805.0117,936.873 A0,0 0 0 0 805.0117,936.873 " fill="#FEFFDD" style="stroke:#181818;stroke-width:0.5;"/><path d="M906.269,936.873 L906.269,946.873 L916.269,946.873 L906.269,936.873 " fill="#FEFFDD" style="stroke:#181818;stroke-width:0.5;"/><text fill="#000000" font-family="sans-serif" font-size="13" lengthAdjust="spacing" textLength="66.1235" x="811.0117" y="955.3682">CGo &#8594; Go:</text><text fill="#000000" font-family="sans-serif" font-size="13" lengthAdjust="spacing" textLength="90.2573" x="811.0117" y="971.7197">&#1095;&#1090;&#1077;&#1085;&#1080;&#1077; &#1076;&#1072;&#1085;&#1085;&#1099;&#1093;</text><text fill="#000000" font-family="sans-serif" font-size="13" lengthAdjust="spacing" textLength="48.4199" x="811.0117" y="988.0713">&#1079;&#1072;&#1087;&#1088;&#1086;&#1089;&#1072;</text><rect fill="#F1F1F1" height="35.0938" rx="12.5" ry="12.5" style="stroke:#181818;stroke-width:0.5;" width="192.7344" x="592.2773" y="948.8535"/><text fill="#000000" font-family="sans-serif" font-size="12" lengthAdjust="spacing" textLength="172.7344" x="602.2773" y="971.3105">Request::getMethod(), getUri()...</text><path d="M790.1143,1012.123 L790.1143,1029.4746 L770.1143,1033.4746 L790.1143,1037.4746 L790.1143,1054.8262 A0,0 0 0 0 790.1143,1054.8262 L921.335,1054.8262 A0,0 0 0 0 921.335,1054.8262 L921.335,1022.123 L911.335,1012.123 L790.1143,1012.123 A0,0 0 0 0 790.1143,1012.123 " fill="#FEFFDD" style="stroke:#181818;stroke-width:0.5;"/><path d="M911.335,1012.123 L911.335,1022.123 L921.335,1022.123 L911.335,1012.123 " fill="#FEFFDD" style="stroke:#181818;stroke-width:0.5;"/><text fill="#000000" font-family="sans-serif" font-size="13" lengthAdjust="spacing" textLength="71.5317" x="796.1143" y="1030.6182">async/await,</text><text fill="#000000" font-family="sans-serif" font-size="13" lengthAdjust="spacing" textLength="110.2207" x="796.1143" y="1046.9697">&#1087;&#1072;&#1088;&#1072;&#1083;&#1083;&#1077;&#1083;&#1100;&#1085;&#1099;&#1081; I/O</text><rect fill="#F1F1F1" height="35.0938" rx="12.5" ry="12.5" style="stroke:#181818;stroke-width:0.5;" width="162.9395" x="607.1748" y="1015.9277"/><text fill="#000000" font-family="sans-serif" font-size="12" lengthAdjust="spacing" textLength="142.9395" x="617.1748" y="1038.3848">&#1054;&#1073;&#1088;&#1072;&#1073;&#1086;&#1090;&#1082;&#1072; &#1073;&#1080;&#1079;&#1085;&#1077;&#1089;-&#1083;&#1086;&#1075;&#1080;&#1082;&#1080;</text><rect fill="#F1F1F1" height="35.0938" rx="12.5" ry="12.5" style="stroke:#181818;stroke-width:0.5;" width="137.3867" x="619.9512" y="1074.8262"/><text fill="#000000" font-family="sans-serif" font-size="12" lengthAdjust="spacing" textLength="117.3867" x="629.9512" y="1097.2832">Response::write(data)</text><rect fill="#F1F1F1" height="35.0938" rx="12.5" ry="12.5" style="stroke:#181818;stroke-width:0.5;" width="108.7168" x="634.2861" y="1350.2949"/><text fill="#000000" font-family="sans-serif" font-size="12" lengthAdjust="spacing" textLength="88.7168" x="644.2861" y="1372.752">Response::end()</text><rect fill="#F1F1F1" height="35.0938" rx="12.5" ry="12.5" style="stroke:#181818;stroke-width:0.5;" width="202.1094" x="587.5898" y="1405.3887"/><text fill="#000000" font-family="sans-serif" font-size="12" lengthAdjust="spacing" textLength="182.1094" x="597.5898" y="1427.8457">go_async_worker_request_done()</text><rect fill="#F1F1F1" height="35.0938" rx="12.5" ry="12.5" style="stroke:#181818;stroke-width:0.5;" width="184.7598" x="596.2646" y="1460.4824"/><text fill="#000000" font-family="sans-serif" font-size="12" lengthAdjust="spacing" textLength="164.7598" x="606.2646" y="1482.9395">&#1054;&#1089;&#1074;&#1086;&#1073;&#1086;&#1076;&#1080;&#1090;&#1100; Scope &#1080; &#1088;&#1077;&#1089;&#1091;&#1088;&#1089;&#1099;</text><ellipse cx="688.6445" cy="1526.5762" fill="none" rx="11" ry="11" style="stroke:#222222;stroke-width:1;"/><ellipse cx="688.6445" cy="1526.5762" fill="#222222" rx="6" ry="6" style="stroke:#222222;stroke-width:1;"/><line style="stroke:#000000;stroke-width:1.5;" x1="581.5898" x2="581.5898" y1="51.0645" y2="1537.5762"/><line style="stroke:#000000;stroke-width:1.5;" x1="926.335" x2="926.335" y1="51.0645" y2="1537.5762"/><line style="stroke:#181818;stroke-width:1;" x1="353.1655" x2="353.1655" y1="98.7051" y2="118.7051"/><polygon fill="#181818" points="349.1655,108.7051,353.1655,118.7051,357.1655,108.7051,353.1655,112.7051" style="stroke:#181818;stroke-width:1;"/><line style="stroke:#181818;stroke-width:1;" x1="353.1655" x2="353.1655" y1="153.7988" y2="173.7988"/><polygon fill="#181818" points="349.1655,163.7988,353.1655,173.7988,357.1655,163.7988,353.1655,167.7988" style="stroke:#181818;stroke-width:1;"/><line style="stroke:#181818;stroke-width:1;" x1="113.0371" x2="113.0371" y1="387.0801" y2="407.0801"/><polygon fill="#181818" points="109.0371,397.0801,113.0371,407.0801,117.0371,397.0801,113.0371,401.0801" style="stroke:#181818;stroke-width:1;"/><line style="stroke:#181818;stroke-width:1;" x1="145.0449" x2="113.0371" y1="329.9863" y2="329.9863"/><line style="stroke:#181818;stroke-width:1;" x1="113.0371" x2="113.0371" y1="329.9863" y2="351.9863"/><polygon fill="#181818" points="109.0371,341.9863,113.0371,351.9863,117.0371,341.9863,113.0371,345.9863" style="stroke:#181818;stroke-width:1;"/><line style="stroke:#181818;stroke-width:1;" x1="273.6953" x2="305.7031" y1="329.9863" y2="329.9863"/><line style="stroke:#181818;stroke-width:1;" x1="305.7031" x2="305.7031" y1="329.9863" y2="351.9863"/><polygon fill="#181818" points="301.7031,341.9863,305.7031,351.9863,309.7031,341.9863,305.7031,345.9863" style="stroke:#181818;stroke-width:1;"/><line style="stroke:#181818;stroke-width:1;" x1="305.7031" x2="305.7031" y1="387.0801" y2="451.0801"/><line style="stroke:#181818;stroke-width:1;" x1="305.7031" x2="341.1655" y1="451.0801" y2="451.0801"/><polygon fill="#181818" points="331.1655,447.0801,341.1655,451.0801,331.1655,455.0801,335.1655,451.0801" style="stroke:#181818;stroke-width:1;"/><line style="stroke:#181818;stroke-width:1;" x1="209.3701" x2="209.3701" y1="297.9863" y2="317.9863"/><polygon fill="#181818" points="205.3701,307.9863,209.3701,317.9863,213.3701,307.9863,209.3701,311.9863" style="stroke:#181818;stroke-width:1;"/><line style="stroke:#181818;stroke-width:1;" x1="285.6257" x2="209.3701" y1="240.8926" y2="240.8926"/><line style="stroke:#181818;stroke-width:1;" x1="209.3701" x2="209.3701" y1="240.8926" y2="262.8926"/><polygon fill="#181818" points="205.3701,252.8926,209.3701,262.8926,213.3701,252.8926,209.3701,256.8926" style="stroke:#181818;stroke-width:1;"/><line style="stroke:#181818;stroke-width:1;" x1="420.7053" x2="496.9609" y1="240.8926" y2="240.8926"/><line style="stroke:#181818;stroke-width:1;" x1="496.9609" x2="496.9609" y1="240.8926" y2="262.8926"/><polygon fill="#181818" points="492.9609,252.8926,496.9609,262.8926,500.9609,252.8926,496.9609,256.8926" style="stroke:#181818;stroke-width:1;"/><line style="stroke:#181818;stroke-width:1;" x1="496.9609" x2="496.9609" y1="297.9863" y2="451.0801"/><line style="stroke:#181818;stroke-width:1;" x1="496.9609" x2="365.1655" y1="451.0801" y2="451.0801"/><polygon fill="#181818" points="375.1655,447.0801,365.1655,451.0801,375.1655,455.0801,371.1655,451.0801" style="stroke:#181818;stroke-width:1;"/><line style="stroke:#181818;stroke-width:1;" x1="353.1655" x2="353.1655" y1="208.8926" y2="228.8926"/><polygon fill="#181818" points="349.1655,218.8926,353.1655,228.8926,357.1655,218.8926,353.1655,222.8926" style="stroke:#181818;stroke-width:1;"/><line style="stroke:#181818;stroke-width:1;" x1="353.1655" x2="353.1655" y1="539.7832" y2="568.5059"/><polygon fill="#181818" points="349.1655,558.5059,353.1655,568.5059,357.1655,558.5059,353.1655,562.5059" style="stroke:#181818;stroke-width:1;"/><line style="stroke:#181818;stroke-width:1;" x1="408.1584" x2="535.833" y1="527.7832" y2="527.7832"/><polygon fill="#181818" points="531.833,576.0527,535.833,586.0527,539.833,576.0527,535.833,580.0527" style="stroke:#181818;stroke-width:1;"/><line style="stroke:#181818;stroke-width:1;" x1="535.833" x2="535.833" y1="527.7832" y2="639.4043"/><line style="stroke:#181818;stroke-width:1;" x1="535.833" x2="365.1655" y1="639.4043" y2="639.4043"/><polygon fill="#181818" points="375.1655,635.4043,365.1655,639.4043,375.1655,643.4043,371.1655,639.4043" style="stroke:#181818;stroke-width:1;"/><line style="stroke:#181818;stroke-width:1;" x1="353.1655" x2="353.1655" y1="603.5996" y2="627.4043"/><polygon fill="#181818" points="349.1655,617.4043,353.1655,627.4043,357.1655,617.4043,353.1655,621.4043" style="stroke:#181818;stroke-width:1;"/><line style="stroke:#181818;stroke-width:1;" x1="353.1655" x2="353.1655" y1="463.0801" y2="515.7832"/><polygon fill="#181818" points="349.1655,505.7832,353.1655,515.7832,357.1655,505.7832,353.1655,509.7832" style="stroke:#181818;stroke-width:1;"/><line style="stroke:#181818;stroke-width:1;" x1="353.1655" x2="353.1655" y1="1165.0137" y2="1185.0137"/><polygon fill="#181818" points="349.1655,1175.0137,353.1655,1185.0137,357.1655,1175.0137,353.1655,1179.0137" style="stroke:#181818;stroke-width:1;"/><line style="stroke:#181818;stroke-width:1;" x1="353.1655" x2="353.1655" y1="1220.1074" y2="1240.1074"/><polygon fill="#181818" points="349.1655,1230.1074,353.1655,1240.1074,357.1655,1230.1074,353.1655,1234.1074" style="stroke:#181818;stroke-width:1;"/><line style="stroke:#181818;stroke-width:1;" x1="353.1655" x2="353.1655" y1="1275.2012" y2="1295.2012"/><polygon fill="#181818" points="349.1655,1285.2012,353.1655,1295.2012,357.1655,1285.2012,353.1655,1289.2012" style="stroke:#181818;stroke-width:1;"/><line style="stroke:#181818;stroke-width:1;" x1="688.6445" x2="688.6445" y1="706.498" y2="726.498"/><polygon fill="#181818" points="684.6445,716.498,688.6445,726.498,692.6445,716.498,688.6445,720.498" style="stroke:#181818;stroke-width:1;"/><line style="stroke:#181818;stroke-width:1;" x1="688.6445" x2="688.6445" y1="761.5918" y2="781.5918"/><polygon fill="#181818" points="684.6445,771.5918,688.6445,781.5918,692.6445,771.5918,688.6445,775.5918" style="stroke:#181818;stroke-width:1;"/><line style="stroke:#181818;stroke-width:1;" x1="688.6445" x2="688.6445" y1="816.6855" y2="836.6855"/><polygon fill="#181818" points="684.6445,826.6855,688.6445,836.6855,692.6445,826.6855,688.6445,830.6855" style="stroke:#181818;stroke-width:1;"/><line style="stroke:#181818;stroke-width:1;" x1="688.6445" x2="688.6445" y1="871.7793" y2="891.7793"/><polygon fill="#181818" points="684.6445,881.7793,688.6445,891.7793,692.6445,881.7793,688.6445,885.7793" style="stroke:#181818;stroke-width:1;"/><line style="stroke:#181818;stroke-width:1;" x1="688.6445" x2="688.6445" y1="926.873" y2="948.8535"/><polygon fill="#181818" points="684.6445,938.8535,688.6445,948.8535,692.6445,938.8535,688.6445,942.8535" style="stroke:#181818;stroke-width:1;"/><line style="stroke:#181818;stroke-width:1;" x1="688.6445" x2="688.6445" y1="983.9473" y2="1015.9277"/><polygon fill="#181818" points="684.6445,1005.9277,688.6445,1015.9277,692.6445,1005.9277,688.6445,1009.9277" style="stroke:#181818;stroke-width:1;"/><line style="stroke:#181818;stroke-width:1;" x1="688.6445" x2="688.6445" y1="1051.0215" y2="1074.8262"/><polygon fill="#181818" points="684.6445,1064.8262,688.6445,1074.8262,692.6445,1064.8262,688.6445,1068.8262" style="stroke:#181818;stroke-width:1;"/><line style="stroke:#181818;stroke-width:1;" x1="688.6445" x2="688.6445" y1="1385.3887" y2="1405.3887"/><polygon fill="#181818" points="684.6445,1395.3887,688.6445,1405.3887,692.6445,1395.3887,688.6445,1399.3887" style="stroke:#181818;stroke-width:1;"/><line style="stroke:#181818;stroke-width:1;" x1="688.6445" x2="688.6445" y1="1440.4824" y2="1460.4824"/><polygon fill="#181818" points="684.6445,1450.4824,688.6445,1460.4824,692.6445,1450.4824,688.6445,1454.4824" style="stroke:#181818;stroke-width:1;"/><line style="stroke:#181818;stroke-width:1;" x1="688.6445" x2="688.6445" y1="1495.5762" y2="1515.5762"/><polygon fill="#181818" points="684.6445,1505.5762,688.6445,1515.5762,692.6445,1505.5762,688.6445,1509.5762" style="stroke:#181818;stroke-width:1;"/><line style="stroke:#181818;stroke-width:1;" x1="353.1655" x2="353.1655" y1="651.4043" y2="656.4043"/><line style="stroke:#181818;stroke-width:1;" x1="353.1655" x2="688.6445" y1="656.4043" y2="656.4043"/><line style="stroke:#181818;stroke-width:1;" x1="688.6445" x2="688.6445" y1="656.4043" y2="671.4043"/><polygon fill="#181818" points="684.6445,661.4043,688.6445,671.4043,692.6445,661.4043,688.6445,665.4043" style="stroke:#181818;stroke-width:1;"/><line style="stroke:#181818;stroke-width:1;" x1="688.6445" x2="688.6445" y1="1109.9199" y2="1114.9199"/><line style="stroke:#181818;stroke-width:1;" x1="688.6445" x2="353.1655" y1="1114.9199" y2="1114.9199"/><line style="stroke:#181818;stroke-width:1;" x1="353.1655" x2="353.1655" y1="1114.9199" y2="1129.9199"/><polygon fill="#181818" points="349.1655,1119.9199,353.1655,1129.9199,357.1655,1119.9199,353.1655,1123.9199" style="stroke:#181818;stroke-width:1;"/><line style="stroke:#181818;stroke-width:1;" x1="353.1655" x2="353.1655" y1="1330.2949" y2="1335.2949"/><line style="stroke:#181818;stroke-width:1;" x1="353.1655" x2="688.6445" y1="1335.2949" y2="1335.2949"/><line style="stroke:#181818;stroke-width:1;" x1="688.6445" x2="688.6445" y1="1335.2949" y2="1350.2949"/><polygon fill="#181818" points="684.6445,1340.2949,688.6445,1350.2949,692.6445,1340.2949,688.6445,1344.2949" style="stroke:#181818;stroke-width:1;"/><text fill="#000000" font-family="sans-serif" font-size="18" lengthAdjust="spacing" textLength="96.0381" x="250.2759" y="69.75">Go Runtime</text><text fill="#000000" font-family="sans-serif" font-size="18" lengthAdjust="spacing" textLength="109.0371" x="699.4438" y="69.75">PHP Runtime</text><!--SRC=[ZLJBJjj05DtxAqRg9f4WLAgwSIfLLPe2Ym8DHDqWHIOP4Wipauude4eiI6Yfgg1MPT555qNz0vE64eYI_CBCB_HBUcRia0SiQibnFBwFSyyzzqfV1fIexwgdhjL0NU4UwBQw8VeKHxUgJt0UgP4-LaFTL97ZX7i-gtl2soSxNdclAdY3LN8yu88yUcKlnpbQvgJGODBVfqTEA3qX7NTbQsjZSJeMmK-Bc1H8XBowfQAiunPClCK2t_6PIrG7M2vX7-cMFYCRAmWnCdvgg6wpZkFlafJwfa_q1tMbZydacuhi2s8FrU1vciWQPJ3jgYZj45okki0NYqHTukua6L1Y7s2w2Fb5VmQm6pATqBZQdESml2A0bgJMxN4-iFT0FflJK42UFdv2DgauyCkK59btuFc1jnFGx9rPA7dTlj0Wf8Y1fkZML1Jr4sWCyWYeUnQrwX11tpLeA7CrZyMXAAlukyxz6F_Z7_l6xFw0tG1ttrJRDeyHYcxgraEilWZVi_8Qb_wkJqN6_dcVIiU069UK2BzQa-ZhHSoyFe6pnR3Dw05baWGSrTz7FUqygu9jXY1_J3CYTOkZ7gg2ciOr7C5weaLtiroZbKP01R6DHs7edV7lpIaTIbI_O7DjghCaRPPv7PFILNtzTMuexXj3WKCJsG8Qw1DOvDVU5FF5V2ctNbWlRgskvGqnS3m7gzTt0kIi47U2bBqWC1DcPY8-SjqgbQ-fhF5AAhr0y58KVYgToMIopZH1EOpVtzDpiinTiFC96CnOzmn7NTjDQ5H_t6RpamrfnCDcHW9UTeeknvj1DnVjEFssUw4tcz8pZL_o3ZrVBY3moF1gH6EdgQ_FagMokhJkc7B2EcSXTTr3uKkQgdZICrpCh0rN95P6akJP8Z5MsSdnIp-iUnBj5BPMm9eYFDuaYULRaqHaxCDmdgmYKs77A6nc1vbMpOjcWXUYiX6gl6GhBXroiKT5APcUKeMpE0M6h8deyN9993vMK8-06z09iCVuRIEXdVb_]--></g></svg>