<svg xmlns="http://www.w3.org/2000/svg" xmlns:xlink="http://www.w3.org/1999/xlink" contentStyleType="text/css" height="654px" preserveAspectRatio="none" style="width:583px;height:654px;background:#FFFFFF;" version="1.1" viewBox="0 0 583 654" width="583px" zoomAndPan="magnify"><title>&#1057;&#1090;&#1072;&#1090;&#1091;&#1089;&#1099; Waker</title><defs/><g><text fill="#000000" font-family="sans-serif" font-size="14" font-weight="bold" lengthAdjust="spacing" textLength="105.0479" x="232.0479" y="24.5332">&#1057;&#1090;&#1072;&#1090;&#1091;&#1089;&#1099; Waker</text><ellipse cx="406.5" cy="54.6094" fill="#222222" rx="10" ry="10" style="stroke:#222222;stroke-width:1;"/><g id="NO_STATUS"><rect fill="#F1F1F1" height="67.7969" rx="12.5" ry="12.5" style="stroke:#181818;stroke-width:0.5;" width="148.1387" x="332.5" y="142.6094"/><line style="stroke:#181818;stroke-width:0.5;" x1="332.5" x2="480.6387" y1="170.2188" y2="170.2188"/><text fill="#000000" font-family="sans-serif" font-size="14" lengthAdjust="spacing" textLength="84.0137" x="364.5625" y="162.1426">NO_STATUS</text><text fill="#000000" font-family="sans-serif" font-size="12" lengthAdjust="spacing" textLength="98.4375" x="337.5" y="187.6758">Waker &#1085;&#1077; &#1072;&#1082;&#1090;&#1080;&#1074;&#1077;&#1085;</text><text fill="#000000" font-family="sans-serif" font-size="12" lengthAdjust="spacing" textLength="128.1387" x="337.5" y="202.7695">&#1050;&#1086;&#1088;&#1091;&#1090;&#1080;&#1085;&#1072; &#1074;&#1099;&#1087;&#1086;&#1083;&#1085;&#1103;&#1077;&#1090;&#1089;&#1103;</text></g><g id="WAITING"><rect fill="#F1F1F1" height="67.7969" rx="12.5" ry="12.5" style="stroke:#181818;stroke-width:0.5;" width="165.7813" x="145.5" y="288.6094"/><line style="stroke:#181818;stroke-width:0.5;" x1="145.5" x2="311.2813" y1="316.2188" y2="316.2188"/><text fill="#000000" font-family="sans-serif" font-size="14" lengthAdjust="spacing" textLength="59.8828" x="198.4492" y="308.1426">WAITING</text><text fill="#000000" font-family="sans-serif" font-size="12" lengthAdjust="spacing" textLength="132.7793" x="150.5" y="333.6758">&#1050;&#1086;&#1088;&#1091;&#1090;&#1080;&#1085;&#1072; &#1078;&#1076;&#1105;&#1090; &#1089;&#1086;&#1073;&#1099;&#1090;&#1080;&#1081;</text><text fill="#000000" font-family="sans-serif" font-size="12" lengthAdjust="spacing" textLength="145.7813" x="150.5" y="348.7695">events &#8212; &#1089;&#1087;&#1080;&#1089;&#1086;&#1082; &#1087;&#1086;&#1076;&#1087;&#1080;&#1089;&#1086;&#1082;</text></g><g id="QUEUED"><rect fill="#F1F1F1" height="67.7969" rx="12.5" ry="12.5" style="stroke:#181818;stroke-width:0.5;" width="188.9023" x="7" y="434.6094"/><line style="stroke:#181818;stroke-width:0.5;" x1="7" x2="195.9023" y1="462.2188" y2="462.2188"/><text fill="#000000" font-family="sans-serif" font-size="14" lengthAdjust="spacing" textLength="59.8965" x="71.5029" y="454.1426">QUEUED</text><text fill="#000000" font-family="sans-serif" font-size="12" lengthAdjust="spacing" textLength="168.9023" x="12" y="479.6758">&#1050;&#1086;&#1088;&#1091;&#1090;&#1080;&#1085;&#1072; &#1074; &#1086;&#1095;&#1077;&#1088;&#1077;&#1076;&#1080; Scheduler</text><text fill="#000000" font-family="sans-serif" font-size="12" lengthAdjust="spacing" textLength="128.918" x="12" y="494.7695">result / error &#1079;&#1072;&#1087;&#1086;&#1083;&#1085;&#1077;&#1085;&#1099;</text></g><g id="IGNORED"><rect fill="#F1F1F1" height="67.7969" rx="12.5" ry="12.5" style="stroke:#181818;stroke-width:0.5;" width="155.5684" x="263.5" y="434.6094"/><line style="stroke:#181818;stroke-width:0.5;" x1="263.5" x2="419.0684" y1="462.2188" y2="462.2188"/><text fill="#000000" font-family="sans-serif" font-size="14" lengthAdjust="spacing" textLength="65.3379" x="308.6152" y="454.1426">IGNORED</text><text fill="#000000" font-family="sans-serif" font-size="12" lengthAdjust="spacing" textLength="135.5684" x="268.5" y="479.6758">&#1050;&#1086;&#1088;&#1091;&#1090;&#1080;&#1085;&#1072; &#1091;&#1078;&#1077; &#1074; &#1086;&#1095;&#1077;&#1088;&#1077;&#1076;&#1080;</text><text fill="#000000" font-family="sans-serif" font-size="12" lengthAdjust="spacing" textLength="114.4219" x="268.5" y="494.7695">&#1088;&#1077;&#1079;&#1091;&#1083;&#1100;&#1090;&#1072;&#1090; &#1086;&#1090;&#1073;&#1088;&#1086;&#1096;&#1077;&#1085;</text></g><g id="RESULT"><rect fill="#F1F1F1" height="67.7969" rx="12.5" ry="12.5" style="stroke:#181818;stroke-width:0.5;" width="197.1758" x="223" y="580.6094"/><line style="stroke:#181818;stroke-width:0.5;" x1="223" x2="420.1758" y1="608.2188" y2="608.2188"/><text fill="#000000" font-family="sans-serif" font-size="14" lengthAdjust="spacing" textLength="55.2344" x="293.9707" y="600.1426">RESULT</text><text fill="#000000" font-family="sans-serif" font-size="12" lengthAdjust="spacing" textLength="177.1758" x="228" y="625.6758">&#1056;&#1077;&#1079;&#1091;&#1083;&#1100;&#1090;&#1072;&#1090; &#1087;&#1088;&#1080;&#1084;&#1077;&#1085;&#1105;&#1085; &#1082; &#1082;&#1086;&#1088;&#1091;&#1090;&#1080;&#1085;&#1077;</text><text fill="#000000" font-family="sans-serif" font-size="12" lengthAdjust="spacing" textLength="126.6621" x="228" y="640.7695">waker-&gt;result &#1076;&#1086;&#1089;&#1090;&#1091;&#1087;&#1077;&#1085;</text></g><!--link *start* to NO_STATUS--><g id="link_*start*_NO_STATUS"><path d="M406.5,64.6294 C406.5,80.9294 406.5,110.0394 406.5,136.4294 " fill="none" id="*start*-to-NO_STATUS" style="stroke:#181818;stroke-width:1;"/><polygon fill="#181818" points="406.5,142.4294,410.5,133.4294,406.5,137.4294,402.5,133.4294,406.5,142.4294" style="stroke:#181818;stroke-width:1;"/><text fill="#000000" font-family="sans-serif" font-size="13" lengthAdjust="spacing" textLength="74.4136" x="407.5" y="109.1045">waker_new()</text></g><!--link NO_STATUS to WAITING--><g id="link_NO_STATUS_WAITING"><path d="M349.43,210.7594 C335.28,219.8294 320.47,230.0794 307.5,240.6094 C289.82,254.9794 276.0238,268.5636 261.7538,283.9236 " fill="none" id="NO_STATUS-to-WAITING" style="stroke:#181818;stroke-width:1;"/><polygon fill="#181818" points="257.67,288.3194,266.7262,284.4483,261.0732,284.6563,260.8652,279.0032,257.67,288.3194" style="stroke:#181818;stroke-width:1;"/><text fill="#000000" font-family="sans-serif" font-size="13" lengthAdjust="spacing" textLength="71.5063" x="308.5" y="255.1045">SUSPEND()</text></g><!--link WAITING to QUEUED--><g id="link_WAITING_QUEUED"><path d="M145.35,344.1794 C124.23,353.5494 104,367.0994 91.5,386.6094 C82.56,400.5694 82.3617,412.8847 86.4317,428.4447 " fill="none" id="WAITING-to-QUEUED" style="stroke:#181818;stroke-width:1;"/><polygon fill="#181818" points="87.95,434.2494,89.5423,424.5301,86.6847,429.4121,81.8027,426.5545,87.95,434.2494" style="stroke:#181818;stroke-width:1;"/><text fill="#000000" font-family="sans-serif" font-size="13" lengthAdjust="spacing" textLength="118.2124" x="92.5" y="401.1045">&#1089;&#1086;&#1073;&#1099;&#1090;&#1080;&#1077; &#1089;&#1088;&#1072;&#1073;&#1086;&#1090;&#1072;&#1083;&#1086;</text></g><!--link WAITING to IGNORED--><g id="link_WAITING_IGNORED"><path d="M219.36,356.7994 C216.99,372.3194 217.08,390.4594 225.5,404.6094 C234.4,419.5794 243.0936,428.1416 258.1536,437.1016 " fill="none" id="WAITING-to-IGNORED" style="stroke:#181818;stroke-width:1;"/><polygon fill="#181818" points="263.31,440.1694,257.6206,432.13,259.013,437.6129,253.5302,439.0052,263.31,440.1694" style="stroke:#181818;stroke-width:1;"/><text fill="#000000" font-family="sans-serif" font-size="13" lengthAdjust="spacing" textLength="153.5815" x="226.5" y="401.1045">&#1087;&#1086;&#1074;&#1090;&#1086;&#1088;&#1085;&#1086;&#1077; &#1089;&#1088;&#1072;&#1073;&#1072;&#1090;&#1099;&#1074;&#1072;&#1085;&#1080;&#1077;</text></g><!--link QUEUED to RESULT--><g id="link_QUEUED_RESULT"><path d="M151.97,502.6494 C187.62,525.9794 230.1802,553.8328 265.8602,577.1928 " fill="none" id="QUEUED-to-RESULT" style="stroke:#181818;stroke-width:1;"/><polygon fill="#181818" points="270.88,580.4794,265.5413,572.203,266.6968,577.7406,261.1592,578.8961,270.88,580.4794" style="stroke:#181818;stroke-width:1;"/><text fill="#000000" font-family="sans-serif" font-size="13" lengthAdjust="spacing" textLength="190.5566" x="226.5" y="547.1045">Scheduler &#1087;&#1077;&#1088;&#1077;&#1082;&#1083;&#1102;&#1095;&#1080;&#1083; &#1082;&#1086;&#1085;&#1090;&#1077;&#1082;&#1089;&#1090;</text></g><!--link RESULT to NO_STATUS--><g id="link_RESULT_NO_STATUS"><path d="M390.94,580.5194 C403.66,572.1194 415.92,562.1394 425.5,550.6094 C484.36,479.7394 482.01,447.2494 498.5,356.6094 C503.91,326.8794 508.75,317.0394 498.5,288.6094 C487.72,258.7094 469.2305,235.4041 449.0705,215.2241 " fill="none" id="RESULT-to-NO_STATUS" style="stroke:#181818;stroke-width:1;"/><polygon fill="#181818" points="444.83,210.9794,448.361,220.1735,448.3638,214.5167,454.0206,214.5195,444.83,210.9794" style="stroke:#181818;stroke-width:1;"/><text fill="#000000" font-family="sans-serif" font-size="13" lengthAdjust="spacing" textLength="81.6436" x="493.5" y="401.1045">waker_clean()</text></g><!--link IGNORED to NO_STATUS--><g id="link_IGNORED_NO_STATUS"><path d="M368.74,434.3394 C374.92,425.1994 380.75,414.9394 384.5,404.6094 C408.32,338.9094 409.937,261.8965 408.527,216.6765 " fill="none" id="IGNORED-to-NO_STATUS" style="stroke:#181818;stroke-width:1;"/><polygon fill="#181818" points="408.34,210.6794,404.6224,219.7997,408.4958,215.6769,412.6185,219.5503,408.34,210.6794" style="stroke:#181818;stroke-width:1;"/><text fill="#000000" font-family="sans-serif" font-size="13" lengthAdjust="spacing" textLength="81.6436" x="408.5" y="328.1045">waker_clean()</text></g><!--SRC=[VLB1IW9H5DtFLznb1TA-HI0e8iHOZKEB295wK2G6PhNLSL4mKGYjMjKVg3WvQJF-mhs_q9TqtjF6CQNbk_UUSyyvzpKlcZL5_2uUzyIJZhJ5fwFgfMfOrl7M2MKoksINAauvMtOTsg4xtQhKrTt6ffMk6mXnn05nZyUW2td00KTBK_pAiRImHRSZxX4FnESfnppXI9uvW8IsF5ifa1Pmb2sMYtO118xhxEVj79OlQgka7poKhdWaRJ3tnJUTpnH4tQfwyvg-MozwPigXcHoJaJ9S5Am4esKSk7atdmDyYJV0KremtOSCf0WhiPMChd5CgDp3QWln33aav_HSdTtKa7Y2QgZhcrgJjaar6bU8TGJQUKewK_6NXHKBTkbmjavF3R0CIp4RfzNf-_euIWyDoBPIgByYfOCCWrMjAOmfZJ0uaSVPvo7Zluz6B0_czB-6jCR3lEFkbVK9V-rgiJFcCKYUi2Va2U4Hmw6dov3kMGcGtrOtJe4F-Sk4qkM8z0t7IsQ21O7vkvdTURZm4-i589pErCu7rt_vqvggrl7laWZ-7_i1]--></g></svg>