<svg xmlns="http://www.w3.org/2000/svg" xmlns:xlink="http://www.w3.org/1999/xlink" contentStyleType="text/css" height="491px" preserveAspectRatio="none" style="width:280px;height:491px;background:#FFFFFF;" version="1.1" viewBox="0 0 280 491" width="280px" zoomAndPan="magnify"><title>&#1057;&#1086;&#1089;&#1090;&#1086;&#1103;&#1085;&#1080;&#1103; Circuit Breaker</title><defs/><g><text fill="#000000" font-family="sans-serif" font-size="14" font-weight="bold" lengthAdjust="spacing" textLength="179.5254" x="43.7173" y="24.5332">&#1057;&#1086;&#1089;&#1090;&#1086;&#1103;&#1085;&#1080;&#1103; Circuit Breaker</text><ellipse cx="170.5" cy="54.6094" fill="#222222" rx="10" ry="10" style="stroke:#222222;stroke-width:1;"/><g id="ACTIVE"><rect fill="#F1F1F1" height="67.7969" rx="12.5" ry="12.5" style="stroke:#181818;stroke-width:0.5;" width="145.5078" x="97.5" y="125.6094"/><line style="stroke:#181818;stroke-width:0.5;" x1="97.5" x2="243.0078" y1="153.2188" y2="153.2188"/><text fill="#000000" font-family="sans-serif" font-size="14" lengthAdjust="spacing" textLength="50.5654" x="144.9712" y="145.1426">ACTIVE</text><text fill="#000000" font-family="sans-serif" font-size="12" lengthAdjust="spacing" textLength="121.1426" x="102.5" y="170.6758">acquire() &#8212; &#1088;&#1072;&#1079;&#1088;&#1077;&#1096;&#1105;&#1085;</text><text fill="#000000" font-family="sans-serif" font-size="12" lengthAdjust="spacing" textLength="125.5078" x="102.5" y="185.7695">&#1042;&#1089;&#1077; &#1079;&#1072;&#1087;&#1088;&#1086;&#1089;&#1099; &#1087;&#1088;&#1086;&#1093;&#1086;&#1076;&#1103;&#1090;</text></g><g id="INACTIVE"><rect fill="#F1F1F1" height="67.7969" rx="12.5" ry="12.5" style="stroke:#181818;stroke-width:0.5;" width="171.3945" x="7" y="271.6094"/><line style="stroke:#181818;stroke-width:0.5;" x1="7" x2="178.3945" y1="299.2188" y2="299.2188"/><text fill="#000000" font-family="sans-serif" font-size="14" lengthAdjust="spacing" textLength="64.5654" x="60.4146" y="291.1426">INACTIVE</text><text fill="#000000" font-family="sans-serif" font-size="12" lengthAdjust="spacing" textLength="151.3945" x="12" y="316.6758">acquire() &#8212; throw Exception</text><text fill="#000000" font-family="sans-serif" font-size="12" lengthAdjust="spacing" textLength="133.6406" x="12" y="331.7695">&#1042;&#1089;&#1077; &#1079;&#1072;&#1087;&#1088;&#1086;&#1089;&#1099; &#1086;&#1090;&#1082;&#1083;&#1086;&#1085;&#1077;&#1085;&#1099;</text></g><g id="RECOVERING"><rect fill="#F1F1F1" height="67.7969" rx="12.5" ry="12.5" style="stroke:#181818;stroke-width:0.5;" width="141.1426" x="86" y="417.6094"/><line style="stroke:#181818;stroke-width:0.5;" x1="86" x2="227.1426" y1="445.2188" y2="445.2188"/><text fill="#000000" font-family="sans-serif" font-size="14" lengthAdjust="spacing" textLength="94.124" x="109.5093" y="437.1426">RECOVERING</text><text fill="#000000" font-family="sans-serif" font-size="12" lengthAdjust="spacing" textLength="121.1426" x="91" y="462.6758">acquire() &#8212; &#1088;&#1072;&#1079;&#1088;&#1077;&#1096;&#1105;&#1085;</text><text fill="#000000" font-family="sans-serif" font-size="12" lengthAdjust="spacing" textLength="93.5391" x="91" y="477.7695">&#1058;&#1077;&#1089;&#1090;&#1086;&#1074;&#1099;&#1081; &#1088;&#1077;&#1078;&#1080;&#1084;</text></g><!--link *start* to ACTIVE--><g id="link_*start*_ACTIVE"><path d="M170.5,64.7494 C170.5,78.2394 170.5,98.1694 170.5,119.3694 " fill="none" id="*start*-to-ACTIVE" style="stroke:#181818;stroke-width:1;"/><polygon fill="#181818" points="170.5,125.3694,174.5,116.3694,170.5,120.3694,166.5,116.3694,170.5,125.3694" style="stroke:#181818;stroke-width:1;"/></g><!--link ACTIVE to INACTIVE--><g id="link_ACTIVE_INACTIVE"><path d="M152.61,193.6494 C140.01,216.8994 126.0782,242.6239 113.4382,265.9539 " fill="none" id="ACTIVE-to-INACTIVE" style="stroke:#181818;stroke-width:1;"/><polygon fill="#181818" points="110.58,271.2294,118.3843,265.2216,112.9618,266.8331,111.3503,261.4107,110.58,271.2294" style="stroke:#181818;stroke-width:1;"/><text fill="#000000" font-family="sans-serif" font-size="13" lengthAdjust="spacing" textLength="67.9199" x="137.5" y="238.1045">deactivate()</text></g><!--link INACTIVE to RECOVERING--><g id="link_INACTIVE_RECOVERING"><path d="M65.68,339.6894 C56.88,354.6694 51.24,372.3994 59.5,387.6094 C65.82,399.2594 70.5711,405.4352 81.2111,413.6052 " fill="none" id="INACTIVE-to-RECOVERING" style="stroke:#181818;stroke-width:1;"/><polygon fill="#181818" points="85.97,417.2594,81.2678,408.6055,82.0042,414.2142,76.3955,414.9507,85.97,417.2594" style="stroke:#181818;stroke-width:1;"/><text fill="#000000" font-family="sans-serif" font-size="13" lengthAdjust="spacing" textLength="52.0063" x="60.5" y="384.1045">recover()</text></g><!--link RECOVERING to INACTIVE--><g id="link_RECOVERING_INACTIVE"><path d="M141.66,417.2294 C131.3,393.8994 119.9581,368.3817 109.6181,345.1317 " fill="none" id="RECOVERING-to-INACTIVE" style="stroke:#181818;stroke-width:1;"/><polygon fill="#181818" points="107.18,339.6494,107.1824,349.4982,109.2118,344.2179,114.4921,346.2474,107.18,339.6494" style="stroke:#181818;stroke-width:1;"/><text fill="#000000" font-family="sans-serif" font-size="13" lengthAdjust="spacing" textLength="67.9199" x="129.5" y="384.1045">deactivate()</text></g><!--link RECOVERING to ACTIVE--><g id="link_RECOVERING_ACTIVE"><path d="M188.12,417.6094 C195.06,408.5394 201.52,398.2494 205.5,387.6094 C228.26,326.7394 211.72,306.5694 213.5,241.6094 C213.72,233.6094 215.86,231.2494 213.5,223.6094 C210.26,213.1094 207.957,207.7623 201.787,198.6223 " fill="none" id="RECOVERING-to-ACTIVE" style="stroke:#181818;stroke-width:1;"/><polygon fill="#181818" points="198.43,193.6494,200.1502,203.3468,201.2275,197.7935,206.7808,198.8708,198.43,193.6494" style="stroke:#181818;stroke-width:1;"/><text fill="#000000" font-family="sans-serif" font-size="13" lengthAdjust="spacing" textLength="53.46" x="219.5" y="311.1045">activate()</text></g><!--SRC=[XP5FIiD06CNtSuflgK8lu4BG42IR2gLq8ov2771GZ0xJwh8j248MGV42UW8HO-kVn2kyxmgUn2zfIHEXkFbcvl6OtvitphWpJNX4mHEUoaoHOyufUSP6G-Dep-hmL5kb3hUEgDFPeLsl7mnyfHPh9GNTvM6RZdKOEJCAdTxOLBKQHfT3OqMYd_43yHZFcCdC-9RlaAzykES9Ci9C3DzYA4CbjDpUeC0hfpnLgWQMz9xl7GpyNj3TbnkiZkAHjW9lX6hZtOcDhyY_ZlI5C_5vqxY6NqWp7_WKVeuCEITADQ2hKYfK_Ve_bdKbjUB_KrJBYoVHgq_32oTuB-qPtZ37b_e5]--></g></svg>