<svg xmlns="http://www.w3.org/2000/svg" xmlns:xlink="http://www.w3.org/1999/xlink" contentStyleType="text/css" height="594px" preserveAspectRatio="none" style="width:322px;height:594px;background:#FFFFFF;" version="1.1" viewBox="0 0 322 594" width="322px" zoomAndPan="magnify"><title>Healthcheck &#8212; &#1087;&#1077;&#1088;&#1080;&#1086;&#1076;&#1080;&#1095;&#1077;&#1089;&#1082;&#1072;&#1103; &#1087;&#1088;&#1086;&#1074;&#1077;&#1088;&#1082;&#1072;</title><defs/><g><text fill="#000000" font-family="sans-serif" font-size="14" font-weight="bold" lengthAdjust="spacing" textLength="279.9932" x="20" y="34.5332">Healthcheck &#8212; &#1087;&#1077;&#1088;&#1080;&#1086;&#1076;&#1080;&#1095;&#1077;&#1089;&#1082;&#1072;&#1103; &#1087;&#1088;&#1086;&#1074;&#1077;&#1088;&#1082;&#1072;</text><ellipse cx="150.2671" cy="58.6094" fill="#222222" rx="10" ry="10" style="stroke:#222222;stroke-width:1;"/><rect fill="#F1F1F1" height="35.0938" rx="12.5" ry="12.5" style="stroke:#181818;stroke-width:0.5;" width="117.7051" x="91.4146" y="88.6094"/><text fill="#000000" font-family="sans-serif" font-size="12" lengthAdjust="spacing" textLength="97.7051" x="101.4146" y="111.0664">&#1058;&#1072;&#1081;&#1084;&#1077;&#1088; &#1089;&#1088;&#1072;&#1073;&#1086;&#1090;&#1072;&#1083;</text><rect fill="#F1F1F1" height="35.0938" rx="12.5" ry="12.5" style="stroke:#181818;stroke-width:0.5;" width="108.0371" x="96.2485" y="209.2109"/><text fill="#000000" font-family="sans-serif" font-size="12" lengthAdjust="spacing" textLength="88.0371" x="106.2485" y="231.668">&#1048;&#1079;&#1074;&#1083;&#1077;&#1095;&#1100; &#1088;&#1077;&#1089;&#1091;&#1088;&#1089;</text><polygon fill="#F1F1F1" points="117.251,264.3047,183.2832,264.3047,195.2832,278.1406,183.2832,291.9766,117.251,291.9766,105.251,278.1406,117.251,264.3047" style="stroke:#181818;stroke-width:0.5;"/><text fill="#000000" font-family="sans-serif" font-size="11" lengthAdjust="spacing" textLength="66.0322" x="117.251" y="275.7236">healthcheck()</text><text fill="#000000" font-family="sans-serif" font-size="11" lengthAdjust="spacing" textLength="64.2007" x="117.251" y="289.5596">&#1074;&#1077;&#1088;&#1085;&#1091;&#1083; true?</text><text fill="#000000" font-family="sans-serif" font-size="11" lengthAdjust="spacing" textLength="12.5361" x="92.7148" y="275.7236">&#1076;&#1072;</text><text fill="#000000" font-family="sans-serif" font-size="11" lengthAdjust="spacing" textLength="17.2305" x="195.2832" y="275.7236">&#1085;&#1077;&#1090;</text><rect fill="#F1F1F1" height="50.1875" rx="12.5" ry="12.5" style="stroke:#181818;stroke-width:0.5;" width="82.4082" x="46.1294" y="301.9766"/><text fill="#000000" font-family="sans-serif" font-size="12" lengthAdjust="spacing" textLength="45.7266" x="56.1294" y="324.4336">&#1042;&#1077;&#1088;&#1085;&#1091;&#1090;&#1100;</text><text fill="#000000" font-family="sans-serif" font-size="12" lengthAdjust="spacing" textLength="62.4082" x="56.1294" y="339.5273">&#1074; idle buffer</text><rect fill="#F1F1F1" height="50.1875" rx="12.5" ry="12.5" style="stroke:#181818;stroke-width:0.5;" width="85.8535" x="170.2739" y="301.9766"/><text fill="#000000" font-family="sans-serif" font-size="12" lengthAdjust="spacing" textLength="65.8535" x="180.2739" y="324.4336">&#1059;&#1085;&#1080;&#1095;&#1090;&#1086;&#1078;&#1080;&#1090;&#1100;</text><text fill="#000000" font-family="sans-serif" font-size="12" lengthAdjust="spacing" textLength="61.3477" x="180.2739" y="339.5273">(destructor)</text><rect fill="#F1F1F1" height="50.1875" rx="12.5" ry="12.5" style="stroke:#181818;stroke-width:0.5;" width="109.3262" x="158.5376" y="436.082"/><text fill="#000000" font-family="sans-serif" font-size="12" lengthAdjust="spacing" textLength="89.3262" x="168.5376" y="458.5391">&#1057;&#1086;&#1079;&#1076;&#1072;&#1090;&#1100; &#1079;&#1072;&#1084;&#1077;&#1085;&#1091;</text><text fill="#000000" font-family="sans-serif" font-size="12" lengthAdjust="spacing" textLength="44.0039" x="168.5376" y="473.6328">(factory)</text><polygon fill="#F1F1F1" points="180.4692,387.1641,245.9321,387.1641,257.9321,399.1641,245.9321,411.1641,180.4692,411.1641,168.4692,399.1641,180.4692,387.1641" style="stroke:#181818;stroke-width:0.5;"/><text fill="#000000" font-family="sans-serif" font-size="11" lengthAdjust="spacing" textLength="12.5361" x="217.2007" y="422.583">&#1076;&#1072;</text><text fill="#000000" font-family="sans-serif" font-size="11" lengthAdjust="spacing" textLength="65.4629" x="180.4692" y="403.665">&#1042;&#1089;&#1077;&#1075;&#1086; &lt; min?</text><polygon fill="#F1F1F1" points="213.2007,506.2695,225.2007,518.2695,213.2007,530.2695,201.2007,518.2695,213.2007,506.2695" style="stroke:#181818;stroke-width:0.5;"/><polygon fill="#F1F1F1" points="150.2671,536.2695,162.2671,548.2695,150.2671,560.2695,138.2671,548.2695,150.2671,536.2695" style="stroke:#181818;stroke-width:0.5;"/><polygon fill="#F1F1F1" points="115.5564,143.7031,184.9778,143.7031,196.9778,157.5391,184.9778,171.375,115.5564,171.375,103.5564,157.5391,115.5564,143.7031" style="stroke:#181818;stroke-width:0.5;"/><text fill="#000000" font-family="sans-serif" font-size="11" lengthAdjust="spacing" textLength="12.5361" x="154.2671" y="182.7939">&#1076;&#1072;</text><text fill="#000000" font-family="sans-serif" font-size="11" lengthAdjust="spacing" textLength="69.4214" x="115.5564" y="155.1221">&#1045;&#1089;&#1090;&#1100; &#1088;&#1077;&#1089;&#1091;&#1088;&#1089;&#1099;</text><text fill="#000000" font-family="sans-serif" font-size="11" lengthAdjust="spacing" textLength="63.3252" x="115.5564" y="168.958">&#1074; idle buffer?</text><text fill="#000000" font-family="sans-serif" font-size="11" lengthAdjust="spacing" textLength="17.2305" x="86.3259" y="155.1221">&#1085;&#1077;&#1090;</text><ellipse cx="25.1294" cy="202.7031" fill="none" rx="11" ry="11" style="stroke:#222222;stroke-width:1;"/><ellipse cx="25.1294" cy="202.7031" fill="#222222" rx="6" ry="6" style="stroke:#222222;stroke-width:1;"/><line style="stroke:#181818;stroke-width:1;" x1="150.2671" x2="150.2671" y1="68.6094" y2="88.6094"/><polygon fill="#181818" points="146.2671,78.6094,150.2671,88.6094,154.2671,78.6094,150.2671,82.6094" style="stroke:#181818;stroke-width:1;"/><line style="stroke:#181818;stroke-width:1;" x1="213.2007" x2="213.2007" y1="411.1641" y2="436.082"/><polygon fill="#181818" points="209.2007,426.082,213.2007,436.082,217.2007,426.082,213.2007,430.082" style="stroke:#181818;stroke-width:1;"/><line style="stroke:#181818;stroke-width:1;" x1="257.9321" x2="277.8638" y1="399.1641" y2="399.1641"/><polygon fill="#181818" points="273.8638,451.1758,277.8638,461.1758,281.8638,451.1758,277.8638,455.1758" style="stroke:#181818;stroke-width:1;"/><line style="stroke:#181818;stroke-width:1;" x1="277.8638" x2="277.8638" y1="399.1641" y2="518.2695"/><line style="stroke:#181818;stroke-width:1;" x1="277.8638" x2="225.2007" y1="518.2695" y2="518.2695"/><polygon fill="#181818" points="235.2007,514.2695,225.2007,518.2695,235.2007,522.2695,231.2007,518.2695" style="stroke:#181818;stroke-width:1;"/><line style="stroke:#181818;stroke-width:1;" x1="213.2007" x2="213.2007" y1="486.2695" y2="506.2695"/><polygon fill="#181818" points="209.2007,496.2695,213.2007,506.2695,217.2007,496.2695,213.2007,500.2695" style="stroke:#181818;stroke-width:1;"/><line style="stroke:#181818;stroke-width:1;" x1="213.2007" x2="213.2007" y1="352.1641" y2="387.1641"/><polygon fill="#181818" points="209.2007,377.1641,213.2007,387.1641,217.2007,377.1641,213.2007,381.1641" style="stroke:#181818;stroke-width:1;"/><line style="stroke:#181818;stroke-width:1;" x1="105.251" x2="87.3335" y1="278.1406" y2="278.1406"/><line style="stroke:#181818;stroke-width:1;" x1="87.3335" x2="87.3335" y1="278.1406" y2="301.9766"/><polygon fill="#181818" points="83.3335,291.9766,87.3335,301.9766,91.3335,291.9766,87.3335,295.9766" style="stroke:#181818;stroke-width:1;"/><line style="stroke:#181818;stroke-width:1;" x1="195.2832" x2="213.2007" y1="278.1406" y2="278.1406"/><line style="stroke:#181818;stroke-width:1;" x1="213.2007" x2="213.2007" y1="278.1406" y2="301.9766"/><polygon fill="#181818" points="209.2007,291.9766,213.2007,301.9766,217.2007,291.9766,213.2007,295.9766" style="stroke:#181818;stroke-width:1;"/><line style="stroke:#181818;stroke-width:1;" x1="87.3335" x2="87.3335" y1="352.1641" y2="548.2695"/><line style="stroke:#181818;stroke-width:1;" x1="87.3335" x2="138.2671" y1="548.2695" y2="548.2695"/><polygon fill="#181818" points="128.2671,544.2695,138.2671,548.2695,128.2671,552.2695,132.2671,548.2695" style="stroke:#181818;stroke-width:1;"/><line style="stroke:#181818;stroke-width:1;" x1="213.2007" x2="213.2007" y1="530.2695" y2="548.2695"/><line style="stroke:#181818;stroke-width:1;" x1="213.2007" x2="162.2671" y1="548.2695" y2="548.2695"/><polygon fill="#181818" points="172.2671,544.2695,162.2671,548.2695,172.2671,552.2695,168.2671,548.2695" style="stroke:#181818;stroke-width:1;"/><line style="stroke:#181818;stroke-width:1;" x1="150.2671" x2="150.2671" y1="244.3047" y2="264.3047"/><polygon fill="#181818" points="146.2671,254.3047,150.2671,264.3047,154.2671,254.3047,150.2671,258.3047" style="stroke:#181818;stroke-width:1;"/><line style="stroke:#181818;stroke-width:1;" x1="150.2671" x2="150.2671" y1="171.375" y2="209.2109"/><polygon fill="#181818" points="146.2671,199.2109,150.2671,209.2109,154.2671,199.2109,150.2671,203.2109" style="stroke:#181818;stroke-width:1;"/><line style="stroke:#181818;stroke-width:1;" x1="150.2671" x2="150.2671" y1="560.2695" y2="570.2695"/><line style="stroke:#181818;stroke-width:1;" x1="150.2671" x2="295.8638" y1="570.2695" y2="570.2695"/><polygon fill="#181818" points="291.8638,369.8633,295.8638,359.8633,299.8638,369.8633,295.8638,365.8633" style="stroke:#181818;stroke-width:1;"/><line style="stroke:#181818;stroke-width:1;" x1="295.8638" x2="295.8638" y1="157.5391" y2="570.2695"/><line style="stroke:#181818;stroke-width:1;" x1="295.8638" x2="196.9778" y1="157.5391" y2="157.5391"/><polygon fill="#181818" points="206.9778,153.5391,196.9778,157.5391,206.9778,161.5391,202.9778,157.5391" style="stroke:#181818;stroke-width:1;"/><line style="stroke:#181818;stroke-width:1;" x1="103.5564" x2="25.1294" y1="157.5391" y2="157.5391"/><line style="stroke:#181818;stroke-width:1;" x1="25.1294" x2="25.1294" y1="157.5391" y2="191.7031"/><polygon fill="#181818" points="21.1294,181.7031,25.1294,191.7031,29.1294,181.7031,25.1294,185.7031" style="stroke:#181818;stroke-width:1;"/><line style="stroke:#181818;stroke-width:1;" x1="150.2671" x2="150.2671" y1="123.7031" y2="143.7031"/><polygon fill="#181818" points="146.2671,133.7031,150.2671,143.7031,154.2671,133.7031,150.2671,137.7031" style="stroke:#181818;stroke-width:1;"/><!--SRC=[TL5BJiCm5Dpx55ucLsYGs788DY5n58kGeiGLOjVFeWkGa2gGs08N2AMbXT1mXV4LE0dZjALL9R9mNZppvisR66qo9KzKc9aqIbLqBd_wznBVcDi-bcWmmzAE-JN09ofxHuX0WsbBu9KGfGaB8qG7pwZmWI-7I3iWNE4LZHtoNGT2NAMQepmy41lQMqa2PUt8zddUdEQOIXsJSTPB4bKS-rANPCzG-KBowU0H2ywjsJK-QAUwe-X4Ukbk5SztegtHbHsXbgReAUgQLENxoclroPRep1sw2LgYoagtm8hCuNxh2w-O4ZTjyCwg5V1YLN9WPBg5l_6tzOW9uvpZ3OqyaXSw_yVJMlo9eWi7jA6nh5p4pYXd9A7Jl_Q3loQLnpeHkuhdDlYDR_wmxgNu1G00]--></g></svg>