<svg xmlns="http://www.w3.org/2000/svg" xmlns:xlink="http://www.w3.org/1999/xlink" contentStyleType="text/css" height="1034px" preserveAspectRatio="none" style="width:478px;height:1034px;background:#FFFFFF;" version="1.1" viewBox="0 0 478 1034" width="478px" zoomAndPan="magnify"><title>release() &#8212; &#1074;&#1085;&#1091;&#1090;&#1088;&#1077;&#1085;&#1085;&#1080;&#1081; &#1072;&#1083;&#1075;&#1086;&#1088;&#1080;&#1090;&#1084;</title><defs/><g><text fill="#000000" font-family="sans-serif" font-size="14" font-weight="bold" lengthAdjust="spacing" textLength="231.3008" x="122.2888" y="34.5332">release() &#8212; &#1074;&#1085;&#1091;&#1090;&#1088;&#1077;&#1085;&#1085;&#1080;&#1081; &#1072;&#1083;&#1075;&#1086;&#1088;&#1080;&#1090;&#1084;</text><ellipse cx="240.3093" cy="58.6094" fill="#222222" rx="10" ry="10" style="stroke:#222222;stroke-width:1;"/><rect fill="#F1F1F1" height="35.0938" rx="12.5" ry="12.5" style="stroke:#181818;stroke-width:0.5;" width="243.4707" x="118.574" y="88.6094"/><text fill="#000000" font-family="sans-serif" font-size="12" lengthAdjust="spacing" textLength="223.4707" x="128.574" y="111.0664">zend_async_pool_release(pool, resource)</text><rect fill="#F1F1F1" height="35.0938" rx="12.5" ry="12.5" style="stroke:#181818;stroke-width:0.5;" width="95.3691" x="192.6248" y="143.7031"/><text fill="#000000" font-family="sans-serif" font-size="12" lengthAdjust="spacing" textLength="75.3691" x="202.6248" y="166.1602">active_count--</text><rect fill="#F1F1F1" height="50.1875" rx="12.5" ry="12.5" style="stroke:#181818;stroke-width:0.5;" width="105.7285" x="187.4451" y="303.9766"/><text fill="#000000" font-family="sans-serif" font-size="12" lengthAdjust="spacing" textLength="76.0195" x="197.4451" y="326.4336">reportFailure()</text><text fill="#000000" font-family="sans-serif" font-size="12" lengthAdjust="spacing" textLength="85.7285" x="197.4451" y="341.5273">&#1074; CircuitBreaker</text><rect fill="#F1F1F1" height="50.1875" rx="12.5" ry="12.5" style="stroke:#181818;stroke-width:0.5;" width="127.209" x="176.7048" y="374.918"/><text fill="#000000" font-family="sans-serif" font-size="12" lengthAdjust="spacing" textLength="107.209" x="186.7048" y="397.375">&#1059;&#1085;&#1080;&#1095;&#1090;&#1086;&#1078;&#1080;&#1090;&#1100; &#1088;&#1077;&#1089;&#1091;&#1088;&#1089;</text><text fill="#000000" font-family="sans-serif" font-size="12" lengthAdjust="spacing" textLength="61.3477" x="186.7048" y="412.4688">(destructor)</text><ellipse cx="240.3093" cy="456.1055" fill="none" rx="11" ry="11" style="stroke:#222222;stroke-width:1;"/><ellipse cx="240.3093" cy="456.1055" fill="#222222" rx="6" ry="6" style="stroke:#222222;stroke-width:1;"/><polygon fill="#F1F1F1" points="204.5352,251.3867,276.0835,251.3867,288.0835,265.2227,276.0835,279.0586,204.5352,279.0586,192.5352,265.2227,204.5352,251.3867" style="stroke:#181818;stroke-width:0.5;"/><text fill="#000000" font-family="sans-serif" font-size="11" lengthAdjust="spacing" textLength="17.2305" x="244.3093" y="290.4775">&#1085;&#1077;&#1090;</text><text fill="#000000" font-family="sans-serif" font-size="11" lengthAdjust="spacing" textLength="71.5483" x="204.5352" y="262.8057">beforeRelease</text><text fill="#000000" font-family="sans-serif" font-size="11" lengthAdjust="spacing" textLength="64.2007" x="204.5352" y="276.6416">&#1074;&#1077;&#1088;&#1085;&#1091;&#1083; true?</text><text fill="#000000" font-family="sans-serif" font-size="11" lengthAdjust="spacing" textLength="12.5361" x="288.0835" y="262.8057">&#1076;&#1072;</text><polygon fill="#F1F1F1" points="204.5352,198.7969,276.0835,198.7969,288.0835,212.6328,276.0835,226.4688,204.5352,226.4688,192.5352,212.6328,204.5352,198.7969" style="stroke:#181818;stroke-width:0.5;"/><text fill="#000000" font-family="sans-serif" font-size="11" lengthAdjust="spacing" textLength="12.5361" x="244.3093" y="237.8877">&#1076;&#1072;</text><text fill="#000000" font-family="sans-serif" font-size="11" lengthAdjust="spacing" textLength="71.5483" x="204.5352" y="210.2158">beforeRelease</text><text fill="#000000" font-family="sans-serif" font-size="11" lengthAdjust="spacing" textLength="35.8896" x="204.5352" y="224.0518">&#1079;&#1072;&#1076;&#1072;&#1085;?</text><polygon fill="#F1F1F1" points="240.3093,509.1055,252.3093,521.1055,240.3093,533.1055,228.3093,521.1055,240.3093,509.1055" style="stroke:#181818;stroke-width:0.5;"/><rect fill="#F1F1F1" height="50.1875" rx="12.5" ry="12.5" style="stroke:#181818;stroke-width:0.5;" width="105.7285" x="187.4451" y="553.1055"/><text fill="#000000" font-family="sans-serif" font-size="12" lengthAdjust="spacing" textLength="84.6914" x="197.4451" y="575.5625">reportSuccess()</text><text fill="#000000" font-family="sans-serif" font-size="12" lengthAdjust="spacing" textLength="85.7285" x="197.4451" y="590.6563">&#1074; CircuitBreaker</text><rect fill="#F1F1F1" height="35.0938" rx="12.5" ry="12.5" style="stroke:#181818;stroke-width:0.5;" width="127.209" x="176.7048" y="672.2109"/><text fill="#000000" font-family="sans-serif" font-size="12" lengthAdjust="spacing" textLength="107.209" x="186.7048" y="694.668">&#1059;&#1085;&#1080;&#1095;&#1090;&#1086;&#1078;&#1080;&#1090;&#1100; &#1088;&#1077;&#1089;&#1091;&#1088;&#1089;</text><ellipse cx="240.3093" cy="746.2578" fill="none" rx="11" ry="11" style="stroke:#222222;stroke-width:1;"/><ellipse cx="240.3093" cy="746.2578" fill="#222222" rx="6" ry="6" style="stroke:#222222;stroke-width:1;"/><polygon fill="#F1F1F1" points="207.1965,623.293,273.4221,623.293,285.4221,635.293,273.4221,647.293,207.1965,647.293,195.1965,635.293,207.1965,623.293" style="stroke:#181818;stroke-width:0.5;"/><text fill="#000000" font-family="sans-serif" font-size="11" lengthAdjust="spacing" textLength="12.5361" x="244.3093" y="658.7119">&#1076;&#1072;</text><text fill="#000000" font-family="sans-serif" font-size="11" lengthAdjust="spacing" textLength="66.2256" x="207.1965" y="639.7939">Pool &#1079;&#1072;&#1082;&#1088;&#1099;&#1090;?</text><polygon fill="#F1F1F1" points="196.1187,799.2578,284.5,799.2578,296.5,813.0938,284.5,826.9297,196.1187,826.9297,184.1187,813.0938,196.1187,799.2578" style="stroke:#181818;stroke-width:0.5;"/><text fill="#000000" font-family="sans-serif" font-size="11" lengthAdjust="spacing" textLength="88.3813" x="196.1187" y="810.6768">&#1045;&#1089;&#1090;&#1100; &#1086;&#1078;&#1080;&#1076;&#1072;&#1102;&#1097;&#1080;&#1077;</text><text fill="#000000" font-family="sans-serif" font-size="11" lengthAdjust="spacing" textLength="53.8291" x="196.1187" y="824.5127">&#1082;&#1086;&#1088;&#1091;&#1090;&#1080;&#1085;&#1099;?</text><text fill="#000000" font-family="sans-serif" font-size="11" lengthAdjust="spacing" textLength="12.5361" x="171.5825" y="810.6768">&#1076;&#1072;</text><text fill="#000000" font-family="sans-serif" font-size="11" lengthAdjust="spacing" textLength="17.2305" x="296.5" y="810.6768">&#1085;&#1077;&#1090;</text><rect fill="#F1F1F1" height="50.1875" rx="12.5" ry="12.5" style="stroke:#181818;stroke-width:0.5;" width="121.5254" x="17.7119" y="836.9297"/><text fill="#000000" font-family="sans-serif" font-size="12" lengthAdjust="spacing" textLength="101.5254" x="27.7119" y="859.3867">&#1055;&#1086;&#1084;&#1077;&#1089;&#1090;&#1080;&#1090;&#1100; &#1088;&#1077;&#1089;&#1091;&#1088;&#1089;</text><text fill="#000000" font-family="sans-serif" font-size="12" lengthAdjust="spacing" textLength="62.4082" x="27.7119" y="874.4805">&#1074; idle buffer</text><path d="M165.9492,922.1172 L165.9492,947.6445 L145.9492,951.6445 L165.9492,955.6445 L165.9492,981.1719 A0,0 0 0 0 165.9492,981.1719 L316.4097,981.1719 A0,0 0 0 0 316.4097,981.1719 L316.4097,932.1172 L306.4097,922.1172 L165.9492,922.1172 A0,0 0 0 0 165.9492,922.1172 " fill="#FEFFDD" style="stroke:#181818;stroke-width:0.5;"/><path d="M306.4097,922.1172 L306.4097,932.1172 L316.4097,932.1172 L306.4097,922.1172 " fill="#FEFFDD" style="stroke:#181818;stroke-width:0.5;"/><text fill="#000000" font-family="sans-serif" font-size="13" lengthAdjust="spacing" textLength="121.6719" x="171.9492" y="940.6123">&#1050;&#1086;&#1088;&#1091;&#1090;&#1080;&#1085;&#1072; &#1087;&#1088;&#1086;&#1089;&#1085;&#1105;&#1090;&#1089;&#1103;</text><text fill="#000000" font-family="sans-serif" font-size="13" lengthAdjust="spacing" textLength="103.9556" x="171.9492" y="956.9639">&#1080; &#1079;&#1072;&#1073;&#1077;&#1088;&#1105;&#1090; &#1088;&#1077;&#1089;&#1091;&#1088;&#1089;</text><text fill="#000000" font-family="sans-serif" font-size="13" lengthAdjust="spacing" textLength="129.4604" x="171.9492" y="973.3154">&#1095;&#1077;&#1088;&#1077;&#1079; retry &#1074; acquire()</text><rect fill="#F1F1F1" height="50.1875" rx="12.5" ry="12.5" style="stroke:#181818;stroke-width:0.5;" width="134.9492" x="11" y="926.5508"/><text fill="#000000" font-family="sans-serif" font-size="12" lengthAdjust="spacing" textLength="103.0605" x="21" y="949.0078">&#1056;&#1072;&#1079;&#1073;&#1091;&#1076;&#1080;&#1090;&#1100; &#1087;&#1077;&#1088;&#1074;&#1091;&#1102;</text><text fill="#000000" font-family="sans-serif" font-size="12" lengthAdjust="spacing" textLength="114.9492" x="21" y="964.1016">&#1082;&#1086;&#1088;&#1091;&#1090;&#1080;&#1085;&#1091; &#1080;&#1079; &#1086;&#1095;&#1077;&#1088;&#1077;&#1076;&#1080;</text><ellipse cx="78.4746" cy="1012.1719" fill="none" rx="11" ry="11" style="stroke:#222222;stroke-width:1;"/><ellipse cx="78.4746" cy="1012.1719" fill="#222222" rx="6" ry="6" style="stroke:#222222;stroke-width:1;"/><rect fill="#F1F1F1" height="35.0938" rx="12.5" ry="12.5" style="stroke:#181818;stroke-width:0.5;" width="131.4688" x="336.4097" y="836.9297"/><text fill="#000000" font-family="sans-serif" font-size="12" lengthAdjust="spacing" textLength="111.4688" x="346.4097" y="859.3867">&#1042;&#1077;&#1088;&#1085;&#1091;&#1090;&#1100; &#1074; idle buffer</text><ellipse cx="402.144" cy="918.0234" fill="none" rx="11" ry="11" style="stroke:#222222;stroke-width:1;"/><ellipse cx="402.144" cy="918.0234" fill="#222222" rx="6" ry="6" style="stroke:#222222;stroke-width:1;"/><line style="stroke:#181818;stroke-width:1;" x1="240.3093" x2="240.3093" y1="68.6094" y2="88.6094"/><polygon fill="#181818" points="236.3093,78.6094,240.3093,88.6094,244.3093,78.6094,240.3093,82.6094" style="stroke:#181818;stroke-width:1;"/><line style="stroke:#181818;stroke-width:1;" x1="240.3093" x2="240.3093" y1="123.7031" y2="143.7031"/><polygon fill="#181818" points="236.3093,133.7031,240.3093,143.7031,244.3093,133.7031,240.3093,137.7031" style="stroke:#181818;stroke-width:1;"/><line style="stroke:#181818;stroke-width:1;" x1="240.3093" x2="240.3093" y1="354.1641" y2="374.918"/><polygon fill="#181818" points="236.3093,364.918,240.3093,374.918,244.3093,364.918,240.3093,368.918" style="stroke:#181818;stroke-width:1;"/><line style="stroke:#181818;stroke-width:1;" x1="240.3093" x2="240.3093" y1="425.1055" y2="445.1055"/><polygon fill="#181818" points="236.3093,435.1055,240.3093,445.1055,244.3093,435.1055,240.3093,439.1055" style="stroke:#181818;stroke-width:1;"/><line style="stroke:#181818;stroke-width:1;" x1="240.3093" x2="240.3093" y1="279.0586" y2="303.9766"/><polygon fill="#181818" points="236.3093,293.9766,240.3093,303.9766,244.3093,293.9766,240.3093,297.9766" style="stroke:#181818;stroke-width:1;"/><line style="stroke:#181818;stroke-width:1;" x1="288.0835" x2="313.9138" y1="265.2227" y2="265.2227"/><polygon fill="#181818" points="309.9138,372,313.9138,382,317.9138,372,313.9138,376" style="stroke:#181818;stroke-width:1;"/><line style="stroke:#181818;stroke-width:1;" x1="313.9138" x2="313.9138" y1="265.2227" y2="489.1055"/><line style="stroke:#181818;stroke-width:1;" x1="313.9138" x2="240.3093" y1="489.1055" y2="489.1055"/><line style="stroke:#181818;stroke-width:1;" x1="240.3093" x2="240.3093" y1="489.1055" y2="509.1055"/><polygon fill="#181818" points="236.3093,499.1055,240.3093,509.1055,244.3093,499.1055,240.3093,503.1055" style="stroke:#181818;stroke-width:1;"/><line style="stroke:#181818;stroke-width:1;" x1="240.3093" x2="240.3093" y1="226.4688" y2="251.3867"/><polygon fill="#181818" points="236.3093,241.3867,240.3093,251.3867,244.3093,241.3867,240.3093,245.3867" style="stroke:#181818;stroke-width:1;"/><line style="stroke:#181818;stroke-width:1;" x1="288.0835" x2="335.9138" y1="212.6328" y2="212.6328"/><polygon fill="#181818" points="331.9138,364.1641,335.9138,374.1641,339.9138,364.1641,335.9138,368.1641" style="stroke:#181818;stroke-width:1;"/><line style="stroke:#181818;stroke-width:1;" x1="335.9138" x2="335.9138" y1="212.6328" y2="521.1055"/><line style="stroke:#181818;stroke-width:1;" x1="335.9138" x2="252.3093" y1="521.1055" y2="521.1055"/><polygon fill="#181818" points="262.3093,517.1055,252.3093,521.1055,262.3093,525.1055,258.3093,521.1055" style="stroke:#181818;stroke-width:1;"/><line style="stroke:#181818;stroke-width:1;" x1="240.3093" x2="240.3093" y1="178.7969" y2="198.7969"/><polygon fill="#181818" points="236.3093,188.7969,240.3093,198.7969,244.3093,188.7969,240.3093,192.7969" style="stroke:#181818;stroke-width:1;"/><line style="stroke:#181818;stroke-width:1;" x1="240.3093" x2="240.3093" y1="533.1055" y2="553.1055"/><polygon fill="#181818" points="236.3093,543.1055,240.3093,553.1055,244.3093,543.1055,240.3093,547.1055" style="stroke:#181818;stroke-width:1;"/><line style="stroke:#181818;stroke-width:1;" x1="240.3093" x2="240.3093" y1="707.3047" y2="735.2578"/><polygon fill="#181818" points="236.3093,725.2578,240.3093,735.2578,244.3093,725.2578,240.3093,729.2578" style="stroke:#181818;stroke-width:1;"/><line style="stroke:#181818;stroke-width:1;" x1="240.3093" x2="240.3093" y1="647.293" y2="672.2109"/><polygon fill="#181818" points="236.3093,662.2109,240.3093,672.2109,244.3093,662.2109,240.3093,666.2109" style="stroke:#181818;stroke-width:1;"/><line style="stroke:#181818;stroke-width:1;" x1="285.4221" x2="313.9138" y1="635.293" y2="635.293"/><polygon fill="#181818" points="309.9138,705.2578,313.9138,715.2578,317.9138,705.2578,313.9138,709.2578" style="stroke:#181818;stroke-width:1;"/><line style="stroke:#181818;stroke-width:1;" x1="313.9138" x2="313.9138" y1="635.293" y2="779.2578"/><line style="stroke:#181818;stroke-width:1;" x1="313.9138" x2="240.3093" y1="779.2578" y2="779.2578"/><line style="stroke:#181818;stroke-width:1;" x1="240.3093" x2="240.3093" y1="779.2578" y2="799.2578"/><polygon fill="#181818" points="236.3093,789.2578,240.3093,799.2578,244.3093,789.2578,240.3093,793.2578" style="stroke:#181818;stroke-width:1;"/><line style="stroke:#181818;stroke-width:1;" x1="240.3093" x2="240.3093" y1="603.293" y2="623.293"/><polygon fill="#181818" points="236.3093,613.293,240.3093,623.293,244.3093,613.293,240.3093,617.293" style="stroke:#181818;stroke-width:1;"/><line style="stroke:#181818;stroke-width:1;" x1="78.4746" x2="78.4746" y1="887.1172" y2="926.5508"/><polygon fill="#181818" points="74.4746,916.5508,78.4746,926.5508,82.4746,916.5508,78.4746,920.5508" style="stroke:#181818;stroke-width:1;"/><line style="stroke:#181818;stroke-width:1;" x1="78.4746" x2="78.4746" y1="976.7383" y2="1001.1719"/><polygon fill="#181818" points="74.4746,991.1719,78.4746,1001.1719,82.4746,991.1719,78.4746,995.1719" style="stroke:#181818;stroke-width:1;"/><line style="stroke:#181818;stroke-width:1;" x1="402.144" x2="402.144" y1="872.0234" y2="907.0234"/><polygon fill="#181818" points="398.144,897.0234,402.144,907.0234,406.144,897.0234,402.144,901.0234" style="stroke:#181818;stroke-width:1;"/><line style="stroke:#181818;stroke-width:1;" x1="184.1187" x2="78.4746" y1="813.0938" y2="813.0938"/><line style="stroke:#181818;stroke-width:1;" x1="78.4746" x2="78.4746" y1="813.0938" y2="836.9297"/><polygon fill="#181818" points="74.4746,826.9297,78.4746,836.9297,82.4746,826.9297,78.4746,830.9297" style="stroke:#181818;stroke-width:1;"/><line style="stroke:#181818;stroke-width:1;" x1="296.5" x2="402.144" y1="813.0938" y2="813.0938"/><line style="stroke:#181818;stroke-width:1;" x1="402.144" x2="402.144" y1="813.0938" y2="836.9297"/><polygon fill="#181818" points="398.144,826.9297,402.144,836.9297,406.144,826.9297,402.144,830.9297" style="stroke:#181818;stroke-width:1;"/><!--SRC=[XLDBRjH04Dtx5BqSI-G2amKIIAmHR2EDd9uoQM6vX-usKbZDE8i81GM1OCC692wG39dCaCJ35Qglm4buxPvFI8omvK-twxrwzQhib2j862eeizHBnU_n9y5JRloHh_sOPzpWNF1FmMTypJzuYSs5h_acIQpBZ4kI_XigXuFC7fPoCDAw6Ap9mk81gAskZAHq5w6PTEer3QIkIhUpWnsLYzu-vThGiuZQAtcEL1UuceUfS0TKYbvOfed0qHK_vHb4GJ5V2sSgwe1HOGdh1f5rt0b7tz186_SaKqLbK7pW4e-LaPLoZmnbBydiReFvUt327wFu9Ly64_mx4Ipo4vWrzfEziZSa2mNIQPDkaTRfKLHH3bMUn7koIlwyafAi_KVorf-dy56qhbmXpOclEmhylxgefzMoKX2u-JE-Xz282eJ-rB_5smo2haAxmoHWtVYJphnVWRnfqzITdg0gDSI8xLTvtfOKOTzGpfpFqRIB5On_jNsS0dXwB_UHm6CEbVwuZPe5s8gir0uJh5uSk8tb_EKsciz03j3IJq3r0Tac_lqsTX7DFG_4uUjV1Mp2Dedd66bd3l6NY4o-gbIOd7LxMot9BQVlpLsVFwx7DLPznvuxJVe3]--></g></svg>