<svg xmlns="http://www.w3.org/2000/svg" xmlns:xlink="http://www.w3.org/1999/xlink" contentStyleType="text/css" height="601px" preserveAspectRatio="none" style="width:491px;height:601px;background:#FFFFFF;" version="1.1" viewBox="0 0 491 601" width="491px" zoomAndPan="magnify"><title>&#1046;&#1080;&#1079;&#1085;&#1077;&#1085;&#1085;&#1099;&#1081; &#1094;&#1080;&#1082;&#1083; &#1089;&#1086;&#1077;&#1076;&#1080;&#1085;&#1077;&#1085;&#1080;&#1103; &#1074; &#1087;&#1091;&#1083;&#1077;</title><defs/><g><text fill="#000000" font-family="sans-serif" font-size="14" font-weight="bold" lengthAdjust="spacing" textLength="255.2266" x="116.4648" y="34.5332">&#1046;&#1080;&#1079;&#1085;&#1077;&#1085;&#1085;&#1099;&#1081; &#1094;&#1080;&#1082;&#1083; &#1089;&#1086;&#1077;&#1076;&#1080;&#1085;&#1077;&#1085;&#1080;&#1103; &#1074; &#1087;&#1091;&#1083;&#1077;</text><ellipse cx="285.239" cy="58.6094" fill="#222222" rx="10" ry="10" style="stroke:#222222;stroke-width:1;"/><rect fill="#F1F1F1" height="50.1875" rx="12.5" ry="12.5" style="stroke:#181818;stroke-width:0.5;" width="129.5176" x="220.4802" y="88.6094"/><text fill="#000000" font-family="sans-serif" font-size="12" lengthAdjust="spacing" textLength="109.5176" x="230.4802" y="111.0664">&#1050;&#1086;&#1088;&#1091;&#1090;&#1080;&#1085;&#1072; &#1074;&#1099;&#1079;&#1099;&#1074;&#1072;&#1077;&#1090;</text><text fill="#000000" font-family="sans-serif" font-size="12" lengthAdjust="spacing" textLength="75.709" x="230.4802" y="126.1602">$pdo-&gt;query()</text><polygon fill="#F1F1F1" points="234.415,158.7969,336.063,158.7969,348.063,172.6328,336.063,186.4688,234.415,186.4688,222.415,172.6328,234.415,158.7969" style="stroke:#181818;stroke-width:0.5;"/><text fill="#000000" font-family="sans-serif" font-size="11" lengthAdjust="spacing" textLength="87.4897" x="234.415" y="170.2158">&#1045;&#1089;&#1090;&#1100; &#1089;&#1086;&#1077;&#1076;&#1080;&#1085;&#1077;&#1085;&#1080;&#1077;</text><text fill="#000000" font-family="sans-serif" font-size="11" lengthAdjust="spacing" textLength="101.6479" x="234.415" y="184.0518">&#1076;&#1083;&#1103; &#1101;&#1090;&#1086;&#1081; &#1082;&#1086;&#1088;&#1091;&#1090;&#1080;&#1085;&#1099;?</text><text fill="#000000" font-family="sans-serif" font-size="11" lengthAdjust="spacing" textLength="12.5361" x="209.8789" y="170.2158">&#1076;&#1072;</text><text fill="#000000" font-family="sans-serif" font-size="11" lengthAdjust="spacing" textLength="17.2305" x="348.063" y="170.2158">&#1085;&#1077;&#1090;</text><rect fill="#F1F1F1" height="35.0938" rx="12.5" ry="12.5" style="stroke:#181818;stroke-width:0.5;" width="119.082" x="152.874" y="196.4688"/><text fill="#000000" font-family="sans-serif" font-size="12" lengthAdjust="spacing" textLength="99.082" x="162.874" y="218.9258">&#1048;&#1089;&#1087;&#1086;&#1083;&#1100;&#1079;&#1086;&#1074;&#1072;&#1090;&#1100; &#1077;&#1075;&#1086;</text><rect fill="#F1F1F1" height="50.1875" rx="12.5" ry="12.5" style="stroke:#181818;stroke-width:0.5;" width="123.6992" x="296.2134" y="196.4688"/><text fill="#000000" font-family="sans-serif" font-size="12" lengthAdjust="spacing" textLength="76.7988" x="306.2134" y="218.9258">&#1042;&#1079;&#1103;&#1090;&#1100; &#1080;&#1079; &#1087;&#1091;&#1083;&#1072;</text><text fill="#000000" font-family="sans-serif" font-size="12" lengthAdjust="spacing" textLength="103.6992" x="306.2134" y="234.0195">&#1080;&#1083;&#1080; &#1089;&#1086;&#1079;&#1076;&#1072;&#1090;&#1100; &#1085;&#1086;&#1074;&#1086;&#1077;</text><polygon fill="#F1F1F1" points="285.239,252.6563,297.239,264.6563,285.239,276.6563,273.239,264.6563,285.239,252.6563" style="stroke:#181818;stroke-width:0.5;"/><rect fill="#F1F1F1" height="50.1875" rx="12.5" ry="12.5" style="stroke:#181818;stroke-width:0.5;" width="126.5703" x="221.9539" y="296.6563"/><text fill="#000000" font-family="sans-serif" font-size="12" lengthAdjust="spacing" textLength="106.5703" x="231.9539" y="319.1133">&#1042;&#1099;&#1087;&#1086;&#1083;&#1085;&#1080;&#1090;&#1100; &#1079;&#1072;&#1087;&#1088;&#1086;&#1089;,</text><text fill="#000000" font-family="sans-serif" font-size="12" lengthAdjust="spacing" textLength="76.7695" x="231.9539" y="334.207">&#1074;&#1077;&#1088;&#1085;&#1091;&#1090;&#1100; $stmt</text><polygon fill="#F1F1F1" points="240.1272,366.8438,330.3508,366.8438,342.3508,378.8438,330.3508,390.8438,240.1272,390.8438,228.1272,378.8438,240.1272,366.8438" style="stroke:#181818;stroke-width:0.5;"/><text fill="#000000" font-family="sans-serif" font-size="11" lengthAdjust="spacing" textLength="90.2236" x="240.1272" y="383.3447">$stmt &#1091;&#1085;&#1080;&#1095;&#1090;&#1086;&#1078;&#1077;&#1085;?</text><text fill="#000000" font-family="sans-serif" font-size="11" lengthAdjust="spacing" textLength="12.5361" x="215.5911" y="376.4268">&#1076;&#1072;</text><text fill="#000000" font-family="sans-serif" font-size="11" lengthAdjust="spacing" textLength="17.2305" x="342.3508" y="376.4268">&#1085;&#1077;&#1090;</text><polygon fill="#F1F1F1" points="129.3359,400.8438,193.1768,400.8438,205.1768,414.6797,193.1768,428.5156,129.3359,428.5156,117.3359,414.6797,129.3359,400.8438" style="stroke:#181818;stroke-width:0.5;"/><text fill="#000000" font-family="sans-serif" font-size="11" lengthAdjust="spacing" textLength="47.3247" x="129.3359" y="412.2627">&#1040;&#1082;&#1090;&#1080;&#1074;&#1085;&#1072;&#1103;</text><text fill="#000000" font-family="sans-serif" font-size="11" lengthAdjust="spacing" textLength="63.8408" x="129.3359" y="426.0986">&#1090;&#1088;&#1072;&#1085;&#1079;&#1072;&#1082;&#1094;&#1080;&#1103;?</text><text fill="#000000" font-family="sans-serif" font-size="11" lengthAdjust="spacing" textLength="12.5361" x="104.7998" y="412.2627">&#1076;&#1072;</text><text fill="#000000" font-family="sans-serif" font-size="11" lengthAdjust="spacing" textLength="17.2305" x="205.1768" y="412.2627">&#1085;&#1077;&#1090;</text><rect fill="#F1F1F1" height="50.1875" rx="12.5" ry="12.5" style="stroke:#181818;stroke-width:0.5;" width="141.8691" x="11" y="438.5156"/><text fill="#000000" font-family="sans-serif" font-size="12" lengthAdjust="spacing" textLength="121.8691" x="21" y="460.9727">&#1057;&#1086;&#1077;&#1076;&#1080;&#1085;&#1077;&#1085;&#1080;&#1077; &#1086;&#1089;&#1090;&#1072;&#1105;&#1090;&#1089;&#1103;</text><text fill="#000000" font-family="sans-serif" font-size="12" lengthAdjust="spacing" textLength="72.3105" x="21" y="476.0664">&#1079;&#1072; &#1082;&#1086;&#1088;&#1091;&#1090;&#1080;&#1085;&#1086;&#1081;</text><rect fill="#F1F1F1" height="50.1875" rx="12.5" ry="12.5" style="stroke:#181818;stroke-width:0.5;" width="135.418" x="172.8691" y="438.5156"/><text fill="#000000" font-family="sans-serif" font-size="12" lengthAdjust="spacing" textLength="115.418" x="182.8691" y="460.9727">&#1042;&#1077;&#1088;&#1085;&#1091;&#1090;&#1100; &#1089;&#1086;&#1077;&#1076;&#1080;&#1085;&#1077;&#1085;&#1080;&#1077;</text><text fill="#000000" font-family="sans-serif" font-size="12" lengthAdjust="spacing" textLength="29.209" x="182.8691" y="476.0664">&#1074; &#1087;&#1091;&#1083;</text><polygon fill="#F1F1F1" points="161.2563,494.7031,173.2563,506.7031,161.2563,518.7031,149.2563,506.7031,161.2563,494.7031" style="stroke:#181818;stroke-width:0.5;"/><rect fill="#F1F1F1" height="50.1875" rx="12.5" ry="12.5" style="stroke:#181818;stroke-width:0.5;" width="141.8691" x="338.2871" y="400.8438"/><text fill="#000000" font-family="sans-serif" font-size="12" lengthAdjust="spacing" textLength="121.8691" x="348.2871" y="423.3008">&#1057;&#1086;&#1077;&#1076;&#1080;&#1085;&#1077;&#1085;&#1080;&#1077; &#1086;&#1089;&#1090;&#1072;&#1105;&#1090;&#1089;&#1103;</text><text fill="#000000" font-family="sans-serif" font-size="12" lengthAdjust="spacing" textLength="72.3105" x="348.2871" y="438.3945">&#1079;&#1072; &#1082;&#1086;&#1088;&#1091;&#1090;&#1080;&#1085;&#1086;&#1081;</text><polygon fill="#F1F1F1" points="285.239,524.7031,297.239,536.7031,285.239,548.7031,273.239,536.7031,285.239,524.7031" style="stroke:#181818;stroke-width:0.5;"/><ellipse cx="285.239" cy="579.7031" fill="none" rx="11" ry="11" style="stroke:#222222;stroke-width:1;"/><ellipse cx="285.239" cy="579.7031" fill="#222222" rx="6" ry="6" style="stroke:#222222;stroke-width:1;"/><line style="stroke:#181818;stroke-width:1;" x1="285.239" x2="285.239" y1="68.6094" y2="88.6094"/><polygon fill="#181818" points="281.239,78.6094,285.239,88.6094,289.239,78.6094,285.239,82.6094" style="stroke:#181818;stroke-width:1;"/><line style="stroke:#181818;stroke-width:1;" x1="222.415" x2="212.415" y1="172.6328" y2="172.6328"/><line style="stroke:#181818;stroke-width:1;" x1="212.415" x2="212.415" y1="172.6328" y2="196.4688"/><polygon fill="#181818" points="208.415,186.4688,212.415,196.4688,216.415,186.4688,212.415,190.4688" style="stroke:#181818;stroke-width:1;"/><line style="stroke:#181818;stroke-width:1;" x1="348.063" x2="358.063" y1="172.6328" y2="172.6328"/><line style="stroke:#181818;stroke-width:1;" x1="358.063" x2="358.063" y1="172.6328" y2="196.4688"/><polygon fill="#181818" points="354.063,186.4688,358.063,196.4688,362.063,186.4688,358.063,190.4688" style="stroke:#181818;stroke-width:1;"/><line style="stroke:#181818;stroke-width:1;" x1="212.415" x2="212.415" y1="231.5625" y2="264.6563"/><line style="stroke:#181818;stroke-width:1;" x1="212.415" x2="273.239" y1="264.6563" y2="264.6563"/><polygon fill="#181818" points="263.239,260.6563,273.239,264.6563,263.239,268.6563,267.239,264.6563" style="stroke:#181818;stroke-width:1;"/><line style="stroke:#181818;stroke-width:1;" x1="358.063" x2="358.063" y1="246.6563" y2="264.6563"/><line style="stroke:#181818;stroke-width:1;" x1="358.063" x2="297.239" y1="264.6563" y2="264.6563"/><polygon fill="#181818" points="307.239,260.6563,297.239,264.6563,307.239,268.6563,303.239,264.6563" style="stroke:#181818;stroke-width:1;"/><line style="stroke:#181818;stroke-width:1;" x1="285.239" x2="285.239" y1="138.7969" y2="158.7969"/><polygon fill="#181818" points="281.239,148.7969,285.239,158.7969,289.239,148.7969,285.239,152.7969" style="stroke:#181818;stroke-width:1;"/><line style="stroke:#181818;stroke-width:1;" x1="285.239" x2="285.239" y1="276.6563" y2="296.6563"/><polygon fill="#181818" points="281.239,286.6563,285.239,296.6563,289.239,286.6563,285.239,290.6563" style="stroke:#181818;stroke-width:1;"/><line style="stroke:#181818;stroke-width:1;" x1="117.3359" x2="81.9346" y1="414.6797" y2="414.6797"/><line style="stroke:#181818;stroke-width:1;" x1="81.9346" x2="81.9346" y1="414.6797" y2="438.5156"/><polygon fill="#181818" points="77.9346,428.5156,81.9346,438.5156,85.9346,428.5156,81.9346,432.5156" style="stroke:#181818;stroke-width:1;"/><line style="stroke:#181818;stroke-width:1;" x1="205.1768" x2="240.5781" y1="414.6797" y2="414.6797"/><line style="stroke:#181818;stroke-width:1;" x1="240.5781" x2="240.5781" y1="414.6797" y2="438.5156"/><polygon fill="#181818" points="236.5781,428.5156,240.5781,438.5156,244.5781,428.5156,240.5781,432.5156" style="stroke:#181818;stroke-width:1;"/><line style="stroke:#181818;stroke-width:1;" x1="81.9346" x2="81.9346" y1="488.7031" y2="506.7031"/><line style="stroke:#181818;stroke-width:1;" x1="81.9346" x2="149.2563" y1="506.7031" y2="506.7031"/><polygon fill="#181818" points="139.2563,502.7031,149.2563,506.7031,139.2563,510.7031,143.2563,506.7031" style="stroke:#181818;stroke-width:1;"/><line style="stroke:#181818;stroke-width:1;" x1="240.5781" x2="240.5781" y1="488.7031" y2="506.7031"/><line style="stroke:#181818;stroke-width:1;" x1="240.5781" x2="173.2563" y1="506.7031" y2="506.7031"/><polygon fill="#181818" points="183.2563,502.7031,173.2563,506.7031,183.2563,510.7031,179.2563,506.7031" style="stroke:#181818;stroke-width:1;"/><line style="stroke:#181818;stroke-width:1;" x1="228.1272" x2="161.2563" y1="378.8438" y2="378.8438"/><line style="stroke:#181818;stroke-width:1;" x1="161.2563" x2="161.2563" y1="378.8438" y2="400.8438"/><polygon fill="#181818" points="157.2563,390.8438,161.2563,400.8438,165.2563,390.8438,161.2563,394.8438" style="stroke:#181818;stroke-width:1;"/><line style="stroke:#181818;stroke-width:1;" x1="342.3508" x2="409.2217" y1="378.8438" y2="378.8438"/><line style="stroke:#181818;stroke-width:1;" x1="409.2217" x2="409.2217" y1="378.8438" y2="400.8438"/><polygon fill="#181818" points="405.2217,390.8438,409.2217,400.8438,413.2217,390.8438,409.2217,394.8438" style="stroke:#181818;stroke-width:1;"/><line style="stroke:#181818;stroke-width:1;" x1="161.2563" x2="161.2563" y1="518.7031" y2="536.7031"/><line style="stroke:#181818;stroke-width:1;" x1="161.2563" x2="273.239" y1="536.7031" y2="536.7031"/><polygon fill="#181818" points="263.239,532.7031,273.239,536.7031,263.239,540.7031,267.239,536.7031" style="stroke:#181818;stroke-width:1;"/><line style="stroke:#181818;stroke-width:1;" x1="409.2217" x2="409.2217" y1="451.0313" y2="536.7031"/><line style="stroke:#181818;stroke-width:1;" x1="409.2217" x2="297.239" y1="536.7031" y2="536.7031"/><polygon fill="#181818" points="307.239,532.7031,297.239,536.7031,307.239,540.7031,303.239,536.7031" style="stroke:#181818;stroke-width:1;"/><line style="stroke:#181818;stroke-width:1;" x1="285.239" x2="285.239" y1="346.8438" y2="366.8438"/><polygon fill="#181818" points="281.239,356.8438,285.239,366.8438,289.239,356.8438,285.239,360.8438" style="stroke:#181818;stroke-width:1;"/><line style="stroke:#181818;stroke-width:1;" x1="285.239" x2="285.239" y1="548.7031" y2="568.7031"/><polygon fill="#181818" points="281.239,558.7031,285.239,568.7031,289.239,558.7031,285.239,562.7031" style="stroke:#181818;stroke-width:1;"/><!--SRC=[fL9DJi905DxFAMR10XAz02Hw4JOcb4Y21UcuSDT2eWimLHADSUSDcafjfMcvmditufjNcX2fAvjCsfbvx_jxDICpTZIzKKOf5PHW5Roa7yqFEDfIhZcW4kSRRAlxZ4DDiQOTBoYdH2dFNCsCKbtwe99zNl1SQYDK0Ih5YYcYXETzjpKTJCulRk-SsNsxqrDgDDHjUkM0vxngOAAaxsAVWv6V05j264GTiV3oigFDjUC2PqDHHsayNNe7rWxbEQ_WgxG2X0AmNrJsb3Fs77GKLbNTiuRKiAf26BM_20eolBDANcfPgg92SA4OSEvWDBG9h65MU2KdAKlXVSS-H0Tdm8f1wKFtGcvRdhanXnpaMuFKjZwAssyRGuD1YUsPjf91RBFciEy2qGTP8PHREq0E6vehjv-dMMkh4P0Hlm0gi90MwbVYTWWz0JeDiGxosE8VKwr_e0EK1DWqbN_gF4p6CvEfsWC0]--></g></svg>