<svg xmlns="http://www.w3.org/2000/svg" xmlns:xlink="http://www.w3.org/1999/xlink" contentStyleType="text/css" height="1034px" preserveAspectRatio="none" style="width:464px;height:1034px;background:#FFFFFF;" version="1.1" viewBox="0 0 464 1034" width="464px" zoomAndPan="magnify"><title>release() &#8212; Algoritmo Interno</title><defs/><g><text fill="#000000" font-family="sans-serif" font-size="14" font-weight="bold" lengthAdjust="spacing" textLength="200.3682" x="130.5625" y="34.5332">release() &#8212; Algoritmo Interno</text><ellipse cx="232.4077" cy="58.6094" fill="#222222" rx="10" ry="10" style="stroke:#222222;stroke-width:1;"/><rect fill="#F1F1F1" height="35.0938" rx="12.5" ry="12.5" style="stroke:#181818;stroke-width:0.5;" width="243.4707" x="110.6724" y="88.6094"/><text fill="#000000" font-family="sans-serif" font-size="12" lengthAdjust="spacing" textLength="223.4707" x="120.6724" y="111.0664">zend_async_pool_release(pool, resource)</text><rect fill="#F1F1F1" height="35.0938" rx="12.5" ry="12.5" style="stroke:#181818;stroke-width:0.5;" width="95.3691" x="184.7231" y="143.7031"/><text fill="#000000" font-family="sans-serif" font-size="12" lengthAdjust="spacing" textLength="75.3691" x="194.7231" y="166.1602">active_count--</text><rect fill="#F1F1F1" height="50.1875" rx="12.5" ry="12.5" style="stroke:#181818;stroke-width:0.5;" width="109.3613" x="177.7271" y="303.9766"/><text fill="#000000" font-family="sans-serif" font-size="12" lengthAdjust="spacing" textLength="76.0195" x="187.7271" y="326.4336">reportFailure()</text><text fill="#000000" font-family="sans-serif" font-size="12" lengthAdjust="spacing" textLength="89.3613" x="187.7271" y="341.5273">al CircuitBreaker</text><rect fill="#F1F1F1" height="50.1875" rx="12.5" ry="12.5" style="stroke:#181818;stroke-width:0.5;" width="111.3652" x="176.7251" y="374.918"/><text fill="#000000" font-family="sans-serif" font-size="12" lengthAdjust="spacing" textLength="91.3652" x="186.7251" y="397.375">Distruggi risorsa</text><text fill="#000000" font-family="sans-serif" font-size="12" lengthAdjust="spacing" textLength="61.3477" x="186.7251" y="412.4688">(distruttore)</text><ellipse cx="232.4077" cy="456.1055" fill="none" rx="11" ry="11" style="stroke:#222222;stroke-width:1;"/><ellipse cx="232.4077" cy="456.1055" fill="#222222" rx="6" ry="6" style="stroke:#222222;stroke-width:1;"/><polygon fill="#F1F1F1" points="196.6335,251.3867,268.1819,251.3867,280.1819,265.2227,268.1819,279.0586,196.6335,279.0586,184.6335,265.2227,196.6335,251.3867" style="stroke:#181818;stroke-width:0.5;"/><text fill="#000000" font-family="sans-serif" font-size="11" lengthAdjust="spacing" textLength="12.2354" x="236.4077" y="290.4775">no</text><text fill="#000000" font-family="sans-serif" font-size="11" lengthAdjust="spacing" textLength="71.5483" x="196.6335" y="262.8057">beforeRelease</text><text fill="#000000" font-family="sans-serif" font-size="11" lengthAdjust="spacing" textLength="69.0991" x="196.6335" y="276.6416">ha restituito true?</text><text fill="#000000" font-family="sans-serif" font-size="11" lengthAdjust="spacing" textLength="17.1177" x="280.1819" y="262.8057">s&#236;</text><polygon fill="#F1F1F1" points="196.6335,198.7969,268.1819,198.7969,280.1819,212.6328,268.1819,226.4688,196.6335,226.4688,184.6335,212.6328,196.6335,198.7969" style="stroke:#181818;stroke-width:0.5;"/><text fill="#000000" font-family="sans-serif" font-size="11" lengthAdjust="spacing" textLength="17.1177" x="236.4077" y="237.8877">s&#236;</text><text fill="#000000" font-family="sans-serif" font-size="11" lengthAdjust="spacing" textLength="71.5483" x="196.6335" y="210.2158">beforeRelease</text><text fill="#000000" font-family="sans-serif" font-size="11" lengthAdjust="spacing" textLength="20.7915" x="196.6335" y="224.0518">impostato?</text><polygon fill="#F1F1F1" points="232.4077,509.1055,244.4077,521.1055,232.4077,533.1055,220.4077,521.1055,232.4077,509.1055" style="stroke:#181818;stroke-width:0.5;"/><rect fill="#F1F1F1" height="50.1875" rx="12.5" ry="12.5" style="stroke:#181818;stroke-width:0.5;" width="109.3613" x="177.7271" y="553.1055"/><text fill="#000000" font-family="sans-serif" font-size="12" lengthAdjust="spacing" textLength="84.6914" x="187.7271" y="575.5625">reportSuccess()</text><text fill="#000000" font-family="sans-serif" font-size="12" lengthAdjust="spacing" textLength="89.3613" x="187.7271" y="590.6563">al CircuitBreaker</text><rect fill="#F1F1F1" height="35.0938" rx="12.5" ry="12.5" style="stroke:#181818;stroke-width:0.5;" width="111.3652" x="176.7251" y="672.2109"/><text fill="#000000" font-family="sans-serif" font-size="12" lengthAdjust="spacing" textLength="91.3652" x="186.7251" y="694.668">Distruggi risorsa</text><ellipse cx="232.4077" cy="746.2578" fill="none" rx="11" ry="11" style="stroke:#222222;stroke-width:1;"/><ellipse cx="232.4077" cy="746.2578" fill="#222222" rx="6" ry="6" style="stroke:#222222;stroke-width:1;"/><polygon fill="#F1F1F1" points="200.9143,623.293,263.9011,623.293,275.9011,635.293,263.9011,647.293,200.9143,647.293,188.9143,635.293,200.9143,623.293" style="stroke:#181818;stroke-width:0.5;"/><text fill="#000000" font-family="sans-serif" font-size="11" lengthAdjust="spacing" textLength="17.1177" x="236.4077" y="658.7119">s&#236;</text><text fill="#000000" font-family="sans-serif" font-size="11" lengthAdjust="spacing" textLength="62.9868" x="200.9143" y="639.7939">Pool chiuso?</text><polygon fill="#F1F1F1" points="187.1643,799.2578,277.6511,799.2578,289.6511,813.0938,277.6511,826.9297,187.1643,826.9297,175.1643,813.0938,187.1643,799.2578" style="stroke:#181818;stroke-width:0.5;"/><text fill="#000000" font-family="sans-serif" font-size="11" lengthAdjust="spacing" textLength="90.4868" x="187.1643" y="810.6768">Coroutine in attesa</text><text fill="#000000" font-family="sans-serif" font-size="11" lengthAdjust="spacing" textLength="28.7354" x="187.1643" y="824.5127">esistono?</text><text fill="#000000" font-family="sans-serif" font-size="11" lengthAdjust="spacing" textLength="17.1177" x="158.0466" y="810.6768">s&#236;</text><text fill="#000000" font-family="sans-serif" font-size="11" lengthAdjust="spacing" textLength="12.2354" x="289.6511" y="810.6768">no</text><rect fill="#F1F1F1" height="50.1875" rx="12.5" ry="12.5" style="stroke:#181818;stroke-width:0.5;" width="100.0391" x="23.999" y="836.9297"/><text fill="#000000" font-family="sans-serif" font-size="12" lengthAdjust="spacing" textLength="80.0391" x="33.999" y="859.3867">Inserisci risorsa</text><text fill="#000000" font-family="sans-serif" font-size="12" lengthAdjust="spacing" textLength="65.373" x="33.999" y="874.4805">nel buffer idle</text><path d="M157.0371,922.1172 L157.0371,947.6445 L137.0371,951.6445 L157.0371,955.6445 L157.0371,981.1719 A0,0 0 0 0 157.0371,981.1719 L308.1006,981.1719 A0,0 0 0 0 308.1006,981.1719 L308.1006,932.1172 L298.1006,922.1172 L157.0371,922.1172 A0,0 0 0 0 157.0371,922.1172 " fill="#FEFFDD" style="stroke:#181818;stroke-width:0.5;"/><path d="M298.1006,922.1172 L298.1006,932.1172 L308.1006,932.1172 L298.1006,922.1172 " fill="#FEFFDD" style="stroke:#181818;stroke-width:0.5;"/><text fill="#000000" font-family="sans-serif" font-size="13" lengthAdjust="spacing" textLength="130.0635" x="163.0371" y="940.6123">La coroutine si risveglier&#224;</text><text fill="#000000" font-family="sans-serif" font-size="13" lengthAdjust="spacing" textLength="125.7471" x="163.0371" y="956.9639">e prender&#224; la risorsa</text><text fill="#000000" font-family="sans-serif" font-size="13" lengthAdjust="spacing" textLength="114.8672" x="163.0371" y="973.3154">tramite retry in acquire()</text><rect fill="#F1F1F1" height="50.1875" rx="12.5" ry="12.5" style="stroke:#181818;stroke-width:0.5;" width="126.0371" x="11" y="926.5508"/><text fill="#000000" font-family="sans-serif" font-size="12" lengthAdjust="spacing" textLength="106.0371" x="21" y="949.0078">Risveglia la prima coroutine</text><text fill="#000000" font-family="sans-serif" font-size="12" lengthAdjust="spacing" textLength="60.7031" x="21" y="964.1016">dalla coda</text><ellipse cx="74.0186" cy="1012.1719" fill="none" rx="11" ry="11" style="stroke:#222222;stroke-width:1;"/><ellipse cx="74.0186" cy="1012.1719" fill="#222222" rx="6" ry="6" style="stroke:#222222;stroke-width:1;"/><rect fill="#F1F1F1" height="35.0938" rx="12.5" ry="12.5" style="stroke:#181818;stroke-width:0.5;" width="125.3926" x="328.1006" y="836.9297"/><text fill="#000000" font-family="sans-serif" font-size="12" lengthAdjust="spacing" textLength="105.3926" x="338.1006" y="859.3867">Restituisci al buffer idle</text><ellipse cx="390.7969" cy="918.0234" fill="none" rx="11" ry="11" style="stroke:#222222;stroke-width:1;"/><ellipse cx="390.7969" cy="918.0234" fill="#222222" rx="6" ry="6" style="stroke:#222222;stroke-width:1;"/><line style="stroke:#181818;stroke-width:1;" x1="232.4077" x2="232.4077" y1="68.6094" y2="88.6094"/><polygon fill="#181818" points="228.4077,78.6094,232.4077,88.6094,236.4077,78.6094,232.4077,82.6094" style="stroke:#181818;stroke-width:1;"/><line style="stroke:#181818;stroke-width:1;" x1="232.4077" x2="232.4077" y1="123.7031" y2="143.7031"/><polygon fill="#181818" points="228.4077,133.7031,232.4077,143.7031,236.4077,133.7031,232.4077,137.7031" style="stroke:#181818;stroke-width:1;"/><line style="stroke:#181818;stroke-width:1;" x1="232.4077" x2="232.4077" y1="354.1641" y2="374.918"/><polygon fill="#181818" points="228.4077,364.918,232.4077,374.918,236.4077,364.918,232.4077,368.918" style="stroke:#181818;stroke-width:1;"/><line style="stroke:#181818;stroke-width:1;" x1="232.4077" x2="232.4077" y1="425.1055" y2="445.1055"/><polygon fill="#181818" points="228.4077,435.1055,232.4077,445.1055,236.4077,435.1055,232.4077,439.1055" style="stroke:#181818;stroke-width:1;"/><line style="stroke:#181818;stroke-width:1;" x1="232.4077" x2="232.4077" y1="279.0586" y2="303.9766"/><polygon fill="#181818" points="228.4077,293.9766,232.4077,303.9766,236.4077,293.9766,232.4077,297.9766" style="stroke:#181818;stroke-width:1;"/><line style="stroke:#181818;stroke-width:1;" x1="280.1819" x2="298.0903" y1="265.2227" y2="265.2227"/><polygon fill="#181818" points="294.0903,372,298.0903,382,302.0903,372,298.0903,376" style="stroke:#181818;stroke-width:1;"/><line style="stroke:#181818;stroke-width:1;" x1="298.0903" x2="298.0903" y1="265.2227" y2="489.1055"/><line style="stroke:#181818;stroke-width:1;" x1="298.0903" x2="232.4077" y1="489.1055" y2="489.1055"/><line style="stroke:#181818;stroke-width:1;" x1="232.4077" x2="232.4077" y1="489.1055" y2="509.1055"/><polygon fill="#181818" points="228.4077,499.1055,232.4077,509.1055,236.4077,499.1055,232.4077,503.1055" style="stroke:#181818;stroke-width:1;"/><line style="stroke:#181818;stroke-width:1;" x1="232.4077" x2="232.4077" y1="226.4688" y2="251.3867"/><polygon fill="#181818" points="228.4077,241.3867,232.4077,251.3867,236.4077,241.3867,232.4077,245.3867" style="stroke:#181818;stroke-width:1;"/><line style="stroke:#181818;stroke-width:1;" x1="280.1819" x2="320.0903" y1="212.6328" y2="212.6328"/><polygon fill="#181818" points="316.0903,364.1641,320.0903,374.1641,324.0903,364.1641,320.0903,368.1641" style="stroke:#181818;stroke-width:1;"/><line style="stroke:#181818;stroke-width:1;" x1="320.0903" x2="320.0903" y1="212.6328" y2="521.1055"/><line style="stroke:#181818;stroke-width:1;" x1="320.0903" x2="244.4077" y1="521.1055" y2="521.1055"/><polygon fill="#181818" points="254.4077,517.1055,244.4077,521.1055,254.4077,525.1055,250.4077,521.1055" style="stroke:#181818;stroke-width:1;"/><line style="stroke:#181818;stroke-width:1;" x1="232.4077" x2="232.4077" y1="178.7969" y2="198.7969"/><polygon fill="#181818" points="228.4077,188.7969,232.4077,198.7969,236.4077,188.7969,232.4077,192.7969" style="stroke:#181818;stroke-width:1;"/><line style="stroke:#181818;stroke-width:1;" x1="232.4077" x2="232.4077" y1="533.1055" y2="553.1055"/><polygon fill="#181818" points="228.4077,543.1055,232.4077,553.1055,236.4077,543.1055,232.4077,547.1055" style="stroke:#181818;stroke-width:1;"/><line style="stroke:#181818;stroke-width:1;" x1="232.4077" x2="232.4077" y1="707.3047" y2="735.2578"/><polygon fill="#181818" points="228.4077,725.2578,232.4077,735.2578,236.4077,725.2578,232.4077,729.2578" style="stroke:#181818;stroke-width:1;"/><line style="stroke:#181818;stroke-width:1;" x1="232.4077" x2="232.4077" y1="647.293" y2="672.2109"/><polygon fill="#181818" points="228.4077,662.2109,232.4077,672.2109,236.4077,662.2109,232.4077,666.2109" style="stroke:#181818;stroke-width:1;"/><line style="stroke:#181818;stroke-width:1;" x1="275.9011" x2="298.0903" y1="635.293" y2="635.293"/><polygon fill="#181818" points="294.0903,705.2578,298.0903,715.2578,302.0903,705.2578,298.0903,709.2578" style="stroke:#181818;stroke-width:1;"/><line style="stroke:#181818;stroke-width:1;" x1="298.0903" x2="298.0903" y1="635.293" y2="779.2578"/><line style="stroke:#181818;stroke-width:1;" x1="298.0903" x2="232.4077" y1="779.2578" y2="779.2578"/><line style="stroke:#181818;stroke-width:1;" x1="232.4077" x2="232.4077" y1="779.2578" y2="799.2578"/><polygon fill="#181818" points="228.4077,789.2578,232.4077,799.2578,236.4077,789.2578,232.4077,793.2578" style="stroke:#181818;stroke-width:1;"/><line style="stroke:#181818;stroke-width:1;" x1="232.4077" x2="232.4077" y1="603.293" y2="623.293"/><polygon fill="#181818" points="228.4077,613.293,232.4077,623.293,236.4077,613.293,232.4077,617.293" style="stroke:#181818;stroke-width:1;"/><line style="stroke:#181818;stroke-width:1;" x1="74.0186" x2="74.0186" y1="887.1172" y2="926.5508"/><polygon fill="#181818" points="70.0186,916.5508,74.0186,926.5508,78.0186,916.5508,74.0186,920.5508" style="stroke:#181818;stroke-width:1;"/><line style="stroke:#181818;stroke-width:1;" x1="74.0186" x2="74.0186" y1="976.7383" y2="1001.1719"/><polygon fill="#181818" points="70.0186,991.1719,74.0186,1001.1719,78.0186,991.1719,74.0186,995.1719" style="stroke:#181818;stroke-width:1;"/><line style="stroke:#181818;stroke-width:1;" x1="390.7969" x2="390.7969" y1="872.0234" y2="907.0234"/><polygon fill="#181818" points="386.7969,897.0234,390.7969,907.0234,394.7969,897.0234,390.7969,901.0234" style="stroke:#181818;stroke-width:1;"/><line style="stroke:#181818;stroke-width:1;" x1="175.1643" x2="74.0186" y1="813.0938" y2="813.0938"/><line style="stroke:#181818;stroke-width:1;" x1="74.0186" x2="74.0186" y1="813.0938" y2="836.9297"/><polygon fill="#181818" points="70.0186,826.9297,74.0186,836.9297,78.0186,826.9297,74.0186,830.9297" style="stroke:#181818;stroke-width:1;"/><line style="stroke:#181818;stroke-width:1;" x1="289.6511" x2="390.7969" y1="813.0938" y2="813.0938"/><line style="stroke:#181818;stroke-width:1;" x1="390.7969" x2="390.7969" y1="813.0938" y2="836.9297"/><polygon fill="#181818" points="386.7969,826.9297,390.7969,836.9297,394.7969,826.9297,390.7969,830.9297" style="stroke:#181818;stroke-width:1;"/></g></svg>